<?xml version="1.0" encoding="utf-8"?>
<!-- Generator: Adobe Illustrator 23.0.5, SVG Export Plug-In . SVG Version: 6.00 Build 0)  -->
<svg version="1.1" id="Layer_1" xmlns="http://www.w3.org/2000/svg" xmlns:xlink="http://www.w3.org/1999/xlink" x="0px" y="0px"
	 viewBox="0 0 1179 709.9" style="enable-background:new 0 0 1179 709.9;" xml:space="preserve">
<style type="text/css">
	.st0{fill:#3D88D7;}
	.st1{fill:#72C7F2;}
	.st2{fill:#436F96;}
	.st3{fill:#31506C;}
	.st4{fill:#6E9CCE;}
	.st5{fill:#3376BC;}
	.st6{fill:#006837;}
	.st7{fill:#5B304C;}
	.st8{fill:#009245;}
	.st9{fill:#754C24;}
	.st10{fill:#34B226;}
	.st11{fill:#EDE606;}
	.st12{fill:#1F2B55;}
	.st13{fill:#F2D75F;}
	.st14{fill:#F5F8AC;}
	.st15{fill:url(#SVGID_1_);}
	.st16{fill:#9E4A04;}
	.st17{fill:#515153;}
	.st18{fill:url(#SVGID_2_);}
	.st19{fill:#4A5177;}
	.st20{fill:#3F6050;}
	.st21{fill:#4C6443;}
	.st22{fill:#69738B;}
	.st23{fill:#6F4D38;}
	.st24{fill:#465081;}
	.st25{fill:#D85C79;}
	.st26{fill:#FBBC8D;}
	.st27{fill:#6C4F3E;}
	.st28{fill:#434E81;}
	.st29{fill:#49507C;}
	.st30{fill:#F0BE9B;}
	.st31{fill:#F9BB8F;}
	.st32{fill:#675347;}
	.st33{fill:#C05F72;}
	.st34{fill:#CA95A4;}
	.st35{fill:#E3C09B;}
	.st36{fill:#DBB9A4;}
	.st37{fill:#C9AD9C;}
	.st38{fill:#2F636F;}
	.st39{fill:#886C73;}
	.st40{fill:#2B6573;}
	.st41{fill:#3E6C44;}
	.st42{fill:#C8CD90;}
	.st43{fill:#3B6344;}
	.st44{fill:#4A6749;}
	.st45{fill:#F5BB8E;}
	.st46{fill:#455280;}
	.st47{fill:#F0BC95;}
	.st48{fill:#774032;}
	.st49{fill:#A7B564;}
	.st50{fill:#D45F79;}
	.st51{fill:#346272;}
	.st52{fill:#B85166;}
	.st53{fill:#B97852;}
	.st54{fill:#B87B5B;}
	.st55{fill:#604E19;}
	.st56{fill:#29737B;}
	.st57{fill:#C58A71;}
	.st58{fill:#47517F;}
	.st59{fill:#AEACA8;}
	.st60{fill:#FABC8A;}
	.st61{fill:#286276;}
	.st62{fill:#2C6575;}
	.st63{fill:#2C656E;}
	.st64{fill:#2A626F;}
	.st65{fill:#306A6B;}
	.st66{fill:#FDA33A;}
	.st67{fill:#B5ABB3;}
	.st68{fill:#594F65;}
	.st69{fill:#B75167;}
	.st70{fill:#B75568;}
	.st71{fill:#535A7E;}
	.st72{fill:#B9BDC1;}
	.st73{fill:#FCB78F;}
	.st74{fill:#E07D92;}
	.st75{fill:#828282;}
	.st76{fill:#999999;}
	.st77{fill:#BFBED0;}
	.st78{fill:#959CAE;}
	.st79{fill:#524F64;}
	.st80{fill:#187E7C;}
	.st81{fill:#6F829B;}
	.st82{fill:#1A3641;}
	.st83{fill:#5A626F;}
	.st84{fill:#868E9D;}
	.st85{fill:#CFCDDB;}
	.st86{fill:#1D2A3A;}
	.st87{fill:#6D7487;}
	.st88{fill:#F46461;}
	.st89{fill:#D73C2D;}
	.st90{fill:#4B5063;}
	.st91{fill:#F5C3A2;}
	.st92{fill:#323232;}
	.st93{fill:#4D5162;}
	.st94{fill:#9B9CBB;}
	.st95{fill:#9C9CBB;}
	.st96{fill:#FBFBFA;}
	.st97{fill:#9C9DBB;}
	.st98{fill:#201E23;}
	.st99{fill:#502519;}
	.st100{fill:#C22B1D;}
	.st101{fill:#0B0505;}
	.st102{fill:#E3E5E4;}
	.st103{fill:#EEE08A;}
	.st104{fill:#C89666;}
	.st105{fill:#F05A29;}
	.st106{fill:#C79A6A;}
	.st107{fill:#EFDB8B;}
	.st108{fill:#C79666;}
	.st109{fill:#EA5C2E;}
	.st110{fill:#EEE98C;}
	.st111{fill:#FCFCCC;}
	.st112{fill:#424244;}
	.st113{fill:#433F38;}
	.st114{fill:#FBFCCD;}
	.st115{fill:#31302D;}
	.st116{fill:#D88C7A;}
	.st117{fill:#F19B80;}
	.st118{fill:#0A8157;}
	.st119{fill:#EEE6D0;}
	.st120{fill:#FBFBCB;}
	.st121{fill:#C59669;}
	.st122{fill:#3A3B39;}
	.st123{fill:#EBE88F;}
	.st124{fill:#098355;}
	.st125{fill:#EAE78E;}
	.st126{fill:#C15203;}
	.st127{fill:#423930;}
	.st128{fill:#C4976B;}
	.st129{fill:#F39072;}
	.st130{fill:#F7FCCD;}
	.st131{fill:#C45108;}
	.st132{fill:#0C8155;}
	.st133{fill:#DFE38F;}
	.st134{fill:#E7E591;}
	.st135{fill:#108157;}
	.st136{fill:#0F8156;}
	.st137{fill:#E6E793;}
	.st138{fill:#E6E792;}
	.st139{fill:#357C56;}
	.st140{fill:#F2EFD3;}
	.st141{fill:#E8E790;}
	.st142{fill:#E7E791;}
	.st143{fill:#0E8255;}
	.st144{fill:#108156;}
	.st145{fill:#0A7F55;}
	.st146{fill:#108056;}
	.st147{fill:#2D8A62;}
	.st148{fill:#B69A66;}
	.st149{fill:#AF8E5A;}
	.st150{fill:#B18E5C;}
	.st151{fill:#FCFCCD;}
	.st152{fill:#D75F38;}
	.st153{fill:#C57647;}
	.st154{fill:#FDCE3D;}
	.st155{fill:#443E35;}
	.st156{fill:#434B41;}
	.st157{fill:#CC5C36;}
	.st158{fill:#247C51;}
	.st159{fill:#F9C251;}
	.st160{fill:#B3804C;}
	.st161{fill:#B8761B;}
	.st162{fill:#AF7C49;}
	.st163{fill:#EE5F26;}
	.st164{fill:#EE5F27;}
	.st165{fill:#EE5E27;}
	.st166{fill:#EE5E25;}
	.st167{fill:#5C7F24;}
	.st168{fill:#5F882B;}
	.st169{fill:#59882F;}
	.st170{fill:#F2C852;}
	.st171{fill:#B98651;}
	.st172{fill:#BB781F;}
	.st173{fill:#AC7945;}
	.st174{fill:#DC651B;}
	.st175{fill:#CC6917;}
	.st176{fill:#F7C355;}
	.st177{fill:#B3804B;}
	.st178{fill:#AE7946;}
	.st179{fill:#CA6C23;}
	.st180{fill:#C19832;}
	.st181{fill:#B89626;}
	.st182{fill:#E36F22;}
	.st183{fill:#BA761F;}
</style>
<title>Asset 2</title>
<g id="Layer_2_1_">
	<g id="Bench">
		<path class="st0" d="M160.5,403.5c0.8,0,1.5-0.7,1.5-1.5s-0.7-1.5-1.5-1.5s-1.5,0.7-1.5,1.5S159.7,403.5,160.5,403.5z"/>
		<rect x="0.6" class="st1" width="1178.4" height="709.9"/>
		<rect x="0.6" y="601.5" class="st2" width="1178.4" height="13.7"/>
		<rect x="0.6" y="615" class="st3" width="1178.4" height="48.5"/>
		<rect x="0.6" y="663.5" class="st4" width="1178.4" height="46.4"/>
		<rect x="772.6" y="530.1" class="st5" width="84" height="71.4"/>
		<rect x="734.2" y="511.8" class="st5" width="38.4" height="89.6"/>
		<rect x="686.7" y="524.5" class="st5" width="47.5" height="76.9"/>
		<rect x="1066.3" y="545" class="st5" width="38.4" height="55.8"/>
		<rect x="1104.7" y="526.1" class="st5" width="74.3" height="76.9"/>
		<rect y="524.5" class="st5" width="80.1" height="76.9"/>
		<rect x="597.5" y="542.2" class="st0" width="89.2" height="59.2"/>
		<rect x="579.3" y="524.3" class="st0" width="18.2" height="77.1"/>
		<rect x="531.8" y="494.7" class="st0" width="47.5" height="106.7"/>
		<rect x="486.4" y="524.3" class="st5" width="45.4" height="77.1"/>
		<rect x="359.4" y="524.3" class="st5" width="54" height="77.8"/>
		<rect x="190.8" y="524" class="st5" width="54" height="77.8"/>
		<rect x="128.7" y="548.1" class="st5" width="62.1" height="54"/>
		<rect x="413.4" y="487.4" class="st0" width="72.9" height="114.1"/>
		<rect x="244.8" y="473" class="st0" width="114.5" height="128.3"/>
		<rect x="899.8" y="524" class="st5" width="54" height="77.8"/>
		<rect x="837.7" y="548.1" class="st5" width="62.1" height="54"/>
		<rect x="953.8" y="473" class="st0" width="114.5" height="128.3"/>
		<rect x="80.1" y="492.5" class="st0" width="48.6" height="109.6"/>
		<rect x="852" y="499.3" class="st0" width="49.5" height="102.2"/>
		<path class="st6" d="M530.7,486.8c2,6.1,0.2,11.6-3.2,15c-2.4,2.4-7.8,3.6-13.7,3.1c-3.6,11.3-17.8,19.7-34.7,19.7
			c-12.4,0-23.3-4.5-29.7-11.3c-6.4,6.8-17.3,11.3-29.7,11.3c-19.6,0-35.6-11.3-35.6-25.3V499c-3.7,0.3-7.5-0.8-10.4-3.2
			c-5.1-4.5-5.9-12.4-2.8-20.4c-4.8-5.4-7.6-11.7-7.6-18.5c0-10.6,6.8-20.2,17.5-26.6c-6-8.4-9.1-18.3-9.1-27
			c0-15.3,14-28.3,33.5-33.1c8.5-11,25.1-18.4,44.2-18.4c17.1,0,32.1,6,41.2,15.1c4.4-1.7,9.8-1.8,12-1c2.1,0.8,5.4,4.4,7.4,8.6
			c15.5,6.5,24.4,20.5,24.4,34.5c0,6.2-2.3,13.6-6.4,20.8c11.6,3.1,20.2,14,20.2,27C548.4,468.9,541,481.8,530.7,486.8z"/>
		<path class="st7" d="M455.9,512.9c0,0,0.5,135.1,3.4,136.4c0,0-8.2,3.7-15.6,0l2.1-137.5L455.9,512.9z"/>
		<path class="st8" d="M978.7,369.3c2.1,6.3,0.2,12-3.3,15.5c-2.5,2.5-8,3.7-14.2,3.2c-3.7,11.6-18.3,20.3-35.8,20.3
			c-12.8,0-24.1-4.6-30.7-11.7c-6.6,7.1-17.8,11.7-30.7,11.7c-20.3,0-36.7-11.7-36.7-26.1v-0.3c-3.9,0.4-7.7-0.8-10.7-3.3
			c-5.3-4.6-6.1-12.8-2.9-21c-4.9-5.5-7.8-12.1-7.8-19.1c0-11,7-20.9,18.1-27.5c-6.2-8.6-9.4-18.9-9.4-27.9
			c0-15.8,14.5-29.2,34.7-34.2c8.7-11.3,25.9-19,45.6-19c17.6,0,33.2,6.1,42.5,15.6c4.6-1.8,10.1-1.9,12.4-1
			c2.1,0.8,5.5,4.5,7.7,8.9c16,6.7,25.2,21.1,25.2,35.7c0,6.4-2.4,14.1-6.6,21.5c12,3.2,20.9,14.5,20.9,27.9
			C997,350.9,989.3,364.2,978.7,369.3z"/>
		<path class="st9" d="M897.8,397.7c0,0,0.8,232.5,5.8,234.8c0,0-14.1,6.4-26.8,0l3.6-236.6L897.8,397.7z"/>
		<path class="st10" d="M549.1,643.9c-0.1,1.2-0.9,2.3-2,2.7c-1.1,0.2-2.2,0-3.1-0.6c-1.8,2-5.4,2.4-8.8,0.8c-2.3-0.9-4.1-2.7-5-5
			c-2.3,0.8-4.8,0.7-7-0.4c-4-1.8-6.2-5.5-4.9-8.4l0,0c-0.8-0.3-1.4-0.9-1.8-1.6c-0.6-1.4-0.1-3,1.3-4.4c-0.5-1.5-0.4-3,0.2-4.4
			c1-2.2,3.2-3.5,6-3.8c-0.4-2.1-0.2-4.3,0.6-6.3c1.4-3.1,5.4-4.4,9.8-3.6c2.7-1.4,6.8-1.4,10.6,0.3c3.1,1.3,5.6,3.7,7,6.8
			c0.9,0,1.8,0.4,2.5,0.9c0.5,0.7,0.7,1.6,0.7,2.4c2.4,2.4,3.1,6.1,1.8,9.2c-0.7,1.5-1.9,2.7-3.2,3.6c2.1,1.8,2.8,4.8,1.6,7.3
			C554.3,642,551.8,643.6,549.1,643.9z"/>
		<path class="st10" d="M566.7,646.7c-0.5,1.1-1.7,1.8-2.9,1.8c-1.1-0.2-2-0.8-2.6-1.7c-2.4,1.1-5.9,0.1-8.5-2.6
			c-1.7-1.7-2.7-4.1-2.7-6.5c-2.4-0.1-4.7-1.2-6.3-3c-3-3.2-3.6-7.5-1.4-9.6l0,0c-0.6-0.6-1-1.3-1.1-2.2c-0.1-1.5,1.1-2.8,2.8-3.6
			c0.1-1.5,0.7-3,1.8-4c1.7-1.6,4.3-2,7-1.2c0.4-2.1,1.5-4.1,3-5.6c2.5-2.3,6.7-2.1,10.5,0.3c3.1-0.3,6.8,1.2,9.7,4.3
			c2.4,2.4,3.8,5.6,3.9,8.9c0.8,0.4,1.5,1,2,1.8c0.2,0.8,0.1,1.7-0.3,2.5c1.3,3.2,0.6,6.8-1.8,9.2c-1.2,1.1-2.7,1.8-4.3,2.2
			c1.3,2.5,0.8,5.5-1.3,7.4C572.2,646.9,569.4,647.5,566.7,646.7z"/>
		<path class="st10" d="M516.7,609.3c1-0.6,2.3-0.5,3.3,0.1c0.7,0.7,1.2,1.7,1.2,2.8c2.5,0.4,4.8,3.1,5.4,6.7c0.5,2.3,0,4.7-1.3,6.7
			c1.9,1.4,3.2,3.5,3.5,5.9c0.7,4.2-1.1,8-4.1,8.5h-0.1c0.2,0.8,0.1,1.6-0.3,2.3c-0.8,1.2-2.4,1.7-4.2,1.3c-0.9,1.2-2.2,2-3.7,2.3
			c-2.3,0.4-4.5-0.7-6.3-2.8c-1.5,1.5-3.3,2.5-5.4,2.9c-3.2,0.5-6.5-2-8.2-5.9c-2.6-1.4-4.8-4.7-5.5-8.7c-0.7-3.2,0-6.5,1.7-9.3
			c-0.5-0.8-0.7-1.6-0.6-2.5c0.3-0.8,0.9-1.4,1.6-1.9c0.7-3.2,3.2-5.8,6.4-6.4c1.6-0.2,3.2,0,4.6,0.6c0.3-2.7,2.3-4.8,5-5.3
			C512.4,606.2,515,607.2,516.7,609.3z"/>
		<path class="st10" d="M502.4,637.4c0.4,1.1,0.1,2.4-0.7,3.2c-0.9,0.6-1.9,0.8-2.9,0.7c-0.8,2.4-3.8,4.2-7.5,4.2
			c-2.4,0.1-4.7-0.8-6.4-2.4c-1.7,1.6-4,2.5-6.4,2.4c-4.2,0-7.6-2.4-7.6-5.4l0,0c-0.8,0.1-1.6-0.2-2.2-0.7c-1.1-1-1.3-2.7-0.6-4.4
			c-1-1.1-1.6-2.5-1.6-4c0-2.3,1.5-4.3,3.8-5.7c-1.2-1.7-1.9-3.7-2-5.8c0-3.3,3-6.1,7.2-7.1c1.8-2.4,5.4-4,9.5-4
			c3.3-0.1,6.4,1.1,8.9,3.2c0.8-0.3,1.7-0.4,2.6-0.2c0.7,0.4,1.3,1.1,1.6,1.9c3.1,1.2,5.1,4.1,5.2,7.4c-0.1,1.6-0.6,3.1-1.4,4.5
			c2.6,0.7,4.4,3.1,4.4,5.8C506.2,633.6,504.7,636.1,502.4,637.4z"/>
		<circle class="st11" cx="1066.3" cy="99" r="60"/>
		<path class="st12" d="M865,685.3L865,685.3c-1,0.7-2.2,1.1-3.4,1.1h-11c-1.1,0-2.2-0.3-3.2-0.9l-0.2-0.1c-1.9-1.3-2.9-3.6-2.5-5.8
			l5.4-31.8c0.3-2,2-3.4,4-3.3h4.2c2,0,3.6,1.4,3.9,3.4l5.1,31.9C867.7,681.8,866.8,684,865,685.3z"/>
		<rect x="852.9" y="479.1" class="st12" width="6.1" height="170.9"/>
		<rect x="834.4" y="428.7" class="st12" width="44.3" height="4.7"/>
		<rect x="843.6" y="469.1" class="st12" width="26" height="2.4"/>
		<polygon class="st12" points="865,470.3 846.2,470.3 841.2,431.9 870.8,431.9 		"/>
		<polygon class="st13" points="857,433.4 857,468.3 863.7,468.3 868.5,433.4 		"/>
		<polygon class="st14" points="854.9,433.4 854.9,468.3 848.2,468.3 843.5,433.4 		"/>
		<path class="st12" d="M858.4,480.2c0,0,9.6-9.5,9.2-9.4s-22.4,0-22.4,0l9.2,9.9L858.4,480.2z"/>
		<path class="st12" d="M874.1,430.1l-16-14.6c-0.9-0.8-2.3-0.8-3.3,0l-17.1,14.6H874.1z"/>
		
			<linearGradient id="SVGID_1_" gradientUnits="userSpaceOnUse" x1="745.5" y1="-1351.5801" x2="745.5" y2="-1335.51" gradientTransform="matrix(1 0 0 -1 0 -688.11)">
			<stop  offset="0.38" style="stop-color:#A1510F"/>
			<stop  offset="1" style="stop-color:#BE9269"/>
		</linearGradient>
		<polygon class="st15" points="676.4,643 814.6,643 807.8,660.4 681.6,660.4 		"/>
		<rect x="685" y="664.4" class="st16" width="125" height="5.2"/>
		<path class="st17" d="M803,683.9c0,0-3.5-28.3,4.2-33.8h-7.1c0,0-4.8,18.7-1.6,33.8H803z"/>
		<path class="st17" d="M689.2,683.9c0,0,3.5-28.3-4.2-33.8h7.1c0,0,4.8,18.7,1.6,33.8H689.2z"/>
		
			<linearGradient id="SVGID_2_" gradientUnits="userSpaceOnUse" x1="244.8" y1="-1351.5801" x2="244.8" y2="-1335.51" gradientTransform="matrix(1 0 0 -1 0 -688.11)">
			<stop  offset="0.38" style="stop-color:#A1510F"/>
			<stop  offset="1" style="stop-color:#BE9269"/>
		</linearGradient>
		<polygon class="st18" points="175.7,643 313.9,643 307.1,660.4 180.9,660.4 		"/>
		<rect x="184.3" y="664.4" class="st16" width="124.9" height="5.2"/>
		<path class="st17" d="M302.3,683.9c0,0-3.5-28.3,4.2-33.8h-7.1c0,0-4.8,18.7-1.6,33.8H302.3z"/>
		<path class="st17" d="M188.5,683.9c0,0,3.6-28.3-4.2-33.8h7.1c0,0,4.8,18.7,1.6,33.8H188.5z"/>
		<path class="st19" d="M727.8,622.6c-1.3,1.9-2.5,3.9-3.9,5.8c-0.7,1-1.5,2.5-3,2s-0.9-2-0.9-3.2c0-0.3,0-0.6,0-0.9
			c0.3-1.2,0.2-2.5,1.3-3.4c1.4-1.3,1.9-3.3,3.5-4.4c1.5-0.2,1.8,1.5,2.9,1.8L727.8,622.6z"/>
		<path class="st20" d="M696.5,492.7c0.9,0.9,2.2,1,3.4,1.4c3,1,3.4,1.7,2,4.8c-0.3,0.7-0.5,1.5-0.7,2.2c-0.3,0.3-0.8,0.3-1.2,0l0,0
			c0.2-5.2,0.2-5.2-4.8-6.7c-1.4-0.6-3-0.3-4.2,0.7c-0.5,0.4-1,1-1.8,0.5c0.4-1,0.9-2,1.3-3L696.5,492.7z"/>
		<path class="st21" d="M613,598.7l-1.2-0.1v-3c3.3-0.3,4.4-2.9,5.4-5.4c0.5-1.3,0.8-2.4,2.5-2.3c-0.7,3-1.7,5.8-4.2,7.9
			C614.4,596.5,613.5,597.5,613,598.7z"/>
		<path class="st22" d="M673.8,630.5c-0.1,0.2-0.1,0.4-0.1,0.6h-7.2c0.1-0.2,0.1-0.4,0-0.6C668.7,629,671.6,629,673.8,630.5z"/>
		<path class="st23" d="M613,598.7c0-0.5-0.3-1.2-0.1-1.4c3.3-2.4,4.7-6.2,6.7-9.5c6.2-0.3,6.7,0,8.6,6.2c0.5,1.3,1.1,2.7,1.8,3.9
			c-0.1,1.7-1.6,1-2.4,1.6c-0.4,0.3-0.9,0.6-0.7,1.1s0.8,0.4,1.3,0.3c1.3-0.3,2.1-1.5,3.5-1.3l1.2,1.2c1.7,0.8,3.8,0,5.5,1.3
			c3.4-0.2,6.8,0.5,10.1-0.6c1.3-0.5,2.6,0.7,4-0.2c0.6-0.4,1.7,0.3,1.6,0.9c-0.5,3.3,2.9,6.2,0.6,9.8c-1.2,2-0.6,4.6,1.6,6.4
			c0,2.4,0,4.8,0.1,7.2c0.1,1.1-0.4,2.2-1.4,2.8c-0.9,0.7-1.7,2.2-3,1s0.5-1.8,1-2.5c1.6-2,0.9-7.2-1.3-8.3c-1.4-0.7-3-1.4-3.3,1.3
			c-0.1,0.6,0.1,1.2-0.6,1.6c-3,1.7-2.5-0.9-2.9-2.4c-1.3-2.9-4.5-4.4-7.5-3.6c-4.2,0.9-4.2,0.9-3,5.2c0.4,1.5,0.9,3,1.3,4.5
			c0.4,1.4-0.4,3-1.8,3.4c-0.5,0.2-1.1,0.2-1.6,0c-0.8-0.2-1.6-0.6-0.9-1.7c2.5-3.7-0.9-6.3-2-9.4c-0.3,2.8-0.5,5.5-0.7,8.3
			c-0.1,0.9,0,2-1.1,2.2c-1.1,0.4-2.2,0.2-3.2-0.4c-0.6-0.4-0.8-1.3-0.3-1.5c2.9-1.4,1.5-4,1.7-6.1c0.1-1.9,0.1-3.8-0.1-5.7
			c-0.3-1.8-2-3-2.3-4.8c-0.5-1.5-1.8-2.9-1.3-4.7c0-0.2-0.1-0.5-0.2-0.5c-3.3,0-3.6-5-7.3-4.4C613.7,599.9,613.3,599.3,613,598.7z"
			/>
		<path class="st24" d="M687.5,601c0,1.2-0.8,2-1.3,3c-0.4,3.7-3.5,6.4-3.5,10.2c-0.5,2.3-0.3,5.1-3.6,5.5c-0.5,0.4-1.3,0.6-1.9,0.5
			c-0.3,0-0.5-0.1-0.8-0.2c-1-0.4-2.1-0.6-2.6-1.7c-0.3-1.2-0.1-2.5,0.6-3.5c0.6-2.2,0.5-4.5,1.1-6.6c-0.1-3.2,0.3-6.5,1.2-9.6
			c1.6-1.9,1.1-4.3,1.6-6.5c0.2-1-0.2-2.1,0.3-3.2c-0.3-4.9,2.1-9.3,2.1-14.2c0-4,2.1-7.7,1.1-11.9c-0.6-2.1,0.1-4.3,1.7-5.7
			c3.1,2.9,7.2,3,11,3.9c1.2,0.3,2.6,0,3.3,1.5c0.4,1.4,0.4,3,0.1,4.4c-0.1,0.6-0.4,1.2-0.3,1.7c0.5,2.3-0.4,3.8-2.6,4.6
			c-0.4,0.1-0.5,0.6-0.6,1c-0.9,4.3-0.3,8.5-0.4,12.8c0.1,0.9,0.1,1.8,0,2.7c-0.5,1.7-2.4,1.8-3.3,3c0,0.5,0.1,1-0.5,1.1
			C688.3,595.9,687.9,598.5,687.5,601z"/>
		<path class="st25" d="M697.3,562.4c-3.7-0.8-7.5-1.7-11.2-2.6c-1.4-0.3-3-0.7-2.8-2.8c0.5-2.1,0.7-4.4,0.5-6.6
			c-1.1-1.6-0.8-3.4-0.6-5.2c0.1-0.3,0.2-0.6,0.4-0.8c2.6-2.5,3.2-4.8,1.9-7.9c-0.3-0.7-0.6-1.5-0.7-2.2c0-1.2,0-2.4,0.1-3.6
			c2.3,0.5,4,2.5,4,4.9c0.1,1.7,0,3.4,0.1,5.1c0.1,4.4,4.8,5.3,8.1,4c2.3-5.6,3.9-0.1,5.8,0.3c0.1,0.3,0.2,0.7,0.2,1
			c-0.2,4.3-0.4,8.7-0.8,13c-0.1,1.1-0.1,2.2-0.9,3C700.1,562.8,698.6,562.9,697.3,562.4z"/>
		<path class="st25" d="M685.2,527.6c0.8-2.4,1.2-5,3.4-6.7c0.3-0.3,0.7-0.5,1.1-0.6c2.2-1,4.3-2.2,6.2-3.6c0.9-0.6,1.8-1.4,3-1.4
			c3,1.1,3.7,4.1,5.5,6.3l0,0c0,2.6,1.5,4.6,2.4,6.8c-1.2,0.9-2.7,0.7-4,1.4c-2.7,0.9-3.6,3-3.6,5.6c0,1,0,2,0,3
			c0,2.2-0.9,3.3-3.2,3.3s-3.2-1.2-3.2-3.4c0-0.8,0-1.6,0-2.4c0-1.9,0.4-3.4,2.6-3.7c0.7-0.1,1.4-0.3,1.4-1.2
			c0.1-0.8-0.4-1.6-1.3-1.8c-1.5-0.2-2.7-1.4-2.9-3c-0.2-0.8-0.9-1.4-1.8-1.3c-0.9,0-1.2,0.6-1.3,1.3c-0.3,1.7-1.7,3.1-3.5,3.3
			C684.9,529.3,685.7,528.1,685.2,527.6z"/>
		<path class="st26" d="M698.8,515.4c-2.8,2-5.5,4.3-8.9,5.4c-0.3-0.7-0.1-1.4,0.6-1.8c2.8-1.8,2.4-4.4,1.8-7l0,0
			c-2.1-0.3-4.5-0.4-4.1-3.6c0-0.4-0.1-0.8-0.1-1.2c-0.9-1.9-0.4-3.7,0-5.6c0-0.5,0-1.1,0-1.6c0.4-0.5,1.1-0.8,1.8-0.8
			c1.8-0.2,3.6,0.1,5.2,0.8c2.6,2,4.4,4.2,3,7.7c-0.2,0.8-0.2,1.6,0,2.3c0,0.4,0.1,0.8,0.3,1.2c0.9,1,1.4,2.3,1.3,3.6
			c0,0.4-0.4,0.6-0.7,0.6C698.9,515.4,698.9,515.4,698.8,515.4z"/>
		<path class="st27" d="M656.1,618.4c-0.8-0.8-2.9-0.3-2.7-1.4c0.5-2.1-1.2-4.3,0.6-6.3c1.5-1.6,2.2-3.4-0.7-4.6
			c-1.1-0.4-0.8-1.5-0.2-2.3c0.4-0.6,0.9-1.1,0.2-1.8s-1.3-0.2-1.8,0.3c-1.7,2.2-1.9-1.2-3.1-0.8c5.8-2,5.9-2.1,6-9
			c0-1.4,0.1-2.8,1.7-2.9c1.8-0.1,1.3,1.6,1.4,2.7c0.3,3-0.2,5.9-1.4,8.6c-0.3,0.6-0.4,1.3-0.3,2C655.9,608.1,655,613.3,656.1,618.4
			z"/>
		<path class="st28" d="M695.4,500.5l-5.6-0.7c-0.4-0.8-2.2-0.2-1.8-1.8c0.1-0.9,0.5-1.7,1.1-2.3c3.2-4.2,7-1.9,10.3-0.7
			s1.3,3.9,0.6,6C698.6,501.6,696.8,501.5,695.4,500.5z"/>
		<path class="st29" d="M673.8,630.5h-7.3c-0.8,0.1-1.6-0.5-1.7-1.3c-0.1-0.9,0.5-1.4,1.2-1.8c1.5-0.8,3.1-1.2,4.7-1.3
			c2-0.3,4-0.2,6,0.1C677.9,629.3,677.2,630.2,673.8,630.5z"/>
		<path class="st30" d="M676.7,554c-2,1.9-3.3,4.3-3.7,7c-0.1,0.9-0.5,1.9-1.9,1.2c-1.2-0.5-2.8-0.4-2-2.6c1.3-3.4,3.7-5.9,6.1-8.4
			c0.9-0.9,2.1-1.5,2.8-2.6c0.3-0.5,0.6-1,1.3-0.5c0.5,1.6-0.8,2.3-1.6,3.2S675.9,552.7,676.7,554z"/>
		<path class="st31" d="M676.7,554c-1.3,0-2.3-0.2-1-1.8c1.2-1.4,3.1-2.2,3.4-4.3c0.8-2.2,2.2-3.6,4.7-3.6c0,2,0,4,0,6h-1.7
			C680.2,551.5,678.8,553.4,676.7,554L676.7,554z"/>
		<path class="st32" d="M645,619c0.5,1.3,0.8,2.9,2.9,2.4c-0.4,1.5-0.8,3-1.2,4.5c-0.7,2.5-2.9,2.4-4.8,2.6c-0.6,0-1.1-0.5-1.1-1.2
			l0,0c0-0.3,0.2-1,0.4-1C646.1,625.9,644.5,621.9,645,619z"/>
		<path class="st33" d="M631.6,599.7c-1,1.1-2.3,1.9-3.8,2.2c-0.9,0.2-1.9,0.6-2.1-0.7c-0.2-1.1-0.1-2.2,1.4-2.5
			c0.9-0.2,2,0.2,2.8-0.7C630.4,598.5,631,599.1,631.6,599.7z"/>
		<path class="st34" d="M683.8,543.1c0.6-2.4-0.8-4.9,0.8-7.2c0.3-0.2,0.6-0.1,0.8,0.2l0,0c1.6,3.1,1.3,4.9-1.1,7.2L683.8,543.1z"/>
		<path class="st35" d="M692.3,511.9c0.7,2.6,2,5.2-1.3,7.1c-0.5,0.3-0.7,1.2-1.1,1.7h-1.3c0-0.7,0.4-1.4,1-1.7
			C692.2,517.4,692.7,514.8,692.3,511.9z"/>
		<path class="st36" d="M676.7,626.2c-1.9,0.8-4.1,0.8-6-0.1c0.2-1,0.8-1.9,1.7-2.4l0.4,0.1c1,1.2,2.8,0.7,3.9,1.8
			C676.7,625.8,676.7,626,676.7,626.2z"/>
		<path class="st37" d="M683.8,544.4c-1.8,0.9-3.7,1.6-4.7,3.6l-1.1,0.6c1-2.6,3.2-4.6,5.9-5.5l0.2,0.1c0.3,0.4,0.3,0.8,0,1.2
			L683.8,544.4z"/>
		<path class="st38" d="M678.5,588.8c0.1,2.8-0.1,5.6-0.6,8.3c-0.1,0.8-0.4,1.3-1.3,1.4c1-2.2,0.7-4.7,1.3-7
			C678.1,590.7,677.5,589.6,678.5,588.8z"/>
		<path class="st30" d="M676.7,554c1.7-1.3,3.2-3.1,5.4-3.6C680.6,552.1,679.5,554.3,676.7,554z"/>
		<path class="st36" d="M673.8,618.3l3,1.2c-1.1,1-2.3,1.7-2.7,3.3c-0.1,0.7-0.7,1.1-1.4,1c-0.1,0-0.1,0-0.2,0l-0.1-0.1
			C672.8,621.9,673.3,620.1,673.8,618.3z"/>
		<path class="st39" d="M685,536.1c-0.2,0-0.3-0.1-0.5-0.1c0.1-2.8-0.6-5.7,0.6-8.4c0.7,0.5,0.5,1.2,0.5,1.8
			c0.3,0.6-0.1,0.9-0.5,1.2c0,1.4-0.1,2.8-0.1,4.2C685.3,535.1,685.3,535.7,685,536.1C685.1,536,685,536.1,685,536.1z"/>
		<path class="st40" d="M675.5,608.1c0,2.3,0.4,4.6-1.1,6.6C674,612.5,674.4,610.2,675.5,608.1z"/>
		<path class="st41" d="M623.3,609.4c1,1.5,2.8,2.6,2.3,4.8C624.7,612.7,622.5,611.7,623.3,609.4z"/>
		<path class="st42" d="M688.1,501.6c0,1.9,0,3.7,0,5.6C686.1,505.3,686.9,503.5,688.1,501.6z"/>
		<path class="st43" d="M688.1,498c0.3,0.9,1.9,0.5,1.8,1.8l-1.8,0.2c-0.5-1.3-2.1-1.2-3.1-2.1C686.3,497.3,687.1,498.5,688.1,498z"
			/>
		<path class="st42" d="M688.3,508.4c0.2,2.5,2.2,3,4.1,3.6C688.1,511.8,688.1,511.8,688.3,508.4z"/>
		<path class="st44" d="M638.3,602.1c-1.8-0.4-3.8-0.2-5.5-1.3C634.6,601.5,636.9,599.9,638.3,602.1z"/>
		<path class="st45" d="M700.8,561.9c1.1-3.2,0.7-6.6,1.2-9.8c0.3-2.1-0.3-4.4,0.6-6.5c1.8-1,3.7-1.3,5.4,0.1
			c0.3,3.5-0.9,6.8-1.8,10.1c-1.7,5.7-1.7,11.7,0.1,17.3c-0.1,0.1-0.2,0.2-0.3,0.3c-0.3,0-0.5-0.2-0.7-0.4c-2.1-2.8-3-2.7-5.2,0.6
			c-1,0.5-2.3,0.2-3-0.7c-0.5-1.2,0.7-2.1,0.5-3.2C699.6,567.5,699.1,564.3,700.8,561.9z"/>
		<path class="st46" d="M719.5,611.2c1,0.8,2.5,1.4,1,3c-0.2,0.2-0.5,0.3-0.8,0.3c-0.2,0-0.4,0-0.6-0.1
			c-6.4-4.9-12.3-10.3-15.8-17.7c-0.7-1-0.8-2.3-0.3-3.5c1.4-1.2,3-0.9,4.5-0.5c0.5,3.7,2.4,7.1,5.3,9.5c1.7,0.8,2,2.7,3,4.1
			C717,607.9,718.3,609.5,719.5,611.2z"/>
		<path class="st47" d="M719.8,614.5l0.8-0.3c2.3,0.6,2.8,3,4.3,4.3c-0.6,1.8-1.6,3.5-3,4.9c-0.5,0.4-1.3,0.2-1.6-0.3
			c-0.1-0.1-0.1-0.2-0.1-0.3c-0.9-2.1-2.5-3.9-2.6-6.3C717.8,615.2,718.4,614.4,719.8,614.5z"/>
		<path class="st48" d="M695.4,500.5c1.6-0.2,3.2,0,4.7,0.5l1.1,0.1c0.8,1.1,2.6,0.6,3.4,2.1c-1.2,0.8-1.9-0.7-3.2-0.7
			c0,1.4-0.3,2.7-0.8,4c-0.8,1.6-1.8,3-3,4.3c-0.8-0.7-1-1.8-0.5-2.7C699,504.9,696.9,502.8,695.4,500.5z"/>
		<path class="st49" d="M707.9,593.3c-1.7,0-3.4-0.7-5,0.5c-1.3,0.3-2.7,0.2-4.1,0.3c-1.4,0-2.8-0.1-4.1-0.4c-0.7-0.2-1.7-0.3-1-1.5
			c3.4-1.2,6.9-0.5,10.4-0.6c4.6-0.2,4.7-0.2,4.7-4.7c0-2,0-4,0-6c0.1-2.9,0.3-5.8-2.7-7.5v-0.3c4.2,0.3,4.2,0.3,4.2,4.4
			s0,8.5,0,12.8c0,0.9,0.5,2-0.5,2.8C709.3,593.5,708.6,593.6,707.9,593.3z"/>
		<path class="st50" d="M707.9,533c0.6,0.6,0.8,1.5,0.6,2.4c-0.2,0.4-0.4,0.7-0.6,1c-0.6,0.5-1.3,1-1.9,1.4c-0.8,0.4-1.6,0.7-2.4,0
			C702.7,534,704.2,532.5,707.9,533z"/>
		<path class="st51" d="M707.9,593.3l1.9-0.2c-2.9,2.3-0.2,4,0.7,5.8c0.6,1.2,2.2,1.7,2.3,3.2C709.6,600.8,707,596.2,707.9,593.3z"
			/>
		<path class="st52" d="M707.9,533c-2.8,0.3-4.7,1.5-4.1,4.8l-0.4,0.3c-0.5,0.1-1-0.2-1.2-0.7c-0.6-3.8,0-4.8,3.4-5.7
			c0.9-0.1,1.8,0.2,2.4,0.8C708,532.6,708,532.8,707.9,533z"/>
		<path class="st53" d="M698.8,515.4l0.8-0.6c2.3,1.6,4,4,4.8,6.7C702.1,519.9,701.5,516.8,698.8,515.4z"/>
		<path class="st54" d="M706.7,528.2c-1.7-1.9-2.9-4-2.3-6.7c0.5,2.8,3,4.8,2.9,7.8c-0.2,0.1-0.5,0-0.7-0.1
			C706.4,528.9,706.4,528.5,706.7,528.2z"/>
		<path class="st55" d="M697.7,510.8c0.3-1.9,1.8-3,3-4.3c0.6,2.3-2.1,2.9-2.4,4.7L697.7,510.8z"/>
		<path class="st56" d="M719.5,611.2c-1.8-1.2-3.1-2.9-3.7-4.9C717.4,607.6,719,608.9,719.5,611.2z"/>
		<path class="st45" d="M708,545.7l-5.4-0.1c0-0.2,0-0.4-0.1-0.6c-0.1-0.3,0-0.6,0.3-0.8c1.7-0.2,3.4-0.1,5.1,0.3
			c0.3,0.1-0.1,0.3,0.1,0.6C707.7,545.3,708.1,545.5,708,545.7z"/>
		<path class="st57" d="M706.7,529.4h0.5c0.2,1,0.4,2,0.6,3.1l-2.3-0.1c-0.2-1,0.1-2,0.8-2.8L706.7,529.4z"/>
		<path class="st58" d="M693.5,592.6c1.7,1.4,4.1-0.3,5.8,1.3c0.5,0.2,0.8,0.6,1,1c3.5,7.7,9,13.8,15.4,19.2c0.8,0.6,1.7,1.1,2,2.1
			c0,1,0,2.1-1.2,2.5s-1.5-0.7-2.2-1.2c-0.5-0.4-0.7-0.9-1.3-1.2c-1-1-2.1-1.9-3.3-2.5c-1-2.8-3.7-3.7-5.7-5.4l0,0
			c-1-1.3-2.2-2.3-3.6-3l0,0c-1.7-2.6-4.2-4.3-6.1-6.7c-1.1-0.7-2-1.5-1.8-2.9c-0.6-1-0.7-2.3-0.3-3.5
			C693.2,591.6,693.5,591.8,693.5,592.6z"/>
		<path class="st59" d="M713.3,616.2c0.6,0.3,1.2,0.7,1.7,1.1c1.9,1.7,2.5,0.8,2.6-1.2c0.2-0.2,0.5-0.2,0.6,0l0,0
			c0.3,2.9,2.1,5.1,3.7,7.3c-0.8,0.8-1.5,1.8-1.8,2.9c-0.6-3.8-4.2-5.5-5.9-8.6C713.9,617.1,713.6,616.7,713.3,616.2z"/>
		<path class="st60" d="M672.5,623.8c0.7-0.2,1.1-0.9,1.1-1.6c-0.2-2.3,1.3-2.8,3.1-2.8l0,0c1.9,1,0.4,2.9,1.1,4.3
			c-0.3,0.7-0.4,1.4-1.1,1.8C675.2,625.3,673,626.6,672.5,623.8z"/>
		<path class="st61" d="M682.8,614.2c-0.7-0.5-1-1.4-0.6-2.2c1.3-2.7,2.7-5.4,4-8.1C685.9,607.7,684.1,610.9,682.8,614.2z"/>
		<path class="st62" d="M687.5,601c0.3-2.6-0.9-5.7,2.5-7.3C689.9,596.4,688.3,598.6,687.5,601z"/>
		<path class="st63" d="M704.3,608.2c2.8,0.6,4.4,2.8,6.2,4.7c0.4,0.4-0.2,0.6-0.5,0.7C708.5,611.4,705.7,610.5,704.3,608.2z"/>
		<path class="st64" d="M694.7,598.6c2.3,2,4.9,3.6,6.1,6.7C698.6,603.1,695.9,601.5,694.7,598.6z"/>
		<path class="st65" d="M693,591.9l-0.1,3.8c-0.8-0.4-1.3-1.2-1.2-2.1c0.1-0.9-0.3-1.2-1.2-1c-0.2-1.9,1.8-1.5,2.5-2.5
			C693.5,590.6,693.5,591.3,693,591.9C693,591.8,693,591.9,693,591.9z"/>
		<path class="st63" d="M700.7,605.2c2.1-0.1,3.2,1.1,3.6,3C702.5,607.9,701.8,606.4,700.7,605.2z"/>
		<path class="st36" d="M677.8,623.8c-1-1.3-0.1-3-1.1-4.3l2.4,0.2C678.9,621.1,677.7,622.3,677.8,623.8z"/>
		<path class="st66" d="M693,591.9c0-0.6,0-1.2,0-1.7c0-4.5,0.1-9.1,0.1-13.6c-0.2-1.1,0-2.2,0.5-3.2c1.1-0.9,2.4-0.6,3.7-0.6
			c1,0.6,2.1,0.8,3.2,0.5c1.5-1.1,3.6-1.1,5.1,0l0.7,0.2c3.4,0,3.8,2,3.6,4.8c-0.2,3.7-0.2,7.4,0,11.1c0.1,2.6-1,3.3-3.4,3.2
			c-4.3-0.1-8.6,0-12.9,0L693,591.9z"/>
		<path class="st67" d="M700.8,561.9c-0.5,2.8,0.2,6.1-3,7.8c-0.5-0.8-1.3-1.5-0.5-2.5v-4.8C698.3,561.7,699.6,561.8,700.8,561.9z"
			/>
		<path class="st68" d="M697.2,567.3l0.5,2.5l-0.5,3c-1.1,1-2.4,0.4-3.7,0.6c0.3-0.4,0.6-1,0.9-1c2.3-0.3,2.7-1.5,2-3.5
			C696.4,568.2,696.7,567.5,697.2,567.3z"/>
		<path class="st25" d="M702.6,544.4c0,0.2-0.1,0.4-0.1,0.6c-2,0.4-2.5-1.6-4-2.9c1,4.4-2.3,3.8-4.3,4c-2.9,0.4-5.6-1.7-6-4.6
			c-0.1-1-0.1-2,0-3c0.5-2.9-0.6-5.9-2.9-7.8c0.2-0.4,0.3-0.8,0.5-1.2c1.3-1.1,3.3-1.6,3.1-4c-0.1-1.1,0.9-1.5,1.9-1.4
			s2.6,0.2,2.6,1.4c0,2.3,1.2,2.7,3,3.1c1.1,0.3,1.5,1.5,1.4,2.7c0,0.9-0.7,1.7-1.6,1.8c-0.1,0-0.2,0-0.4,0c-2-0.2-2.3,1-2.2,2.6
			c0.1,1,0.1,2,0,3c-0.2,2,0.9,2.3,2.5,2.3s2.5-0.5,2.3-2.2c-0.1-1,0-2,0-3c-0.1-3.2,1-5.6,4.2-6.8c0.3,0.3,0.4,0.8,0.3,1.3
			c-2.3,2.4-2.7,5.4-2.5,8.6c-0.1,1.7,0.6,3.4,1.9,4.5C702.6,543.4,702.7,543.9,702.6,544.4z"/>
		<path class="st69" d="M685,536.1c0-0.4,0.1-0.9,0.1-1.3c2.5,3.2,2.5,6.5,0,9.6c-0.3,0.4-0.7,0.2-1.1,0c0-0.4,0-0.8,0-1.2
			C686,541.1,686.2,538.7,685,536.1z"/>
		<path class="st70" d="M702.5,529.9v-1.1c1.3-0.5,2.7-0.7,4.1-0.6c0,0.4,0,0.8,0.1,1.2v0.1C705.4,530.2,704.1,531.3,702.5,529.9z"
			/>
		<path class="st71" d="M705.5,573.2h-5.1c0-1.2-1.1-2.9,1.4-3C703.9,570.3,706,570.1,705.5,573.2z"/>
		<path class="st72" d="M718.2,616h-0.6c-8-5.8-14.7-12.7-18.2-22.2c1.2-1.1,2.4-0.8,3.6,0c2.6,8.3,9.2,13.4,15,19.1
			c0.6,0.6,1.2,1.1,1.8,1.6L718.2,616z"/>
		<path class="st73" d="M703.8,537.8l2.3-0.6c0.7,1.2,1.4,2.5,0.7,3.9C703.7,541.4,703.1,540.7,703.8,537.8L703.8,537.8z"/>
		<path class="st74" d="M702.5,529.9l4.1-0.5c-0.6,0.8,0.1,2.2-1.1,2.9c-3.8,0.3-3,3.1-3,5.5l-0.2,0.3c-1,0.7-0.9,1.6-0.5,2.6
			s1.1,2,0.2,3C698.2,540.7,698.5,533.3,702.5,529.9z"/>
		<path class="st45" d="M706.8,540.8L706.8,540.8c0.2,0.7,0.2,0.7,0.4,1.4c-1.3,0.9-3,0.8-4.1-0.3c-1.2-0.9-1.6-2.6-0.7-3.8
			c0,0,0-0.1,0.1-0.1l0.1-0.2l1.2,0.1C703.7,539.9,704.5,541.1,706.8,540.8z"/>
		<path class="st45" d="M702.4,537.9c0.4,3.9,0.6,4,4.9,4.1l0.5,2.9c-1.8,0.2-3.6,0.1-5.3-0.5l-0.6-0.7c0.1-1.4-0.8-2.6-1.3-3.9
			C700,538,700.7,537.6,702.4,537.9z"/>
		<path class="st25" d="M689.4,536.9c-0.7-1.6,1.5-4.4-1.8-5.3c-0.1-0.3-0.1-0.7,0-1c1.3-1.3,2-3,3-4.4c0.8-1.2,1.9,0.1,1.8,1.5
			s0.2,2.3,1.9,1.9c0.8-0.2,1.7,0,1.7,1.2s-0.9,1.2-1.7,1.2c-1.7-0.1-1.9,1-1.9,2.3c0.1,1.3,0.1,2.6,0,3.9c-0.2,2.4,0,4.5,3.4,4.1
			c0.6-0.2,1.2,0.2,1.4,0.8c0,0.1,0,0.2,0,0.3c0,0.9-0.5,1.2-1.2,1.5c-2.5,1-5.3-0.3-6.2-2.8c-0.1-0.3-0.2-0.7-0.3-1
			C689.3,539.6,689.3,538.3,689.4,536.9z"/>
	</g>
</g>
<g>
	<circle class="st75" cx="901" cy="89.6" r="33.6"/>
	<ellipse class="st75" cx="963.8" cy="67.8" rx="58.4" ry="46.3"/>
	<ellipse class="st75" cx="1026" cy="87.2" rx="36" ry="36"/>
	<rect x="896.4" y="67.8" class="st75" width="129.6" height="55.4"/>
	<ellipse class="st75" cx="963.8" cy="67.8" rx="58.4" ry="46.3"/>
	<ellipse class="st75" cx="1026" cy="87.2" rx="36" ry="36"/>
	<rect x="896.4" y="67.8" class="st75" width="129.6" height="55.4"/>
</g>
<g>
	<circle class="st76" cx="490" cy="60.8" r="16.1"/>
	
		<ellipse transform="matrix(0.7071 -0.7071 0.7071 0.7071 130.8577 405.3874)" class="st76" cx="554.8" cy="44.7" rx="29.8" ry="29.8"/>
	<ellipse class="st76" cx="575.3" cy="52.2" rx="24.7" ry="24.7"/>
	<polygon class="st76" points="575.3,77 486.4,77 494.2,45.7 575.3,39 	"/>
	<ellipse class="st76" cx="517.2" cy="53.8" rx="26.8" ry="23.8"/>
	<ellipse class="st76" cx="575.3" cy="52.2" rx="24.7" ry="24.7"/>
	<polygon class="st76" points="575.3,77 486.4,77 494.2,45.7 575.3,39 	"/>
</g>
<g>
	<path class="st77" d="M389,632.1c-0.2,0.2-0.4,0.4-0.6,0.6c-0.2,0.3-0.5,0.5-0.8,0.7c-0.7,0.5-1.3,1-2,1.5
		c-0.3,0.2-0.5,0.3-0.8,0.5c0.1,0.1,0.2,0.2,0.4,0.2c0.7,0,1.3-0.2,1.9-0.6c-0.2,0.3-0.5,0.5-0.9,0.7c-0.1,0-0.2,0.1-0.4,0.1
		c0,0-0.1,0-0.1,0.1c0,0,0,0.1,0,0.1c0.3,0.2,0.5,0.3,0.8,0.4c0.7,0,1.3-0.2,2-0.5c-0.4,0.4-0.6,0.5-1.1,0.7c0,0-0.1,0-0.1,0.1
		c0,0,0,0,0,0.1c0.3,0.1,0.5,0.2,0.8,0.3c0.6,0,1.1-0.2,1.6-0.4c0.1,0,0.1-0.1,0.2-0.1c-0.1,0.1-0.1,0.2-0.2,0.2
		c-0.2,0.2-0.4,0.3-0.7,0.4c0,0-0.1,0-0.1,0.1c0,0,0,0,0.1,0c0.3,0.1,0.5,0.2,0.8,0.2c0.4,0,0.8-0.1,1.2-0.3
		c0.1-0.1,0.3-0.1,0.4-0.2c-0.2,0.2-0.5,0.4-0.8,0.5c-0.1,0-0.1,0,0,0.1c0.2,0.1,0.5,0.1,0.7,0.2c0.4,0,0.8-0.1,1.2-0.2
		c0.1,0,0.2-0.1,0.4-0.1c-0.3,0.2-0.5,0.3-0.8,0.4c0,0-0.1,0-0.1,0.1c0,0,0.1,0,0.1,0.1c0.3,0.1,0.5,0.1,0.8,0.2
		c0.2,0,0.3-0.1,0.4-0.2c0.5-0.3,1-0.7,1.4-1.1c0.3-0.4,0.6-0.8,0.8-1.3c0-0.1,0.1-0.2,0.1-0.3c0.1-0.3,0.1-0.5,0.2-0.8
		c0-0.2,0-0.3-0.1-0.5c-0.1-0.2-0.3-0.3-0.4-0.5c-0.4-0.3-0.9-0.5-1.4-0.4c-0.1,0-0.2,0-0.3-0.1c-0.7-0.7-1.5-1.1-2.4-1.2
		c-0.7-0.1-1.4-0.1-2.1,0.1C389.1,632.1,389.1,632.1,389,632.1z"/>
	<path class="st78" d="M395.8,634.1c0,0.2,0.1,0.3,0,0.5c0,0.3-0.1,0.5-0.2,0.8c0,0.1,0,0.2-0.1,0.3c-0.1,0.5-0.3,0.9-0.6,1.3
		c-0.3,0.3-0.6,0.6-0.9,0.9c-0.6,0.5-1.2,0.9-1.9,1.2c-0.5,0.2-1,0.4-1.5,0.6c-0.8,0.2-1.7,0.4-2.6,0.5c-0.5,0.1-1,0.1-1.5,0.1
		c-0.8,0-1.6,0-2.3,0c-0.3,0-0.7,0-1,0c-0.2,0-0.3,0.1-0.3,0.2c-0.3,0.5-0.6,0.9-1.1,1.2c-0.1,0.1-0.2,0.2-0.3,0.2
		c0,0-0.1,0-0.1,0.1c0.2,0,0.4-0.1,0.7-0.1c0.3,0,0.6-0.1,0.9-0.1c0.8-0.1,1.5-0.1,2.3-0.1c0.6,0,1.1-0.1,1.7,0c0.1,0,0.2,0,0.3,0.2
		c0,0.1,0.1,0.2,0.2,0.4c0,0,0-0.1,0-0.1c0-0.1-0.1-0.2-0.1-0.4c0.1,0.2,0.3,0.4,0.4,0.7c0,0,0.1,0.1,0.1,0.1c0,0,0.1,0.1,0.1,0
		c0.1,0,0-0.1,0-0.1c0-0.1-0.1-0.3-0.1-0.4c0-0.1,0-0.2,0-0.3c0.1,0.2,0.2,0.4,0.3,0.5c0,0.1,0.1,0.2,0.2,0.2c0.1,0,0-0.1,0-0.2
		c0-0.1,0-0.2,0-0.3c0-0.1,0-0.1,0-0.2c0.1,0.1,0.2,0.3,0.2,0.4c0,0.1,0.1,0.2,0.1,0.3c0,0,0,0.1,0.1,0.1c0.1,0,0.1-0.1,0.1-0.1
		c0-0.2,0-0.4,0.1-0.6c0,0,0-0.1,0-0.2c0.1,0.2,0.2,0.4,0.3,0.6c0,0.1,0,0.2,0.1,0.2c0.1,0,0.1-0.1,0.1-0.2c0.1-0.2,0.1-0.4,0.2-0.6
		c0-0.1,0-0.1,0.1-0.2c0.1,0.1,0.1,0.3,0.1,0.4c0,0.1,0,0.2,0,0.2c0,0,0,0.1,0.1,0.1c0,0,0.1,0,0.1-0.1c0-0.1,0.1-0.2,0.1-0.3
		c0.1-0.2,0.1-0.4,0.2-0.5c0,0,0,0,0-0.1c0,0.2,0.1,0.3,0.1,0.5c0,0.1,0,0.1,0,0.2c0.1,0,0.1-0.1,0.1-0.1c0.1-0.3,0.3-0.5,0.3-0.8
		c0,0.1,0,0.3,0,0.5c0,0.1-0.1,0.3-0.1,0.4c0,0.1,0,0.1,0,0.1c0.1-0.3,0.2-0.5,0.3-0.8c0.2-0.4,0.5-0.8,0.9-1c0.7-0.5,1.5-1,2.1-1.6
		c1-0.9,1.8-1.9,2.2-3.1c0.2-0.5,0.2-1,0.3-1.5c0-0.2,0-0.4,0-0.6c0,0,0-0.1,0-0.1c0,0,0,0.1,0,0.1c0,0.1,0,0.2-0.1,0.2
		c-0.2,0.1-0.4,0.2-0.6,0.3C395.9,634,395.9,634,395.8,634.1C395.8,634.1,395.8,634.1,395.8,634.1z"/>
	<path class="st79" d="M395.8,634C395.8,634.1,395.8,634.1,395.8,634c0.4,0,0.6-0.2,0.9-0.3c0.1,0,0.1-0.1,0.1-0.2
		c0-0.1,0-0.1,0-0.2c-0.1-1.3-0.3-2.6-0.7-3.9c0,0,0,0-0.1,0c-0.2,0.3-0.6,0.4-0.9,0.5c-0.8,0.2-1.6,0.2-2.4,0
		c-0.6-0.2-1.1-0.4-1.5-0.8c-0.1,0-0.1-0.1-0.2-0.1c-0.1,0.4-0.2,0.9-0.3,1.3c-0.1,0.4-0.3,0.8-0.5,1.2c0,0.1,0.1,0,0.1,0
		c0.3-0.1,0.5-0.1,0.8-0.2c0.7-0.1,1.4,0,2,0.3c0.5,0.2,1,0.6,1.4,1c0.1,0.1,0.1,0.1,0.2,0.1c0.5,0,0.8,0.3,1,0.7
		c0.1,0.1,0.1,0.3,0.1,0.4C395.8,634,395.8,634,395.8,634z"/>
	<path class="st80" d="M390.9,629c0.2,0.1,0.3,0.2,0.4,0.3c0.6,0.4,1.3,0.7,2,0.7c0.4,0,0.8,0,1.2,0c0.4-0.1,0.7-0.2,1.1-0.3
		c0.2-0.1,0.3-0.2,0.4-0.3c-0.2-0.7-0.4-1.4-0.7-2.1c0-0.1-0.1,0-0.1,0c-0.3,0.1-0.5,0.1-0.8,0.1c-0.8,0-1.5-0.3-2-0.9
		c-0.3-0.4-0.5-0.8-0.5-1.3c0-0.3,0-0.6,0.1-0.9c0,0,0.1-0.1,0-0.1c-0.4,0.7-0.5,1.4-0.7,2.2C391.2,627.2,391.1,628.1,390.9,629z"/>
	<path class="st81" d="M392,624.1C392,624.2,392,624.2,392,624.1c-0.1,0.3-0.2,0.6-0.2,0.9c0,0.5,0.1,1,0.5,1.4
		c0.4,0.6,1,0.8,1.7,0.9c0.4,0.1,0.8,0,1.2-0.1c0,0,0.1,0,0.1,0c-0.1-0.2-0.2-0.4-0.2-0.7c-0.1-0.6,0.3-1.2,0.9-1.3
		c0.1,0,0.3,0,0.4,0c0-0.1,0-0.1,0-0.1c-0.2-0.2-0.4-0.3-0.6-0.3c-0.1,0-0.3-0.1-0.4-0.1c0.1-0.1,0.2-0.1,0.2-0.1
		c0.1-0.1,0.2-0.3,0.2-0.4c0-0.1,0.1-0.2,0.2-0.2c0,0,0.1,0,0.1,0c-0.4-0.6-0.9-1-1.6-1.1C393.5,622.6,392.5,623.2,392,624.1
		C392,624.1,392,624.1,392,624.1z"/>
	<path class="st82" d="M381.1,637.2c-0.5,0.2-1.1,0.4-1.6,0.6c-0.1,0-0.1,0-0.2,0.1c0,0.1,0.1,0.1,0.1,0.1c0.7,0.3,1.3,0.5,2,0.7
		c0.9,0.3,1.8,0.5,2.8,0.7c0,0,0.1,0,0.1,0c0.8,0.2,1.5,0.3,2.3,0.3c1.3,0.1,2.5,0,3.8-0.4c0.1,0,0.1,0,0.2-0.1c0,0,0.1,0,0-0.1
		c-0.2-0.1-0.3,0-0.5-0.1c-0.3,0-0.6-0.1-0.9-0.1c-0.3,0-0.5,0-0.8-0.1c-0.3,0-0.5-0.1-0.8-0.1c-0.3,0-0.6-0.1-0.9-0.1
		c-0.2,0-0.5-0.1-0.7-0.1c-0.3,0-0.6-0.1-1-0.2c-0.3-0.1-0.5-0.1-0.8-0.2c-0.2-0.1-0.5-0.1-0.7-0.2c-0.3-0.1-0.6-0.2-1-0.3
		c-0.2-0.1-0.5-0.1-0.7-0.2c-0.2-0.1-0.5-0.2-0.7-0.3C381.2,637.2,381.2,637.1,381.1,637.2z"/>
	<path class="st82" d="M386.6,636.3c-0.3-0.1-0.6-0.3-0.9-0.4c-0.2-0.1-0.3-0.2-0.5-0.3c-0.1-0.1-0.2-0.2-0.4-0.2
		c-0.4,0.3-0.9,0.5-1.3,0.7c0,0.1,0,0.1,0.1,0.1c0.6,0.3,1.2,0.7,1.9,1c0.6,0.2,1.1,0.5,1.7,0.7c0,0,0.1,0,0.1,0.1
		c0.9,0.3,1.9,0.5,2.9,0.7c0.5,0.1,1,0.1,1.5,0.2c0,0,0.1,0,0.1,0c0.3,0,0.5-0.1,0.7-0.2c0.1-0.1,0.3-0.1,0.4-0.2c0,0,0.1-0.1,0-0.1
		c-0.3-0.1-0.6-0.1-0.9-0.2c-0.2-0.1-0.4-0.1-0.5-0.1c-0.1,0-0.1,0-0.2,0c-0.2-0.1-0.5-0.1-0.7-0.2c-0.3-0.1-0.5-0.2-0.8-0.2
		c-0.3-0.1-0.6-0.2-0.8-0.2c0,0,0,0,0,0c-0.3-0.1-0.5-0.2-0.7-0.2c-0.3-0.1-0.6-0.2-0.9-0.3c-0.1-0.1-0.2-0.1-0.3-0.2
		C386.8,636.4,386.7,636.3,386.6,636.3z"/>
	<path class="st83" d="M393,638.2C393,638.2,393,638.3,393,638.2c-0.3,0.2-0.5,0.3-0.8,0.5c-0.1,0-0.2,0-0.3,0c0,0.1,0.1,0,0.1,0
		c-0.4,0.1-0.7,0.3-1.1,0.4c-0.1,0-0.2,0-0.2,0.1c0,0,0,0,0,0c-0.6,0.2-1.1,0.3-1.7,0.4c-0.6,0.1-1.2,0.1-1.7,0.1
		c-0.5,0-1-0.1-1.5-0.1c-0.5-0.1-1-0.1-1.4-0.2c-0.1,0-0.1,0-0.2,0c-0.2,0.1-0.3,0-0.5,0c-0.2,0-0.5,0-0.7,0c-0.4,0-0.8,0-1.2,0
		c-0.1,0-0.2,0-0.4,0c-0.1,0-0.1,0-0.2,0c0,0,0.1,0,0.1,0c-0.2,0.2-0.4,0.3-0.5,0.5c0,0,0.1,0.1,0.1,0.1c0.4,0,0.9,0.1,1.3,0.1
		c0.1,0,0.2,0,0.2,0c0.1,0,0.2,0,0.3,0c0.1,0,0.2,0,0.3,0c0,0,0.1,0,0.1,0c1,0.1,2.1,0.1,3.1,0c0.6,0,1.1-0.1,1.7-0.1
		c0.6-0.1,1.2-0.1,1.8-0.3c0.7-0.1,1.4-0.3,2.1-0.6c0.8-0.4,1.5-0.8,2.2-1.4c0.5-0.4,1-0.9,1.3-1.5c0.1-0.3,0.2-0.6,0.3-0.9
		c0,0,0-0.1,0-0.1c-0.1,0.4-0.3,0.7-0.6,1.1c-0.5,0.7-1.2,1.3-2,1.7C393.1,638.2,393,638.2,393,638.2z"/>
	<path class="st84" d="M391,642.1c0-0.2,0-0.3,0.1-0.5c0.1-0.2,0.1-0.4,0-0.6c-0.1,0.3-0.3,0.7-0.5,1c-0.1,0,0-0.1,0-0.1
		c0-0.2,0-0.3,0-0.5c0,0,0-0.1-0.1-0.1c0,0,0,0.1-0.1,0.1c-0.1,0.3-0.2,0.6-0.3,0.8c0,0,0,0.1,0,0.1c-0.1,0,0,0,0-0.1
		c0-0.2-0.1-0.4-0.1-0.5c0,0,0-0.1,0-0.1c0,0,0,0,0,0c0,0,0,0,0,0.1c-0.1,0.2-0.1,0.5-0.2,0.7c0,0.1,0,0.2-0.1,0.2
		c-0.1,0-0.1-0.1-0.1-0.2c-0.1-0.2-0.2-0.4-0.3-0.7c-0.1,0.1-0.1,0.3-0.1,0.4c0,0.1,0,0.3-0.1,0.4c0,0,0,0.1,0,0.1
		c0,0-0.1,0-0.1-0.1c-0.1-0.2-0.2-0.4-0.3-0.6c0-0.1-0.1-0.2-0.1-0.1c-0.1,0-0.1,0.1-0.1,0.2c0,0.2,0,0.3,0,0.5c0,0,0,0.1,0,0.1
		c0,0-0.1,0-0.1-0.1c-0.1-0.2-0.2-0.4-0.3-0.6c0-0.1-0.1-0.1-0.1-0.2c0,0.2,0,0.4,0,0.5c0,0.1,0,0.2,0.1,0.2c0,0,0,0.1,0,0.1
		c0,0-0.1,0-0.1,0c-0.1-0.2-0.3-0.4-0.4-0.6c0-0.1-0.1-0.1-0.1-0.2c0,0,0,0-0.1,0c0,0,0,0,0,0.1c0,0.2,0.1,0.3,0.1,0.5
		c0.3,0.6,0.6,1.2,1,1.7c0.2,0.3,0.4,0.5,0.5,0.8c0.1,0.1,0.1,0.2,0.2,0.2c0.3,0.1,0.6,0,0.7-0.2c0,0,0-0.1,0-0.1c0-0.1,0-0.2,0-0.3
		c0-0.2,0-0.3,0.1-0.4C390.4,643.3,390.7,642.7,391,642.1z"/>
	<path class="st77" d="M387.2,637.7c-0.8-0.3-1.6-0.6-2.4-1c-0.4-0.2-0.8-0.4-1.2-0.6c0,0-0.1,0-0.1-0.1c-0.7,0.3-1.4,0.7-2.1,1
		c-0.1,0-0.2,0.1-0.3,0.1c0,0,0.1,0,0.1,0c0.3,0.1,0.5,0.2,0.8,0.3c0.2,0,0.3,0,0.4,0c0.6-0.2,1.3-0.4,1.8-0.8
		c-0.3,0.4-0.9,0.8-1.4,1c0,0-0.1,0-0.1,0.1c0.3,0.1,0.6,0.2,1,0.3c0.1,0,0.3,0,0.4,0c0.6-0.1,1.1-0.3,1.7-0.6
		c-0.4,0.3-0.8,0.6-1.3,0.8c0,0-0.1,0-0.1,0.1c0.3,0.1,0.5,0.1,0.8,0.2c0.2,0,0.3,0,0.5,0c0.5-0.1,1-0.3,1.4-0.5
		C387.2,637.8,387.3,637.8,387.2,637.7z"/>
	<path class="st85" d="M395.8,634c-0.1-0.5-0.4-1.1-0.9-1.2c-0.1,0-0.2-0.1-0.3,0c-0.2,0-0.2-0.1-0.3-0.2c-0.9-1-2-1.4-3.3-1.3
		c-0.3,0-0.6,0.1-0.8,0.2c0,0-0.1,0-0.1,0c-0.1,0.1-0.2,0.1-0.3,0.2c-0.3,0.1-0.5,0.3-0.7,0.4c0.2-0.1,0.5-0.1,0.7-0.2
		c0.4-0.1,0.8-0.1,1.2,0c0.6,0,1.1,0.2,1.6,0.5c0.4,0.2,0.8,0.5,1.1,0.8c0.1,0.1,0.1,0.1,0.2,0.1c0.5-0.1,1,0,1.4,0.3
		C395.4,633.7,395.6,633.8,395.8,634C395.7,634,395.7,634.1,395.8,634C395.8,634.1,395.8,634.1,395.8,634z"/>
	<path class="st86" d="M378.3,641.2c-0.3,0.1-0.5,0.2-0.8,0.3c-0.6,0.3-1.2,0.5-1.7,0.8c-0.1,0.1-0.2,0.1-0.3,0.2
		c0,0-0.1,0.1-0.1,0.1c0,0.1,0.1,0,0.1,0c0.3,0,0.6,0,0.9-0.1c1-0.1,2.1-0.3,3.1-0.4c0,0,0.1,0,0.1,0c0.8-0.1,1.4-0.4,2.1-0.9
		c0.2-0.1,0.4-0.3,0.5-0.5c0,0,0.1-0.1,0.1-0.1c0-0.1-0.1,0-0.1,0c-0.6,0.2-1.2,0.4-1.7,0.6c-0.5,0.1-1,0.2-1.5,0.3
		c-0.2,0-0.4,0-0.5,0c-0.1,0-0.1,0-0.1-0.1c0-0.1,0-0.1,0.1-0.1C378.1,641.4,378.2,641.3,378.3,641.2
		C378.3,641.3,378.3,641.2,378.3,641.2z"/>
	<path class="st87" d="M378.3,641.2C378.3,641.2,378.3,641.2,378.3,641.2c-0.1,0.1-0.2,0.1-0.2,0.2c0,0-0.1,0.1-0.1,0.1
		c0,0.1,0.1,0.1,0.1,0.1c0.2,0,0.3,0,0.5,0c1-0.1,1.9-0.3,2.8-0.7c0.2-0.1,0.5-0.2,0.7-0.3c-0.1,0.2-0.3,0.4-0.4,0.5
		c-0.6,0.5-1.3,0.8-2.1,1c0,0-0.1,0-0.1,0c0.4-0.1,0.7-0.1,1.1-0.2c0.3,0,0.5-0.1,0.8-0.1c0.2-0.1,0.4-0.3,0.6-0.4
		c0.4-0.3,0.7-0.7,0.9-1.1c0.1-0.1,0.1-0.2,0.3-0.2c0,0-0.1,0-0.1,0c-0.2,0-0.3,0-0.5,0c-0.1,0-0.1,0-0.2,0c-0.1,0-0.1,0-0.2,0
		c-0.5,0.2-0.9,0.4-1.4,0.4c-0.3,0-0.7,0.1-1,0c-0.1,0-0.1,0-0.2,0C379.3,640.8,378.8,641,378.3,641.2
		C378.3,641.2,378.3,641.2,378.3,641.2z"/>
	<path class="st81" d="M384.2,639.4c0.1,0,0.1,0,0.2,0c-0.9-0.2-1.8-0.4-2.7-0.6c-0.8-0.2-1.5-0.5-2.3-0.8c0,0-0.1,0-0.1-0.1
		c-0.2,0-0.4,0.1-0.5,0.2c0,0-0.1,0-0.1,0.1c-0.2,0.1-0.3,0.2-0.4,0.4c-0.1,0.1-0.1,0.2,0.1,0.3c0.3,0.1,0.6,0.2,0.8,0.3
		c0.7,0.2,1.5,0.3,2.2,0.3c0.6,0.1,1.1,0.1,1.7,0.1c0.3,0,0.7,0,1,0C384.1,639.4,384.1,639.4,384.2,639.4z"/>
	<path class="st88" d="M390,644.5c-0.1,0.2-0.2,0.3-0.4,0.4c-0.1,0-0.2,0-0.3,0c0,0.1,0.1,0.3,0.1,0.4c0,0.1,0.1,0.2,0.1,0.3
		c0,0.2,0.1,0.3,0.2,0.5c0,0.1,0.1,0.1,0.1,0.2c0.3,0.2,0.6,0.3,1,0.3c0.5,0,1,0,1.5,0c0.1,0,0.2,0,0.4-0.1c0,0,0.1,0,0.1,0
		c0.2,0.1,0.3,0.1,0.5-0.1c0.1-0.1,0.2-0.2,0.1-0.4c-0.1-0.2-0.4-0.3-0.6-0.2c0,0-0.1,0.1-0.1,0.1c-0.6,0.1-1.1,0.1-1.6-0.1
		c-0.1,0-0.2-0.1-0.3-0.1c0,0-0.1-0.1-0.1-0.1c0,0,0-0.1,0-0.1c0,0,0.1,0,0.1,0c0,0,0.1,0,0.1,0c-0.2-0.2-0.4-0.5-0.6-0.8
		C390.1,644.6,390,644.6,390,644.5z"/>
	<path class="st86" d="M383,639.4c-0.7,0-1.4-0.1-2-0.1c-0.7-0.1-1.4-0.2-2-0.4c-0.2-0.1-0.4-0.1-0.6-0.2c-0.1,0-0.1-0.1-0.1-0.2
		c0.1-0.2,0.3-0.3,0.5-0.4c0,0,0.1,0,0.1-0.1c0,0,0,0,0,0c-0.8,0.2-1.6,0.5-2.4,0.7c-0.1,0-0.1,0-0.1,0.1c0,0.1,0.1,0.1,0.1,0.1
		c0.4,0.2,0.8,0.2,1.1,0.3c1.2,0.2,2.5,0.3,3.7,0.3c0,0,0,0,0,0c0.2,0,0.3,0,0.5,0c0.5,0,1,0,1.6,0c0.3,0,0.6,0,0.9-0.1c0,0,0,0,0,0
		c-0.1,0-0.1,0-0.2,0C383.7,639.4,383.3,639.4,383,639.4z"/>
	<path class="st86" d="M379.8,640.6c0.2,0.1,0.4,0.1,0.6,0.1c0.6,0.1,1.1-0.1,1.7-0.3c0.2-0.1,0.3-0.1,0.5-0.2
		c-0.2-0.1-0.4,0-0.5-0.1c-0.4,0-0.8-0.1-1.1-0.1C380.5,640.2,380.1,640.4,379.8,640.6z"/>
	<path class="st89" d="M389.7,646.2C389.7,646.2,389.8,646.2,389.7,646.2c-0.1-0.2-0.2-0.4-0.3-0.6c-0.2,0.1-0.3,0.2-0.5,0.2
		c-0.3,0-0.6,0-0.9,0c0,0,0,0.1,0,0.1c0,0.1-0.1,0.1-0.1,0.2c0,0.2,0.2,0.4,0.4,0.4c0.2,0,0.4,0,0.5-0.1c0.1-0.1,0.3-0.1,0.5-0.2
		C389.4,646.1,389.6,646.1,389.7,646.2z"/>
	<path class="st90" d="M395.6,624.6c-0.1,0-0.2,0.1-0.3,0.2c0.1,0,0.3,0.1,0.4,0.1c0.3,0.1,0.5,0.2,0.7,0.4c0,0,0.1,0.1,0.1,0.1
		c0.3,0.1,0.6,0.1,0.9,0.1c0.1,0,0.2-0.1,0.2-0.2c0-0.1-0.1-0.2-0.2-0.3c-0.2-0.2-0.4-0.3-0.6-0.4c-0.1,0.1-0.1,0.1-0.1,0.2
		c0,0.1,0.1,0,0.2,0c-0.1,0.1-0.1,0.1-0.2,0C396.2,624.7,395.9,624.7,395.6,624.6C395.6,624.5,395.6,624.6,395.6,624.6z"/>
	<path class="st91" d="M396.6,624.6c0.1-0.1,0.1-0.1,0.1-0.2c-0.1-0.3-0.3-0.4-0.5-0.5c-0.2,0-0.3,0.1-0.3,0.3
		c0,0.1-0.1,0.2-0.2,0.3c0,0,0,0,0,0.1c0.3,0.2,0.5,0.2,0.8,0.1C396.5,624.7,396.5,624.7,396.6,624.6
		C396.6,624.7,396.6,624.7,396.6,624.6z"/>
	<path class="st89" d="M390.7,645.5C390.6,645.5,390.6,645.4,390.7,645.5c-0.1-0.1-0.2-0.1-0.2-0.1c0,0,0,0.1,0,0.1
		c0,0.1,0.1,0.3,0.3,0.3c0.3,0.1,0.5,0.1,0.8,0.1c0.3,0,0.7,0,1,0c0,0,0.1,0,0.1,0c0.2-0.2,0.5-0.1,0.6,0.1c0.1,0,0.2,0,0.2,0.1
		c0,0,0.1,0,0.1,0c0,0,0-0.1,0-0.1c0-0.2-0.3-0.3-0.5-0.3c0,0-0.1,0-0.1,0c-0.1,0.1-0.2,0.1-0.3,0.1c-0.5,0.1-1,0.1-1.5,0
		C390.9,645.7,390.8,645.6,390.7,645.5z"/>
	<path class="st92" d="M393,645.7c0.1,0,0.3,0,0.4,0.1c0.1,0.1,0.2,0.2,0.2,0.3c-0.1-0.1-0.2-0.1-0.3-0.1c0,0-0.1,0-0.1,0
		c0.1,0.1,0,0.3-0.1,0.4c0,0,0.1,0,0.1,0c0.2-0.1,0.3,0,0.4,0.1c0,0,0,0.1,0.1,0c0,0,0-0.1,0-0.1c0-0.1-0.1-0.2-0.1-0.2
		c-0.1-0.1,0-0.1,0-0.1c0.2,0,0.3,0,0.4,0.1c0,0,0.1,0.1,0.1,0c0.1,0,0-0.1,0-0.1c0-0.1-0.1-0.2-0.1-0.2
		C393.8,645.5,393.4,645.4,393,645.7C393,645.6,393,645.6,393,645.7z"/>
	<path class="st93" d="M387.9,646.1c0-0.1,0.1-0.2,0.1-0.2c0.1-0.1,0,0,0-0.1c-0.1,0-0.2,0.1-0.3,0.1c-0.1,0.1-0.1,0.1-0.1,0.2
		c0,0,0,0.1,0,0.1c0,0,0.1,0,0.1,0C387.7,646.1,387.8,646.1,387.9,646.1z"/>
	<path class="st94" d="M385.2,635.5c0.2,0.1,0.3,0.2,0.5,0.3c0.3-0.1,0.5-0.1,0.7-0.3c0.3-0.2,0.5-0.4,0.7-0.6
		C386.5,635.3,385.9,635.5,385.2,635.5z"/>
	<path class="st94" d="M386.6,636.3c0.2,0.1,0.5,0.2,0.7,0.3c0,0,0.1,0,0.1-0.1c0.5-0.2,0.9-0.4,1.2-0.8
		C388,636.1,387.3,636.3,386.6,636.3z"/>
	<path class="st94" d="M388.2,637c0.3,0.1,0.5,0.2,0.8,0.3c0.2-0.1,0.4-0.2,0.6-0.3c0.2-0.1,0.3-0.2,0.4-0.4
		C389.4,636.7,388.8,636.9,388.2,637z"/>
	<path class="st94" d="M389.8,637.5c0.3,0.1,0.5,0.2,0.8,0.2c0,0,0,0,0-0.1c0.4-0.1,0.7-0.3,0.9-0.6c0,0,0,0,0-0.1
		C391,637.2,390.4,637.4,389.8,637.5z"/>
	<path class="st95" d="M391.3,637.9c0.2,0.1,0.5,0.1,0.7,0.2c0.2-0.1,0.4-0.2,0.6-0.3c0.1-0.1,0.2-0.1,0.3-0.2
		C392.4,637.6,391.9,637.9,391.3,637.9z"/>
	<path class="st96" d="M394.1,624.5c0.2,0,0.3-0.1,0.4-0.2c0,0,0.1-0.1,0.1-0.1c0.1,0,0.1,0,0.2-0.1c0-0.1,0-0.1-0.1-0.2
		c-0.1,0-0.1-0.1-0.1-0.1c-0.1-0.3-0.3-0.4-0.5-0.4c-0.2,0-0.5,0.2-0.5,0.5c0,0.3,0.1,0.5,0.4,0.6
		C394.1,624.5,394.1,624.5,394.1,624.5z"/>
	<path class="st77" d="M390.7,639.2c0.2,0,0.4-0.1,0.7-0.2c0.2-0.1,0.4-0.2,0.7-0.3c0,0,0,0,0,0c0,0-0.1,0-0.1,0
		c-1.2-0.1-2.3-0.3-3.4-0.6c-0.4-0.1-0.8-0.2-1.2-0.3c-0.1,0-0.1,0-0.1,0c-0.3,0.3-0.6,0.5-1,0.7c0,0-0.2,0,0,0.1
		c0.2,0.1,0.5,0.1,0.7,0.1c0.2,0,0.4,0,0.7-0.1c0.4-0.1,0.7-0.2,1.1-0.4c-0.2,0.2-0.5,0.4-0.8,0.5c0,0-0.1,0,0,0.1
		c0.3,0,0.5,0.1,0.8,0.1c0.2,0,0.4,0,0.6-0.1c0.4-0.1,0.7-0.2,1-0.3c-0.2,0.2-0.5,0.3-0.8,0.4c0,0-0.1,0-0.1,0.1
		C389.8,639.1,390.2,639.2,390.7,639.2z"/>
	<path class="st94" d="M382.7,637.7c0.1-0.1,0.3-0.1,0.4-0.2c0.4-0.2,0.7-0.4,1-0.7c0.1-0.1,0.1-0.1,0.2-0.3
		c-0.3,0.2-0.6,0.3-0.8,0.5c-0.5,0.2-1,0.4-1.5,0.4C382.2,637.6,382.5,637.7,382.7,637.7z"/>
	<path class="st94" d="M384.4,638.2c0.4-0.1,0.7-0.3,1-0.5c0.2-0.1,0.3-0.2,0.4-0.4c0,0,0,0,0,0c-0.5,0.3-1.1,0.5-1.7,0.6
		c-0.1,0-0.3,0.1-0.4,0.1C383.9,638.1,384.1,638.2,384.4,638.2z"/>
	<path class="st94" d="M386.2,638.6C386.1,638.6,386.2,638.6,386.2,638.6c0.2-0.1,0.3-0.2,0.5-0.3c0.2-0.1,0.4-0.3,0.5-0.5
		c0,0,0.1-0.1,0.1-0.1c0,0-0.1,0-0.1,0c0,0,0,0.1,0,0.1c-0.5,0.3-1.1,0.5-1.7,0.6c-0.1,0-0.2,0-0.2,0
		C385.5,638.5,385.8,638.6,386.2,638.6z"/>
	<path class="st94" d="M387.8,638.9C387.7,638.9,387.7,638.9,387.8,638.9c0.4-0.2,0.7-0.4,0.9-0.7c-0.6,0.3-1.2,0.5-1.8,0.5
		C387.2,638.8,387.5,638.9,387.8,638.9z"/>
	<path class="st97" d="M389.3,639.1c0-0.1,0.1-0.1,0.1-0.1c0.3-0.1,0.6-0.3,0.8-0.5c-0.6,0.2-1.1,0.4-1.7,0.4
		C388.8,639,389.1,639.1,389.3,639.1z"/>
	<path class="st83" d="M383,639.4c0.1,0,0.1,0,0.2,0c0.2,0,0.5,0,0.7,0c0,0,0.1,0,0.1,0C383.7,639.4,383.3,639.4,383,639.4z"/>
	<path class="st98" d="M396.6,624.6C396.6,624.6,396.5,624.6,396.6,624.6C396.5,624.7,396.5,624.7,396.6,624.6
		c0.1,0.1,0.1,0.1,0.2,0c0,0,0,0,0-0.1C396.7,624.6,396.6,624.6,396.6,624.6z"/>
	<path class="st99" d="M394.5,624c0-0.2-0.2-0.4-0.4-0.4c-0.2,0-0.4,0.2-0.4,0.4c0,0.2,0.2,0.4,0.4,0.4
		C394.4,624.4,394.6,624.2,394.5,624z"/>
	<path class="st100" d="M394.4,624c0-0.2-0.1-0.3-0.3-0.3c-0.2,0-0.3,0.1-0.3,0.3c0,0.2,0.1,0.3,0.3,0.3
		C394.3,624.3,394.4,624.2,394.4,624z"/>
	<path class="st101" d="M394.1,623.8c-0.1,0.1-0.1,0.2-0.1,0.2c0,0.1,0.2,0.1,0.2,0.1c0.1,0,0.1-0.2,0.1-0.2
		C394.3,623.8,394.2,623.8,394.1,623.8C394.1,623.9,394.2,623.9,394.1,623.8c0.1,0.1,0.1,0.1,0,0.1
		C394.1,623.9,394.1,623.9,394.1,623.8z"/>
	<path class="st102" d="M394.1,623.8C394.1,623.9,394.1,623.9,394.1,623.8c0,0.1,0,0.2,0,0.2c0,0,0.1,0,0.1-0.1
		C394.2,623.9,394.2,623.9,394.1,623.8C394.1,623.8,394.1,623.8,394.1,623.8C394.1,623.8,394.1,623.8,394.1,623.8z"/>
</g>
<g>
	<path class="st77" d="M129.2,636.3c-0.2,0.2-0.4,0.4-0.6,0.6c-0.2,0.3-0.5,0.5-0.8,0.7c-0.7,0.5-1.3,1-2,1.5
		c-0.3,0.2-0.5,0.3-0.8,0.5c0.1,0.1,0.2,0.2,0.4,0.2c0.7,0,1.3-0.2,1.9-0.6c-0.2,0.3-0.5,0.5-0.9,0.7c-0.1,0-0.2,0.1-0.4,0.1
		c0,0-0.1,0-0.1,0.1c0,0,0,0.1,0,0.1c0.3,0.2,0.5,0.3,0.8,0.4c0.7,0,1.3-0.2,2-0.5c-0.4,0.4-0.6,0.5-1.1,0.7c0,0-0.1,0-0.1,0.1
		c0,0,0,0,0,0.1c0.3,0.1,0.5,0.2,0.8,0.3c0.6,0,1.1-0.2,1.6-0.4c0.1,0,0.1-0.1,0.2-0.1c-0.1,0.1-0.1,0.2-0.2,0.2
		c-0.2,0.2-0.4,0.3-0.7,0.4c0,0-0.1,0-0.1,0.1c0,0,0,0,0.1,0c0.3,0.1,0.5,0.2,0.8,0.2c0.4,0,0.8-0.1,1.2-0.3
		c0.1-0.1,0.3-0.1,0.4-0.2c-0.2,0.2-0.5,0.4-0.8,0.5c-0.1,0-0.1,0,0,0.1c0.2,0.1,0.5,0.1,0.7,0.2c0.4,0,0.8-0.1,1.2-0.2
		c0.1,0,0.2-0.1,0.4-0.1c-0.3,0.2-0.5,0.3-0.8,0.4c0,0-0.1,0-0.1,0.1c0,0,0.1,0,0.1,0.1c0.3,0.1,0.5,0.1,0.8,0.2
		c0.2,0,0.3-0.1,0.4-0.2c0.5-0.3,1-0.7,1.4-1.1c0.3-0.4,0.6-0.8,0.8-1.3c0-0.1,0.1-0.2,0.1-0.3c0.1-0.3,0.1-0.5,0.2-0.8
		c0-0.2,0-0.3-0.1-0.5c-0.1-0.2-0.3-0.3-0.4-0.5c-0.4-0.3-0.9-0.5-1.4-0.4c-0.1,0-0.2,0-0.3-0.1c-0.7-0.7-1.5-1.1-2.4-1.2
		c-0.7-0.1-1.4-0.1-2.1,0.1C129.3,636.2,129.2,636.2,129.2,636.3z"/>
	<path class="st78" d="M135.9,638.2c0,0.2,0.1,0.3,0,0.5c0,0.3-0.1,0.5-0.2,0.8c0,0.1,0,0.2-0.1,0.3c-0.1,0.5-0.3,0.9-0.6,1.3
		c-0.3,0.3-0.6,0.6-0.9,0.9c-0.6,0.5-1.2,0.9-1.9,1.2c-0.5,0.2-1,0.4-1.5,0.6c-0.8,0.2-1.7,0.4-2.6,0.5c-0.5,0.1-1,0.1-1.5,0.1
		c-0.8,0-1.6,0-2.3,0c-0.3,0-0.7,0-1,0c-0.2,0-0.3,0.1-0.3,0.2c-0.3,0.5-0.6,0.9-1.1,1.2c-0.1,0.1-0.2,0.2-0.3,0.2
		c0,0-0.1,0-0.1,0.1c0.2,0,0.4-0.1,0.7-0.1c0.3,0,0.6-0.1,0.9-0.1c0.8,0,1.5-0.1,2.3-0.1c0.6,0,1.1-0.1,1.7,0c0.1,0,0.2,0,0.3,0.2
		c0,0.1,0.1,0.2,0.2,0.4c0,0,0-0.1,0-0.1c0-0.1-0.1-0.2-0.1-0.4c0.1,0.2,0.3,0.4,0.4,0.7c0,0,0.1,0.1,0.1,0.1c0,0,0.1,0.1,0.1,0
		c0.1,0,0-0.1,0-0.1c0-0.1-0.1-0.3-0.1-0.4c0-0.1,0-0.2,0-0.3c0.1,0.2,0.2,0.4,0.3,0.5c0,0.1,0.1,0.2,0.2,0.2c0.1,0,0-0.1,0-0.2
		c0-0.1,0-0.2,0-0.3c0-0.1,0-0.1,0-0.2c0.1,0.1,0.2,0.3,0.2,0.4c0,0.1,0.1,0.2,0.1,0.3c0,0,0,0.1,0.1,0.1c0.1,0,0.1-0.1,0.1-0.1
		c0-0.2,0-0.4,0.1-0.6c0,0,0-0.1,0-0.2c0.1,0.2,0.2,0.4,0.3,0.6c0,0.1,0,0.2,0.1,0.2c0.1,0,0.1-0.1,0.1-0.2c0.1-0.2,0.1-0.4,0.2-0.6
		c0-0.1,0-0.1,0.1-0.2c0.1,0.1,0.1,0.3,0.1,0.4c0,0.1,0,0.2,0,0.2c0,0,0,0.1,0.1,0.1c0,0,0.1,0,0.1-0.1c0-0.1,0.1-0.2,0.1-0.3
		c0.1-0.2,0.1-0.4,0.2-0.5c0,0,0,0,0-0.1c0,0.2,0.1,0.3,0.1,0.5c0,0.1,0,0.1,0,0.2c0.1,0,0.1-0.1,0.1-0.1c0.1-0.3,0.3-0.5,0.3-0.8
		c0,0.1,0,0.3,0,0.5c0,0.1-0.1,0.3-0.1,0.4c0,0.1,0,0.1,0,0.1c0.1-0.3,0.2-0.5,0.3-0.8c0.2-0.4,0.5-0.8,0.9-1c0.7-0.5,1.5-1,2.1-1.6
		c1-0.9,1.8-1.9,2.2-3.1c0.2-0.5,0.2-1,0.3-1.5c0-0.2,0-0.4,0-0.6c0,0,0-0.1,0-0.1c0,0,0,0.1,0,0.1c0,0.1,0,0.2-0.1,0.2
		c-0.2,0.1-0.4,0.2-0.6,0.3C136.1,638.2,136,638.2,135.9,638.2C135.9,638.2,135.9,638.2,135.9,638.2z"/>
	<path class="st79" d="M135.9,638.2C136,638.2,136,638.2,135.9,638.2c0.4,0,0.6-0.2,0.9-0.3c0.1,0,0.1-0.1,0.1-0.2
		c0-0.1,0-0.1,0-0.2c-0.1-1.3-0.3-2.6-0.7-3.9c0,0,0,0-0.1,0c-0.2,0.3-0.6,0.4-0.9,0.5c-0.8,0.2-1.6,0.2-2.4,0
		c-0.6-0.2-1.1-0.4-1.5-0.8c-0.1,0-0.1-0.1-0.2-0.1c-0.1,0.4-0.2,0.9-0.3,1.3c-0.1,0.4-0.3,0.8-0.5,1.2c0,0.1,0.1,0,0.1,0
		c0.3-0.1,0.5-0.1,0.8-0.2c0.7-0.1,1.4,0,2,0.3c0.5,0.2,1,0.6,1.4,1c0.1,0.1,0.1,0.1,0.2,0.1c0.5,0,0.8,0.3,1,0.7
		c0.1,0.1,0.1,0.3,0.1,0.4C135.9,638.1,135.9,638.1,135.9,638.2z"/>
	<path class="st80" d="M131,633.2c0.2,0.1,0.3,0.2,0.4,0.3c0.6,0.4,1.3,0.7,2,0.7c0.4,0,0.8,0,1.2,0c0.4-0.1,0.7-0.2,1.1-0.3
		c0.2-0.1,0.3-0.2,0.4-0.3c-0.2-0.7-0.4-1.4-0.7-2.1c0-0.1-0.1,0-0.1,0c-0.3,0.1-0.5,0.1-0.8,0.1c-0.8,0-1.5-0.3-2-0.9
		c-0.3-0.4-0.5-0.8-0.5-1.3c0-0.3,0-0.6,0.1-0.9c0,0,0.1-0.1,0-0.1c-0.4,0.7-0.5,1.4-0.7,2.2C131.3,631.4,131.2,632.3,131,633.2z"/>
	<path class="st81" d="M132.1,628.3C132.2,628.3,132.2,628.3,132.1,628.3c-0.1,0.3-0.2,0.6-0.2,0.9c0,0.5,0.1,1,0.5,1.4
		c0.4,0.6,1,0.8,1.7,0.9c0.4,0.1,0.8,0,1.2-0.1c0,0,0.1,0,0.1,0c-0.1-0.2-0.2-0.4-0.2-0.7c-0.1-0.6,0.3-1.2,0.9-1.3
		c0.1,0,0.3,0,0.4,0c0-0.1,0-0.1,0-0.1c-0.2-0.2-0.4-0.3-0.6-0.3c-0.1,0-0.3-0.1-0.4-0.1c0.1-0.1,0.2-0.1,0.2-0.1
		c0.1-0.1,0.2-0.3,0.2-0.4c0-0.1,0.1-0.2,0.2-0.2c0,0,0.1,0,0.1,0c-0.4-0.6-0.9-1-1.6-1.1C133.6,626.8,132.7,627.3,132.1,628.3
		C132.1,628.3,132.1,628.3,132.1,628.3z"/>
	<path class="st82" d="M121.2,641.3c-0.5,0.2-1.1,0.4-1.6,0.6c-0.1,0-0.1,0-0.2,0.1c0,0.1,0.1,0.1,0.1,0.1c0.7,0.3,1.3,0.5,2,0.7
		c0.9,0.3,1.8,0.5,2.8,0.7c0,0,0.1,0,0.1,0c0.8,0.2,1.5,0.3,2.3,0.3c1.3,0.1,2.5,0,3.8-0.4c0.1,0,0.1,0,0.2-0.1c0,0,0.1,0,0-0.1
		c-0.2-0.1-0.3,0-0.5-0.1c-0.3,0-0.6-0.1-0.9-0.1c-0.3,0-0.5,0-0.8-0.1c-0.3,0-0.5-0.1-0.8-0.1c-0.3,0-0.6-0.1-0.9-0.1
		c-0.2,0-0.5-0.1-0.7-0.1c-0.3,0-0.6-0.1-1-0.2c-0.3-0.1-0.5-0.1-0.8-0.2c-0.2-0.1-0.5-0.1-0.7-0.2c-0.3-0.1-0.6-0.2-1-0.3
		c-0.2-0.1-0.5-0.1-0.7-0.2c-0.2-0.1-0.5-0.2-0.7-0.3C121.4,641.3,121.3,641.3,121.2,641.3z"/>
	<path class="st82" d="M126.7,640.4c-0.3-0.1-0.6-0.3-0.9-0.4c-0.2-0.1-0.3-0.2-0.5-0.3c-0.1-0.1-0.2-0.2-0.4-0.2
		c-0.4,0.3-0.9,0.5-1.3,0.7c0,0.1,0,0.1,0.1,0.1c0.6,0.3,1.2,0.7,1.9,1c0.6,0.2,1.1,0.5,1.7,0.7c0,0,0.1,0,0.1,0.1
		c0.9,0.3,1.9,0.5,2.9,0.7c0.5,0.1,1,0.1,1.5,0.2c0,0,0.1,0,0.1,0c0.3,0,0.5-0.1,0.7-0.2c0.1-0.1,0.3-0.1,0.4-0.2c0,0,0.1-0.1,0-0.1
		c-0.3-0.1-0.6-0.1-0.9-0.2c-0.2-0.1-0.4-0.1-0.5-0.1c-0.1,0-0.1,0-0.2,0c-0.2-0.1-0.5-0.1-0.7-0.2c-0.3-0.1-0.5-0.2-0.8-0.2
		c-0.3-0.1-0.6-0.2-0.8-0.2c0,0,0,0,0,0c-0.3-0.1-0.5-0.2-0.7-0.2c-0.3-0.1-0.6-0.2-0.9-0.3c-0.1-0.1-0.2-0.1-0.3-0.2
		C127,640.5,126.8,640.5,126.7,640.4z"/>
	<path class="st83" d="M133.1,642.4C133.1,642.4,133.2,642.4,133.1,642.4c-0.3,0.2-0.5,0.3-0.8,0.5c-0.1,0-0.2,0-0.3,0
		c0,0.1,0.1,0,0.1,0c-0.4,0.1-0.7,0.3-1.1,0.4c-0.1,0-0.2,0-0.2,0.1c0,0,0,0,0,0c-0.6,0.2-1.1,0.3-1.7,0.4c-0.6,0.1-1.2,0.1-1.7,0.1
		c-0.5,0-1-0.1-1.5-0.1c-0.5-0.1-1-0.1-1.4-0.2c-0.1,0-0.1,0-0.2,0c-0.2,0.1-0.3,0-0.5,0c-0.2,0-0.5,0-0.7,0c-0.4,0-0.8,0-1.2,0
		c-0.1,0-0.2,0-0.4,0c-0.1,0-0.1,0-0.2,0c0,0,0.1,0,0.1,0c-0.2,0.2-0.4,0.3-0.5,0.5c0,0,0.1,0.1,0.1,0.1c0.4,0,0.9,0.1,1.3,0.1
		c0.1,0,0.2,0,0.2,0c0.1,0,0.2,0,0.3,0c0.1,0,0.2,0,0.3,0c0,0,0.1,0,0.1,0c1,0.1,2.1,0.1,3.1,0c0.6,0,1.1-0.1,1.7-0.1
		c0.6-0.1,1.2-0.1,1.8-0.3c0.7-0.1,1.4-0.3,2.1-0.6c0.8-0.4,1.5-0.8,2.2-1.4c0.5-0.4,1-0.9,1.3-1.5c0.1-0.3,0.2-0.6,0.3-0.9
		c0,0,0-0.1,0-0.1c-0.1,0.4-0.3,0.7-0.6,1.1c-0.5,0.7-1.2,1.3-2,1.7C133.2,642.4,133.2,642.4,133.1,642.4z"/>
	<path class="st84" d="M131.1,646.2c0-0.2,0-0.3,0.1-0.5c0.1-0.2,0.1-0.4,0-0.6c-0.1,0.3-0.3,0.7-0.5,1c-0.1,0,0-0.1,0-0.1
		c0-0.2,0-0.3,0-0.5c0,0,0-0.1-0.1-0.1c0,0,0,0.1-0.1,0.1c-0.1,0.3-0.2,0.6-0.3,0.8c0,0,0,0.1,0,0.1c-0.1,0,0,0,0-0.1
		c0-0.2-0.1-0.4-0.1-0.5c0,0,0-0.1,0-0.1c0,0,0,0,0,0c0,0,0,0,0,0.1c-0.1,0.2-0.1,0.5-0.2,0.7c0,0.1,0,0.2-0.1,0.2
		c-0.1,0-0.1-0.1-0.1-0.2c-0.1-0.2-0.2-0.4-0.3-0.7c-0.1,0.1-0.1,0.3-0.1,0.4c0,0.1,0,0.3-0.1,0.4c0,0,0,0.1,0,0.1
		c0,0-0.1,0-0.1-0.1c-0.1-0.2-0.2-0.4-0.3-0.6c0-0.1-0.1-0.2-0.1-0.1c-0.1,0-0.1,0.1-0.1,0.2c0,0.2,0,0.3,0,0.5c0,0,0,0.1,0,0.1
		c0,0-0.1,0-0.1-0.1c-0.1-0.2-0.2-0.4-0.3-0.6c0-0.1-0.1-0.1-0.1-0.2c0,0.2,0,0.4,0,0.5c0,0.1,0,0.2,0.1,0.2c0,0,0,0.1,0,0.1
		c0,0-0.1,0-0.1,0c-0.1-0.2-0.3-0.4-0.4-0.6c0-0.1-0.1-0.1-0.1-0.2c0,0,0,0-0.1,0c0,0,0,0,0,0.1c0,0.2,0.1,0.3,0.1,0.5
		c0.3,0.6,0.6,1.2,1,1.7c0.2,0.3,0.4,0.5,0.5,0.8c0.1,0.1,0.1,0.2,0.2,0.2c0.3,0.1,0.6,0,0.7-0.2c0,0,0-0.1,0-0.1c0-0.1,0-0.2,0-0.3
		c0-0.2,0-0.3,0.1-0.4C130.6,647.4,130.9,646.9,131.1,646.2z"/>
	<path class="st77" d="M127.3,641.9c-0.8-0.3-1.6-0.6-2.4-1c-0.4-0.2-0.8-0.4-1.2-0.6c0,0-0.1,0-0.1-0.1c-0.7,0.3-1.4,0.7-2.1,1
		c-0.1,0-0.2,0.1-0.3,0.1c0,0,0.1,0,0.1,0c0.3,0.1,0.5,0.2,0.8,0.3c0.2,0,0.3,0,0.4,0c0.6-0.2,1.3-0.4,1.8-0.8
		c-0.3,0.4-0.9,0.8-1.4,1c0,0-0.1,0-0.1,0.1c0.3,0.1,0.6,0.2,1,0.3c0.1,0,0.3,0,0.4,0c0.6-0.1,1.1-0.3,1.7-0.6
		c-0.4,0.3-0.8,0.6-1.3,0.8c0,0-0.1,0-0.1,0.1c0.3,0.1,0.5,0.1,0.8,0.2c0.2,0,0.3,0,0.5,0c0.5-0.1,1-0.3,1.4-0.5
		C127.3,642,127.4,642,127.3,641.9z"/>
	<path class="st85" d="M135.9,638.2c-0.1-0.5-0.4-1.1-0.9-1.2c-0.1,0-0.2-0.1-0.3,0c-0.2,0-0.2-0.1-0.3-0.2c-0.9-1-2-1.4-3.3-1.3
		c-0.3,0-0.6,0.1-0.8,0.2c0,0-0.1,0-0.1,0c-0.1,0.1-0.2,0.1-0.3,0.2c-0.3,0.1-0.5,0.3-0.7,0.4c0.2-0.1,0.5-0.1,0.7-0.2
		c0.4-0.1,0.8-0.1,1.2,0c0.6,0,1.1,0.2,1.6,0.5c0.4,0.2,0.8,0.5,1.1,0.8c0.1,0.1,0.1,0.1,0.2,0.1c0.5-0.1,1,0,1.4,0.3
		C135.6,637.8,135.7,638,135.9,638.2C135.9,638.2,135.9,638.2,135.9,638.2C135.9,638.2,135.9,638.2,135.9,638.2z"/>
	<path class="st86" d="M118.4,645.4c-0.3,0.1-0.5,0.2-0.8,0.3c-0.6,0.3-1.2,0.5-1.7,0.8c-0.1,0.1-0.2,0.1-0.3,0.2
		c0,0-0.1,0.1-0.1,0.1c0,0.1,0.1,0,0.1,0c0.3,0,0.6,0,0.9-0.1c1-0.1,2.1-0.3,3.1-0.4c0,0,0.1,0,0.1,0c0.8-0.1,1.4-0.4,2.1-0.9
		c0.2-0.1,0.4-0.3,0.5-0.5c0,0,0.1-0.1,0.1-0.1c0-0.1-0.1,0-0.1,0c-0.6,0.2-1.2,0.4-1.7,0.6c-0.5,0.1-1,0.2-1.5,0.3
		c-0.2,0-0.4,0-0.5,0c-0.1,0-0.1,0-0.1-0.1c0-0.1,0-0.1,0.1-0.1C118.3,645.5,118.4,645.5,118.4,645.4
		C118.4,645.4,118.5,645.4,118.4,645.4z"/>
	<path class="st87" d="M118.4,645.4C118.4,645.4,118.4,645.4,118.4,645.4c-0.1,0.1-0.2,0.1-0.2,0.2c0,0-0.1,0.1-0.1,0.1
		c0,0.1,0.1,0.1,0.1,0.1c0.2,0,0.3,0,0.5,0c1-0.1,1.9-0.3,2.8-0.7c0.2-0.1,0.5-0.2,0.7-0.3c-0.1,0.2-0.3,0.4-0.4,0.5
		c-0.6,0.5-1.3,0.8-2.1,1c0,0-0.1,0-0.1,0c0.4-0.1,0.7-0.1,1.1-0.2c0.3,0,0.5-0.1,0.8-0.1c0.2-0.1,0.4-0.3,0.6-0.4
		c0.4-0.3,0.7-0.7,0.9-1.1c0.1-0.1,0.1-0.2,0.3-0.2c0,0-0.1,0-0.1,0c-0.2,0-0.3,0-0.5,0c-0.1,0-0.1,0-0.2,0c-0.1,0-0.1,0-0.2,0
		c-0.5,0.2-0.9,0.4-1.4,0.4c-0.3,0-0.7,0.1-1,0c-0.1,0-0.1,0-0.2,0C119.4,644.9,118.9,645.2,118.4,645.4
		C118.4,645.3,118.4,645.4,118.4,645.4z"/>
	<path class="st81" d="M124.3,643.6c0.1,0,0.1,0,0.2,0c-0.9-0.2-1.8-0.4-2.7-0.6c-0.8-0.2-1.5-0.5-2.3-0.8c0,0-0.1,0-0.1-0.1
		c-0.2,0-0.4,0.1-0.5,0.2c0,0-0.1,0-0.1,0.1c-0.2,0.1-0.3,0.2-0.4,0.4c-0.1,0.1-0.1,0.2,0.1,0.3c0.3,0.1,0.6,0.2,0.8,0.3
		c0.7,0.2,1.5,0.3,2.2,0.3c0.6,0.1,1.1,0.1,1.7,0.1c0.3,0,0.7,0,1,0C124.2,643.6,124.3,643.6,124.3,643.6z"/>
	<path class="st88" d="M130.1,648.7c-0.1,0.2-0.2,0.3-0.4,0.4c-0.1,0-0.2,0-0.3,0c0,0.1,0.1,0.3,0.1,0.4c0,0.1,0.1,0.2,0.1,0.3
		c0,0.2,0.1,0.3,0.2,0.5c0,0.1,0.1,0.1,0.1,0.2c0.3,0.2,0.6,0.3,1,0.3c0.5,0,1,0,1.5,0c0.1,0,0.2,0,0.4-0.1c0,0,0.1,0,0.1,0
		c0.2,0.1,0.3,0.1,0.5-0.1c0.1-0.1,0.2-0.2,0.1-0.4c-0.1-0.2-0.4-0.3-0.6-0.2c0,0-0.1,0.1-0.1,0.1c-0.6,0.1-1.1,0.1-1.6-0.1
		c-0.1,0-0.2-0.1-0.3-0.1c0,0-0.1-0.1-0.1-0.1c0,0,0-0.1,0-0.1c0,0,0.1,0,0.1,0c0,0,0.1,0,0.1,0c-0.2-0.2-0.4-0.5-0.6-0.8
		C130.2,648.8,130.2,648.7,130.1,648.7z"/>
	<path class="st86" d="M123.1,643.6c-0.7,0-1.4-0.1-2-0.1c-0.7-0.1-1.4-0.2-2-0.4c-0.2-0.1-0.4-0.1-0.6-0.2c-0.1,0-0.1-0.1-0.1-0.2
		c0.1-0.2,0.3-0.3,0.5-0.4c0,0,0.1,0,0.1-0.1c0,0,0,0,0,0c-0.8,0.2-1.6,0.5-2.4,0.7c-0.1,0-0.1,0-0.1,0.1c0,0.1,0.1,0.1,0.1,0.1
		c0.4,0.2,0.8,0.2,1.1,0.3c1.2,0.2,2.5,0.3,3.7,0.3c0,0,0,0,0,0c0.2,0,0.3,0,0.5,0c0.5,0,1,0,1.6,0c0.3,0,0.6,0,0.9-0.1c0,0,0,0,0,0
		c-0.1,0-0.1,0-0.2,0C123.8,643.6,123.5,643.6,123.1,643.6z"/>
	<path class="st86" d="M119.9,644.7c0.2,0.1,0.4,0.1,0.6,0.1c0.6,0.1,1.1-0.1,1.7-0.3c0.2-0.1,0.3-0.1,0.5-0.2
		c-0.2-0.1-0.4,0-0.5-0.1c-0.4,0-0.8-0.1-1.1-0.1C120.6,644.3,120.3,644.5,119.9,644.7z"/>
	<path class="st89" d="M129.8,650.3C129.9,650.3,129.9,650.3,129.8,650.3c-0.1-0.2-0.2-0.4-0.3-0.6c-0.2,0.1-0.3,0.2-0.5,0.2
		c-0.3,0-0.6,0-0.9,0c0,0,0,0.1,0,0.1c0,0.1-0.1,0.1-0.1,0.2c0,0.2,0.2,0.4,0.4,0.4c0.2,0,0.4,0,0.5-0.1c0.1-0.1,0.3-0.1,0.5-0.2
		C129.6,650.3,129.7,650.3,129.8,650.3z"/>
	<path class="st90" d="M135.7,628.7c-0.1,0-0.2,0.1-0.3,0.2c0.1,0,0.3,0.1,0.4,0.1c0.3,0.1,0.5,0.2,0.7,0.4c0,0,0.1,0.1,0.1,0.1
		c0.3,0.1,0.6,0.1,0.9,0.1c0.1,0,0.2-0.1,0.2-0.2c0-0.1-0.1-0.2-0.2-0.3c-0.2-0.2-0.4-0.3-0.6-0.4c-0.1,0.1-0.1,0.1-0.1,0.2
		c0,0.1,0.1,0,0.2,0c-0.1,0.1-0.1,0.1-0.2,0C136.3,628.8,136.1,628.8,135.7,628.7C135.8,628.7,135.7,628.7,135.7,628.7z"/>
	<path class="st91" d="M136.7,628.8c0.1-0.1,0.1-0.1,0.1-0.2c-0.1-0.3-0.3-0.4-0.5-0.5c-0.2,0-0.3,0.1-0.3,0.3
		c0,0.1-0.1,0.2-0.2,0.3c0,0,0,0,0,0.1c0.3,0.2,0.5,0.2,0.8,0.1C136.6,628.8,136.6,628.8,136.7,628.8
		C136.7,628.8,136.7,628.8,136.7,628.8z"/>
	<path class="st89" d="M130.8,649.6C130.8,649.6,130.7,649.6,130.8,649.6c-0.1-0.1-0.2-0.1-0.2-0.1c0,0,0,0.1,0,0.1
		c0,0.1,0.1,0.3,0.3,0.3c0.3,0.1,0.5,0.1,0.8,0.1c0.3,0,0.7,0,1,0c0,0,0.1,0,0.1,0c0.2-0.2,0.5-0.1,0.6,0.1c0.1,0,0.2,0,0.2,0.1
		c0,0,0.1,0,0.1,0c0,0,0-0.1,0-0.1c0-0.2-0.3-0.3-0.5-0.3c0,0-0.1,0-0.1,0c-0.1,0.1-0.2,0.1-0.3,0.1c-0.5,0.1-1,0.1-1.5,0
		C131.1,649.8,130.9,649.7,130.8,649.6z"/>
	<path class="st92" d="M133.1,649.8c0.1,0,0.3,0,0.4,0.1c0.1,0.1,0.2,0.2,0.2,0.3c-0.1-0.1-0.2-0.1-0.3-0.1c0,0-0.1,0-0.1,0
		c0.1,0.1,0,0.3-0.1,0.4c0,0,0.1,0,0.1,0c0.2-0.1,0.3,0,0.4,0.1c0,0,0,0.1,0.1,0c0,0,0-0.1,0-0.1c0-0.1-0.1-0.2-0.1-0.2
		c-0.1-0.1,0-0.1,0-0.1c0.2,0,0.3,0,0.4,0.1c0,0,0.1,0.1,0.1,0c0.1,0,0-0.1,0-0.1c0-0.1-0.1-0.2-0.1-0.2
		C133.9,649.6,133.5,649.6,133.1,649.8C133.1,649.8,133.1,649.8,133.1,649.8z"/>
	<path class="st93" d="M128,650.2c0-0.1,0.1-0.2,0.1-0.2c0.1-0.1,0,0,0-0.1c-0.1,0-0.2,0.1-0.3,0.1c-0.1,0.1-0.1,0.1-0.1,0.2
		c0,0,0,0.1,0,0.1c0,0,0.1,0,0.1,0C127.8,650.3,127.9,650.2,128,650.2z"/>
	<path class="st94" d="M125.3,639.7c0.2,0.1,0.3,0.2,0.5,0.3c0.3-0.1,0.5-0.1,0.7-0.3c0.3-0.2,0.5-0.4,0.7-0.6
		C126.6,639.4,126,639.6,125.3,639.7z"/>
	<path class="st94" d="M126.7,640.4c0.2,0.1,0.5,0.2,0.7,0.3c0,0,0.1,0,0.1-0.1c0.5-0.2,0.9-0.4,1.2-0.8
		C128.1,640.2,127.4,640.5,126.7,640.4z"/>
	<path class="st94" d="M128.3,641.1c0.3,0.1,0.5,0.2,0.8,0.3c0.2-0.1,0.4-0.2,0.6-0.3c0.2-0.1,0.3-0.2,0.4-0.4
		C129.5,640.9,128.9,641.1,128.3,641.1z"/>
	<path class="st94" d="M129.9,641.6c0.3,0.1,0.5,0.2,0.8,0.2c0,0,0,0,0-0.1c0.4-0.1,0.7-0.3,0.9-0.6c0,0,0,0,0-0.1
		C131.1,641.4,130.5,641.6,129.9,641.6z"/>
	<path class="st95" d="M131.4,642c0.2,0.1,0.5,0.1,0.7,0.2c0.2-0.1,0.4-0.2,0.6-0.3c0.1-0.1,0.2-0.1,0.3-0.2
		C132.5,641.8,132,642,131.4,642z"/>
	<path class="st96" d="M134.3,628.7c0.2,0,0.3-0.1,0.4-0.2c0,0,0.1-0.1,0.1-0.1c0.1,0,0.1,0,0.2-0.1c0-0.1,0-0.1-0.1-0.2
		c-0.1,0-0.1-0.1-0.1-0.1c-0.1-0.3-0.3-0.4-0.5-0.4c-0.2,0-0.5,0.2-0.5,0.5c0,0.3,0.1,0.5,0.4,0.6
		C134.2,628.7,134.3,628.7,134.3,628.7z"/>
	<path class="st77" d="M130.8,643.4c0.2,0,0.4-0.1,0.7-0.2c0.2-0.1,0.4-0.2,0.7-0.3c0,0,0,0,0,0c0,0-0.1,0-0.1,0
		c-1.2-0.1-2.3-0.3-3.4-0.6c-0.4-0.1-0.8-0.2-1.2-0.3c-0.1,0-0.1,0-0.1,0c-0.3,0.3-0.6,0.5-1,0.7c0,0-0.2,0,0,0.1
		c0.2,0.1,0.5,0.1,0.7,0.1c0.2,0,0.4,0,0.7-0.1c0.4-0.1,0.7-0.2,1.1-0.4c-0.2,0.2-0.5,0.4-0.8,0.5c0,0-0.1,0,0,0.1
		c0.3,0,0.5,0.1,0.8,0.1c0.2,0,0.4,0,0.6-0.1c0.4-0.1,0.7-0.2,1-0.3c-0.2,0.2-0.5,0.3-0.8,0.4c0,0-0.1,0-0.1,0.1
		C129.9,643.3,130.4,643.3,130.8,643.4z"/>
	<path class="st94" d="M122.8,641.9c0.1-0.1,0.3-0.1,0.4-0.2c0.4-0.2,0.7-0.4,1-0.7c0.1-0.1,0.1-0.1,0.2-0.3
		c-0.3,0.2-0.6,0.3-0.8,0.5c-0.5,0.2-1,0.4-1.5,0.4C122.4,641.7,122.6,641.8,122.8,641.9z"/>
	<path class="st94" d="M124.5,642.4c0.4-0.1,0.7-0.3,1-0.5c0.2-0.1,0.3-0.2,0.4-0.4c0,0,0,0,0,0c-0.5,0.3-1.1,0.5-1.7,0.6
		c-0.1,0-0.3,0.1-0.4,0.1C124,642.3,124.3,642.3,124.5,642.4z"/>
	<path class="st94" d="M126.3,642.8C126.2,642.7,126.3,642.7,126.3,642.8c0.2-0.1,0.3-0.2,0.5-0.3c0.2-0.1,0.4-0.3,0.5-0.5
		c0,0,0.1-0.1,0.1-0.1c0,0-0.1,0-0.1,0c0,0,0,0.1,0,0.1c-0.5,0.3-1.1,0.5-1.7,0.6c-0.1,0-0.2,0-0.2,0
		C125.7,642.6,126,642.7,126.3,642.8z"/>
	<path class="st94" d="M127.9,643C127.9,643,127.9,643,127.9,643c0.4-0.2,0.7-0.4,0.9-0.7c-0.6,0.3-1.2,0.5-1.8,0.5
		C127.3,643,127.6,643,127.9,643z"/>
	<path class="st97" d="M129.4,643.2c0-0.1,0.1-0.1,0.1-0.1c0.3-0.1,0.6-0.3,0.8-0.5c-0.6,0.2-1.1,0.4-1.7,0.4
		C128.9,643.2,129.2,643.2,129.4,643.2z"/>
	<path class="st83" d="M123.1,643.6c0.1,0,0.1,0,0.2,0c0.2,0,0.5,0,0.7,0c0,0,0.1,0,0.1,0C123.8,643.6,123.5,643.6,123.1,643.6z"/>
	<path class="st98" d="M136.7,628.8C136.7,628.8,136.7,628.8,136.7,628.8C136.7,628.8,136.6,628.9,136.7,628.8
		c0.1,0.1,0.1,0.1,0.2,0c0,0,0,0,0-0.1C136.8,628.7,136.8,628.8,136.7,628.8z"/>
	<path class="st99" d="M134.7,628.1c0-0.2-0.2-0.4-0.4-0.4c-0.2,0-0.4,0.2-0.4,0.4c0,0.2,0.2,0.4,0.4,0.4
		C134.5,628.5,134.7,628.3,134.7,628.1z"/>
	<path class="st100" d="M134.6,628.1c0-0.2-0.1-0.3-0.3-0.3c-0.2,0-0.3,0.1-0.3,0.3c0,0.2,0.1,0.3,0.3,0.3
		C134.4,628.4,134.6,628.3,134.6,628.1z"/>
	<path class="st101" d="M134.2,628c-0.1,0.1-0.1,0.2-0.1,0.2c0,0.1,0.2,0.1,0.2,0.1c0.1,0,0.1-0.2,0.1-0.2
		C134.4,628,134.3,627.9,134.2,628C134.3,628,134.3,628,134.2,628c0.1,0.1,0.1,0.1,0,0.1C134.2,628.1,134.3,628,134.2,628z"/>
	<path class="st102" d="M134.2,628C134.2,628,134.2,628,134.2,628c0,0.1,0,0.2,0,0.2c0,0,0.1,0,0.1-0.1
		C134.4,628,134.3,628,134.2,628C134.3,628,134.3,628,134.2,628C134.2,628,134.2,628,134.2,628z"/>
</g>
<g>
	<path class="st103" d="M122.6,609.8c-2.5-2.7-3.3-5.9-3.2-9.6c0.2-12-0.5-24,0.2-36c1.7-28.1,0.2-56.2,1-84.3
		c0.7-0.3,1.2-0.2,1.6,0.5c0.8,1.5,0.7,3.2,0.7,4.9c-0.1,22.2,0.4,44.4-0.3,66.6c0,0.1,0.1,0.3,0.1,0.3c0.2,0,0.3,0,0.5-0.1
		c10.4-1.4,20.8-0.8,31.2-0.5c1.3,0.3,2.6,0.8,3.9,0.2c3.1-0.6,6.3-0.5,9.4,0c12,1.1,23.9,0.3,35.9,0.4c1.7,0.3,3.3-0.4,4.9-0.8
		c1.2,0.1,2.4,0.4,3.5,0.7c6.5-0.8,13.2,1.2,19.7-0.8c0.9-0.1,1.9,0,2.8,0.1c0.7,0.1,1.3,0.1,2,0.1c1.5,0.1,2.8-1.5,4.5-0.7
		c0.6,0.4,1.2,0.8,1.9,1.2c5.5,1,11,0,16.4,0.3c2.3,0.1,4.7-0.3,6.6,1.6c1.3,2.3,1.1,4.8,1.1,7.3c0,12.6,0.2,25.2-0.1,37.7
		c-0.1,3.8,1.6,7.5,0.3,11.2c-2.1,1.5-4.4,1.3-6.8,1.3c-43.6,0-87.2,0-130.8,0C127.2,611.4,124.6,611.7,122.6,609.8z"/>
	<path class="st104" d="M117.2,459.6c-2-1.7-4.5-0.5-6.7-0.9c-3.6-0.6-7.1-1.5-7.9-5.6c-0.8-4,2.6-5.3,5.5-6.6
		c20.1-8.6,40.2-17.3,60.3-25.9c0.8-0.1,1.4,0.3,1.2,1c-1.2,4.5-1.6,9.4-5.6,12.7c-4.5,2.5-9.4,4.1-14,6.4c-1.9,0.9-4.7,1.2-4.4,3.9
		c0.2,2.3,2.7,2.6,4.6,3.2c0.5,0.2,0.9,0.3,1.4,0.5c4.5,2.3,5,3.9,2.7,9c-0.8,0.6-1.8,0.9-2.8,0.9
		C140.1,458.7,128.6,457.5,117.2,459.6z"/>
	<path class="st103" d="M301.3,479.8c0,21.1-0.5,42.2,0.2,63.3c0.6,18.9,0.8,37.8,0.9,56.7c0,3.8-0.6,7.2-3.2,10.1
		c-4.7,2.4-9.3,2.1-14,0.2c-1.7-3.2-0.3-6.5-0.3-9.8c-0.1-13.6-0.1-27.2,0-40.8c0.1-5.8,0.9-6.7,6.1-7.9c2.6-0.2,5.2,0.6,7.8,0.1
		c0.7-9.1,0.2-18.2,0.2-27.3c0.1-12.4,0-24.8,0-37.3c0-2.1-0.3-4.3,0.7-6.4C300.1,480.1,300.6,479.8,301.3,479.8z"/>
	<path class="st105" d="M117.2,459.6c3.3-2.2,6.8-2.9,10.8-2.8c8.8,0.2,17.6,0.1,26.4,0.1c1,0.2,1.6,0.9,2,1.9
		c1,5.9,0.5,11.8,0.4,17.7c-0.1,5.1-4.1,4.7-7.6,4.7c-3.1,0.1-6.2-0.1-9.3,0.3c-3.1-0.2-6.3-0.4-9.4,0c-2.6-0.4-5.3-0.1-7.8-0.8
		c-0.5-0.2-0.9-0.5-1.4-0.8l-0.4,0c0,0-0.4,0.1-0.4,0.1C111.2,473.6,110.1,466.5,117.2,459.6z"/>
	<path class="st106" d="M285.4,609.7c4.6,0,9.2,0.1,13.8,0.1c0.7,3.8-1.1,4.9-4.8,4.8c-55.7-0.1-111.5-0.1-167.2,0
		c-3.7,0-5.4-1.1-4.7-4.9c48.3,0,96.6-0.1,144.8-0.1c0.9-1,2-1.2,3.3-1.2c3.5-0.2,7-0.1,10.6-0.1
		C282.8,608.4,284.2,608.7,285.4,609.7z"/>
	<path class="st107" d="M163.4,433.7c3.3-3.7,4.4-8.3,5-13c5.1-4.9,8.5-11.2,14.2-15.7c18.1-14.6,47.5-11.3,61.4,7.3
		c1.6,2.1,3,4.4,4.4,6.6c4.5,3.4,4.5,9,6.6,13.6c0,1.8,0.3,3.6,0.5,5.4c0.4,5.4-1,6.6-6.7,5.7c-1.8-1.2-1.6-3.2-1.7-4.9
		c-1.4-17.3-14.4-31.8-30.5-34.2c-17.9-2.6-35.7,7.7-41.9,24.3c-1.3,3.4-2.3,6.9-2.9,10.6c-0.3,1.6-0.3,3.4-2,4.3
		c-5.4,0.6-6.6-0.4-6.9-5.5C162.9,436.6,163,435.1,163.4,433.7z"/>
	<path class="st108" d="M254.5,431.7c-3.6-3.6-3.1-9.1-6-13c17.6,7.5,35.1,14.9,52.7,22.4c4.6,1.9,9.2,3.9,13.7,5.9
		c2.5,1.1,4.8,2.7,4.4,5.9c-0.4,2.9-2.7,4.2-5.4,5.3c-2.8,1.2-6-0.7-8.5,1.5c-2.1,0.4-3.7-0.7-5.3-1.9c-0.6-0.8-0.7-1.8-0.8-2.7
		c-0.1-0.7-0.1-1.4-0.2-2.1c-0.1-1.2-0.6-2.2-1.8-2.7c-4.4-0.5-8.9-0.1-13.3-0.3c-2.3-0.1-4.7,0-6.1-2.3c-0.6-4.3-3.5-6.2-7.3-7.9
		C265.2,437.5,259,436.3,254.5,431.7z"/>
	<path class="st109" d="M300.8,457.8c1.9-0.3,3,1.3,4.5,2c6.9,7.3,5.4,14.9-4,20.1c-0.1-0.1-0.3-0.2-0.5-0.2
		c-0.3-0.2-0.5-0.4-0.8-0.6C299,471.9,297.5,464.8,300.8,457.8z"/>
	<path class="st110" d="M282.7,520.8c3.2,10.7,6.5,21.3,9.7,32c-4.6-0.7-6.1,1.2-6,5.8c0.3,12.4,0.1,24.9,0.1,37.3
		c0,4.6,0.3,9.3-1,13.8c-1.3,0-2.7,0-4,0c-3.6-1.9-3.5-5.4-3.5-8.7c-0.1-12.8,0-25.6,0-38.4c0-1.7,0.1-3.3-0.3-5
		c-0.2-1.1-0.5-2.4-2.1-2.3c-1.4,0.1-1.9,1.2-2.2,2.3c-0.5,1.8-0.4,3.6-0.4,5.5c0,13,0,26,0,38.9c0,2.8,0.1,5.7-2.5,7.7
		c-1,0-2,0-3,0c-1.6-2.5-2-5.1-2-8c0.1-15.9,0-31.9,0-47.8c4.2-1.4,6-4.6,7-8.7c1.3-5.5,3.1-10.8,4.8-16.2c1.2-3.7-0.1-4.8-3.6-4.7
		c-4,0.1-8,0.3-11.9-0.2c-1.3-0.2-4.3,0.4-2.7-2.9C266.9,519.7,274.8,520.2,282.7,520.8z"/>
	<path class="st111" d="M258.5,521.9c5.6,2,11.4,0.7,17.1,0.8c3.8,0.1,5,0.6,3.6,4.7c-2.5,7-4.7,14.1-6.5,21.3
		c-1.1,4.2-3.2,5.8-7.3,5.1c-6.8,0-13.5,0-20.3-0.1c-1.6,0-3.4,0.7-4.6-1c7.9-0.2,7.7,1.7,10.2-7.5c2.4-8.5,5.1-16.9,7.6-25.4
		C259,520.5,259,521.1,258.5,521.9z"/>
	<path class="st112" d="M167.3,552.7c0-4.3,0.2-8.6,0.1-12.9c-0.1-2.9,0.7-4.2,3.9-4.1c6.8,0.2,13.6,0.1,20.4,0
		c2.6,0,4.3,0.5,3.9,3.6c-0.3,2.1,0.3,3.2,2.6,3.9c4.5,1.4,6.9,4.9,7.5,9.6c-4.2,1.7-8.5,0.8-12.7,0.7
		C184.4,553.2,175.8,554.4,167.3,552.7z"/>
	<path class="st113" d="M155.7,552.8c0.1-19.1,0.2-38.2,0.3-57.3c-0.9-1.8-1-3.8-0.9-5.7c0.1-4.6-1.3-7.9-6.4-8.5
		c-0.5-0.4-0.5-0.8-0.2-1.3c6.9-0.4,7-0.4,6.9-7.5c0-4.9-0.2-9.8-0.2-14.8c-0.5-8.2,0.5-9.3,8.7-9.3c9.8,0,19.6,0,29.5,0
		c7.9,0,9.4,1.5,9.6,9.2c0.1,7.2,0.2,14.5-0.1,21.7c-0.7,7.3-2.1,8.6-9.3,8.9c-3,0.1-6,0.1-9,0c-3,0.1-6,0.1-8.9,0
		c-2.9,0.1-5.8,0.1-8.6,0c-1,0-1.9,0.1-2.9,0c-3.2-0.3-5.4,0.6-5.4,4.3c0,0.8-0.4,1.5-0.9,2.2c0,19.3,0,38.7,0,58
		C157,553.6,156.4,552.9,155.7,552.8z"/>
	<path class="st114" d="M232.5,551.9c-6.9,3.2-14,0.9-21,1.1c0.3-4.7,4.1-8,5.1-12.5c4.3-3.4,8.8-2.3,13.4-0.9
		c0.5,0.3,0.8,0.8,1.1,1.2C232.3,544.5,234.6,547.9,232.5,551.9z"/>
	<path class="st115" d="M122.7,495.7c0,19.1,0,38.2,0,57.2c-0.4,0.3-0.3,1.7-1.1,0.9c-0.5-0.5-0.4-1.8-0.4-2.8
		c0-23.7,0-47.5,0.1-71.2c0.4,0.1,0.8,0.2,1.2,0.2C124.9,485.3,124.5,490.5,122.7,495.7z"/>
	<path class="st116" d="M217.2,541.8c-0.9,4.2-3.4,7.7-5.6,11.2c-1.2-0.1-2.4,0.1-3.2-1.1c1.4-3.7,2.7-7.4,4.1-11
		c1.3-1.2,2.5-0.4,3.7,0.1C216.5,541.1,216.9,541.4,217.2,541.8z"/>
	<path class="st117" d="M239.4,540.6c2,3.3,0.8,6.8,0.9,10.3c-0.9,1.3-2,2.3-3.7,1.9c-1.8-3.9-2.7-8-2-12.3
		C236.1,539.4,237.8,539.4,239.4,540.6z"/>
	<path class="st118" d="M232.5,551.9c-0.7-3.7-1.4-7.4-2.1-11.1c1.1-1,2.1-0.9,3.2-0.1c0.6,3.9,3.2,7.8,0.8,11.9
		C233.8,552.4,233.2,552.2,232.5,551.9z"/>
	<path class="st119" d="M234.5,552.7c1-4-1.2-7.8-0.8-11.8c0.5-0.3,0.8-0.1,0.9,0.4c1.7,3.6,2.2,7.5,2,11.5
		C235.8,552.7,235.1,552.7,234.5,552.7z"/>
	<path class="st120" d="M254.5,431.7c6.8,2.9,13.6,5.9,20.5,8.7c2.9,1.2,4.3,2.9,3.3,6.1c-1.9,4-5.7,3.5-9.1,3.6
		c-21.3,0.2-42.6-0.1-63.8,0.1c-14.5-1.8-29.2-0.6-43.7-1c-3.7-0.1-7.6,1-11.2-0.6c-1-0.2-2-0.2-2.9-0.5c-1.9-0.6-3.9-1.5-4-3.9
		c-0.1-2.2,1.8-3,3.5-3.7c5.5-2.3,10.9-4.6,16.4-6.9c1.3,0.9,1.2,2.3,1,3.6c-0.9,5.2,1.8,6.3,6.2,5.4c1.6-1.5,3.6-1.1,5.5-1.4
		c23.2,0.2,46.4-0.4,69.6,0.2c1,0.1,1.9,0.5,2.6,1.2c6.7,0.1,6.6,0.1,5.4-6.4C253.5,434.7,252.9,433.1,254.5,431.7z"/>
	<path class="st121" d="M150.4,448.7c18.3,0,36.7,0,55,0c0.5,0.7,1,1.3,1.2,2.2c0.3,2,0.3,3.9-0.7,5.7c-1.3,1.3-2.7,1.9-4.5,1
		c-0.4-7.9-0.5-8-8.4-8c-9.7,0-19.3,0-29,0c-8.2,0-8.2,0-8.9,8.1c-0.2-0.3-0.5-0.6-0.7-0.8C154.8,453.3,155,449.8,150.4,448.7z"/>
	<path class="st122" d="M299.1,552.9c0-19.3,0-38.6,0.1-57.9c-1.8-2.4-1.2-5.3-1.2-8c-1.4-8.6-0.8-17.3-0.9-25.9
		c0-1.8,0.3-3.7-0.5-5.4c-0.5-1.2-1.4-2.3-1.4-3.8c2.3-3.3,3.8-1.3,5.3,0.8c0,0.7,0,1.4,0,2c-0.8,8.3-0.8,16.5,0,24.8
		c0,0,0.4,0,0.4,0c-0.1,23.1-0.1,46.3-0.2,69.4c0,1.5,0.4,3.2-0.2,4.4C299.6,555.2,299.6,553.1,299.1,552.9z"/>
	<path class="st123" d="M148.5,479.9c0.1,0.3,0.2,0.7,0.2,1c1.8,4.2,1.7,8.4,0.3,12.7c-3.3,1.5-6.7,4.1-9.4-0.8
		c-2.5-4.1-2.3-8.2-0.1-12.3C142.4,479.1,145.5,480.2,148.5,479.9z"/>
	<path class="st124" d="M139.4,480.6c0,4.1,0.1,8.2,0.1,12.3c-3,4.1-6.1,3.6-9.2,0.1c-2.1-4.2-2.3-8.3,0.2-12.4
		C133.5,479.6,136.5,479.6,139.4,480.6z"/>
	<path class="st125" d="M130.5,480.6c-0.1,4.1-0.1,8.2-0.2,12.4c-1.7,3.4-4.9,2.3-7.7,2.7c0-5.2-0.1-10.4-0.1-15.6
		C125.2,480,127.9,479.2,130.5,480.6z"/>
	<path class="st103" d="M270.4,609.7c0.8-2.5,1-5.2,1-7.8c-0.1-14.3,0-28.6,0-42.9c0-1.8-0.1-3.7,1.5-5.1c1.4-1.2,3.1-1.4,4.7-0.8
		c2,0.7,1.9,2.5,1.9,4.2c0,14.8,0.1,29.6,0,44.4c0,2.9,0.5,5.6,2,8.1C277.8,609.7,274.1,609.7,270.4,609.7z"/>
	<path class="st126" d="M175.3,442.5c-1.5,0-3.1,0.1-4.6,0.1c-0.3-22.1,19.2-40.7,42-40c20.4,0.6,37.2,19.5,35.8,40.1
		c-0.7,0-1.4,0-2,0c-1.6-0.7-1.8-2.2-2.1-3.7c-2-8.9-5.9-17-11.4-24.2c-2-2.7-5.1-3.8-8.2-4.4c-4.9-0.9-9.8-2.3-14.7-2.8
		c-5.5-0.6-11-0.4-13.9,5.9c-1.3,2.8-4.4,3.4-7.1,4.2c-7.4,2.3-7.9,2.9-7.4,10.4c0.2,2.8-0.8,4.9-2.8,6.6
		C176.3,436.8,175.2,439.4,175.3,442.5z"/>
	<path class="st127" d="M300.4,452.8c-1.6-1.2-3.2-2.5-5.3-0.8c-2,1.7-4.4,1.3-6.7,1.3c-7.5,0.1-15-0.1-22.5,0.1
		c-5.5,0.1-6.7,1.4-6.9,6.8c-0.2,7,0.3,14-0.3,21c-0.6,1.7-0.8,3.9-3.5,3.5c-0.4-0.5-0.7-1.1-0.9-1.7c-0.7-10.2-0.6-20.4-0.1-30.5
		c0.6-2.3,2.1-3.2,4.4-3.2c13.2-0.1,26.4-0.1,39.6,0c0.6,0,0.8,0.5,1.2,0.8C299.7,451,300.1,451.9,300.4,452.8z"/>
	<path class="st128" d="M299.4,450.1c-13.4-1-26.8-0.2-40.2-0.5c-2.4,0-3.6,1.3-4.2,3.5c-0.4,1.5,0.8,3.7-1.5,4.2
		c-3.3,0.6-3-2.9-4.5-4.4c-1.4-2.4-3.8-1.7-5.8-1.7c-11.7,0-23.4-0.3-35.1,0.2c-0.8,0-1.6-0.1-2.4-0.4c0-0.8-0.1-1.6-0.1-2.4
		c21.4-0.1,42.9-0.1,64.3-0.1c3,0,6-0.2,8.6-2c0.9,2,2.6,2.2,4.5,2.2c4.1-0.1,8.2-0.1,12.3,0C296.6,448.8,298.4,448.2,299.4,450.1z"
		/>
	<path class="st127" d="M300.4,479.6c-1.5-8.3-1.5-16.5,0-24.8c0.1,1,0.3,2,0.4,3C300.7,465.1,300.5,472.3,300.4,479.6z"/>
	<path class="st129" d="M228.4,510.9c-0.9,2.6-3.9,4.9-1,7.9c1.1,2,0.2,3.3-1.4,4.3c-3,0.1-6.2,1.3-8.6-1.7
		c-0.1-0.2-0.2-0.5-0.2-0.7c1.9-2,2.9-3.5-0.3-5.6c-2.3-1.5-2.2-4.8-3.4-7.3c0.7-1.5,0.5-3.2,1.6-4.6c1.9-2.4,3.8-3.6,6.5-1
		c1.8,1.7,3.8,3.2,5.8,4.6C229.1,507.8,229.7,509.1,228.4,510.9z"/>
	<path class="st130" d="M225.8,522.5c1-1,1.7-2.2,1.7-3.7c1,0.6,2,1.2,2.9,1.8c-2.6,4.5-3.5,9.2-1.5,14.2c0.4,0.9,0.3,1.9-0.2,2.9
		c-3.7,2.3-7.7,0.8-11.6,1.1c-4.1-2.6-5.2-5.3-4.3-10.3c0.4-2.5,1.9-4.5,2.6-6.9c0.6-0.3,1.2-0.5,1.7-0.8c0.2,0.1,0.4,0.1,0.5,0.1
		C219.4,526.2,222.8,523.5,225.8,522.5z"/>
	<path class="st131" d="M228.4,510.9c-1.3-4.9-6.1-6.5-9.5-8.8c-2.2-1.5-3.4,3.8-5.4,5.7c-1.5-4.1-0.1-7.3,2.9-10.1
		c2.8-2.7,5.8-3,9-0.7c2.2,1.7,4.3,3.5,6.5,5.1c1.6,1.1,2.7,2.4,2.5,4.5c-0.3,2.1-1.8,3-3.7,3.4
		C229.9,510.1,229.2,510.6,228.4,510.9z"/>
	<path class="st132" d="M210.6,493.6c-3.1,3.2-5.9,2.8-8.4-0.7c-2.7-3.7-0.3-7.6-0.3-11.4c1.7-2.6,3.4-1.6,4.4,0.4
		c1.2,2.5,3.4,3.3,5.4,4.7C213.2,489.2,212.8,491.6,210.6,493.6z"/>
	<path class="st133" d="M202.5,480.8c-0.1,4-0.2,8.1-0.3,12.1c-2.9,3.6-6.2,3.1-9.6,0.7c-1-2.4-0.8-4.6,0.7-6.8
		c7.1-0.1,7.4-0.4,8.2-7c0.3-0.4,0.7-0.4,1.1-0.2C202.9,480.1,202.8,480.5,202.5,480.8z"/>
	<path class="st134" d="M157.7,494.7c-0.4-8.1-0.4-8.1,8.5-7.8c1.8,2,1.9,3.9,0.1,6C164,496.1,161,496.2,157.7,494.7z"/>
	<path class="st135" d="M193.4,486.9c-0.2,2.3-0.5,4.5-0.7,6.8c-3.1,3.3-5.8,2.7-8.4-0.7c-1.5-1.9-1.4-3.9-0.1-5.9
		C187.2,486.9,190.3,486.9,193.4,486.9z"/>
	<path class="st136" d="M166.3,492.9c0-2-0.1-4-0.1-6c3.1,0,6.2,0,9.3,0c1.5,2,1.6,3.9-0.3,5.8C171.8,496.9,170.4,496.9,166.3,492.9
		z"/>
	<path class="st137" d="M175.3,492.7c0.1-1.9,0.2-3.8,0.3-5.8c2.9,0,5.8,0.1,8.6,0.1c0,2,0.1,4,0.1,5.9
		C180.1,496.8,179,496.8,175.3,492.7z"/>
	<path class="st138" d="M210.6,493.6c0.3-2.3,0.5-4.5,0.8-6.8c2.5-2.1,5.2-1.6,7.9-0.7c2.5,1.7,2.7,4,1.8,6.6
		c-2.2,3.7-5.2,3.6-8.6,2C211.9,494.4,211.2,494,210.6,493.6z"/>
	<path class="st139" d="M215.5,521.5c1.4,1.4,0,2.4-0.5,3.4c-2.3,4.7-2.4,9.1,1.7,13c0.9,1.2,0.3,2.5,0.1,3.7
		c-1.4-0.3-2.9-0.6-4.3-0.9c0-4.5-1-8.9-0.3-13.4C212.6,525,213.4,522.9,215.5,521.5z"/>
	<path class="st140" d="M212.5,494.7c2.8,0.3,5.6,0.5,7.7-2c2.2,0.4,3.8,1.5,5.3,3.1c0,0.4-0.1,0.7-0.1,1.1c-3.1-0.6-6-0.1-9,0.7
		C215.1,496.7,213.8,495.7,212.5,494.7z"/>
	<path class="st118" d="M228.8,536.8c-3.3-4.4-2.8-9.2-1.1-14c0.4-1.3,1-2.5,2.7-2.1c5.8,4.2,6.2,11,8.1,17c1,2.5-0.6,2.6-2.4,2.7
		c-2,0.1-3.1-1.6-4.8-2C230.4,538,229.4,537.7,228.8,536.8z"/>
	<path class="st141" d="M255.1,483.4c0.2,0.4,0.3,0.9,0.5,1.3c1,1,1,2.3,1.1,3.6c-0.1,1.8,0.5,3.6-0.5,5.2c-3.4,2.4-6.6,3-9.5-0.7
		c-2-1.4-1.6-3.4-1.1-5.3c0.9-1.9,3.3-2.5,4-4.5c0.3-0.6-0.1,0.2,0.2-0.4c0.7-1.5,1-3.7,3.3-3.4C255.9,479.5,254.5,482,255.1,483.4z
		"/>
	<path class="st138" d="M238.4,493.6c-3.3,2.6-6.6,2.4-9.9,0c-2.1-2.7-1.6-5.2,0.8-7.4c2.7-1.1,5.3-1.2,8,0
		C239,488.5,239.8,490.9,238.4,493.6z"/>
	<path class="st142" d="M274.2,493.6c-3.4,2.5-6.6,3-9.5-0.7c-2-1.9-1.7-4-0.6-6.2c3.6-1.9,7-2.5,10.1,0.9
		C274.8,489.6,275.3,491.6,274.2,493.6z"/>
	<path class="st138" d="M292.1,493.6c-3.3,1.6-6.7,3.6-9.5-0.8c-1.9-1.9-1.7-4-0.5-6.2c2.9-1.9,5.9-1.6,9-0.6
		C293.3,488.4,293.3,490.9,292.1,493.6z"/>
	<path class="st143" d="M238.4,493.6c-0.3-2.3-0.6-4.5-0.8-6.8c3.1-2.2,6.2-2.3,9.3,0.1c0,2,0,3.9-0.1,5.9
		C244.2,496.5,241.5,496.7,238.4,493.6z"/>
	<path class="st136" d="M282.6,487c0,2,0,3.9,0,5.9c-2.5,3.4-5.3,4.1-8.4,0.8c-0.5-1.6-0.8-3.3-0.4-5
		C276,484.8,277.9,484.5,282.6,487z"/>
	<path class="st144" d="M264.7,487c0,2,0,3.9,0,5.9c-2.5,3.5-5.3,4-8.4,0.7c-0.4-1.7-0.9-3.3-0.4-5.1
		C257.9,484.8,260.1,484.4,264.7,487z"/>
	<path class="st145" d="M229.2,486.8c-0.2,2.3-0.5,4.6-0.7,6.8c-1,0.7-2,1.5-3,2.2c-2.3-0.1-4.2-1-5.3-3.1c-0.2-2-0.3-4-0.5-5.9
		C222.8,484.7,226,484.7,229.2,486.8z"/>
	<path class="st146" d="M292.1,493.6c-0.3-2.2-0.5-4.5-0.8-6.7c2.6-2.2,5.3-2,8-0.1c-0.1,2.7-0.1,5.4-0.2,8.1
		C296.6,496.1,294.1,496.2,292.1,493.6z"/>
	<path class="st147" d="M231.4,537c1.6-0.3,2.2,1,3.2,1.9c1.8,1.7,3.3,1.3,3.9-1.2c0.9,0.8,1.1,1.9,0.8,3c-1.6,0.2-3.2,0.5-4.9,0.7
		c-0.3-0.2-0.6-0.3-0.9-0.4c-1.1,0-2.1,0-3.2,0c0,0-0.3-0.2-0.3-0.2C230.2,539.3,230.9,538.1,231.4,537z"/>
	<path class="st145" d="M149,493.6c-1-4.2-0.7-8.4-0.3-12.7c4.9-1.3,7.4,0.6,7.5,5.7c0.1,2.9,0.5,5.9-0.2,8.8
		C153.5,495.7,150.8,496.2,149,493.6z"/>
	<path class="st148" d="M259.1,528.1c4.6-0.1,9.2-0.5,13.8,1.2c-4.6,0-9.3,0-13.9,0C259.1,528.9,259.1,528.5,259.1,528.1z"/>
	<path class="st149" d="M257,536c4.5,0,9.1,0,13.6,0c0,0.2,0,0.3,0,0.5c-4.5,0-9.1,0-13.6,0C257,536.3,257,536.2,257,536z"/>
	<path class="st150" d="M258.2,532c4.5,0,9.1,0,13.6,0c0,0.2,0,0.4,0,0.6c-4.5,0-9,0-13.5,0C258.3,532.4,258.2,532.2,258.2,532z"/>
	<path class="st151" d="M178.5,452.2c5,0,10,0,15,0c3.3,0,4.8,1.6,4.8,4.9c-0.1,7.5,0,15,0,22.4c0,3.1-1.4,4.5-4.6,4.5
		c-10.3-0.1-20.6-0.1-30.9,0c-3.2,0-4.5-1.4-4.5-4.5c0.1-7.5,0.1-15,0-22.4c0-3.4,1.5-4.9,4.8-4.9
		C168.2,452.2,173.4,452.2,178.5,452.2z"/>
	<path class="st152" d="M202.3,479.8l-0.4,0.1c0,0-0.4,0-0.4,0c-0.6-7.4-0.3-14.8-0.2-22.2c1.2-0.3,2.4-0.5,3.6-0.8
		c1.8,0.9,1.8,2.7,1.9,4.3c0.1,4.6,0.2,9.3,0,13.9C206.7,477.7,206.3,480.6,202.3,479.8z"/>
	<path class="st153" d="M231.4,537c1.9,2-0.1,2.7-1.2,3.7c-4.4-0.8-8.9-2.1-13,1.1c0,0-0.4-0.1-0.4-0.1c0-1.2-0.1-2.5-0.1-3.7
		c4-0.6,8.3,0.6,12.2-1.2C229.7,536.8,230.5,536.9,231.4,537z"/>
	<path class="st154" d="M175.3,442.5c-2.5-2.4-2.4-4.5,0.5-6.5c3.7-2.6,5.7-5.6,3.9-10.6c-1.2-3.2,0.7-5.9,3.8-7.2
		c2.4-1,5-1.7,7.6-2.5c1.6-0.5,3.6-0.9,4-2.6c1.5-7.3,7.8-7.2,12.6-6.9c7.4,0.4,14.8,1.8,21.9,4.4c2.5,0.9,4.5,2.4,5.5,4.8
		c1.2,2.9,2.6,5.3,5.3,7c0.6,0.4,1.5,1.4,1.4,2c-1,6.8,5.3,11.7,4.7,18.3C222.6,442.6,198.9,442.6,175.3,442.5z"/>
	<path class="st155" d="M202.3,479.8c2.5,0.1,3-1.5,3-3.6c-0.1-6.5-0.2-12.9-0.3-19.4c0.2-1.9,0.4-3.8,0.6-5.8
		c1.5-1.3,3.2-1.5,5.1-1.5c11.5,0,23,0.1,34.5,0c2.7,0,5,0.4,5.7,3.5c1.5,10.1,1.7,20.2-0.1,30.4c-0.4,2.2-1.9,3.2-4,3.6
		c-3.1,0-6.2-0.1-9.3-0.1c-2.8,0-5.5,0-8.3,0c-3.2,0-6.4,0-9.6,0c-2.8,0-5.5,0-8.3,0c-3,0-5.5-0.6-6-4.2c-0.2-1.8-1.5-1.8-2.9-1.8
		C202.5,480.5,202.4,480.2,202.3,479.8z"/>
	<path class="st114" d="M257.6,481.4c0.1-7.8,0.3-15.6,0.1-23.4c-0.1-4.3,1.7-5.9,5.9-5.9c10.5,0.1,20.9-0.1,31.4-0.1
		c0.8,0.6,1.6,1.2,2.4,1.8c1,9.1,0.2,18.2,0.4,27.4c0.1,3.1-2.2,4-4.7,4c-10.1,0.2-20.3,0.2-30.4,0
		C260.3,485.2,258.2,484.2,257.6,481.4z"/>
	<path class="st156" d="M257.6,481.4c1.3,2,3.1,2.7,5.5,2.6c9.8-0.1,19.6-0.1,29.5,0c3.5,0.1,5.3-1.1,5.3-4.8
		c-0.2-8.5-0.2-17-0.3-25.4c1.4,1.1,1,2.7,1,4.2c0.2,9.6-0.6,19.3,0.9,28.9c-2.7,0-5.3,0.1-8,0.1c-2.9,0-5.8,0-8.7,0
		c-3,0.3-6.4-1.7-8.8,1.6c-2.5-3.5-6.1-1-9.1-1.6c-3,0.3-6.4-1.8-8.8,1.6c-0.1-1.3-0.2-2.6-0.3-3.8
		C256.3,483.6,257,482.5,257.6,481.4z"/>
	<path class="st157" d="M250.8,483.5c-0.4-10.1-0.5-20.3,0.1-30.4c1,1-0.3,3.3,1.8,3.5c2.6,0.3,1.2-2.5,2.3-3.5
		c0.6,10.1,0.4,20.2,0.1,30.3c-1-1,0.3-3.2-1.9-3.4C250.4,479.8,251.8,482.4,250.8,483.5z"/>
	<path class="st158" d="M225.8,522.5c-1.7,1.6-3.2,4.2-6.1,3.1c-2-0.7-2.7-2.6-2-4.8C219.9,523.6,223.3,521,225.8,522.5z"/>
	<path class="st159" d="M183.5,471.6c-3.5,0-6.9,0-10.4,0.1c-3.1,0.1-4.6-0.7-2.8-4c1.1-2,2.1-4,3.2-6c0.4,0.4,0.8,0.9,1.3,1.3
		c-0.4-0.4-0.9-0.8-1.3-1.3c0.6-1.3,1.2-2.7,1.8-4c3,1.6,5,4.3,7.3,6.7C184.5,466.6,185.2,469,183.5,471.6z"/>
	<path class="st160" d="M184.5,476.1c-6.2,0-12.4,0-18.5,0c0-0.3,0-0.5,0-0.8c6.2,0,12.4,0,18.5,0
		C184.4,475.5,184.5,475.8,184.5,476.1z"/>
	<path class="st161" d="M183.5,471.6c1.4-5.9-3.7-8.2-6.5-11.6c-0.6-0.7-1.6-1.1-1.6-2.2c4.8,1.1,10.1,7,10.3,11.4
		C185.7,470.7,185.4,471.8,183.5,471.6z"/>
	<path class="st162" d="M166,478.9c6.1,0,12.3,0,18.4,0c0,0.2,0,0.4,0,0.6c-6.1,0-12.1,0-18.2,0C166.1,479.3,166,479.1,166,478.9z"
		/>
	<path class="st163" d="M223.7,412.7c2.9,0.2,4.7,1.6,4.6,4.6c-0.1,3.1-1.9,5.2-4.9,5.1c-3-0.1-4.9-2.3-4.7-5.4
		C218.9,414.4,220.6,412.5,223.7,412.7z"/>
	<path class="st164" d="M209.3,435.4c-0.7,2.9-2.2,5.2-5.3,4.9c-2.6-0.2-4.7-1.9-4.5-4.9c0.3-2.9,1.8-4.9,5.1-4.7
		C207.9,430.8,208.8,432.9,209.3,435.4z"/>
	<path class="st165" d="M225.4,433.4c0.2,4.5-1.7,6.1-4.8,6.3c-2.8,0.1-4.2-1.7-4.3-4.4c-0.2-3.1,1.2-5.2,4.5-5.4
		C223.9,429.8,225.3,431.6,225.4,433.4z"/>
	<path class="st166" d="M187.8,426.9c2.9,0.4,5.1,1.9,5.2,4.7c0,2.8-1.5,5.1-4.9,5.2c-2.8,0.1-4.4-1.4-4.6-4.2
		C183.2,429.5,185.2,427.9,187.8,426.9z"/>
	<path class="st165" d="M235.8,426.9c2.9,0.5,4.6,2.1,4.7,5c0.1,2.9-1.3,4.8-4.3,4.9c-3.3,0.1-4.7-1.7-4.8-4.9
		C231.3,428.7,233.3,427.6,235.8,426.9z"/>
	<path class="st166" d="M198.3,417.6c0.1-3.1,1.6-5,4.8-4.9c3,0.1,4.4,2,4.3,4.9c-0.1,3-2.2,4.6-4.7,4.7
		C199.9,422.5,198.2,420.7,198.3,417.6z"/>
	<path class="st167" d="M195.1,436.9c0.9,0.3,1.9,0.6,1.8,1.9c-0.1,1-1.1,1.2-1.9,1.1c-1-0.1-2-0.6-1.8-1.8
		C193.3,437.1,194.2,436.9,195.1,436.9z"/>
	<path class="st168" d="M215.1,440.4c0,0.9-0.7,1.4-1.5,1.4c-1.1,0.1-2-0.3-2.1-1.5c-0.1-0.9,0.6-1.4,1.5-1.5
		C213.9,438.8,214.7,439.3,215.1,440.4z"/>
	<path class="st169" d="M214.5,422.8c1,0.1,1.9,0.5,1.9,1.7c-0.1,1-0.8,1.3-1.7,1.2c-1-0.1-1.9-0.6-1.9-1.7
		C212.8,423,213.7,422.9,214.5,422.8z"/>
	<path class="st114" d="M227.9,484c-5,0-10-0.1-15,0c-3,0.1-4.8-1-4.8-4.2c0-7.8,0-15.6,0-23.4c0-2.9,1.7-4.2,4.4-4.2
		c10.3,0,20.6,0,30.9,0c3,0,4.6,1.5,4.6,4.6c0,7.6,0,15.3,0,22.9c0,3.1-1.7,4.4-4.8,4.3C238.2,483.9,233,484,227.9,484z"/>
	<path class="st170" d="M270.4,465.7c0-3.1,2.1-5.4,3.3-8c6.3,1.2,10.5,7.4,8.9,12.9c-3.4,0-6.9,0.1-10.3,0.1
		c-1.2,0-2.8,0.6-3.5-0.9C267.8,468,268.8,466.7,270.4,465.7c0.9,0.5,2,0.9,2.8,2.1C272.6,466.3,271.3,466.3,270.4,465.7z"/>
	<path class="st171" d="M284,476.1c-6.2,0-12.4,0-18.6,0c0-0.3,0-0.5,0-0.8c6.2,0,12.4,0,18.6,0C284,475.6,284,475.8,284,476.1z"/>
	<path class="st172" d="M282.5,470.6c0.5-6.7-4.2-9.8-8.9-12.9c0.5-1.1,1.3-1.3,2.4-1c3.3,1.1,8.4,7.9,8.5,11.4
		C284.7,469.7,284.4,470.8,282.5,470.6z"/>
	<path class="st173" d="M265.5,478.9c6.1,0,12.3,0,18.4,0c0,0.2,0,0.5,0,0.7c-6.2,0-12.4,0-18.5,0
		C265.4,479.4,265.5,479.1,265.5,478.9z"/>
	<path class="st174" d="M176.1,469.8c-0.8,0.2-1.6,0.5-2.4,0.6c-1.4,0.1-2.3-0.8-2.1-2.1c0.2-1.6,1.4-1.8,2.6-1.1
		c1.1,0.6,1.9,2,3.2,0.3c0.8-1,1.8-1.6,2.9-0.3c0.4,0.4,0.7,1.3,0.6,1.7c-0.4,1.2-1.4,1.8-2.7,1.3
		C177.4,469.9,176.7,469.9,176.1,469.8z"/>
	<path class="st175" d="M173.5,461.8c1.7-0.1,3.5-0.3,3.5,2.2c0,0.5-0.8,1.3-1.3,1.3C173.2,465.4,173.5,463.5,173.5,461.8
		C173.5,461.8,173.5,461.8,173.5,461.8z"/>
	<path class="st176" d="M222.6,459.9c0.4-1.8,0.2-4.5,3.4-2.3c1.1,0.4,2,1.1,2.7,2c-0.6-1-1.8-1.3-2.4-2.3c4.8-0.2,10.3,6.5,9,10.9
		c-0.4,1.4-1.7,1.1-2.4,1.1c-4.4,0.4-8.8,0.8-13.3,0.9c-1.5,0.1-1.9-1.1-1.2-2.4c1.3-2.4,2.6-4.9,3.8-7.3c0.3,0.1,0.7,0.3,0.8,0.3
		C223.4,460.4,222.8,460.3,222.6,459.9z"/>
	<path class="st177" d="M234.9,476c-6,0-12.1,0-18.1,0c0-0.3,0-0.6,0-0.9c6.1,0,12.1,0,18.2,0C235,475.4,235,475.7,234.9,476z"/>
	<path class="st178" d="M217,478.9c6,0,12,0,18,0c0,0.2,0,0.5,0,0.7c-6,0-11.9,0-17.9,0C217.1,479.3,217,479.1,217,478.9z"/>
	<path class="st179" d="M222.6,459.9c1.3,0,2.8-0.4,2.7,1.7c0,0.8-0.5,1.8-1.3,1.8c-2,0.1-1.4-1.7-1.7-2.8
		C222.4,460.4,222.5,460.2,222.6,459.9z"/>
	<path class="st180" d="M270.4,465.7c4.1-2.3,3.5,2.6,6.3,3.4C272.4,470.5,271.9,467.4,270.4,465.7
		C270.4,465.7,270.4,465.7,270.4,465.7z"/>
	<path class="st181" d="M274.7,460c-0.2,2.2,3.4,2.7,2.2,5.2c-0.1,0.2-1,0.2-1.3,0C273.6,464,273.3,462.2,274.7,460z"/>
	<path class="st182" d="M227.6,464.9c1.2,0,1.9,0.6,1.9,1.8c0,1.1-0.4,2-1.7,2c-1.1,0-1.9-0.6-2-1.7
		C225.7,465.8,226.5,465.2,227.6,464.9z"/>
	<path class="st183" d="M226.3,457.3c2.4,0.9,4.1,2.5,5.2,5.3c-3.9,0.2-3.4-3.8-5.5-4.9C226,457.7,226.3,457.3,226.3,457.3z"/>
</g>
<g>
	<path class="st77" d="M225.8,619.1c0.2,0.2,0.4,0.4,0.6,0.6c0.2,0.3,0.5,0.5,0.8,0.7c0.7,0.5,1.3,1,2,1.5c0.3,0.2,0.5,0.3,0.8,0.5
		c-0.1,0.1-0.2,0.2-0.4,0.2c-0.7,0-1.3-0.2-1.9-0.6c0.2,0.3,0.5,0.5,0.9,0.7c0.1,0,0.2,0.1,0.4,0.1c0,0,0.1,0,0.1,0.1
		c0,0,0,0.1,0,0.1c-0.3,0.2-0.5,0.3-0.8,0.4c-0.7,0-1.3-0.2-2-0.5c0.4,0.4,0.6,0.5,1.1,0.7c0,0,0.1,0,0.1,0.1c0,0,0,0,0,0.1
		c-0.3,0.1-0.5,0.2-0.8,0.3c-0.6,0-1.1-0.2-1.6-0.4c-0.1,0-0.1-0.1-0.2-0.1c0.1,0.1,0.1,0.2,0.2,0.2c0.2,0.2,0.4,0.3,0.7,0.4
		c0,0,0.1,0,0.1,0.1c0,0,0,0-0.1,0c-0.3,0.1-0.5,0.2-0.8,0.2c-0.4,0-0.8-0.1-1.2-0.3c-0.1-0.1-0.3-0.1-0.4-0.2
		c0.2,0.2,0.5,0.4,0.8,0.5c0.1,0,0.1,0,0,0.1c-0.2,0.1-0.5,0.1-0.7,0.2c-0.4,0-0.8-0.1-1.2-0.2c-0.1,0-0.2-0.1-0.4-0.1
		c0.3,0.2,0.5,0.3,0.8,0.4c0,0,0.1,0,0.1,0.1c0,0-0.1,0-0.1,0.1c-0.3,0.1-0.5,0.1-0.8,0.2c-0.2,0-0.3-0.1-0.4-0.2
		c-0.5-0.3-1-0.7-1.4-1.1c-0.3-0.4-0.6-0.8-0.8-1.3c0-0.1-0.1-0.2-0.1-0.3c-0.1-0.3-0.1-0.5-0.2-0.8c0-0.2,0-0.3,0.1-0.5
		c0.1-0.2,0.3-0.3,0.4-0.5c0.4-0.3,0.9-0.5,1.4-0.4c0.1,0,0.2,0,0.3-0.1c0.7-0.7,1.5-1.1,2.4-1.2c0.7-0.1,1.4-0.1,2.1,0.1
		C225.6,619.1,225.7,619.1,225.8,619.1z"/>
	<path class="st78" d="M219,621.1c0,0.2-0.1,0.3,0,0.5c0,0.3,0.1,0.5,0.2,0.8c0,0.1,0,0.2,0.1,0.3c0.1,0.5,0.3,0.9,0.6,1.3
		c0.3,0.3,0.6,0.6,0.9,0.9c0.6,0.5,1.2,0.9,1.9,1.2c0.5,0.2,1,0.4,1.5,0.6c0.8,0.2,1.7,0.4,2.6,0.5c0.5,0.1,1,0.1,1.5,0.1
		c0.8,0,1.6,0,2.3,0c0.3,0,0.7,0,1,0c0.2,0,0.3,0.1,0.3,0.2c0.3,0.5,0.6,0.9,1.1,1.2c0.1,0.1,0.2,0.2,0.3,0.2c0,0,0.1,0,0.1,0.1
		c-0.2,0-0.4-0.1-0.7-0.1c-0.3,0-0.6-0.1-0.9-0.1c-0.8,0-1.5-0.1-2.3-0.1c-0.6,0-1.1-0.1-1.7,0c-0.1,0-0.2,0-0.3,0.2
		c0,0.1-0.1,0.2-0.2,0.4c0,0,0-0.1,0-0.1c0-0.1,0.1-0.2,0.1-0.4c-0.1,0.2-0.3,0.4-0.4,0.7c0,0-0.1,0.1-0.1,0.1c0,0-0.1,0.1-0.1,0
		c-0.1,0,0-0.1,0-0.1c0-0.1,0.1-0.3,0.1-0.4c0-0.1,0-0.2,0-0.3c-0.1,0.2-0.2,0.4-0.3,0.5c0,0.1-0.1,0.2-0.2,0.2c-0.1,0,0-0.1,0-0.2
		c0-0.1,0-0.2,0-0.3c0-0.1,0-0.1,0-0.2c-0.1,0.1-0.2,0.3-0.2,0.4c0,0.1-0.1,0.2-0.1,0.3c0,0,0,0.1-0.1,0.1c-0.1,0-0.1-0.1-0.1-0.1
		c0-0.2,0-0.4-0.1-0.6c0,0,0-0.1,0-0.2c-0.1,0.2-0.2,0.4-0.3,0.6c0,0.1,0,0.2-0.1,0.2c-0.1,0-0.1-0.1-0.1-0.2
		c-0.1-0.2-0.1-0.4-0.2-0.6c0-0.1,0-0.1-0.1-0.2c-0.1,0.1-0.1,0.3-0.1,0.4c0,0.1,0,0.2,0,0.2c0,0,0,0.1-0.1,0.1c0,0-0.1,0-0.1-0.1
		c0-0.1-0.1-0.2-0.1-0.3c-0.1-0.2-0.1-0.4-0.2-0.5c0,0,0,0,0-0.1c0,0.2-0.1,0.3-0.1,0.5c0,0.1,0,0.1,0,0.2c-0.1,0-0.1-0.1-0.1-0.1
		c-0.1-0.3-0.3-0.5-0.3-0.8c0,0.1,0,0.3,0,0.5c0,0.1,0.1,0.3,0.1,0.4c0,0.1,0,0.1,0,0.1c-0.1-0.3-0.2-0.5-0.3-0.8
		c-0.2-0.4-0.5-0.8-0.9-1c-0.7-0.5-1.5-1-2.1-1.6c-1-0.9-1.8-1.9-2.2-3.1c-0.2-0.5-0.2-1-0.3-1.5c0-0.2,0-0.4,0-0.6c0,0,0-0.1,0-0.1
		c0,0,0,0.1,0,0.1c0,0.1,0,0.2,0.1,0.2c0.2,0.1,0.4,0.2,0.6,0.3C218.8,621.1,218.9,621.1,219,621.1C219,621.1,219,621.1,219,621.1z"
		/>
	<path class="st79" d="M219,621C219,621.1,218.9,621.1,219,621c-0.4,0-0.6-0.2-0.9-0.3c-0.1,0-0.1-0.1-0.1-0.2c0-0.1,0-0.1,0-0.2
		c0.1-1.3,0.3-2.6,0.7-3.9c0,0,0,0,0.1,0c0.2,0.3,0.6,0.4,0.9,0.5c0.8,0.2,1.6,0.2,2.4,0c0.6-0.2,1.1-0.4,1.5-0.8
		c0.1,0,0.1-0.1,0.2-0.1c0.1,0.4,0.2,0.9,0.3,1.3c0.1,0.4,0.3,0.8,0.5,1.2c0,0.1-0.1,0-0.1,0c-0.3-0.1-0.5-0.1-0.8-0.2
		c-0.7-0.1-1.4,0-2,0.3c-0.5,0.2-1,0.6-1.4,1c-0.1,0.1-0.1,0.1-0.2,0.1c-0.5,0-0.8,0.3-1,0.7c-0.1,0.1-0.1,0.3-0.1,0.4
		C219,621,219,621,219,621z"/>
	<path class="st80" d="M223.9,616c-0.2,0.1-0.3,0.2-0.4,0.3c-0.6,0.4-1.3,0.7-2,0.7c-0.4,0-0.8,0-1.2,0c-0.4-0.1-0.7-0.2-1.1-0.3
		c-0.2-0.1-0.3-0.2-0.4-0.3c0.2-0.7,0.4-1.4,0.7-2.1c0-0.1,0.1,0,0.1,0c0.3,0.1,0.5,0.1,0.8,0.1c0.8,0,1.5-0.3,2-0.9
		c0.3-0.4,0.5-0.8,0.5-1.3c0-0.3,0-0.6-0.1-0.9c0,0-0.1-0.1,0-0.1c0.4,0.7,0.5,1.4,0.7,2.2C223.6,614.2,223.7,615.1,223.9,616z"/>
	<path class="st81" d="M222.8,611.1C222.7,611.2,222.7,611.2,222.8,611.1c0.1,0.3,0.2,0.6,0.2,0.9c0,0.5-0.1,1-0.5,1.4
		c-0.4,0.6-1,0.8-1.7,0.9c-0.4,0.1-0.8,0-1.2-0.1c0,0-0.1,0-0.1,0c0.1-0.2,0.2-0.4,0.2-0.7c0.1-0.6-0.3-1.2-0.9-1.3
		c-0.1,0-0.3,0-0.4,0c0-0.1,0-0.1,0-0.1c0.2-0.2,0.4-0.3,0.6-0.3c0.1,0,0.3-0.1,0.4-0.1c-0.1-0.1-0.2-0.1-0.2-0.1
		c-0.1-0.1-0.2-0.3-0.2-0.4c0-0.1-0.1-0.2-0.2-0.2c0,0-0.1,0-0.1,0c0.4-0.6,0.9-1,1.6-1.1C221.3,609.7,222.2,610.2,222.8,611.1
		C222.8,611.1,222.8,611.1,222.8,611.1z"/>
	<path class="st82" d="M233.7,624.2c0.5,0.2,1.1,0.4,1.6,0.6c0.1,0,0.1,0,0.2,0.1c0,0.1-0.1,0.1-0.1,0.1c-0.7,0.3-1.3,0.5-2,0.7
		c-0.9,0.3-1.8,0.5-2.8,0.7c0,0-0.1,0-0.1,0c-0.8,0.2-1.5,0.3-2.3,0.3c-1.3,0.1-2.5,0-3.8-0.4c-0.1,0-0.1,0-0.2-0.1c0,0-0.1,0,0-0.1
		c0.2-0.1,0.3,0,0.5-0.1c0.3,0,0.6-0.1,0.9-0.1c0.3,0,0.5,0,0.8-0.1c0.3,0,0.5-0.1,0.8-0.1c0.3,0,0.6-0.1,0.9-0.1
		c0.2,0,0.5-0.1,0.7-0.1c0.3,0,0.6-0.1,1-0.2c0.3-0.1,0.5-0.1,0.8-0.2c0.2-0.1,0.5-0.1,0.7-0.2c0.3-0.1,0.6-0.2,1-0.3
		c0.2-0.1,0.5-0.1,0.7-0.2c0.2-0.1,0.5-0.2,0.7-0.3C233.5,624.2,233.6,624.2,233.7,624.2z"/>
	<path class="st82" d="M228.2,623.3c0.3-0.1,0.6-0.3,0.9-0.4c0.2-0.1,0.3-0.2,0.5-0.3c0.1-0.1,0.2-0.2,0.4-0.2
		c0.4,0.3,0.9,0.5,1.3,0.7c0,0.1,0,0.1-0.1,0.1c-0.6,0.3-1.2,0.7-1.9,1c-0.6,0.2-1.1,0.5-1.7,0.7c0,0-0.1,0-0.1,0.1
		c-0.9,0.3-1.9,0.5-2.9,0.7c-0.5,0.1-1,0.1-1.5,0.2c0,0-0.1,0-0.1,0c-0.3,0-0.5-0.1-0.7-0.2c-0.1-0.1-0.3-0.1-0.4-0.2
		c0,0-0.1-0.1,0-0.1c0.3-0.1,0.6-0.1,0.9-0.2c0.2-0.1,0.4-0.1,0.5-0.1c0.1,0,0.1,0,0.2,0c0.2-0.1,0.5-0.1,0.7-0.2
		c0.3-0.1,0.5-0.2,0.8-0.2c0.3-0.1,0.6-0.2,0.8-0.2c0,0,0,0,0,0c0.3-0.1,0.5-0.2,0.7-0.2c0.3-0.1,0.6-0.2,0.9-0.3
		c0.1-0.1,0.2-0.1,0.3-0.2C227.9,623.4,228.1,623.3,228.2,623.3z"/>
	<path class="st83" d="M221.8,625.2C221.8,625.3,221.8,625.3,221.8,625.2c0.3,0.2,0.5,0.3,0.8,0.5c0.1,0,0.2,0,0.3,0
		c0,0.1-0.1,0-0.1,0c0.4,0.1,0.7,0.3,1.1,0.4c0.1,0,0.2,0,0.2,0.1c0,0,0,0,0,0c0.6,0.2,1.1,0.3,1.7,0.4c0.6,0.1,1.2,0.1,1.7,0.1
		c0.5,0,1-0.1,1.5-0.1c0.5-0.1,1-0.1,1.4-0.2c0.1,0,0.1,0,0.2,0c0.2,0.1,0.3,0,0.5,0c0.2,0,0.5,0,0.7,0c0.4,0,0.8,0,1.2,0
		c0.1,0,0.2,0,0.4,0c0.1,0,0.1,0,0.2,0c0,0-0.1,0-0.1,0c0.2,0.2,0.4,0.3,0.5,0.5c0,0-0.1,0.1-0.1,0.1c-0.4,0-0.9,0.1-1.3,0.1
		c-0.1,0-0.2,0-0.2,0c-0.1,0-0.2,0-0.3,0c-0.1,0-0.2,0-0.3,0c0,0-0.1,0-0.1,0c-1,0.1-2.1,0.1-3.1,0c-0.6,0-1.1-0.1-1.7-0.1
		c-0.6-0.1-1.2-0.1-1.8-0.3c-0.7-0.1-1.4-0.3-2.1-0.6c-0.8-0.4-1.5-0.8-2.2-1.4c-0.5-0.4-1-0.9-1.3-1.5c-0.1-0.3-0.2-0.6-0.3-0.9
		c0,0,0-0.1,0-0.1c0.1,0.4,0.3,0.7,0.6,1.1c0.5,0.7,1.2,1.3,2,1.7C221.7,625.2,221.8,625.2,221.8,625.2z"/>
	<path class="st84" d="M223.8,629.1c0-0.2,0-0.3-0.1-0.5c-0.1-0.2-0.1-0.4,0-0.6c0.1,0.3,0.3,0.7,0.5,1c0.1,0,0-0.1,0-0.1
		c0-0.2,0-0.3,0-0.5c0,0,0-0.1,0.1-0.1c0,0,0,0.1,0.1,0.1c0.1,0.3,0.2,0.6,0.3,0.8c0,0,0,0.1,0,0.1c0.1,0,0,0,0-0.1
		c0-0.2,0.1-0.4,0.1-0.5c0,0,0-0.1,0-0.1c0,0,0,0,0,0c0,0,0,0,0,0.1c0.1,0.2,0.1,0.5,0.2,0.7c0,0.1,0,0.2,0.1,0.2
		c0.1,0,0.1-0.1,0.1-0.2c0.1-0.2,0.2-0.4,0.3-0.7c0.1,0.1,0.1,0.3,0.1,0.4c0,0.1,0,0.3,0.1,0.4c0,0,0,0.1,0,0.1c0,0,0.1,0,0.1-0.1
		c0.1-0.2,0.2-0.4,0.3-0.6c0-0.1,0.1-0.2,0.1-0.1c0.1,0,0.1,0.1,0.1,0.2c0,0.2,0,0.3,0,0.5c0,0,0,0.1,0,0.1c0,0,0.1,0,0.1-0.1
		c0.1-0.2,0.2-0.4,0.3-0.6c0-0.1,0.1-0.1,0.1-0.2c0,0.2,0,0.4,0,0.5c0,0.1,0,0.2-0.1,0.2c0,0,0,0.1,0,0.1c0,0,0.1,0,0.1,0
		c0.1-0.2,0.3-0.4,0.4-0.6c0-0.1,0.1-0.1,0.1-0.2c0,0,0,0,0.1,0c0,0,0,0,0,0.1c0,0.2-0.1,0.3-0.1,0.5c-0.3,0.6-0.6,1.2-1,1.7
		c-0.2,0.3-0.4,0.5-0.5,0.8c-0.1,0.1-0.1,0.2-0.2,0.2c-0.3,0.1-0.6,0-0.7-0.2c0,0,0-0.1,0-0.1c0-0.1,0-0.2,0-0.3
		c0-0.2,0-0.3-0.1-0.4C224.3,630.3,224,629.7,223.8,629.1z"/>
	<path class="st77" d="M227.6,624.7c0.8-0.3,1.6-0.6,2.4-1c0.4-0.2,0.8-0.4,1.2-0.6c0,0,0.1,0,0.1-0.1c0.7,0.3,1.4,0.7,2.1,1
		c0.1,0,0.2,0.1,0.3,0.1c0,0-0.1,0-0.1,0c-0.3,0.1-0.5,0.2-0.8,0.3c-0.1,0-0.3,0-0.4,0c-0.6-0.2-1.3-0.4-1.8-0.8
		c0.3,0.4,0.9,0.8,1.4,1c0,0,0.1,0,0.1,0.1c-0.3,0.1-0.6,0.2-1,0.3c-0.1,0-0.3,0-0.4,0c-0.6-0.1-1.1-0.3-1.7-0.6
		c0.4,0.3,0.8,0.6,1.3,0.8c0,0,0.1,0,0.1,0.1c-0.3,0.1-0.5,0.1-0.8,0.2c-0.2,0-0.3,0-0.5,0c-0.5-0.1-1-0.3-1.4-0.5
		C227.6,624.8,227.5,624.8,227.6,624.7z"/>
	<path class="st85" d="M219,621c0.1-0.5,0.4-1.1,0.9-1.2c0.1,0,0.2-0.1,0.3,0c0.2,0,0.2-0.1,0.3-0.2c0.9-1,2-1.4,3.3-1.3
		c0.3,0,0.6,0.1,0.8,0.2c0,0,0.1,0,0.1,0c0.1,0.1,0.2,0.1,0.3,0.2c0.3,0.1,0.5,0.3,0.7,0.4c-0.2-0.1-0.5-0.1-0.7-0.2
		c-0.4-0.1-0.8-0.1-1.2,0c-0.6,0-1.1,0.2-1.6,0.5c-0.4,0.2-0.8,0.5-1.1,0.8c-0.1,0.1-0.1,0.1-0.2,0.1c-0.5-0.1-1,0-1.4,0.3
		C219.3,620.7,219.2,620.8,219,621C219.1,621,219,621.1,219,621C219,621.1,219,621.1,219,621z"/>
	<path class="st86" d="M236.5,628.2c0.3,0.1,0.5,0.2,0.8,0.3c0.6,0.3,1.2,0.5,1.7,0.8c0.1,0.1,0.2,0.1,0.3,0.2c0,0,0.1,0.1,0.1,0.1
		c0,0.1-0.1,0-0.1,0c-0.3,0-0.6,0-0.9-0.1c-1-0.1-2.1-0.3-3.1-0.4c0,0-0.1,0-0.1,0c-0.8-0.1-1.4-0.4-2.1-0.9
		c-0.2-0.1-0.4-0.3-0.5-0.5c0,0-0.1-0.1-0.1-0.1c0-0.1,0.1,0,0.1,0c0.6,0.2,1.2,0.4,1.7,0.6c0.5,0.1,1,0.2,1.5,0.3
		c0.2,0,0.4,0,0.5,0c0.1,0,0.1,0,0.1-0.1c0-0.1,0-0.1-0.1-0.1C236.6,628.4,236.6,628.4,236.5,628.2
		C236.5,628.3,236.4,628.2,236.5,628.2z"/>
	<path class="st87" d="M236.5,628.2C236.5,628.2,236.5,628.2,236.5,628.2c0.1,0.1,0.2,0.1,0.2,0.2c0,0,0.1,0.1,0.1,0.1
		c0,0.1-0.1,0.1-0.1,0.1c-0.2,0-0.3,0-0.5,0c-1-0.1-1.9-0.3-2.8-0.7c-0.2-0.1-0.5-0.2-0.7-0.3c0.1,0.2,0.3,0.4,0.4,0.5
		c0.6,0.5,1.3,0.8,2.1,1c0,0,0.1,0,0.1,0c-0.4-0.1-0.7-0.1-1.1-0.2c-0.3,0-0.5-0.1-0.8-0.1c-0.2-0.1-0.4-0.3-0.6-0.4
		c-0.4-0.3-0.7-0.7-0.9-1.1c-0.1-0.1-0.1-0.2-0.3-0.2c0,0,0.1,0,0.1,0c0.2,0,0.3,0,0.5,0c0.1,0,0.1,0,0.2,0c0.1,0,0.1,0,0.2,0
		c0.5,0.2,0.9,0.4,1.4,0.4c0.3,0,0.7,0.1,1,0c0.1,0,0.1,0,0.2,0C235.5,627.8,236,628,236.5,628.2
		C236.5,628.2,236.5,628.2,236.5,628.2z"/>
	<path class="st81" d="M230.6,626.4c-0.1,0-0.1,0-0.2,0c0.9-0.2,1.8-0.4,2.7-0.6c0.8-0.2,1.5-0.5,2.3-0.8c0,0,0.1,0,0.1-0.1
		c0.2,0,0.4,0.1,0.5,0.2c0,0,0.1,0,0.1,0.1c0.2,0.1,0.3,0.2,0.4,0.4c0.1,0.1,0.1,0.2-0.1,0.3c-0.3,0.1-0.6,0.2-0.8,0.3
		c-0.7,0.2-1.5,0.3-2.2,0.3c-0.6,0.1-1.1,0.1-1.7,0.1c-0.3,0-0.7,0-1,0C230.7,626.4,230.6,626.4,230.6,626.4z"/>
	<path class="st88" d="M224.8,631.5c0.1,0.2,0.2,0.3,0.4,0.4c0.1,0,0.2,0,0.3,0c0,0.1-0.1,0.3-0.1,0.4c0,0.1-0.1,0.2-0.1,0.3
		c0,0.2-0.1,0.3-0.2,0.5c0,0.1-0.1,0.1-0.1,0.2c-0.3,0.2-0.6,0.3-1,0.3c-0.5,0-1,0-1.5,0c-0.1,0-0.2,0-0.4-0.1c0,0-0.1,0-0.1,0
		c-0.2,0.1-0.3,0.1-0.5-0.1c-0.1-0.1-0.2-0.2-0.1-0.4c0.1-0.2,0.4-0.3,0.6-0.2c0,0,0.1,0.1,0.1,0.1c0.6,0.1,1.1,0.1,1.6-0.1
		c0.1,0,0.2-0.1,0.3-0.1c0,0,0.1-0.1,0.1-0.1c0,0,0-0.1,0-0.1c0,0-0.1,0-0.1,0c0,0-0.1,0-0.1,0c0.2-0.2,0.4-0.5,0.6-0.8
		C224.7,631.6,224.8,631.6,224.8,631.5z"/>
	<path class="st86" d="M231.8,626.4c0.7,0,1.4-0.1,2-0.1c0.7-0.1,1.4-0.2,2-0.4c0.2-0.1,0.4-0.1,0.6-0.2c0.1,0,0.1-0.1,0.1-0.2
		c-0.1-0.2-0.3-0.3-0.5-0.4c0,0-0.1,0-0.1-0.1c0,0,0,0,0,0c0.8,0.2,1.6,0.5,2.4,0.7c0.1,0,0.1,0,0.1,0.1c0,0.1-0.1,0.1-0.1,0.1
		c-0.4,0.2-0.8,0.2-1.1,0.3c-1.2,0.2-2.5,0.3-3.7,0.3c0,0,0,0,0,0c-0.2,0-0.3,0-0.5,0c-0.5,0-1,0-1.6,0c-0.3,0-0.6,0-0.9-0.1
		c0,0,0,0,0,0c0.1,0,0.1,0,0.2,0C231.1,626.4,231.4,626.4,231.8,626.4z"/>
	<path class="st86" d="M235,627.6c-0.2,0.1-0.4,0.1-0.6,0.1c-0.6,0.1-1.1-0.1-1.7-0.3c-0.2-0.1-0.3-0.1-0.5-0.2
		c0.2-0.1,0.4,0,0.5-0.1c0.4,0,0.8-0.1,1.1-0.1C234.3,627.2,234.7,627.4,235,627.6z"/>
	<path class="st89" d="M225.1,633.2C225.1,633.2,225,633.2,225.1,633.2c0.1-0.2,0.2-0.4,0.3-0.6c0.2,0.1,0.3,0.2,0.5,0.2
		c0.3,0,0.6,0,0.9,0c0,0,0,0.1,0,0.1c0,0.1,0.1,0.1,0.1,0.2c0,0.2-0.2,0.4-0.4,0.4c-0.2,0-0.4,0-0.5-0.1c-0.1-0.1-0.3-0.1-0.5-0.2
		C225.4,633.2,225.2,633.2,225.1,633.2z"/>
	<path class="st90" d="M219.2,611.6c0.1,0,0.2,0.1,0.3,0.2c-0.1,0-0.3,0.1-0.4,0.1c-0.3,0.1-0.5,0.2-0.7,0.4c0,0-0.1,0.1-0.1,0.1
		c-0.3,0.1-0.6,0.1-0.9,0.1c-0.1,0-0.2-0.1-0.2-0.2c0-0.1,0.1-0.2,0.2-0.3c0.2-0.2,0.4-0.3,0.6-0.4c0.1,0.1,0.1,0.1,0.1,0.2
		c0,0.1-0.1,0-0.2,0c0.1,0.1,0.1,0.1,0.2,0C218.6,611.7,218.9,611.7,219.2,611.6C219.2,611.6,219.2,611.6,219.2,611.6z"/>
	<path class="st91" d="M218.2,611.6c-0.1-0.1-0.1-0.1-0.1-0.2c0.1-0.3,0.3-0.4,0.5-0.5c0.2,0,0.3,0.1,0.3,0.3c0,0.1,0.1,0.2,0.2,0.3
		c0,0,0,0,0,0.1c-0.3,0.2-0.5,0.2-0.8,0.1C218.3,611.7,218.3,611.7,218.2,611.6C218.2,611.7,218.2,611.7,218.2,611.6z"/>
	<path class="st89" d="M224.1,632.5C224.2,632.5,224.2,632.4,224.1,632.5c0.1-0.1,0.2-0.1,0.2-0.1c0,0,0,0.1,0,0.1
		c0,0.1-0.1,0.3-0.3,0.3c-0.3,0.1-0.5,0.1-0.8,0.1c-0.3,0-0.7,0-1,0c0,0-0.1,0-0.1,0c-0.2-0.2-0.5-0.1-0.6,0.1c-0.1,0-0.2,0-0.2,0.1
		c0,0-0.1,0-0.1,0c0,0,0-0.1,0-0.1c0-0.2,0.3-0.3,0.5-0.3c0,0,0.1,0,0.1,0c0.1,0.1,0.2,0.1,0.3,0.1c0.5,0.1,1,0.1,1.5,0
		C223.9,632.7,224,632.6,224.1,632.5z"/>
	<path class="st92" d="M221.8,632.7c-0.1,0-0.3,0-0.4,0.1c-0.1,0.1-0.2,0.2-0.2,0.3c0.1-0.1,0.2-0.1,0.3-0.1c0,0,0.1,0,0.1,0
		c-0.1,0.1,0,0.3,0.1,0.4c0,0-0.1,0-0.1,0c-0.2-0.1-0.3,0-0.4,0.1c0,0,0,0.1-0.1,0c0,0,0-0.1,0-0.1c0-0.1,0.1-0.2,0.1-0.2
		c0.1-0.1,0-0.1,0-0.1c-0.2,0-0.3,0-0.4,0.1c0,0-0.1,0.1-0.1,0c-0.1,0,0-0.1,0-0.1c0-0.1,0.1-0.2,0.1-0.2
		C221,632.5,221.4,632.4,221.8,632.7C221.8,632.6,221.8,632.6,221.8,632.7z"/>
	<path class="st93" d="M226.9,633.1c0-0.1-0.1-0.2-0.1-0.2c-0.1-0.1,0,0,0-0.1c0.1,0,0.2,0.1,0.3,0.1c0.1,0.1,0.1,0.1,0.1,0.2
		c0,0,0,0.1,0,0.1c0,0-0.1,0-0.1,0C227.1,633.1,227,633.1,226.9,633.1z"/>
	<path class="st94" d="M229.6,622.6c-0.2,0.1-0.3,0.2-0.5,0.3c-0.3-0.1-0.5-0.1-0.7-0.3c-0.3-0.2-0.5-0.4-0.7-0.6
		C228.3,622.3,228.9,622.5,229.6,622.6z"/>
	<path class="st94" d="M228.2,623.3c-0.2,0.1-0.5,0.2-0.7,0.3c0,0-0.1,0-0.1-0.1c-0.5-0.2-0.9-0.4-1.2-0.8
		C226.8,623.1,227.5,623.3,228.2,623.3z"/>
	<path class="st94" d="M226.6,624c-0.3,0.1-0.5,0.2-0.8,0.3c-0.2-0.1-0.4-0.2-0.6-0.3c-0.2-0.1-0.3-0.2-0.4-0.4
		C225.4,623.7,226,623.9,226.6,624z"/>
	<path class="st94" d="M225,624.5c-0.3,0.1-0.5,0.2-0.8,0.2c0,0,0,0,0-0.1c-0.4-0.1-0.7-0.3-0.9-0.6c0,0,0,0,0-0.1
		C223.8,624.2,224.4,624.5,225,624.5z"/>
	<path class="st95" d="M223.5,624.9c-0.2,0.1-0.5,0.1-0.7,0.2c-0.2-0.1-0.4-0.2-0.6-0.3c-0.1-0.1-0.2-0.1-0.3-0.2
		C222.4,624.7,222.9,624.9,223.5,624.9z"/>
	<path class="st96" d="M220.6,611.5c-0.2,0-0.3-0.1-0.4-0.2c0,0-0.1-0.1-0.1-0.1c-0.1,0-0.1,0-0.2-0.1c0-0.1,0-0.1,0.1-0.2
		c0.1,0,0.1-0.1,0.1-0.1c0.1-0.3,0.3-0.4,0.5-0.4c0.2,0,0.5,0.2,0.5,0.5c0,0.3-0.1,0.5-0.4,0.6C220.7,611.5,220.7,611.5,220.6,611.5
		z"/>
	<path class="st77" d="M224.1,626.2c-0.2,0-0.4-0.1-0.7-0.2c-0.2-0.1-0.4-0.2-0.7-0.3c0,0,0,0,0,0c0,0,0.1,0,0.1,0
		c1.2-0.1,2.3-0.3,3.4-0.6c0.4-0.1,0.8-0.2,1.2-0.3c0.1,0,0.1,0,0.1,0c0.3,0.3,0.6,0.5,1,0.7c0,0,0.2,0,0,0.1
		c-0.2,0.1-0.5,0.1-0.7,0.1c-0.2,0-0.4,0-0.7-0.1c-0.4-0.1-0.7-0.2-1.1-0.4c0.2,0.2,0.5,0.4,0.8,0.5c0,0,0.1,0,0,0.1
		c-0.3,0-0.5,0.1-0.8,0.1c-0.2,0-0.4,0-0.6-0.1c-0.4-0.1-0.7-0.2-1-0.3c0.2,0.2,0.5,0.3,0.8,0.4c0,0,0.1,0,0.1,0.1
		C225,626.2,224.5,626.2,224.1,626.2z"/>
	<path class="st94" d="M232.1,624.7c-0.1-0.1-0.3-0.1-0.4-0.2c-0.4-0.2-0.7-0.4-1-0.7c-0.1-0.1-0.1-0.1-0.2-0.3
		c0.3,0.2,0.6,0.3,0.8,0.5c0.5,0.2,1,0.4,1.5,0.4C232.6,624.6,232.3,624.7,232.1,624.7z"/>
	<path class="st94" d="M230.4,625.2c-0.4-0.1-0.7-0.3-1-0.5c-0.2-0.1-0.3-0.2-0.4-0.4c0,0,0,0,0,0c0.5,0.3,1.1,0.5,1.7,0.6
		c0.1,0,0.3,0.1,0.4,0.1C230.9,625.1,230.6,625.2,230.4,625.2z"/>
	<path class="st94" d="M228.6,625.6C228.7,625.6,228.6,625.6,228.6,625.6c-0.2-0.1-0.3-0.2-0.5-0.3c-0.2-0.1-0.4-0.3-0.5-0.5
		c0,0-0.1-0.1-0.1-0.1c0,0,0.1,0,0.1,0c0,0,0,0.1,0,0.1c0.5,0.3,1.1,0.5,1.7,0.6c0.1,0,0.2,0,0.2,0
		C229.3,625.5,228.9,625.6,228.6,625.6z"/>
	<path class="st94" d="M227,625.9C227,625.9,227.1,625.9,227,625.9c-0.4-0.2-0.7-0.4-0.9-0.7c0.6,0.3,1.2,0.5,1.8,0.5
		C227.6,625.8,227.3,625.9,227,625.9z"/>
	<path class="st97" d="M225.5,626.1c0-0.1-0.1-0.1-0.1-0.1c-0.3-0.1-0.6-0.3-0.8-0.5c0.6,0.2,1.1,0.4,1.7,0.4
		C226,626.1,225.7,626.1,225.5,626.1z"/>
	<path class="st83" d="M231.8,626.4c-0.1,0-0.1,0-0.2,0c-0.2,0-0.5,0-0.7,0c0,0-0.1,0-0.1,0C231.1,626.4,231.4,626.4,231.8,626.4z"
		/>
	<path class="st98" d="M218.2,611.6C218.2,611.6,218.2,611.7,218.2,611.6C218.3,611.7,218.3,611.7,218.2,611.6
		c-0.1,0.1-0.1,0.1-0.2,0c0,0,0,0,0-0.1C218.1,611.6,218.1,611.6,218.2,611.6z"/>
	<path class="st99" d="M220.2,611c0-0.2,0.2-0.4,0.4-0.4c0.2,0,0.4,0.2,0.4,0.4c0,0.2-0.2,0.4-0.4,0.4
		C220.4,611.4,220.2,611.2,220.2,611z"/>
	<path class="st100" d="M220.3,611c0-0.2,0.1-0.3,0.3-0.3c0.2,0,0.3,0.1,0.3,0.3c0,0.2-0.1,0.3-0.3,0.3
		C220.5,611.3,220.3,611.2,220.3,611z"/>
	<path class="st101" d="M220.7,610.8c0.1,0.1,0.1,0.2,0.1,0.2c0,0.1-0.2,0.1-0.2,0.1c-0.1,0-0.1-0.2-0.1-0.2
		C220.5,610.8,220.6,610.8,220.7,610.8C220.7,610.9,220.6,610.9,220.7,610.8c-0.1,0.1-0.1,0.1,0,0.1
		C220.7,610.9,220.7,610.9,220.7,610.8z"/>
	<path class="st102" d="M220.7,610.8C220.7,610.9,220.7,610.9,220.7,610.8c0,0.1,0,0.2,0,0.2c0,0-0.1,0-0.1-0.1
		C220.5,610.9,220.6,610.9,220.7,610.8C220.6,610.8,220.7,610.9,220.7,610.8C220.7,610.9,220.7,610.8,220.7,610.8z"/>
</g>
</svg>
