<?xml version="1.0" encoding="utf-8"?>
<!-- Generator: Adobe Illustrator 24.0.2, SVG Export Plug-In . SVG Version: 6.00 Build 0)  -->
<svg version="1.1" id="Layer_1" xmlns="http://www.w3.org/2000/svg" xmlns:xlink="http://www.w3.org/1999/xlink" x="0px" y="0px"
	 viewBox="0 0 1178.9 760.9" style="enable-background:new 0 0 1178.9 760.9;" xml:space="preserve">
<style type="text/css">
	.st0{fill:#2E4C64;}
	.st1{fill:#3D88D7;}
	.st2{fill:#A9E1F7;}
	.st3{fill:#436F96;}
	.st4{fill:#31506C;}
	.st5{fill:#FFFFFF;}
	.st6{fill:#DAEBF2;}
	.st7{fill:#3376BC;}
	.st8{fill:#5B304C;}
	.st9{fill:#754C24;}
	.st10{fill:#1F2B55;}
	.st11{fill:#F2D75F;}
	.st12{fill:#F5F8AC;}
	.st13{fill:url(#SVGID_1_);}
	.st14{fill:#9E4A04;}
	.st15{fill:#515153;}
	.st16{fill:url(#SVGID_2_);}
	.st17{clip-path:url(#SVGID_4_);}
</style>
<title>Asset 8</title>
<g id="Layer_2_1_">
	<g id="Bench">
		<rect y="717.4" class="st0" width="1178.4" height="22.3"/>
		<path class="st1" d="M160.5,404.9c0.8,0,1.5-0.7,1.5-1.5s-0.7-1.5-1.5-1.5s-1.5,0.7-1.5,1.5S159.6,404.9,160.5,404.9z"/>
		<rect x="0.5" y="1.4" class="st2" width="1178.4" height="759.5"/>
		<rect x="0.5" y="602.9" class="st3" width="1178.4" height="13.7"/>
		<rect x="0.5" y="616.4" class="st4" width="1178.4" height="48.5"/>
		<rect x="0.5" y="664.9" class="st5" width="1178.4" height="51.6"/>
		<rect x="0.5" y="717" class="st6" width="1178.4" height="43.9"/>
		<rect x="772.6" y="531.5" class="st7" width="84" height="71.4"/>
		<rect x="734.2" y="513.3" class="st7" width="38.4" height="89.6"/>
		<rect x="686.7" y="526" class="st7" width="47.5" height="76.9"/>
		<rect x="1066.2" y="546.5" class="st7" width="38.4" height="55.8"/>
		<rect x="1104.6" y="527.6" class="st7" width="74.3" height="76.9"/>
		<rect x="597.5" y="543.7" class="st1" width="89.2" height="59.2"/>
		<rect x="579.3" y="525.8" class="st1" width="18.2" height="77.1"/>
		<rect x="531.8" y="496.2" class="st1" width="47.5" height="106.7"/>
		<rect x="486.3" y="525.8" class="st7" width="45.4" height="77.1"/>
		<rect x="359.3" y="525.8" class="st7" width="54" height="77.8"/>
		<rect x="190.7" y="525.5" class="st7" width="54" height="77.8"/>
		<rect x="128.7" y="549.5" class="st7" width="62.1" height="54"/>
		<rect x="413.3" y="488.9" class="st1" width="72.9" height="114.1"/>
		<rect x="244.8" y="474.4" class="st1" width="114.5" height="128.3"/>
		<rect x="899.8" y="525.5" class="st7" width="54" height="77.8"/>
		<rect x="837.7" y="549.5" class="st7" width="62.1" height="54"/>
		<rect x="953.8" y="474.4" class="st1" width="114.5" height="128.3"/>
		<rect x="852" y="500.7" class="st1" width="49.5" height="102.2"/>
		<path class="st5" d="M530.7,488.2c2,6.1,0.2,11.6-3.2,15c-2.4,2.4-7.8,3.6-13.7,3.1c-3.6,11.3-17.8,19.7-34.7,19.7
			c-12.4,0-23.3-4.5-29.7-11.3c-6.4,6.8-17.3,11.3-29.7,11.3c-19.6,0-35.6-11.3-35.6-25.3v-0.3c-3.7,0.3-7.5-0.8-10.4-3.2
			c-5.1-4.5-5.9-12.4-2.8-20.4c-4.8-5.4-7.6-11.7-7.6-18.5c0-10.6,6.8-20.2,17.5-26.6c-6-8.4-9.1-18.3-9.1-27
			c0-15.3,14-28.3,33.5-33.1c8.5-11,25.1-18.4,44.2-18.4c17.1,0,32.1,6,41.2,15.1c4.4-1.7,9.8-1.8,12-1c2.1,0.8,5.4,4.4,7.4,8.6
			c15.5,6.5,24.4,20.5,24.4,34.5c0,6.2-2.3,13.6-6.4,20.8c11.6,3.1,20.2,14,20.2,27C548.4,470.4,541,483.2,530.7,488.2z"/>
		<path class="st8" d="M455.9,514.3c0,0,0.5,135.1,3.4,136.4c0,0-8.2,3.7-15.6,0l2.1-137.5L455.9,514.3z"/>
		<path class="st5" d="M978.6,370.8c2.1,6.3,0.2,12-3.3,15.5c-2.5,2.5-8,3.7-14.2,3.2c-3.7,11.6-18.3,20.3-35.8,20.3
			c-12.8,0-24.1-4.6-30.7-11.7c-6.6,7-17.8,11.7-30.7,11.7c-20.3,0-36.7-11.7-36.7-26.1v-0.3c-3.9,0.4-7.7-0.8-10.7-3.3
			c-5.3-4.6-6.1-12.8-2.9-21c-4.9-5.5-7.8-12.1-7.8-19.1c0-11,7-20.9,18.1-27.5c-6.2-8.6-9.4-18.9-9.4-27.9
			c0-15.8,14.5-29.2,34.7-34.2c8.7-11.3,25.9-19,45.6-19c17.6,0,33.2,6.1,42.5,15.6c4.6-1.8,10.1-1.9,12.4-1
			c2.1,0.8,5.5,4.5,7.7,8.9c16,6.7,25.2,21.1,25.2,35.7c0,6.4-2.4,14.1-6.6,21.5c12,3.2,20.9,14.5,20.9,27.9
			C996.9,352.4,989.3,365.6,978.6,370.8z"/>
		<path class="st9" d="M897.7,399.1c0,0,0.8,232.5,5.8,234.8c0,0-14.1,6.4-26.8,0l3.6-236.6L897.7,399.1z"/>
		<path class="st5" d="M549,645.3c-0.1,1.2-0.9,2.3-2,2.7c-1,0.2-2.1,0-3-0.6c-1.8,2-5.4,2.4-8.8,0.8c-2.3-0.9-4.1-2.7-5-5
			c-2.3,0.8-4.8,0.7-7-0.4c-4-1.8-6.2-5.5-4.9-8.4v-0.1c-0.8-0.3-1.4-0.8-1.8-1.6c-0.6-1.4,0-3,1.3-4.4c-0.5-1.4-0.4-3,0.2-4.4
			c1-2.2,3.2-3.5,6-3.8c-0.4-2.1-0.2-4.3,0.6-6.3c1.4-3.1,5.4-4.4,9.8-3.6c2.7-1.4,6.8-1.4,10.6,0.3c3.1,1.3,5.6,3.7,7,6.8
			c0.9,0,1.8,0.4,2.5,0.9c0.5,0.7,0.7,1.6,0.7,2.4c2.4,2.4,3.1,6.1,1.8,9.2c-0.7,1.5-1.8,2.7-3.2,3.6c2.1,1.8,2.8,4.8,1.6,7.3
			C554.2,643.4,551.8,645.1,549,645.3z"/>
		<path class="st5" d="M566.7,648.1c-0.5,1.1-1.7,1.8-2.9,1.8c-1.1-0.2-2-0.8-2.6-1.7c-2.4,1.1-5.9,0.1-8.5-2.6
			c-1.7-1.7-2.7-4.1-2.7-6.5c-2.4-0.1-4.7-1.2-6.3-3c-3-3.2-3.6-7.5-1.4-9.6h0c-0.6-0.6-1-1.3-1.1-2.2c-0.1-1.5,1.1-2.8,2.8-3.6
			c0.1-1.5,0.8-2.9,1.8-4c1.7-1.6,4.3-2,7-1.2c0.4-2.1,1.5-4.1,3-5.6c2.5-2.3,6.7-2.1,10.4,0.4c3.1-0.3,6.8,1.2,9.7,4.3
			c2.4,2.4,3.8,5.6,3.9,8.9c0.8,0.4,1.5,1,2,1.8c0.2,0.8,0.1,1.7-0.3,2.5c1.3,3.2,0.6,6.8-1.8,9.2c-1.2,1.1-2.7,1.8-4.3,2.2
			c1.3,2.5,0.8,5.5-1.3,7.4C572.2,648.4,569.3,649,566.7,648.1z"/>
		<path class="st5" d="M516.7,610.8c1-0.6,2.3-0.5,3.3,0.1c0.7,0.7,1.2,1.7,1.2,2.8c2.5,0.3,4.8,3,5.4,6.6c0.5,2.3,0,4.7-1.3,6.7
			c1.9,1.4,3.2,3.5,3.5,5.9c0.7,4.2-1.1,8-4.1,8.5h-0.1c0.2,0.8,0.1,1.6-0.3,2.3c-0.8,1.2-2.4,1.7-4.2,1.3c-0.9,1.2-2.2,2-3.7,2.3
			c-2.3,0.4-4.5-0.7-6.3-2.8c-1.5,1.5-3.3,2.5-5.4,2.9c-3.2,0.6-6.5-1.9-8.2-5.9c-2.6-1.4-4.8-4.7-5.5-8.7c-0.7-3.2,0-6.5,1.7-9.3
			c-0.5-0.8-0.7-1.6-0.6-2.5c0.3-0.8,0.9-1.4,1.6-1.9c0.7-3.2,3.2-5.7,6.4-6.4c1.6-0.2,3.2,0,4.6,0.6c0.3-2.7,2.3-4.8,5-5.3
			C512.3,607.7,515,608.7,516.7,610.8z"/>
		<path class="st5" d="M502.3,638.8c0.4,1.1,0.1,2.4-0.7,3.2c-0.9,0.6-1.9,0.8-2.9,0.7c-0.8,2.4-3.8,4.2-7.5,4.2
			c-2.4,0.1-4.7-0.8-6.4-2.4c-1.7,1.6-4,2.5-6.4,2.4c-4.2,0-7.6-2.4-7.6-5.4v-0.1c-0.8,0.1-1.6-0.2-2.2-0.7c-1.1-1-1.3-2.7-0.6-4.4
			c-1-1.1-1.6-2.5-1.6-4c0-2.3,1.5-4.3,3.8-5.7c-1.2-1.7-1.9-3.7-2-5.8c0-3.3,3-6.1,7.2-7.1c1.8-2.4,5.4-4,9.5-4
			c3.3-0.1,6.4,1.1,8.9,3.2c0.8-0.3,1.7-0.4,2.6-0.2c0.7,0.4,1.3,1.1,1.6,1.8c3.1,1.2,5.2,4.1,5.2,7.4c-0.1,1.6-0.6,3.1-1.4,4.5
			c2.6,0.7,4.4,3.1,4.4,5.8C506.1,635,504.7,637.4,502.3,638.8z"/>
		<path class="st10" d="M864.9,686.7L864.9,686.7c-1,0.7-2.2,1.1-3.4,1.1h-11c-1.1,0-2.2-0.3-3.1-0.9l-0.2-0.1
			c-1.9-1.3-2.9-3.6-2.5-5.8l5.3-31.8c0.3-2,2-3.4,4-3.3h4.2c2,0,3.6,1.4,3.9,3.4l5.1,31.9C867.5,683.2,866.7,685.4,864.9,686.7z"/>
		<rect x="852.9" y="480.6" class="st10" width="6.1" height="170.9"/>
		<rect x="834.3" y="430.1" class="st10" width="44.3" height="4.7"/>
		<rect x="843.5" y="470.6" class="st10" width="26" height="2.4"/>
		<polygon class="st10" points="865,471.7 846.2,471.7 841.1,433.3 870.8,433.3 		"/>
		<polygon class="st11" points="857,434.9 857,469.8 863.7,469.8 868.4,434.9 		"/>
		<polygon class="st12" points="854.8,434.9 854.8,469.8 848.1,469.8 843.4,434.9 		"/>
		<path class="st10" d="M858.3,481.6c0,0,9.6-9.5,9.2-9.4s-22.3,0-22.3,0l9.1,9.9L858.3,481.6z"/>
		<path class="st10" d="M874,431.6c-0.2-0.2-11.7-10.6-16-14.6c-0.9-0.8-2.3-0.9-3.3,0l-17,14.6H874z"/>
		
			<linearGradient id="SVGID_1_" gradientUnits="userSpaceOnUse" x1="745.46" y1="82.22" x2="745.46" y2="98.29" gradientTransform="matrix(1 0 0 -1 0 747.13)">
			<stop  offset="0.38" style="stop-color:#A1510F"/>
			<stop  offset="1" style="stop-color:#BE9269"/>
		</linearGradient>
		<polygon class="st13" points="676.4,644.4 814.5,644.4 807.8,661.8 681.5,661.8 		"/>
		<rect x="684.9" y="665.9" class="st14" width="125" height="5.2"/>
		<path class="st15" d="M803,685.3c0,0-3.5-28.3,4.2-33.8h-7.1c0,0-4.8,18.7-1.6,33.8H803z"/>
		<path class="st15" d="M689.1,685.3c0,0,3.5-28.3-4.2-33.8h7.1c0,0,4.8,18.7,1.6,33.8H689.1z"/>
		
			<linearGradient id="SVGID_2_" gradientUnits="userSpaceOnUse" x1="244.76" y1="82.22" x2="244.76" y2="98.29" gradientTransform="matrix(1 0 0 -1 0 747.13)">
			<stop  offset="0.38" style="stop-color:#A1510F"/>
			<stop  offset="1" style="stop-color:#BE9269"/>
		</linearGradient>
		<polygon class="st16" points="175.7,644.4 313.8,644.4 307.1,661.8 180.8,661.8 		"/>
		<rect x="184.2" y="665.9" class="st14" width="125" height="5.2"/>
		<path class="st15" d="M302.3,685.3c0,0-3.5-28.3,4.2-33.8h-7.1c0,0-4.8,18.7-1.6,33.8H302.3z"/>
		<path class="st15" d="M188.4,685.3c0,0,3.5-28.3-4.2-33.8h7.1c0,0,4.8,18.7,1.6,33.8H188.4z"/>
	</g>
	<g id="Snow">
		<g>
			<defs>
				<rect id="SVGID_3_" x="0.6" y="0.8" width="1178.4" height="759.5"/>
			</defs>
			<clipPath id="SVGID_4_">
				<use xlink:href="#SVGID_3_"  style="overflow:visible;"/>
			</clipPath>
			<g class="st17">
				<circle class="st5" cx="1044.3" cy="60.3" r="8"/>
				<circle class="st5" cx="1077.7" cy="107.1" r="8"/>
				<circle class="st5" cx="1035.1" cy="137.8" r="6.8"/>
				<path class="st5" d="M1004.5,99.1c2.2,0,4,1.8,4,4s-1.8,4-4,4s-4-1.8-4-4S1002.3,99.1,1004.5,99.1z"/>
				<circle class="st5" cx="1015" cy="190.6" r="4"/>
				<circle class="st5" cx="1010.5" cy="242.9" r="8"/>
				<circle class="st5" cx="1057.4" cy="209.5" r="8"/>
				<circle class="st5" cx="1085.6" cy="159.6" r="8"/>
				<circle class="st5" cx="1088.1" cy="252.1" r="6.8"/>
				<circle class="st5" cx="1053.4" cy="282.6" r="4"/>
				<circle class="st5" cx="1128.9" cy="209.5" r="4"/>
				<circle class="st5" cx="1166.9" cy="-6.4" r="8"/>
				<circle class="st5" cx="1200.3" cy="40.4" r="8"/>
				<circle class="st5" cx="1157.8" cy="71.2" r="6.8"/>
				<circle class="st5" cx="1127.2" cy="36.5" r="4"/>
				<circle class="st5" cx="1137.7" cy="123.9" r="4"/>
				<circle class="st5" cx="1180" cy="142.9" r="8"/>
				<circle class="st5" cx="1208.3" cy="93" r="8"/>
				<circle class="st5" cx="1251.5" cy="142.9" r="4"/>
				<circle class="st5" cx="757.6" cy="180.9" r="8"/>
				<circle class="st5" cx="782" cy="128.8" r="8"/>
				<circle class="st5" cx="829.6" cy="150.7" r="6.8"/>
				<circle class="st5" cx="814.4" cy="194.4" r="4"/>
				<circle class="st5" cx="885.5" cy="142.3" r="4"/>
				<circle class="st5" cx="933.2" cy="120.4" r="8"/>
				<circle class="st5" cx="881.1" cy="96.1" r="8"/>
				<circle class="st5" cx="823.8" cy="96" r="8"/>
				<circle class="st5" cx="903.1" cy="48.4" r="6.8"/>
				<circle class="st5" cx="946.7" cy="63.6" r="4"/>
				<circle class="st5" cx="846" cy="33.8" r="4"/>
				<circle class="st5" cx="965.4" cy="291.3" r="8"/>
				<circle class="st5" cx="998.8" cy="338.1" r="8"/>
				<circle class="st5" cx="956.3" cy="368.9" r="6.8"/>
				<circle class="st5" cx="925.7" cy="334.1" r="4"/>
				<circle class="st5" cx="936.2" cy="421.6" r="4"/>
				<circle class="st5" cx="931.7" cy="474" r="8"/>
				<circle class="st5" cx="978.5" cy="440.6" r="8"/>
				
					<ellipse transform="matrix(0.3827 -0.9239 0.9239 0.3827 260.5758 1171.3193)" class="st5" cx="1006.8" cy="390.7" rx="8" ry="8"/>
				
					<ellipse transform="matrix(0.1602 -0.9871 0.9871 0.1602 370.6879 1401.9313)" class="st5" cx="1009.2" cy="483.1" rx="6.8" ry="6.8"/>
				<circle class="st5" cx="974.5" cy="513.7" r="4"/>
				<circle class="st5" cx="936.2" cy="528.4" r="4"/>
				<circle class="st5" cx="931.7" cy="580.7" r="8"/>
				<circle class="st5" cx="978.5" cy="547.3" r="8"/>
				
					<ellipse transform="matrix(0.1602 -0.9871 0.9871 0.1602 265.3163 1491.5818)" class="st5" cx="1009.2" cy="589.9" rx="6.8" ry="6.8"/>
				<circle class="st5" cx="974.5" cy="620.4" r="4"/>
				<circle class="st5" cx="1050" cy="440.6" r="4"/>
				<circle class="st5" cx="678.8" cy="411.9" r="8"/>
				<circle class="st5" cx="703.1" cy="359.8" r="8"/>
				<circle class="st5" cx="750.8" cy="381.8" r="6.8"/>
				<circle class="st5" cx="735.6" cy="425.4" r="4"/>
				<circle class="st5" cx="806.6" cy="373.3" r="4"/>
				<circle class="st5" cx="854.4" cy="351.5" r="8"/>
				<circle class="st5" cx="802.3" cy="327.1" r="8"/>
				<circle class="st5" cx="744.9" cy="327" r="8"/>
				<circle class="st5" cx="824.2" cy="279.4" r="6.8"/>
				<circle class="st5" cx="867.9" cy="294.6" r="4"/>
				<circle class="st5" cx="767.1" cy="264.8" r="4"/>
				<circle class="st5" cx="472.9" cy="134.3" r="8"/>
				<circle class="st5" cx="482.1" cy="56.7" r="6.8"/>
				<circle class="st5" cx="512.7" cy="91.5" r="4"/>
				<circle class="st5" cx="410.9" cy="387.2" r="8"/>
				<circle class="st5" cx="358.8" cy="362.9" r="8"/>
				<circle class="st5" cx="380.7" cy="315.2" r="6.8"/>
				<circle class="st5" cx="424.4" cy="330.4" r="4"/>
				<circle class="st5" cx="326" cy="321" r="8"/>
				<circle class="st5" cx="521.3" cy="179.4" r="8"/>
				<circle class="st5" cx="568.2" cy="146" r="8"/>
				<circle class="st5" cx="598.9" cy="188.5" r="6.8"/>
				<circle class="st5" cx="564.2" cy="219.1" r="4"/>
				<circle class="st5" cx="651.7" cy="208.6" r="4"/>
				<circle class="st5" cx="704" cy="213.1" r="8"/>
				<circle class="st5" cx="670.6" cy="166.3" r="8"/>
				<circle class="st5" cx="620.7" cy="138" r="8"/>
				<circle class="st5" cx="713.1" cy="135.6" r="6.8"/>
				<circle class="st5" cx="743.7" cy="170.3" r="4"/>
				<circle class="st5" cx="670.6" cy="94.8" r="4"/>
				<circle class="st5" cx="1059.5" cy="409.7" r="4"/>
				<circle class="st5" cx="1111.9" cy="414.2" r="8"/>
				<circle class="st5" cx="1078.5" cy="367.4" r="8"/>
				<circle class="st5" cx="1028.6" cy="339.1" r="8"/>
				<circle class="st5" cx="1121" cy="336.7" r="6.8"/>
				<circle class="st5" cx="1151.6" cy="371.4" r="4"/>
				<circle class="st5" cx="1078.5" cy="295.9" r="4"/>
				<circle class="st5" cx="1053.4" cy="464.1" r="4"/>
				<circle class="st5" cx="1050" cy="622" r="4"/>
				<circle class="st5" cx="1059.5" cy="591.2" r="4"/>
				<circle class="st5" cx="1111.9" cy="595.7" r="8"/>
				<circle class="st5" cx="1078.5" cy="548.8" r="8"/>
				<circle class="st5" cx="1121" cy="518.1" r="6.8"/>
				<circle class="st5" cx="1151.6" cy="552.8" r="4"/>
				<circle class="st5" cx="1078.5" cy="477.3" r="4"/>
				<circle class="st5" cx="642" cy="466.1" r="8"/>
				<circle class="st5" cx="589.8" cy="441.7" r="8"/>
				<circle class="st5" cx="611.8" cy="394" r="6.8"/>
				<circle class="st5" cx="655.5" cy="409.2" r="4"/>
				<circle class="st5" cx="1003" cy="636.7" r="4"/>
				<circle class="st5" cx="1041.9" cy="649.9" r="4"/>
				<circle class="st5" cx="271.9" cy="606" r="4"/>
				<circle class="st5" cx="404.8" cy="645" r="4"/>
				<circle class="st5" cx="418" cy="606" r="4"/>
				<circle class="st5" cx="1111.9" cy="648.7" r="4"/>
				<circle class="st5" cx="660.6" cy="622" r="4"/>
				<circle class="st5" cx="613.5" cy="636.7" r="4"/>
				<circle class="st5" cx="652.5" cy="649.9" r="4"/>
				<circle class="st5" cx="84.3" cy="649.9" r="4"/>
				<circle class="st5" cx="337.7" cy="631" r="4"/>
				<circle class="st5" cx="92.4" cy="622" r="4"/>
				<circle class="st5" cx="189.3" cy="623.2" r="4"/>
				<circle class="st5" cx="22.4" cy="623.2" r="4"/>
				<circle class="st5" cx="590.3" cy="351.8" r="8"/>
				<circle class="st5" cx="614.7" cy="299.7" r="8"/>
				<circle class="st5" cx="662.4" cy="321.7" r="6.8"/>
				<circle class="st5" cx="718.2" cy="313.2" r="4"/>
				<circle class="st5" cx="713.9" cy="267" r="8"/>
				<circle class="st5" cx="656.5" cy="266.9" r="8"/>
				<circle class="st5" cx="603.3" cy="338.2" r="4"/>
				<circle class="st5" cx="581.5" cy="290.4" r="8"/>
				<circle class="st5" cx="310" cy="439.7" r="8"/>
				<circle class="st5" cx="197.2" cy="431.7" r="8"/>
				<circle class="st5" cx="221.6" cy="379.6" r="8"/>
				<circle class="st5" cx="269.3" cy="401.5" r="6.8"/>
				<circle class="st5" cx="263.4" cy="346.8" r="8"/>
				<circle class="st5" cx="174" cy="429" r="4"/>
				<circle class="st5" cx="210.2" cy="418.1" r="4"/>
				<circle class="st5" cx="188.4" cy="370.3" r="8"/>
				<circle class="st5" cx="557.1" cy="342.5" r="8"/>
				<circle class="st5" cx="430.4" cy="294.5" r="8"/>
				<circle class="st5" cx="454.8" cy="242.4" r="8"/>
				
					<ellipse transform="matrix(0.3827 -0.9239 0.9239 0.3827 112.8928 588.2159)" class="st5" cx="496.6" cy="209.6" rx="8" ry="8"/>
				<circle class="st5" cx="542.3" cy="546.5" r="8"/>
				<circle class="st5" cx="619.9" cy="555.6" r="6.8"/>
				<circle class="st5" cx="585.2" cy="586.2" r="4"/>
				<circle class="st5" cx="517.6" cy="576.7" r="8"/>
				<circle class="st5" cx="407.2" cy="291.8" r="4"/>
				<circle class="st5" cx="443.4" cy="280.9" r="4"/>
				<circle class="st5" cx="421.6" cy="233.1" r="8"/>
				<circle class="st5" cx="397.2" cy="285.2" r="8"/>
				<circle class="st5" cx="557.1" cy="399.9" r="8"/>
				<circle class="st5" cx="509.5" cy="320.6" r="6.8"/>
				<circle class="st5" cx="524.6" cy="276.9" r="4"/>
				<circle class="st5" cx="828.2" cy="180.3" r="8"/>
				<circle class="st5" cx="756.7" cy="51.9" r="6.8"/>
				<circle class="st5" cx="812.5" cy="43.5" r="4"/>
				<circle class="st5" cx="755.3" cy="81.6" r="8"/>
				<circle class="st5" cx="876.6" cy="225.4" r="8"/>
				<circle class="st5" cx="923.5" cy="192.1" r="8"/>
				<circle class="st5" cx="954.2" cy="234.6" r="6.8"/>
				<circle class="st5" cx="919.5" cy="265.2" r="4"/>
				<path class="st5" d="M1007,250.7c2.2,0,4,1.8,4,4s-1.8,4-4,4c-2.2,0-4-1.8-4-4S1004.7,250.7,1007,250.7z"/>
				<circle class="st5" cx="976" cy="184.1" r="8"/>
				<circle class="st5" cx="131.8" cy="407.6" r="8"/>
				<circle class="st5" cx="165.2" cy="454.4" r="8"/>
				<circle class="st5" cx="122.6" cy="485.2" r="6.8"/>
				<circle class="st5" cx="92" cy="450.4" r="4"/>
				<circle class="st5" cx="102.5" cy="537.9" r="4"/>
				<circle class="st5" cx="144.9" cy="556.9" r="8"/>
				<circle class="st5" cx="173.1" cy="507" r="8"/>
				<circle class="st5" cx="50.3" cy="409.8" r="6.8"/>
				<circle class="st5" cx="106.1" cy="401.4" r="4"/>
				<circle class="st5" cx="357" cy="536.9" r="8"/>
				<circle class="st5" cx="333.8" cy="534.2" r="4"/>
				<circle class="st5" cx="291.6" cy="512.8" r="8"/>
				<circle class="st5" cx="324.9" cy="559.6" r="8"/>
				<circle class="st5" cx="251.8" cy="555.6" r="4"/>
				<circle class="st5" cx="265.9" cy="506.5" r="4"/>
				<circle class="st5" cx="20.7" cy="467.8" r="8"/>
				<circle class="st5" cx="101.8" cy="355.2" r="8"/>
				<circle class="st5" cx="44.4" cy="355.1" r="8"/>
				<circle class="st5" cx="-9.4" cy="395.7" r="6.8"/>
				<circle class="st5" cx="34.2" cy="410.9" r="4"/>
				
					<ellipse transform="matrix(0.9985 -5.530041e-02 5.530041e-02 0.9985 -24.228 3.3772)" class="st5" cx="48.9" cy="439.5" rx="8" ry="8"/>
				<circle class="st5" cx="10.9" cy="539.4" r="8"/>
				<circle class="st5" cx="63.5" cy="531.4" r="8"/>
				<circle class="st5" cx="656.8" cy="4" r="8"/>
				<circle class="st5" cx="614.3" cy="34.7" r="6.8"/>
				<circle class="st5" cx="583.7" cy="0" r="4"/>
				<circle class="st5" cx="594.2" cy="87.5" r="4"/>
				<circle class="st5" cx="636.5" cy="106.4" r="8"/>
				<circle class="st5" cx="664.8" cy="56.5" r="8"/>
				<circle class="st5" cx="708" cy="106.4" r="4"/>
				<circle class="st5" cx="790.3" cy="543.1" r="8"/>
				<circle class="st5" cx="799.8" cy="627" r="4"/>
				<circle class="st5" cx="631.5" cy="550.7" r="6.8"/>
				<circle class="st5" cx="684.3" cy="570.8" r="4"/>
				<circle class="st5" cx="736.6" cy="575.3" r="8"/>
				<circle class="st5" cx="703.3" cy="528.5" r="8"/>
				<circle class="st5" cx="653.3" cy="500.2" r="8"/>
				<circle class="st5" cx="745.8" cy="497.8" r="6.8"/>
				<circle class="st5" cx="776.4" cy="532.5" r="4"/>
				<circle class="st5" cx="669.2" cy="468.6" r="8"/>
				<circle class="st5" cx="740.7" cy="468.6" r="4"/>
				<circle class="st5" cx="716.8" cy="20.8" r="4"/>
				<circle class="st5" cx="555.1" cy="81" r="8"/>
				<circle class="st5" cx="936.8" cy="336.5" r="8"/>
				<circle class="st5" cx="864.8" cy="366.7" r="6.8"/>
				<circle class="st5" cx="879.9" cy="323" r="4"/>
				<circle class="st5" cx="494.9" cy="377.7" r="4"/>
				<path class="st5" d="M842.5,433.2l34.1-0.7c1.4-0.2,2.6-1.1,3.3-2.3c-4.8-1-9-3.6-12.1-7.3c-2-2.4-4-5-6.7-6.6s-6.4-2-8.8,0
					c-0.8,0.8-1.6,1.7-2.2,2.7c-1.8,2.4-4.1,4.4-6.8,5.8c-2.6,1.4-5.9,1.8-8.2,3.7C828.3,434,839.1,433.2,842.5,433.2z"/>
				<path class="st5" d="M688.3,645.9c43-1,86.1,1.6,129.1-0.4c-3-2.2-6.9-2.3-10.7-2.4l-47.5-0.3l-48.5-0.3l-22.8-0.2
					c-3.8,0-7.5-0.1-11.3-0.1c-3.3,0-1.3,1.5,0.6,2.5C680.6,646.3,684.8,646,688.3,645.9z"/>
				<path class="st5" d="M187.7,645.9c43-1,86.1,1.6,129.1-0.4c-3-2.2-6.9-2.3-10.6-2.4l-47.5-0.3l-48.5-0.3l-22.8-0.2
					c-3.8,0-7.5-0.1-11.3-0.1c-3.3,0-1.3,1.5,0.6,2.5C180,646.3,184.2,646,187.7,645.9z"/>
			</g>
		</g>
	</g>
</g>
</svg>
