<?xml version="1.0" encoding="utf-8"?>
<!-- Generator: Adobe Illustrator 24.0.2, SVG Export Plug-In . SVG Version: 6.00 Build 0)  -->
<svg version="1.1" id="Layer_1" xmlns="http://www.w3.org/2000/svg" xmlns:xlink="http://www.w3.org/1999/xlink" x="0px" y="0px"
	 viewBox="0 0 1178.4 759.5" style="enable-background:new 0 0 1178.4 759.5;" xml:space="preserve">
<style type="text/css">
	.st0{fill:#3D88D7;}
	.st1{fill:#4C80A5;}
	.st2{clip-path:url(#SVGID_2_);}
	.st3{fill:#666666;}
	.st4{fill:#828282;}
	.st5{fill:#436F96;}
	.st6{fill:#31506C;}
	.st7{fill:#6E9CCE;}
	.st8{fill:#3376BC;}
	.st9{fill:#34B226;}
	.st10{fill:#69C2FF;}
	.st11{fill:#006837;}
	.st12{fill:#5B304C;}
	.st13{fill:#754C24;}
	.st14{fill:#1F2B55;}
	.st15{fill:#F2D75F;}
	.st16{fill:#F5F8AC;}
	.st17{fill:url(#SVGID_3_);}
	.st18{fill:#9E4A04;}
	.st19{fill:#515153;}
	.st20{fill:url(#SVGID_4_);}
</style>
<title>Asset 7</title>
<g id="Layer_2_1_">
	<g id="Bench">
		<path class="st0" d="M159.9,403.5c0.8,0,1.5-0.7,1.5-1.5s-0.7-1.5-1.5-1.5s-1.5,0.7-1.5,1.5S159.1,403.5,159.9,403.5z"/>
		<rect class="st1" width="1178.4" height="759.5"/>
		<g>
			<defs>
				<rect id="SVGID_1_" x="0" width="1178.4" height="319.1"/>
			</defs>
			<clipPath id="SVGID_2_">
				<use xlink:href="#SVGID_1_"  style="overflow:visible;"/>
			</clipPath>
			<g class="st2">
				<ellipse class="st3" cx="757" cy="32" rx="57" ry="51.8"/>
				<ellipse class="st3" cx="383" cy="18.8" rx="86.9" ry="51.8"/>
				<ellipse class="st3" cx="485.7" cy="18.8" rx="86.9" ry="51.8"/>
				<ellipse class="st3" cx="39.5" cy="18.8" rx="86.9" ry="51.8"/>
				<ellipse class="st3" cx="1104.1" cy="18.8" rx="86.9" ry="51.8"/>
				<ellipse class="st3" cx="848.6" cy="22.6" rx="57" ry="51.8"/>
				<ellipse class="st3" cx="889.6" cy="18.8" rx="57" ry="51.8"/>
				<ellipse class="st4" cx="1144.3" cy="3.6" rx="64.3" ry="36.4"/>
				<circle class="st4" cx="1043.3" cy="-11.7" r="51.8"/>
				<circle class="st4" cx="772" cy="3.5" r="51.8"/>
				<circle class="st4" cx="720.2" cy="-32.8" r="51.8"/>
				<circle class="st4" cx="658.1" cy="-11.7" r="51.8"/>
				<ellipse class="st4" cx="915.8" cy="-11.7" rx="114.1" ry="51.8"/>
				<ellipse class="st4" cx="561.1" cy="0" rx="64.3" ry="36.4"/>
				<ellipse class="st4" cx="465.9" cy="-11.7" rx="74.5" ry="51.8"/>
				<circle class="st4" cx="160.7" cy="3.6" r="51.8"/>
				<circle class="st4" cx="108.9" cy="-32.8" r="51.8"/>
				<circle class="st4" cx="46.8" cy="-11.7" r="51.8"/>
				<ellipse class="st4" cx="304.5" cy="-32.8" rx="114.1" ry="51.8"/>
			</g>
		</g>
		<rect y="601.5" class="st5" width="1178.4" height="13.7"/>
		<rect y="615" class="st6" width="1178.4" height="48.5"/>
		<rect y="663.5" class="st7" width="1178.4" height="51.6"/>
		<rect x="772" y="530.1" class="st8" width="84" height="71.4"/>
		<rect x="733.6" y="511.8" class="st8" width="38.4" height="89.6"/>
		<rect x="686.1" y="524.5" class="st8" width="47.5" height="76.9"/>
		<rect x="1065.7" y="545" class="st8" width="38.4" height="55.8"/>
		<rect x="1104.1" y="526.2" class="st8" width="74.3" height="76.9"/>
		<rect x="-0.6" y="524.5" class="st8" width="80.1" height="76.9"/>
		<rect x="597" y="542.2" class="st0" width="89.2" height="59.2"/>
		<rect x="578.7" y="524.3" class="st0" width="18.2" height="77.1"/>
		<rect x="531.2" y="494.7" class="st0" width="47.5" height="106.7"/>
		<rect x="485.8" y="524.3" class="st8" width="45.4" height="77.1"/>
		<rect x="358.8" y="524.3" class="st8" width="54" height="77.8"/>
		<rect x="190.2" y="524" class="st8" width="54" height="77.8"/>
		<rect x="128.1" y="548.1" class="st8" width="62.1" height="54"/>
		<rect x="412.8" y="487.4" class="st0" width="72.9" height="114"/>
		<rect x="244.2" y="473" class="st0" width="114.5" height="128.3"/>
		<rect x="899.2" y="524" class="st8" width="54" height="77.8"/>
		<rect x="837.1" y="548.1" class="st8" width="62.1" height="54"/>
		<rect x="953.3" y="473" class="st0" width="114.5" height="128.3"/>
		<rect x="79.5" y="492.5" class="st0" width="48.6" height="109.6"/>
		<rect x="851.4" y="499.3" class="st0" width="49.5" height="102.2"/>
		<path class="st9" d="M548.5,643.9c-0.1,1.2-0.9,2.3-2,2.7c-1.1,0.2-2.2,0-3.1-0.6c-1.8,2-5.4,2.4-8.8,0.8c-2.3-0.9-4.1-2.7-5-5
			c-2.3,0.8-4.8,0.7-7-0.4c-4-1.8-6.2-5.5-4.9-8.4V633c-0.8-0.3-1.4-0.9-1.8-1.6c-0.6-1.4,0-3,1.3-4.4c-0.5-1.5-0.4-3,0.2-4.4
			c1-2.2,3.2-3.5,6-3.8c-0.4-2.1-0.2-4.3,0.6-6.3c1.4-3.1,5.4-4.4,9.8-3.6c2.7-1.4,6.8-1.4,10.6,0.3c3.1,1.3,5.6,3.7,7,6.8
			c0.9,0,1.8,0.4,2.5,0.9c0.5,0.7,0.7,1.6,0.7,2.4c2.4,2.4,3.1,6.1,1.8,9.2c-0.7,1.5-1.9,2.7-3.2,3.6c2.1,1.8,2.8,4.8,1.6,7.3
			C553.7,642,551.2,643.6,548.5,643.9z"/>
		<path class="st9" d="M566.1,646.7c-0.5,1.1-1.7,1.8-2.9,1.8c-1.1-0.2-2-0.8-2.6-1.7c-2.4,1.1-5.9,0.1-8.5-2.6
			c-1.7-1.7-2.7-4.1-2.7-6.5c-2.4-0.1-4.7-1.2-6.3-3c-3-3.2-3.6-7.5-1.4-9.6l0,0c-0.6-0.6-1-1.3-1.1-2.2c-0.1-1.5,1.1-2.8,2.8-3.6
			c0.1-1.5,0.7-3,1.8-4c1.7-1.6,4.3-2,7-1.2c0.4-2.1,1.5-4.1,3-5.6c2.5-2.3,6.7-2.1,10.5,0.3c3.1-0.3,6.8,1.2,9.7,4.3
			c2.4,2.4,3.8,5.6,3.9,8.9c0.8,0.4,1.5,1,2,1.8c0.2,0.8,0.1,1.7-0.3,2.5c1.3,3.2,0.6,6.8-1.8,9.2c-1.2,1.1-2.7,1.8-4.3,2.2
			c1.3,2.5,0.8,5.5-1.3,7.4C571.7,646.9,568.8,647.5,566.1,646.7z"/>
		<path class="st9" d="M516.1,609.3c1-0.6,2.3-0.5,3.3,0.1c0.7,0.7,1.2,1.7,1.2,2.8c2.5,0.4,4.8,3.1,5.4,6.7c0.5,2.3,0,4.7-1.3,6.7
			c1.9,1.4,3.2,3.5,3.5,5.9c0.7,4.2-1.1,8-4.1,8.5H524c0.2,0.8,0.1,1.6-0.3,2.3c-0.8,1.2-2.4,1.7-4.2,1.3c-0.9,1.2-2.2,2-3.7,2.3
			c-2.3,0.4-4.5-0.7-6.3-2.8c-1.5,1.5-3.3,2.5-5.4,2.9c-3.2,0.5-6.5-2-8.2-5.9c-2.6-1.4-4.8-4.7-5.5-8.7c-0.7-3.2,0-6.5,1.7-9.3
			c-0.5-0.8-0.7-1.6-0.6-2.5c0.3-0.8,0.9-1.4,1.6-1.9c0.7-3.2,3.2-5.8,6.4-6.4c1.6-0.2,3.2,0,4.6,0.6c0.3-2.7,2.3-4.8,5-5.3
			C511.8,606.2,514.4,607.2,516.1,609.3z"/>
		<path class="st9" d="M501.8,637.4c0.4,1.1,0.1,2.4-0.7,3.2c-0.9,0.6-1.9,0.8-2.9,0.7c-0.8,2.4-3.8,4.2-7.5,4.2
			c-2.4,0.1-4.7-0.8-6.4-2.4c-1.7,1.6-4,2.5-6.4,2.4c-4.2,0-7.7-2.4-7.7-5.4v0c-0.8,0.1-1.6-0.2-2.2-0.7c-1.1-1-1.3-2.7-0.6-4.4
			c-1-1.1-1.6-2.5-1.6-4c0-2.3,1.5-4.3,3.8-5.7c-1.2-1.7-1.9-3.7-2-5.8c0-3.3,3-6.1,7.2-7.1c1.8-2.4,5.4-4,9.5-4
			c3.3-0.1,6.4,1.1,8.9,3.2c0.8-0.3,1.7-0.4,2.6-0.2c0.7,0.4,1.3,1.1,1.6,1.9c3.1,1.2,5.1,4.1,5.2,7.4c-0.1,1.6-0.6,3.1-1.4,4.5
			c2.6,0.7,4.4,3.1,4.3,5.8C505.6,633.6,504.1,636.1,501.8,637.4z"/>
		<polyline class="st10" points="660.3,148.6 674.3,142.6 668.9,156.9 660.3,148.6 		"/>
		<path class="st10" d="M668.2,157.6c-2.3,2.4-6.1,2.5-8.5,0.2c-2.4-2.3-2.5-6.1-0.2-8.5c2.3-2.4,6.1-2.5,8.5-0.2c0,0,0,0,0,0
			C670.4,151.4,670.5,155.2,668.2,157.6z"/>
		<polyline class="st10" points="703.4,142.6 717.4,136.6 712.1,150.9 703.4,142.6 		"/>
		<path class="st10" d="M711.3,151.6c-2.3,2.4-6.1,2.5-8.5,0.2c-2.4-2.3-2.5-6.1-0.2-8.5c2.3-2.4,6.1-2.5,8.5-0.2c0,0,0,0,0,0
			C713.5,145.4,713.6,149.2,711.3,151.6z"/>
		<polyline class="st10" points="652.1,225.3 666.1,219.3 660.7,233.6 652.1,225.3 		"/>
		<path class="st10" d="M660,234.3c-2.3,2.4-6.1,2.5-8.5,0.2c-2.4-2.3-2.5-6.1-0.2-8.5c2.3-2.4,6.1-2.5,8.5-0.2c0,0,0,0,0,0
			C662.2,228.1,662.3,231.9,660,234.3z"/>
		<polyline class="st10" points="594.9,201.2 608.9,195.3 603.6,209.5 594.9,201.2 		"/>
		<path class="st10" d="M602.9,210.2c-2.3,2.4-6.1,2.5-8.5,0.2c-2.4-2.3-2.5-6.1-0.2-8.5c2.3-2.4,6.1-2.5,8.5-0.2c0,0,0,0,0,0
			C605.1,204,605.1,207.8,602.9,210.2z"/>
		<polyline class="st10" points="589.1,131.8 603.1,125.8 597.8,140 589.1,131.8 		"/>
		<path class="st10" d="M597,140.7c-2.3,2.4-6.1,2.5-8.5,0.2c-2.4-2.3-2.5-6.1-0.2-8.5c2.3-2.4,6.1-2.5,8.5-0.2c0,0,0,0,0,0
			C599.2,134.6,599.3,138.3,597,140.7z"/>
		<polyline class="st10" points="604.3,261.8 618.3,255.8 612.9,270 604.3,261.8 		"/>
		<path class="st10" d="M612.2,270.7c-2.3,2.4-6.1,2.5-8.5,0.2c-2.4-2.3-2.5-6.1-0.2-8.5c2.3-2.4,6.1-2.5,8.5-0.2c0,0,0,0,0,0
			C614.4,264.5,614.5,268.3,612.2,270.7z"/>
		<polyline class="st10" points="664,272.6 678.1,266.6 672.7,280.9 664,272.6 		"/>
		<path class="st10" d="M672,281.6c-2.3,2.4-6.1,2.5-8.5,0.2c-2.4-2.3-2.5-6.1-0.2-8.5s6.1-2.5,8.5-0.2c0,0,0,0,0,0
			C674.2,275.4,674.3,279.2,672,281.6z"/>
		<polyline class="st10" points="780.2,295.7 794.3,289.7 788.9,304 780.2,295.7 		"/>
		<path class="st10" d="M788.2,304.7c-2.3,2.4-6.1,2.5-8.5,0.2c-2.4-2.3-2.5-6.1-0.2-8.5c2.3-2.4,6.1-2.5,8.5-0.2c0,0,0,0,0,0
			C790.4,298.5,790.5,302.3,788.2,304.7z"/>
		<polyline class="st10" points="823.4,289.7 837.4,283.7 832,298 823.4,289.7 		"/>
		<path class="st10" d="M831.3,298.7c-2.3,2.4-6.1,2.5-8.5,0.2c-2.4-2.3-2.5-6.1-0.2-8.5c2.3-2.4,6.1-2.5,8.5-0.2c0,0,0,0,0,0
			C833.5,292.5,833.6,296.3,831.3,298.7z"/>
		<polyline class="st10" points="772,372.4 786.1,366.4 780.7,380.7 772,372.4 		"/>
		<path class="st10" d="M780,381.4c-2.3,2.4-6.1,2.5-8.5,0.2c-2.4-2.3-2.5-6.1-0.2-8.5c2.3-2.4,6.1-2.5,8.5-0.2c0,0,0,0,0,0
			C782.2,375.2,782.3,379,780,381.4z"/>
		<polyline class="st10" points="873.5,308.7 887.5,302.7 882.2,317 873.5,308.7 		"/>
		<path class="st10" d="M881.5,317.7c-2.3,2.4-6.1,2.5-8.5,0.2c-2.4-2.3-2.5-6.1-0.2-8.5c2.3-2.4,6.1-2.5,8.5-0.2c0,0,0,0,0,0
			C883.7,311.5,883.8,315.3,881.5,317.7z"/>
		<polyline class="st10" points="709,278.9 723.1,272.9 717.7,287.2 709,278.9 		"/>
		<path class="st10" d="M717,287.9c-2.3,2.4-6.1,2.5-8.5,0.2c-2.4-2.3-2.5-6.1-0.2-8.5c2.3-2.4,6.1-2.5,8.5-0.2c0,0,0,0,0,0
			C719.2,281.7,719.3,285.5,717,287.9z"/>
		<polyline class="st10" points="724.3,408.9 738.3,402.9 732.9,417.1 724.3,408.9 		"/>
		<path class="st10" d="M732.2,417.9c-2.3,2.4-6.1,2.5-8.5,0.2c-2.4-2.3-2.5-6.1-0.2-8.5s6.1-2.5,8.5-0.2c0,0,0,0,0,0
			C734.4,411.7,734.5,415.5,732.2,417.9z"/>
		<polyline class="st10" points="784,419.7 798,413.7 792.7,428 784,419.7 		"/>
		<path class="st10" d="M792,428.7c-2.3,2.4-6.1,2.5-8.5,0.2c-2.4-2.3-2.5-6.1-0.2-8.5c2.3-2.4,6.1-2.5,8.5-0.2c0,0,0,0,0,0
			C794.2,422.5,794.3,426.3,792,428.7z"/>
		<polyline class="st10" points="523.9,217.7 537.9,211.7 532.6,226 523.9,217.7 		"/>
		<path class="st10" d="M531.8,226.7c-2.3,2.4-6.1,2.5-8.5,0.2c-2.4-2.3-2.5-6.1-0.2-8.5c2.3-2.4,6.1-2.5,8.5-0.2c0,0,0,0,0,0
			C534,220.5,534.1,224.3,531.8,226.7z"/>
		<polyline class="st10" points="567,211.7 581,205.8 575.7,220 567,211.7 		"/>
		<path class="st10" d="M575,220.7c-2.3,2.4-6.1,2.5-8.5,0.2c-2.4-2.3-2.5-6.1-0.2-8.5c2.3-2.4,6.1-2.5,8.5-0.2c0,0,0,0,0,0
			C577.2,214.5,577.3,218.3,575,220.7z"/>
		<polyline class="st10" points="481.8,404.6 495.9,398.6 490.5,412.9 481.8,404.6 		"/>
		<path class="st10" d="M489.8,413.6c-2.3,2.4-6.1,2.5-8.5,0.2c-2.4-2.3-2.5-6.1-0.2-8.5c2.3-2.4,6.1-2.5,8.5-0.2c0,0,0,0,0,0
			C492,407.4,492.1,411.2,489.8,413.6z"/>
		<polyline class="st10" points="491.2,465.1 505.2,459.1 499.9,473.4 491.2,465.1 		"/>
		<path class="st10" d="M499.2,474.1c-2.3,2.4-6.1,2.5-8.5,0.2c-2.4-2.3-2.5-6.1-0.2-8.5c2.3-2.4,6.1-2.5,8.5-0.2c0,0,0,0,0,0
			C501.4,467.9,501.4,471.7,499.2,474.1z"/>
		<polyline class="st10" points="410.8,421.1 424.8,415.1 419.5,429.4 410.8,421.1 		"/>
		<path class="st10" d="M418.8,430.1c-2.3,2.4-6.1,2.5-8.5,0.2c-2.4-2.3-2.5-6.1-0.2-8.5c2.3-2.4,6.1-2.5,8.5-0.2c0,0,0,0,0,0
			C421,423.9,421.1,427.7,418.8,430.1z"/>
		<polyline class="st10" points="453.9,415.1 468,409.1 462.6,423.4 453.9,415.1 		"/>
		<path class="st10" d="M461.9,424.1c-2.3,2.4-6.1,2.5-8.5,0.2s-2.5-6.1-0.2-8.5c2.3-2.4,6.1-2.5,8.5-0.2c0,0,0,0,0,0
			C464.1,417.9,464.2,421.7,461.9,424.1z"/>
		<polyline class="st10" points="791.7,500.6 805.8,494.6 800.4,508.9 791.7,500.6 		"/>
		<path class="st10" d="M799.7,509.6c-2.3,2.4-6.1,2.5-8.5,0.2c-2.4-2.3-2.5-6.1-0.2-8.5c2.3-2.4,6.1-2.5,8.5-0.2c0,0,0,0,0,0
			C801.9,503.4,802,507.2,799.7,509.6z"/>
		<polyline class="st10" points="783.5,577.3 797.5,571.3 792.2,585.6 783.5,577.3 		"/>
		<path class="st10" d="M791.5,586.3c-2.3,2.4-6.1,2.5-8.5,0.2c-2.4-2.3-2.5-6.1-0.2-8.5c2.3-2.4,6.1-2.5,8.5-0.2c0,0,0,0,0,0
			C793.7,580.1,793.8,583.9,791.5,586.3z"/>
		<polyline class="st10" points="726.4,553.3 740.4,547.3 735,561.5 726.4,553.3 		"/>
		<path class="st10" d="M734.3,562.3c-2.3,2.4-6.1,2.5-8.5,0.2c-2.4-2.3-2.5-6.1-0.2-8.5c2.3-2.4,6.1-2.5,8.5-0.2c0,0,0,0,0,0
			C736.5,556.1,736.6,559.9,734.3,562.3z"/>
		<polyline class="st10" points="720.5,483.8 734.6,477.8 729.2,492.1 720.5,483.8 		"/>
		<path class="st10" d="M728.5,492.8c-2.3,2.4-6.1,2.5-8.5,0.2c-2.4-2.3-2.5-6.1-0.2-8.5c2.3-2.4,6.1-2.5,8.5-0.2c0,0,0,0,0,0
			C730.7,486.6,730.8,490.4,728.5,492.8z"/>
		<polyline class="st10" points="735.8,613.8 749.8,607.8 744.4,622.1 735.8,613.8 		"/>
		<path class="st10" d="M743.7,622.8c-2.3,2.4-6.1,2.5-8.5,0.2c-2.4-2.3-2.5-6.1-0.2-8.5c2.3-2.4,6.1-2.5,8.5-0.2c0,0,0,0,0,0
			C745.9,616.6,746,620.4,743.7,622.8z"/>
		<polyline class="st10" points="795.5,624.6 809.5,618.6 804.2,632.9 795.5,624.6 		"/>
		<path class="st10" d="M803.5,633.6c-2.3,2.4-6.1,2.5-8.5,0.2c-2.4-2.3-2.5-6.1-0.2-8.5c2.3-2.4,6.1-2.5,8.5-0.2c0,0,0,0,0,0
			C805.7,627.4,805.8,631.2,803.5,633.6z"/>
		<polyline class="st10" points="655.4,569.8 669.4,563.8 664,578 655.4,569.8 		"/>
		<path class="st10" d="M663.3,578.7c-2.3,2.4-6.1,2.5-8.5,0.2c-2.4-2.3-2.5-6.1-0.2-8.5c2.3-2.4,6.1-2.5,8.5-0.2c0,0,0,0,0,0
			C665.5,572.6,665.6,576.3,663.3,578.7z"/>
		<polyline class="st10" points="698.5,563.8 712.5,557.8 707.1,572 698.5,563.8 		"/>
		<path class="st10" d="M706.4,572.8c-2.3,2.4-6.1,2.5-8.5,0.2s-2.5-6.1-0.2-8.5s6.1-2.5,8.5-0.2c0,0,0,0,0,0
			C708.6,566.6,708.7,570.4,706.4,572.8z"/>
		<polyline class="st10" points="402.9,276.6 417,270.6 411.6,284.9 402.9,276.6 		"/>
		<path class="st10" d="M410.9,285.5c-2.3,2.4-6.1,2.5-8.5,0.2c-2.4-2.3-2.5-6.1-0.2-8.5c2.3-2.4,6.1-2.5,8.5-0.2c0,0,0,0,0,0
			C413.1,279.4,413.2,283.2,410.9,285.5z"/>
		<polyline class="st10" points="345.8,252.5 359.8,246.5 354.4,260.8 345.8,252.5 		"/>
		<path class="st10" d="M353.7,261.5c-2.3,2.4-6.1,2.5-8.5,0.2c-2.4-2.3-2.5-6.1-0.2-8.5c2.3-2.4,6.1-2.5,8.5-0.2c0,0,0,0,0,0
			C355.9,255.3,356,259.1,353.7,261.5z"/>
		<polyline class="st10" points="355.1,313 369.2,307 363.8,321.3 355.1,313 		"/>
		<path class="st10" d="M363.1,322c-2.3,2.4-6.1,2.5-8.5,0.2c-2.4-2.3-2.5-6.1-0.2-8.5s6.1-2.5,8.5-0.2c0,0,0,0,0,0
			C365.3,315.8,365.4,319.6,363.1,322z"/>
		<polyline class="st10" points="414.9,323.9 428.9,317.9 423.6,332.2 414.9,323.9 		"/>
		<path class="st10" d="M422.9,332.9c-2.3,2.4-6.1,2.5-8.5,0.2c-2.4-2.3-2.5-6.1-0.2-8.5c2.3-2.4,6.1-2.5,8.5-0.2c0,0,0,0,0,0
			C425.1,326.7,425.1,330.5,422.9,332.9z"/>
		<polyline class="st10" points="317.9,263 331.9,257 326.6,271.3 317.9,263 		"/>
		<path class="st10" d="M325.8,272c-2.3,2.4-6.1,2.5-8.5,0.2s-2.5-6.1-0.2-8.5c2.3-2.4,6.1-2.5,8.5-0.2c0,0,0,0,0,0
			C328,265.8,328.1,269.6,325.8,272z"/>
		<polyline class="st10" points="515.7,294.4 529.7,288.4 524.4,302.7 515.7,294.4 		"/>
		<path class="st10" d="M523.6,303.4c-2.3,2.4-6.1,2.5-8.5,0.2c-2.4-2.3-2.5-6.1-0.2-8.5s6.1-2.5,8.5-0.2c0,0,0,0,0,0
			C525.8,297.2,525.9,301,523.6,303.4z"/>
		<polyline class="st10" points="458.5,270.4 472.6,264.4 467.2,278.7 458.5,270.4 		"/>
		<path class="st10" d="M466.5,279.4c-2.3,2.4-6.1,2.5-8.5,0.2c-2.4-2.3-2.5-6.1-0.2-8.5c2.3-2.4,6.1-2.5,8.5-0.2c0,0,0,0,0,0
			C468.7,273.2,468.8,277,466.5,279.4z"/>
		<polyline class="st10" points="452.7,200.9 466.7,194.9 461.4,209.2 452.7,200.9 		"/>
		<path class="st10" d="M460.7,209.9c-2.3,2.4-6.1,2.5-8.5,0.2c-2.4-2.3-2.5-6.1-0.2-8.5c2.3-2.4,6.1-2.5,8.5-0.2c0,0,0,0,0,0
			C462.9,203.7,462.9,207.5,460.7,209.9z"/>
		<polyline class="st10" points="467.9,330.9 481.9,324.9 476.6,339.2 467.9,330.9 		"/>
		<path class="st10" d="M475.9,339.9c-2.3,2.4-6.1,2.5-8.5,0.2c-2.4-2.3-2.5-6.1-0.2-8.5c2.3-2.4,6.1-2.5,8.5-0.2c0,0,0,0,0,0
			C478.1,333.7,478.1,337.5,475.9,339.9z"/>
		<polyline class="st10" points="527.7,341.7 541.7,335.8 536.3,350 527.7,341.7 		"/>
		<path class="st10" d="M535.6,350.7c-2.3,2.4-6.1,2.5-8.5,0.2c-2.4-2.3-2.5-6.1-0.2-8.5c2.3-2.4,6.1-2.5,8.5-0.2c0,0,0,0,0,0
			C537.8,344.5,537.9,348.3,535.6,350.7z"/>
		<polyline class="st10" points="128.1,429 142.1,423 136.8,437.3 128.1,429 		"/>
		<path class="st10" d="M136.1,438c-2.3,2.4-6.1,2.5-8.5,0.2c-2.4-2.3-2.5-6.1-0.2-8.5c2.3-2.4,6.1-2.5,8.5-0.2c0,0,0,0,0,0
			C138.3,431.8,138.4,435.6,136.1,438z"/>
		<polyline class="st10" points="71,405 85,399 79.6,413.3 71,405 		"/>
		<path class="st10" d="M78.9,414c-2.3,2.4-6.1,2.5-8.5,0.2s-2.5-6.1-0.2-8.5c2.3-2.4,6.1-2.5,8.5-0.2c0,0,0,0,0,0
			C81.1,407.8,81.2,411.6,78.9,414z"/>
		<polyline class="st10" points="80.3,465.5 94.4,459.5 89,473.8 80.3,465.5 		"/>
		<path class="st10" d="M88.3,474.5c-2.3,2.4-6.1,2.5-8.5,0.2s-2.5-6.1-0.2-8.5c2.3-2.4,6.1-2.5,8.5-0.2c0,0,0,0,0,0
			C90.5,468.3,90.6,472.1,88.3,474.5z"/>
		<polyline class="st10" points="140.1,476.3 154.1,470.3 148.8,484.6 140.1,476.3 		"/>
		<path class="st10" d="M148.1,485.3c-2.3,2.4-6.1,2.5-8.5,0.2s-2.5-6.1-0.2-8.5c2.3-2.4,6.1-2.5,8.5-0.2c0,0,0,0,0,0
			C150.3,479.1,150.3,482.9,148.1,485.3z"/>
		<polyline class="st10" points="337.9,383.9 351.9,377.9 346.6,392.1 337.9,383.9 		"/>
		<path class="st10" d="M345.8,392.8c-2.3,2.4-6.1,2.5-8.5,0.2c-2.4-2.3-2.5-6.1-0.2-8.5c2.3-2.4,6.1-2.5,8.5-0.2c0,0,0,0,0,0
			C348,386.6,348.1,390.4,345.8,392.8z"/>
		<polyline class="st10" points="381,377.9 395,371.9 389.7,386.1 381,377.9 		"/>
		<path class="st10" d="M389,386.8c-2.3,2.4-6.1,2.5-8.5,0.2c-2.4-2.3-2.5-6.1-0.2-8.5c2.3-2.4,6.1-2.5,8.5-0.2c0,0,0,0,0,0
			C391.2,380.7,391.2,384.4,389,386.8z"/>
		<polyline class="st10" points="329.7,460.5 343.7,454.5 338.4,468.8 329.7,460.5 		"/>
		<path class="st10" d="M337.6,469.5c-2.3,2.4-6.1,2.5-8.5,0.2s-2.5-6.1-0.2-8.5c2.3-2.4,6.1-2.5,8.5-0.2c0,0,0,0,0,0
			C339.8,463.3,339.9,467.1,337.6,469.5z"/>
		<polyline class="st10" points="272.5,436.5 286.5,430.5 281.2,444.8 272.5,436.5 		"/>
		<path class="st10" d="M280.5,445.5c-2.3,2.4-6.1,2.5-8.5,0.2c-2.4-2.3-2.5-6.1-0.2-8.5s6.1-2.5,8.5-0.2c0,0,0,0,0,0
			C282.7,439.3,282.8,443.1,280.5,445.5z"/>
		<polyline class="st10" points="266.7,367 280.7,361 275.4,375.3 266.7,367 		"/>
		<path class="st10" d="M274.7,376c-2.3,2.4-6.1,2.5-8.5,0.2s-2.5-6.1-0.2-8.5c2.3-2.4,6.1-2.5,8.5-0.2c0,0,0,0,0,0
			C276.9,369.8,276.9,373.6,274.7,376z"/>
		<polyline class="st10" points="281.9,497 295.9,491 290.6,505.3 281.9,497 		"/>
		<path class="st10" d="M289.8,506c-2.3,2.4-6.1,2.5-8.5,0.2c-2.4-2.3-2.5-6.1-0.2-8.5c2.3-2.4,6.1-2.5,8.5-0.2c0,0,0,0,0,0
			C292.1,499.8,292.1,503.6,289.8,506z"/>
		<polyline class="st10" points="341.7,507.8 355.7,501.9 350.3,516.1 341.7,507.8 		"/>
		<path class="st10" d="M349.6,516.8c-2.3,2.4-6.1,2.5-8.5,0.2c-2.4-2.3-2.5-6.1-0.2-8.5c2.3-2.4,6.1-2.5,8.5-0.2c0,0,0,0,0,0
			C351.8,510.6,351.9,514.4,349.6,516.8z"/>
		<polyline class="st10" points="261,450.7 275,444.7 269.6,459 261,450.7 		"/>
		<path class="st10" d="M268.9,459.7c-2.3,2.4-6.1,2.5-8.5,0.2c-2.4-2.3-2.5-6.1-0.2-8.5c2.3-2.4,6.1-2.5,8.5-0.2c0,0,0,0,0,0
			C271.1,453.5,271.2,457.3,268.9,459.7z"/>
		<polyline class="st10" points="304.1,444.7 318.1,438.7 312.8,453 304.1,444.7 		"/>
		<path class="st10" d="M312,453.7c-2.3,2.4-6.1,2.5-8.5,0.2c-2.4-2.3-2.5-6.1-0.2-8.5s6.1-2.5,8.5-0.2c0,0,0,0,0,0
			C314.2,447.5,314.3,451.3,312,453.7z"/>
		<polyline class="st10" points="252.8,527.4 266.8,521.4 261.4,535.7 252.8,527.4 		"/>
		<path class="st10" d="M260.7,536.4c-2.3,2.4-6.1,2.5-8.5,0.2c-2.4-2.3-2.5-6.1-0.2-8.5c2.3-2.4,6.1-2.5,8.5-0.2c0,0,0,0,0,0
			C262.9,530.2,263,534,260.7,536.4z"/>
		<polyline class="st10" points="195.6,503.3 209.6,497.4 204.3,511.6 195.6,503.3 		"/>
		<path class="st10" d="M203.6,512.3c-2.3,2.4-6.1,2.5-8.5,0.2c-2.4-2.3-2.5-6.1-0.2-8.5c2.3-2.4,6.1-2.5,8.5-0.2c0,0,0,0,0,0
			C205.8,506.2,205.8,509.9,203.6,512.3z"/>
		<polyline class="st10" points="189.8,433.9 203.8,427.9 198.5,442.2 189.8,433.9 		"/>
		<path class="st10" d="M197.7,442.9c-2.3,2.4-6.1,2.5-8.5,0.2c-2.4-2.3-2.5-6.1-0.2-8.5c2.3-2.4,6.1-2.5,8.5-0.2c0,0,0,0,0,0
			C199.9,436.7,200,440.5,197.7,442.9z"/>
		<polyline class="st10" points="205,563.9 219,557.9 213.6,572.1 205,563.9 		"/>
		<path class="st10" d="M212.9,572.8c-2.3,2.4-6.1,2.5-8.5,0.2s-2.5-6.1-0.2-8.5c2.3-2.4,6.1-2.5,8.5-0.2c0,0,0,0,0,0
			C215.1,566.7,215.2,570.5,212.9,572.8z"/>
		<polyline class="st10" points="124.8,604.3 138.9,598.3 133.5,612.6 124.8,604.3 		"/>
		<path class="st10" d="M132.8,613.3c-2.3,2.4-6.1,2.5-8.5,0.2c-2.4-2.3-2.5-6.1-0.2-8.5c2.3-2.4,6.1-2.5,8.5-0.2c0,0,0,0,0,0
			C135,607.1,135.1,610.9,132.8,613.3z"/>
		<polyline class="st10" points="264.8,574.7 278.8,568.7 273.4,583 264.8,574.7 		"/>
		<path class="st10" d="M272.7,583.7c-2.3,2.4-6.1,2.5-8.5,0.2s-2.5-6.1-0.2-8.5c2.3-2.4,6.1-2.5,8.5-0.2c0,0,0,0,0,0
			C274.9,577.5,275,581.3,272.7,583.7z"/>
		<polyline class="st10" points="622.6,382.1 636.6,376.1 631.3,390.4 622.6,382.1 		"/>
		<path class="st10" d="M630.6,391.1c-2.3,2.4-6.1,2.5-8.5,0.2c-2.4-2.3-2.5-6.1-0.2-8.5s6.1-2.5,8.5-0.2c0,0,0,0,0,0
			C632.8,384.9,632.9,388.7,630.6,391.1z"/>
		<polyline class="st10" points="665.8,376.1 679.8,370.1 674.4,384.4 665.8,376.1 		"/>
		<path class="st10" d="M673.7,385.1c-2.3,2.4-6.1,2.5-8.5,0.2c-2.4-2.3-2.5-6.1-0.2-8.5c2.3-2.4,6.1-2.5,8.5-0.2c0,0,0,0,0,0
			C675.9,378.9,676,382.7,673.7,385.1z"/>
		<polyline class="st10" points="614.4,458.8 628.4,452.8 623.1,467.1 614.4,458.8 		"/>
		<path class="st10" d="M622.4,467.8c-2.3,2.4-6.1,2.5-8.5,0.2c-2.4-2.3-2.5-6.1-0.2-8.5c2.3-2.4,6.1-2.5,8.5-0.2c0,0,0,0,0,0
			C624.6,461.6,624.7,465.4,622.4,467.8z"/>
		<polyline class="st10" points="557.3,434.8 571.3,428.8 565.9,443 557.3,434.8 		"/>
		<path class="st10" d="M565.2,443.8c-2.3,2.4-6.1,2.5-8.5,0.2c-2.4-2.3-2.5-6.1-0.2-8.5s6.1-2.5,8.5-0.2c0,0,0,0,0,0
			C567.4,437.6,567.5,441.4,565.2,443.8z"/>
		<polyline class="st10" points="551.4,365.3 565.5,359.3 560.1,373.6 551.4,365.3 		"/>
		<path class="st10" d="M559.4,374.3c-2.3,2.4-6.1,2.5-8.5,0.2c-2.4-2.3-2.5-6.1-0.2-8.5c2.3-2.4,6.1-2.5,8.5-0.2c0,0,0,0,0,0
			C561.6,368.1,561.7,371.9,559.4,374.3z"/>
		<polyline class="st10" points="566.6,495.3 580.7,489.3 575.3,503.5 566.6,495.3 		"/>
		<path class="st10" d="M574.6,504.3c-2.3,2.4-6.1,2.5-8.5,0.2c-2.4-2.3-2.5-6.1-0.2-8.5c2.3-2.4,6.1-2.5,8.5-0.2c0,0,0,0,0,0
			C576.8,498.1,576.9,501.9,574.6,504.3z"/>
		<polyline class="st10" points="626.4,506.1 640.4,500.1 635.1,514.4 626.4,506.1 		"/>
		<path class="st10" d="M634.4,515.1c-2.3,2.4-6.1,2.5-8.5,0.2c-2.4-2.3-2.5-6.1-0.2-8.5c2.3-2.4,6.1-2.5,8.5-0.2c0,0,0,0,0,0
			C636.6,508.9,636.6,512.7,634.4,515.1z"/>
		<polyline class="st10" points="1030.8,394.9 1044.8,388.9 1039.4,403.2 1030.8,394.9 		"/>
		<path class="st10" d="M1038.7,403.9c-2.3,2.4-6.1,2.5-8.5,0.2c-2.4-2.3-2.5-6.1-0.2-8.5c2.3-2.4,6.1-2.5,8.5-0.2c0,0,0,0,0,0
			C1040.9,397.7,1041,401.5,1038.7,403.9z"/>
		<polyline class="st10" points="1073.9,388.9 1087.9,382.9 1082.6,397.2 1073.9,388.9 		"/>
		<path class="st10" d="M1081.9,397.9c-2.3,2.4-6.1,2.5-8.5,0.2c-2.4-2.3-2.5-6.1-0.2-8.5c2.3-2.4,6.1-2.5,8.5-0.2c0,0,0,0,0,0
			C1084.1,391.7,1084.1,395.5,1081.9,397.9z"/>
		<polyline class="st10" points="1022.6,471.6 1036.6,465.6 1031.3,479.9 1022.6,471.6 		"/>
		<path class="st10" d="M1030.5,480.6c-2.3,2.4-6.1,2.5-8.5,0.2c-2.4-2.3-2.5-6.1-0.2-8.5c2.3-2.4,6.1-2.5,8.5-0.2c0,0,0,0,0,0
			C1032.7,474.4,1032.8,478.2,1030.5,480.6z"/>
		<polyline class="st10" points="965.4,447.5 979.4,441.5 974.1,455.8 965.4,447.5 		"/>
		<path class="st10" d="M973.4,456.5c-2.3,2.4-6.1,2.5-8.5,0.2c-2.4-2.3-2.5-6.1-0.2-8.5c2.3-2.4,6.1-2.5,8.5-0.2c0,0,0,0,0,0
			C975.6,450.3,975.7,454.1,973.4,456.5z"/>
		<polyline class="st10" points="959.6,378 973.6,372 968.3,386.3 959.6,378 		"/>
		<path class="st10" d="M967.5,387c-2.3,2.4-6.1,2.5-8.5,0.2c-2.4-2.3-2.5-6.1-0.2-8.5c2.3-2.4,6.1-2.5,8.5-0.2c0,0,0,0,0,0
			C969.8,380.8,969.8,384.6,967.5,387z"/>
		<polyline class="st10" points="974.8,508 988.8,502 983.5,516.3 974.8,508 		"/>
		<path class="st10" d="M982.8,517c-2.3,2.4-6.1,2.5-8.5,0.2c-2.4-2.3-2.5-6.1-0.2-8.5s6.1-2.5,8.5-0.2c0,0,0,0,0,0
			C984.9,510.8,985,514.6,982.8,517z"/>
		<polyline class="st10" points="1034.6,518.9 1048.6,512.9 1043.2,527.2 1034.6,518.9 		"/>
		<path class="st10" d="M1042.5,527.9c-2.3,2.4-6.1,2.5-8.5,0.2s-2.5-6.1-0.2-8.5c2.3-2.4,6.1-2.5,8.5-0.2c0,0,0,0,0,0
			C1044.7,521.7,1044.8,525.5,1042.5,527.9z"/>
		<polyline class="st10" points="977.3,105.5 991.3,99.6 985.9,113.8 977.3,105.5 		"/>
		<path class="st10" d="M985.2,114.5c-2.3,2.4-6.1,2.5-8.5,0.2c-2.4-2.3-2.5-6.1-0.2-8.5c2.3-2.4,6.1-2.5,8.5-0.2c0,0,0,0,0,0
			C987.4,108.3,987.5,112.1,985.2,114.5z"/>
		<polyline class="st10" points="1020.4,99.6 1034.4,93.6 1029,107.8 1020.4,99.6 		"/>
		<path class="st10" d="M1028.3,108.6c-2.3,2.4-6.1,2.5-8.5,0.2c-2.4-2.3-2.5-6.1-0.2-8.5c2.3-2.4,6.1-2.5,8.5-0.2c0,0,0,0,0,0
			C1030.5,102.4,1030.6,106.2,1028.3,108.6z"/>
		<polyline class="st10" points="969.1,182.2 983.1,176.3 977.7,190.5 969.1,182.2 		"/>
		<path class="st10" d="M977,191.2c-2.3,2.4-6.1,2.5-8.5,0.2c-2.4-2.3-2.5-6.1-0.2-8.5c2.3-2.4,6.1-2.5,8.5-0.2c0,0,0,0,0,0
			C979.2,185,979.3,188.8,977,191.2z"/>
		<polyline class="st10" points="911.9,158.2 925.9,152.2 920.6,166.5 911.9,158.2 		"/>
		<path class="st10" d="M919.8,167.2c-2.3,2.4-6.1,2.5-8.5,0.2c-2.4-2.3-2.5-6.1-0.2-8.5c2.3-2.4,6.1-2.5,8.5-0.2c0,0,0,0,0,0
			C922,161,922.1,164.8,919.8,167.2z"/>
		<polyline class="st10" points="906.1,88.7 920.1,82.7 914.7,97 906.1,88.7 		"/>
		<path class="st10" d="M914,97.7c-2.3,2.4-6.1,2.5-8.5,0.2c-2.4-2.3-2.5-6.1-0.2-8.5s6.1-2.5,8.5-0.2c0,0,0,0,0,0
			C916.2,91.5,916.3,95.3,914,97.7z"/>
		<polyline class="st10" points="921.3,218.7 935.3,212.7 929.9,227 921.3,218.7 		"/>
		<path class="st10" d="M929.2,227.7c-2.3,2.4-6.1,2.5-8.5,0.2c-2.4-2.3-2.5-6.1-0.2-8.5c2.3-2.4,6.1-2.5,8.5-0.2c0,0,0,0,0,0
			C931.4,221.5,931.5,225.3,929.2,227.7z"/>
		<polyline class="st10" points="981,229.5 995,223.6 989.7,237.8 981,229.5 		"/>
		<path class="st10" d="M989,238.5c-2.3,2.4-6.1,2.5-8.5,0.2c-2.4-2.3-2.5-6.1-0.2-8.5s6.1-2.5,8.5-0.2c0,0,0,0,0,0
			C991.2,232.3,991.3,236.1,989,238.5z"/>
		<polyline class="st10" points="822.2,102.1 836.2,96.1 830.9,110.4 822.2,102.1 		"/>
		<path class="st10" d="M830.2,111.1c-2.3,2.4-6.1,2.5-8.5,0.2c-2.4-2.3-2.5-6.1-0.2-8.5s6.1-2.5,8.5-0.2c0,0,0,0,0,0
			C832.4,104.9,832.4,108.7,830.2,111.1z"/>
		<polyline class="st10" points="865.3,96.1 879.3,90.1 874,104.4 865.3,96.1 		"/>
		<path class="st10" d="M873.3,105.1c-2.3,2.4-6.1,2.5-8.5,0.2c-2.4-2.3-2.5-6.1-0.2-8.5c2.3-2.4,6.1-2.5,8.5-0.2c0,0,0,0,0,0
			C875.5,98.9,875.6,102.7,873.3,105.1z"/>
		<polyline class="st10" points="814,178.8 828,172.8 822.7,187.1 814,178.8 		"/>
		<path class="st10" d="M822,187.8c-2.3,2.4-6.1,2.5-8.5,0.2c-2.4-2.3-2.5-6.1-0.2-8.5c2.3-2.4,6.1-2.5,8.5-0.2c0,0,0,0,0,0
			C824.2,181.6,824.3,185.4,822,187.8z"/>
		<polyline class="st10" points="1127.2,240.4 1141.3,234.5 1135.9,248.7 1127.2,240.4 		"/>
		<path class="st10" d="M1135.2,249.4c-2.3,2.4-6.1,2.5-8.5,0.2c-2.4-2.3-2.5-6.1-0.2-8.5c2.3-2.4,6.1-2.5,8.5-0.2c0,0,0,0,0,0
			C1137.4,243.3,1137.5,247,1135.2,249.4z"/>
		<polyline class="st10" points="1119,317.1 1133.1,311.2 1127.7,325.4 1119,317.1 		"/>
		<path class="st10" d="M1127,326.1c-2.3,2.4-6.1,2.5-8.5,0.2c-2.4-2.3-2.5-6.1-0.2-8.5s6.1-2.5,8.5-0.2c0,0,0,0,0,0
			C1129.2,319.9,1129.3,323.7,1127,326.1z"/>
		<polyline class="st10" points="1151.7,219.7 1165.7,213.7 1160.4,228 1151.7,219.7 		"/>
		<path class="st10" d="M1159.7,228.7c-2.3,2.4-6.1,2.5-8.5,0.2c-2.4-2.3-2.5-6.1-0.2-8.5c2.3-2.4,6.1-2.5,8.5-0.2c0,0,0,0,0,0
			C1161.8,222.5,1161.9,226.3,1159.7,228.7z"/>
		<polyline class="st10" points="1062,163.6 1076,157.6 1070.7,171.9 1062,163.6 		"/>
		<path class="st10" d="M1070,172.6c-2.3,2.4-6.1,2.5-8.5,0.2c-2.4-2.3-2.5-6.1-0.2-8.5c2.3-2.4,6.1-2.5,8.5-0.2c0,0,0,0,0,0
			C1072.2,166.4,1072.2,170.2,1070,172.6z"/>
		<polyline class="st10" points="1053.8,240.3 1067.8,234.3 1062.5,248.6 1053.8,240.3 		"/>
		<path class="st10" d="M1061.8,249.3c-2.3,2.4-6.1,2.5-8.5,0.2c-2.4-2.3-2.5-6.1-0.2-8.5c2.3-2.4,6.1-2.5,8.5-0.2c0,0,0,0,0,0
			C1064,243.1,1064.1,246.9,1061.8,249.3z"/>
		<polyline class="st10" points="756.8,154.8 770.9,148.8 765.5,163 756.8,154.8 		"/>
		<path class="st10" d="M764.8,163.8c-2.3,2.4-6.1,2.5-8.5,0.2c-2.4-2.3-2.5-6.1-0.2-8.5c2.3-2.4,6.1-2.5,8.5-0.2c0,0,0,0,0,0
			C767,157.6,767.1,161.4,764.8,163.8z"/>
		<polyline class="st10" points="751,85.3 765,79.3 759.7,93.6 751,85.3 		"/>
		<path class="st10" d="M759,94.3c-2.3,2.4-6.1,2.5-8.5,0.2c-2.4-2.3-2.5-6.1-0.2-8.5c2.3-2.4,6.1-2.5,8.5-0.2c0,0,0,0,0,0
			C761.2,88.1,761.3,91.9,759,94.3z"/>
		<polyline class="st10" points="766.2,215.3 780.2,209.3 774.9,223.6 766.2,215.3 		"/>
		<path class="st10" d="M774.2,224.3c-2.3,2.4-6.1,2.5-8.5,0.2c-2.4-2.3-2.5-6.1-0.2-8.5c2.3-2.4,6.1-2.5,8.5-0.2c0,0,0,0,0,0
			C776.4,218.1,776.5,221.9,774.2,224.3z"/>
		<polyline class="st10" points="826,226.1 840,220.1 834.7,234.4 826,226.1 		"/>
		<path class="st10" d="M834,235.1c-2.3,2.4-6.1,2.5-8.5,0.2s-2.5-6.1-0.2-8.5c2.3-2.4,6.1-2.5,8.5-0.2c0,0,0,0,0,0
			C836.1,228.9,836.2,232.7,834,235.1z"/>
		<polyline class="st10" points="436.4,76.9 450.4,70.9 445.1,85.2 436.4,76.9 		"/>
		<path class="st10" d="M444.3,85.9c-2.3,2.4-6.1,2.5-8.5,0.2s-2.5-6.1-0.2-8.5c2.3-2.4,6.1-2.5,8.5-0.2c0,0,0,0,0,0
			C446.5,79.7,446.6,83.5,444.3,85.9z"/>
		<polyline class="st10" points="479.5,70.9 493.5,64.9 488.2,79.2 479.5,70.9 		"/>
		<path class="st10" d="M487.5,79.9c-2.3,2.4-6.1,2.5-8.5,0.2c-2.4-2.3-2.5-6.1-0.2-8.5s6.1-2.5,8.5-0.2c0,0,0,0,0,0
			C489.7,73.7,489.8,77.5,487.5,79.9z"/>
		<polyline class="st10" points="428.2,153.6 442.2,147.6 436.9,161.9 428.2,153.6 		"/>
		<path class="st10" d="M436.2,162.6c-2.3,2.4-6.1,2.5-8.5,0.2c-2.4-2.3-2.5-6.1-0.2-8.5c2.3-2.4,6.1-2.5,8.5-0.2c0,0,0,0,0,0
			C438.3,156.4,438.4,160.2,436.2,162.6z"/>
		<polyline class="st10" points="365.2,60.1 379.2,54.1 373.9,68.3 365.2,60.1 		"/>
		<path class="st10" d="M373.2,69c-2.3,2.4-6.1,2.5-8.5,0.2c-2.4-2.3-2.5-6.1-0.2-8.5c2.3-2.4,6.1-2.5,8.5-0.2c0,0,0,0,0,0
			C375.4,62.8,375.4,66.6,373.2,69z"/>
		<polyline class="st10" points="255,41.3 269,35.3 263.6,49.5 255,41.3 		"/>
		<path class="st10" d="M262.9,50.3c-2.3,2.4-6.1,2.5-8.5,0.2c-2.4-2.3-2.5-6.1-0.2-8.5c2.3-2.4,6.1-2.5,8.5-0.2c0,0,0,0,0,0
			C265.1,44.1,265.2,47.9,262.9,50.3z"/>
		<polyline class="st10" points="298.1,35.3 312.1,29.3 306.8,43.6 298.1,35.3 		"/>
		<path class="st10" d="M306.1,44.3c-2.3,2.4-6.1,2.5-8.5,0.2c-2.4-2.3-2.5-6.1-0.2-8.5c2.3-2.4,6.1-2.5,8.5-0.2c0,0,0,0,0,0
			C308.2,38.1,308.3,41.9,306.1,44.3z"/>
		<polyline class="st10" points="183.8,24.4 197.8,18.4 192.5,32.7 183.8,24.4 		"/>
		<path class="st10" d="M191.8,33.4c-2.3,2.4-6.1,2.5-8.5,0.2c-2.4-2.3-2.5-6.1-0.2-8.5c2.3-2.4,6.1-2.5,8.5-0.2c0,0,0,0,0,0
			C194,27.2,194,31,191.8,33.4z"/>
		<path class="st10" d="M88.2,641.5c-2.5,2.4-4.8,7-2.3,10.2c4,4.8,10.2,0.5,14.3-1.4c10.1-4.8,22.9,2.8,32.2-3.1
			c2.2-1.4,3.6-4.1,6.1-5.6c1.8-1.1,4-1.4,6-2.6c5.9-3.7,3-6.3-2.9-6.5c-5.6-0.2-10.6,2.4-15.9,1c-4.9-1.2-7.6-3.6-13.1-2.1
			C104,633.8,94.9,636.1,88.2,641.5z"/>
		<path class="st10" d="M618.7,648.7c6.4,3.8,29.5-3.1,32.2,2.2c3.9,7.7-7.3,6.2-11.2,5.9c-7.5-0.6-18.4,0.9-25.3-1.5
			C613.4,652.3,615.2,649.9,618.7,648.7z"/>
		<path class="st11" d="M530.1,486.8c2,6.1,0.2,11.6-3.2,15c-2.4,2.4-7.8,3.6-13.7,3.1c-3.6,11.3-17.8,19.7-34.7,19.7
			c-12.4,0-23.3-4.5-29.7-11.3c-6.4,6.8-17.3,11.3-29.7,11.3c-19.6,0-35.6-11.3-35.6-25.3V499c-3.7,0.4-7.5-0.8-10.4-3.2
			c-5.1-4.5-5.9-12.4-2.8-20.4c-4.8-5.4-7.6-11.7-7.6-18.5c0-10.6,6.8-20.2,17.5-26.6c-6-8.4-9.1-18.3-9.1-27
			c0-15.3,14-28.3,33.5-33.1c8.5-11,25.1-18.4,44.2-18.4c17.1,0,32.1,6,41.2,15.1c4.4-1.7,9.8-1.8,12-1c2,0.8,5.3,4.4,7.4,8.6
			C525.2,381,534,394.9,534,409c0,6.2-2.3,13.6-6.4,20.8c11.6,3.1,20.2,14,20.2,27C547.8,468.9,540.4,481.8,530.1,486.8z"/>
		<path class="st12" d="M455.3,512.9c0,0,0.5,135.1,3.4,136.4c0,0-8.2,3.7-15.6,0l2.1-137.5L455.3,512.9z"/>
		<path class="st11" d="M978.1,369.3c2.1,6.3,0.2,12-3.3,15.5c-2.5,2.5-8,3.7-14.2,3.2c-3.7,11.6-18.3,20.3-35.8,20.3
			c-12.8,0-24.1-4.6-30.7-11.7c-6.6,7.1-17.8,11.7-30.7,11.7c-20.3,0-36.7-11.7-36.7-26.1v-0.3c-3.9,0.4-7.7-0.8-10.7-3.3
			c-5.3-4.6-6.1-12.8-2.9-21c-4.9-5.5-7.8-12.1-7.8-19.1c0-11,7-20.9,18.1-27.5c-6.2-8.6-9.4-18.9-9.4-27.9
			c0-15.8,14.5-29.2,34.7-34.1c8.7-11.3,25.9-19,45.6-19c17.6,0,33.2,6.1,42.5,15.6c4.6-1.8,10.1-1.9,12.4-1
			c2.1,0.8,5.5,4.5,7.7,8.9c16,6.7,25.2,21.1,25.2,35.7c0,6.4-2.4,14.1-6.6,21.5c12,3.2,20.9,14.5,20.9,27.9
			C996.4,350.9,988.8,364.2,978.1,369.3z"/>
		<path class="st13" d="M897.2,397.7c0,0,0.8,232.5,5.8,234.8c0,0-14.1,6.4-26.8,0l3.6-236.6L897.2,397.7z"/>
		<path class="st14" d="M864.4,685.3L864.4,685.3c-1,0.7-2.2,1.1-3.4,1.1h-11c-1.1,0-2.2-0.3-3.2-0.9l-0.2-0.1
			c-1.9-1.3-2.9-3.6-2.5-5.8l5.4-31.8c0.3-2,2-3.4,4-3.3h4.2c2,0,3.6,1.4,3.9,3.4l5.1,31.9C867.1,681.8,866.2,684,864.4,685.3z"/>
		<rect x="852.3" y="479.1" class="st14" width="6.1" height="170.9"/>
		<rect x="833.8" y="428.7" class="st14" width="44.3" height="4.7"/>
		<rect x="843" y="469.1" class="st14" width="26" height="2.4"/>
		<polygon class="st14" points="864.4,470.3 845.6,470.3 840.6,431.9 870.3,431.9 		"/>
		<polygon class="st15" points="856.4,433.5 856.4,468.3 863.1,468.3 867.9,433.5 		"/>
		<polygon class="st16" points="854.3,433.5 854.3,468.3 847.6,468.3 842.9,433.5 		"/>
		<path class="st14" d="M857.8,480.2c0,0,9.6-9.5,9.2-9.4s-22.4,0-22.4,0l9.2,9.9L857.8,480.2z"/>
		<path class="st14" d="M873.5,430.1l-16-14.6c-0.9-0.8-2.3-0.8-3.3,0l-17.1,14.6L873.5,430.1z"/>
		
			<linearGradient id="SVGID_3_" gradientUnits="userSpaceOnUse" x1="744.93" y1="9.16" x2="744.93" y2="25.23" gradientTransform="matrix(1 0 0 -1 0 672.63)">
			<stop  offset="0.38" style="stop-color:#A1510F"/>
			<stop  offset="1" style="stop-color:#BE9269"/>
		</linearGradient>
		<polygon class="st17" points="675.8,643 814,643 807.2,660.4 681,660.4 		"/>
		<rect x="684.4" y="664.4" class="st18" width="125" height="5.2"/>
		<path class="st19" d="M802.4,683.9c0,0-3.5-28.3,4.2-33.8h-7.1c0,0-4.8,18.7-1.6,33.8H802.4z"/>
		<path class="st19" d="M688.6,683.9c0,0,3.5-28.3-4.2-33.8h7.1c0,0,4.8,18.7,1.6,33.8H688.6z"/>
		
			<linearGradient id="SVGID_4_" gradientUnits="userSpaceOnUse" x1="244.225" y1="9.16" x2="244.225" y2="25.23" gradientTransform="matrix(1 0 0 -1 0 672.63)">
			<stop  offset="0.38" style="stop-color:#A1510F"/>
			<stop  offset="1" style="stop-color:#BE9269"/>
		</linearGradient>
		<polygon class="st20" points="175.1,643 313.3,643 306.5,660.4 180.3,660.4 		"/>
		<rect x="183.7" y="664.4" class="st18" width="124.9" height="5.2"/>
		<path class="st19" d="M301.7,683.9c0,0-3.5-28.3,4.2-33.8h-7.1c0,0-4.8,18.7-1.6,33.8H301.7z"/>
		<path class="st19" d="M187.9,683.9c0,0,3.6-28.3-4.2-33.8h7.1c0,0,4.8,18.7,1.6,33.8H187.9z"/>
	</g>
</g>
</svg>
