<?xml version="1.0" encoding="utf-8"?>
<!-- Generator: Adobe Illustrator 23.0.5, SVG Export Plug-In . SVG Version: 6.00 Build 0)  -->
<svg version="1.1" id="Layer_1" xmlns="http://www.w3.org/2000/svg" xmlns:xlink="http://www.w3.org/1999/xlink" x="0px" y="0px"
	 viewBox="0 0 1179 709.9" style="enable-background:new 0 0 1179 709.9;" xml:space="preserve">
<style type="text/css">
	.st0{fill:#3D88D7;}
	.st1{fill:#72C7F2;}
	.st2{fill:#3376BC;}
	.st3{fill:#436F96;}
	.st4{fill:#31506C;}
	.st5{fill:#6E9CCE;}
	.st6{fill:#5D4E75;}
	.st7{fill:#FFB68E;}
	.st8{fill:none;stroke:#5D4E75;stroke-width:0.34;stroke-miterlimit:10;}
	.st9{fill:#3D324C;}
	.st10{fill:#EC9D6C;}
	.st11{fill:#FF977E;}
	.st12{fill:#006837;}
	.st13{fill:#5B304C;}
	.st14{fill:#009245;}
	.st15{fill:#754C24;}
	.st16{fill:#34B226;}
	.st17{fill:#1F2B55;}
	.st18{fill:#F2D75F;}
	.st19{fill:#F5F8AC;}
	.st20{fill:url(#SVGID_1_);}
	.st21{fill:#9E4A04;}
	.st22{fill:#515153;}
	.st23{fill:url(#SVGID_2_);}
	.st24{clip-path:url(#SVGID_4_);}
	.st25{fill:#999999;}
	.st26{fill:#A8A8A8;}
	.st27{fill:#828282;}
	.st28{fill:#AAAAAA;}
	.st29{fill:#CE8E55;}
	.st30{fill:#AA5A0B;}
	.st31{fill:#2C3A64;}
	.st32{fill:#415DA5;}
	.st33{fill:#EE9849;}
	.st34{fill:#B84C42;}
	.st35{fill:#D57912;}
	.st36{fill:#AA3F3A;}
	.st37{fill:#35488B;}
	.st38{fill:#FFB27D;}
	.st39{fill:#E58638;}
	.st40{fill:#ED975D;}
	.st41{fill:#739CF3;}
	.st42{fill:#B2CBFD;}
	.st43{fill:#233862;}
	.st44{fill:#EBC17A;}
	.st45{fill:#BD8C48;}
	.st46{fill:#E0A655;}
	.st47{fill:#E94E1B;}
	.st48{fill:#EDEDED;}
	.st49{opacity:0.15;fill:#1D1D1B;}
	.st50{fill:#3C3C3B;}
	.st51{opacity:0.5;fill:#3C3C3B;}
	.st52{opacity:0.75;fill:#E0A655;}
	.st53{fill:#1D1D1B;}
	.st54{fill:#575756;}
	.st55{fill:#F6F6F6;}
</style>
<title>Asset 2</title>
<g id="Bench">
	<path class="st0" d="M160.5,403.5c0.8,0,1.5-0.7,1.5-1.5s-0.7-1.5-1.5-1.5s-1.5,0.7-1.5,1.5S159.7,403.5,160.5,403.5z"/>
	<rect x="0.6" class="st1" width="1178.4" height="709.9"/>
	<rect x="734.2" y="511.8" class="st2" width="38.4" height="89.6"/>
	<rect x="686.7" y="524.5" class="st2" width="47.5" height="76.9"/>
	<rect x="597.5" y="542.2" class="st0" width="89.2" height="59.2"/>
	<rect x="0.6" y="601.5" class="st3" width="1178.4" height="13.7"/>
	<rect x="0.6" y="615" class="st4" width="1178.4" height="48.5"/>
	<rect x="0.6" y="663.5" class="st5" width="1178.4" height="46.4"/>
	<g>
		<g>
			<g>
				<path class="st6" d="M690.6,677.9L690.6,677.9c1.8-0.7,3.6-0.9,2.9-2.7l-3.8-8.9l-6.5,2.6l2.8,7
					C686.8,677.8,688.8,678.7,690.6,677.9z"/>
				<g>
					<path class="st7" d="M668.3,682.2c0,0,1.6,3.1,6.3,3.9c4.7,0.8,15.1-1.4,15.1-1.4v1.5h3.6v-1.9c0,0,0.9-0.1,1.8-1.1
						c0.1-0.2,0.3-0.3,0.3-0.5c0,0,0,0,0,0c0.6-1,0.5-2.3,0.4-3.3c-0.2-2.8-2.3-4.3-2.3-4.3s-3.5,4-7.4,0.7c0,0-8.9,5.1-13.4,5.1
						c-2.1,0-3.2,0.2-3.8,0.5C668.3,681.9,668.3,682.2,668.3,682.2z"/>
					<path class="st6" d="M668.3,682.2c0,0,1.6,3.1,6.3,3.9c4.7,0.8,15.1-1.4,15.1-1.4v1.5h3.6v-1.9c0,0,0.9-0.1,1.8-1.1
						c0.1-0.2,0.3-0.3,0.3-0.5c-0.1,0.1-0.7,0.9-5.6,1.3c-1.7,0.2-6.2,1.6-13.1,1.4c-6.9-0.2-7.7-4-7.7-4
						C668.3,681.9,668.3,682.2,668.3,682.2z"/>
					<g>
						<path class="st6" d="M691.2,676.9c-1.3,0.9-2.5,2.1-3.2,3.5c-0.4,0.7-0.6,1.5-0.6,2.3c0,0.8,0.2,1.5,0.5,2.3l-0.3,0.1
							c-0.3-0.8-0.5-1.6-0.4-2.4c0.1-0.8,0.3-1.6,0.7-2.3C688.6,678.9,689.8,677.8,691.2,676.9z"/>
					</g>
					<g>
						<path class="st6" d="M687.4,684.1c-2.6,0.6-5.3,1-8,1.1c-2.7,0.1-5.4-0.1-8-0.8c2.6,0.7,5.3,0.8,8,0.7
							c2.7-0.2,5.3-0.6,7.9-1.2L687.4,684.1z"/>
					</g>
					<g>
						<path class="st8" d="M684.8,676.7c0,0,2,3.9-0.6,3.1S684.8,676.7,684.8,676.7z"/>
						<path class="st8" d="M684.2,676.8c0,0-4.7,0-4.7,1.4C679.5,679.7,684.2,676.8,684.2,676.8z"/>
						<path class="st8" d="M681.5,683.5c-0.3-4,3.2-6.8,3.2-6.8s-4.8,3.8-7.7,2"/>
						<g>
							<line class="st8" x1="678.8" y1="679.5" x2="679.5" y2="680.9"/>
							<line class="st8" x1="680.2" y1="679" x2="680.9" y2="680.3"/>
							<line class="st8" x1="677.1" y1="680.1" x2="677.6" y2="681.5"/>
							<line class="st8" x1="675.6" y1="680.5" x2="675.9" y2="681.8"/>
						</g>
					</g>
				</g>
			</g>
			<path class="st9" d="M699.4,631.9c0,0-25.9,4.5-26.7,8.3c-0.8,3.8,10.5,33.9,10.5,33.9l9.5-1.9l-6.5-23.4c0,0,16.3,1.6,25.3,2.3
				c9,0.7,12.4,0.4,11-8.2C721.2,634.4,699.4,631.9,699.4,631.9z"/>
		</g>
		<g>
			<path class="st10" d="M709.8,579.6c0,0,2.5,12.3,4.9,15.5c-3.6,4.4-8.3,4.5-8.3,4.5s-3.1-7.3-5.4-6.5
				C698.7,594,709.8,579.6,709.8,579.6z"/>
			<g>
				<path class="st6" d="M699.4,631.9c14.7,2.5,23.9,18.2,24.3,16.8c0.3-1.4,3.1-24.1,0.8-37.1c-2.3-13-9.3-17.8-9.3-17.8l-9.1,4.8
					L699.4,631.9z"/>
				<g>
					<path class="st9" d="M705.7,600.5c1-0.1,2-0.5,2.9-0.9c0.9-0.4,1.8-0.9,2.7-1.4c0.9-0.5,1.7-1.1,2.6-1.6
						c0.9-0.5,1.7-1.1,2.6-1.6l0,0c-0.8,0.7-1.6,1.3-2.5,1.8c-0.9,0.6-1.7,1.1-2.6,1.5c-0.9,0.5-1.8,0.9-2.8,1.3
						C707.7,600.1,706.7,600.4,705.7,600.5L705.7,600.5z"/>
				</g>
			</g>
			<g>
				<path class="st7" d="M685,629.9c0,0-11.2,4.8-12.1,9.8c5-2.8,12.1-4.4,12.1-4.4S682.5,633.2,685,629.9z"/>
				<g>
					<path class="st6" d="M710.1,602.1l-7.7,21.8l-19.1,6.1v6.5l26.9-2.3l8.7-25.8c0,0,1.1-7.3-2.9-10.9
						C713.6,595.4,710.1,602.1,710.1,602.1z"/>
				</g>
				<g>
					<path class="st9" d="M718.8,605.5c0.1,2.5-0.4,5-1,7.4c-0.6,2.4-1.4,4.8-2.1,7.2c-1.6,4.8-3.4,9.4-5.5,14l0,0.1l-0.1,0
						c-1.2,0.1-2.4,0.2-3.6,0.2l0,0c1.2-0.1,2.4-0.3,3.6-0.4l-0.1,0.1c1-2.3,1.9-4.6,2.8-7c0.9-2.3,1.8-4.7,2.6-7
						c0.8-2.4,1.6-4.7,2.2-7.2C718.3,610.5,718.9,608.1,718.8,605.5L718.8,605.5z"/>
				</g>
				<g>
					<path class="st9" d="M710.7,601.1c-1.1,1.7-1.9,3.6-2.6,5.5c-0.7,1.9-1.4,3.8-2,5.7l-1.8,5.8c-0.6,1.9-1.2,3.9-1.7,5.8l0,0.1
						l-0.1,0c-0.9,0.3-1.9,0.6-2.8,0.8l0,0c0.9-0.3,1.9-0.7,2.8-1l-0.1,0.1c0.9-4,2.2-7.8,3.6-11.6c0.7-1.9,1.4-3.8,2.1-5.7
						C708.8,604.6,709.5,602.7,710.7,601.1L710.7,601.1z"/>
				</g>
			</g>
		</g>
		<g>
			<g>
				<path class="st7" d="M696.4,579.6c0,5.5,0.5,15.2,2.8,15.4c4.1,0.3,9.3-3,9.3-8.5c0-5.5-0.6-11.2-4.7-11.2
					S696.4,574.2,696.4,579.6z"/>
				<path class="st9" d="M712.4,589.8c0,0,6.1-10.5,0-14.5c0-5.6-14.7-4.2-17.3,1.9c1.4,2.1,8.6-0.3,8.6-0.3s0.6,2.4,0,6.3
					c0,0,5.7,1.9,6.2,5.6L712.4,589.8z"/>
			</g>
			<g>
				<path class="st7" d="M706,585c0,1.5,0,2.8,0.9,2.8s2.5-1.2,2.5-2.8c0-1.5-0.8-2.8-1.7-2.8S706,583.5,706,585z"/>
				<g>
					<path class="st9" d="M707.1,583.4c0.4-0.1,1-0.1,1.2,0.3c0.2,0.3,0.3,0.8,0.3,1.3c0,0.4-0.1,0.9-0.4,1.2
						c-0.3,0.4-0.7,0.6-1.1,0.8c0.5-0.1,0.9-0.3,1.3-0.7c0.3-0.4,0.5-0.9,0.5-1.4c0-0.5-0.1-1-0.4-1.4c-0.2-0.2-0.4-0.3-0.7-0.3
						C707.5,583.2,707.3,583.3,707.1,583.4z"/>
					<path class="st9" d="M708.6,584.2c-0.2,0.1-0.4,0.2-0.5,0.3c-0.1,0.1-0.3,0.3-0.3,0.5c0.2-0.1,0.4-0.2,0.5-0.3
						C708.4,584.5,708.6,584.4,708.6,584.2z"/>
				</g>
			</g>
			<g>
				<path class="st9" d="M697.3,583.9c0,0.6,0.2,1.1,0.4,1.1c0.2,0,0.4-0.5,0.4-1.1c0-0.6-0.2-1.1-0.4-1.1
					C697.5,582.9,697.3,583.3,697.3,583.9z"/>
				<polygon class="st9" points="698.3,591.2 697.2,591.1 697.3,591.8 				"/>
				<polygon class="st11" points="696.5,584 694.8,590 697.1,590 				"/>
				<path class="st9" d="M698.8,582.2c-0.3-0.1-0.7-0.2-1.1-0.3c-0.2,0-0.4,0-0.6,0.1c-0.2,0.1-0.3,0.2-0.4,0.4l0,0
					c0.2-0.1,0.3-0.2,0.5-0.2c0.1,0,0.3-0.1,0.5-0.1C698.1,582.2,698.5,582.2,698.8,582.2L698.8,582.2z"/>
			</g>
		</g>
	</g>
	<rect x="772.6" y="530.1" class="st2" width="84" height="71.4"/>
	<rect x="1066.3" y="545" class="st2" width="38.4" height="55.8"/>
	<rect x="1104.7" y="526.1" class="st2" width="74.3" height="76.9"/>
	<rect y="524.5" class="st2" width="80.1" height="76.9"/>
	<rect x="579.3" y="524.3" class="st0" width="18.2" height="77.1"/>
	<rect x="531.8" y="494.7" class="st0" width="47.5" height="106.7"/>
	<rect x="486.4" y="524.3" class="st2" width="45.4" height="77.1"/>
	<rect x="359.4" y="524.3" class="st2" width="54" height="77.8"/>
	<rect x="190.8" y="524" class="st2" width="54" height="77.8"/>
	<rect x="128.7" y="548.1" class="st2" width="62.1" height="54"/>
	<rect x="413.4" y="487.4" class="st0" width="72.9" height="114.1"/>
	<rect x="244.8" y="473" class="st0" width="114.5" height="128.3"/>
	<rect x="899.8" y="524" class="st2" width="54" height="77.8"/>
	<rect x="837.7" y="548.1" class="st2" width="62.1" height="54"/>
	<rect x="953.8" y="473" class="st0" width="114.5" height="128.3"/>
	<rect x="80.1" y="492.5" class="st0" width="48.6" height="109.6"/>
	<rect x="852" y="499.3" class="st0" width="49.5" height="102.2"/>
	<path class="st12" d="M530.7,486.8c2,6.1,0.2,11.6-3.2,15c-2.4,2.4-7.8,3.6-13.7,3.1c-3.6,11.3-17.8,19.7-34.7,19.7
		c-12.4,0-23.3-4.5-29.7-11.3c-6.4,6.8-17.3,11.3-29.7,11.3c-19.6,0-35.6-11.3-35.6-25.3V499c-3.7,0.3-7.5-0.8-10.4-3.2
		c-5.1-4.5-5.9-12.4-2.8-20.4c-4.8-5.4-7.6-11.7-7.6-18.5c0-10.6,6.8-20.2,17.5-26.6c-6-8.4-9.1-18.3-9.1-27
		c0-15.3,14-28.3,33.5-33.1c8.5-11,25.1-18.4,44.2-18.4c17.1,0,32.1,6,41.2,15.1c4.4-1.7,9.8-1.8,12-1c2.1,0.8,5.4,4.4,7.4,8.6
		c15.5,6.5,24.4,20.5,24.4,34.5c0,6.2-2.3,13.6-6.4,20.8c11.6,3.1,20.2,14,20.2,27C548.4,468.9,541,481.8,530.7,486.8z"/>
	<path class="st13" d="M455.9,512.9c0,0,0.5,135.1,3.4,136.4c0,0-8.2,3.7-15.6,0l2.1-137.5L455.9,512.9z"/>
	<path class="st14" d="M978.7,369.3c2.1,6.3,0.2,12-3.3,15.5c-2.5,2.5-8,3.7-14.2,3.2c-3.7,11.6-18.3,20.3-35.8,20.3
		c-12.8,0-24.1-4.6-30.7-11.7c-6.6,7.1-17.8,11.7-30.7,11.7c-20.3,0-36.7-11.7-36.7-26.1v-0.3c-3.9,0.4-7.7-0.8-10.7-3.3
		c-5.3-4.6-6.1-12.8-2.9-21c-4.9-5.5-7.8-12.1-7.8-19.1c0-11,7-20.9,18.1-27.5c-6.2-8.6-9.4-18.9-9.4-27.9
		c0-15.8,14.5-29.2,34.7-34.2c8.7-11.3,25.9-19,45.6-19c17.6,0,33.2,6.1,42.5,15.6c4.6-1.8,10.1-1.9,12.4-1c2.1,0.8,5.5,4.5,7.7,8.9
		c16,6.7,25.2,21.1,25.2,35.7c0,6.4-2.4,14.1-6.6,21.5c12,3.2,20.9,14.5,20.9,27.9C997,350.9,989.3,364.2,978.7,369.3z"/>
	<path class="st15" d="M897.8,397.7c0,0,0.8,232.5,5.8,234.8c0,0-14.1,6.4-26.8,0l3.6-236.6L897.8,397.7z"/>
	<path class="st16" d="M549.1,643.9c-0.1,1.2-0.9,2.3-2,2.7c-1.1,0.2-2.2,0-3.1-0.6c-1.8,2-5.4,2.4-8.8,0.8c-2.3-0.9-4.1-2.7-5-5
		c-2.3,0.8-4.8,0.7-7-0.4c-4-1.8-6.2-5.5-4.9-8.4l0,0c-0.8-0.3-1.4-0.9-1.8-1.6c-0.6-1.4-0.1-3,1.3-4.4c-0.5-1.5-0.4-3,0.2-4.4
		c1-2.2,3.2-3.5,6-3.8c-0.4-2.1-0.2-4.3,0.6-6.3c1.4-3.1,5.4-4.4,9.8-3.6c2.7-1.4,6.8-1.4,10.6,0.3c3.1,1.3,5.6,3.7,7,6.8
		c0.9,0,1.8,0.4,2.5,0.9c0.5,0.7,0.7,1.6,0.7,2.4c2.4,2.4,3.1,6.1,1.8,9.2c-0.7,1.5-1.9,2.7-3.2,3.6c2.1,1.8,2.8,4.8,1.6,7.3
		C554.3,642,551.8,643.6,549.1,643.9z"/>
	<path class="st16" d="M566.7,646.7c-0.5,1.1-1.7,1.8-2.9,1.8c-1.1-0.2-2-0.8-2.6-1.7c-2.4,1.1-5.9,0.1-8.5-2.6
		c-1.7-1.7-2.7-4.1-2.7-6.5c-2.4-0.1-4.7-1.2-6.3-3c-3-3.2-3.6-7.5-1.4-9.6l0,0c-0.6-0.6-1-1.3-1.1-2.2c-0.1-1.5,1.1-2.8,2.8-3.6
		c0.1-1.5,0.7-3,1.8-4c1.7-1.6,4.3-2,7-1.2c0.4-2.1,1.5-4.1,3-5.6c2.5-2.3,6.7-2.1,10.5,0.3c3.1-0.3,6.8,1.2,9.7,4.3
		c2.4,2.4,3.8,5.6,3.9,8.9c0.8,0.4,1.5,1,2,1.8c0.2,0.8,0.1,1.7-0.3,2.5c1.3,3.2,0.6,6.8-1.8,9.2c-1.2,1.1-2.7,1.8-4.3,2.2
		c1.3,2.5,0.8,5.5-1.3,7.4C572.2,646.9,569.4,647.5,566.7,646.7z"/>
	<path class="st16" d="M516.7,609.3c1-0.6,2.3-0.5,3.3,0.1c0.7,0.7,1.2,1.7,1.2,2.8c2.5,0.4,4.8,3.1,5.4,6.7c0.5,2.3,0,4.7-1.3,6.7
		c1.9,1.4,3.2,3.5,3.5,5.9c0.7,4.2-1.1,8-4.1,8.5h-0.1c0.2,0.8,0.1,1.6-0.3,2.3c-0.8,1.2-2.4,1.7-4.2,1.3c-0.9,1.2-2.2,2-3.7,2.3
		c-2.3,0.4-4.5-0.7-6.3-2.8c-1.5,1.5-3.3,2.5-5.4,2.9c-3.2,0.5-6.5-2-8.2-5.9c-2.6-1.4-4.8-4.7-5.5-8.7c-0.7-3.2,0-6.5,1.7-9.3
		c-0.5-0.8-0.7-1.6-0.6-2.5c0.3-0.8,0.9-1.4,1.6-1.9c0.7-3.2,3.2-5.8,6.4-6.4c1.6-0.2,3.2,0,4.6,0.6c0.3-2.7,2.3-4.8,5-5.3
		C512.4,606.2,515,607.2,516.7,609.3z"/>
	<path class="st16" d="M502.4,637.4c0.4,1.1,0.1,2.4-0.7,3.2c-0.9,0.6-1.9,0.8-2.9,0.7c-0.8,2.4-3.8,4.2-7.5,4.2
		c-2.4,0.1-4.7-0.8-6.4-2.4c-1.7,1.6-4,2.5-6.4,2.4c-4.2,0-7.6-2.4-7.6-5.4l0,0c-0.8,0.1-1.6-0.2-2.2-0.7c-1.1-1-1.3-2.7-0.6-4.4
		c-1-1.1-1.6-2.5-1.6-4c0-2.3,1.5-4.3,3.8-5.7c-1.2-1.7-1.9-3.7-2-5.8c0-3.3,3-6.1,7.2-7.1c1.8-2.4,5.4-4,9.5-4
		c3.3-0.1,6.4,1.1,8.9,3.2c0.8-0.3,1.7-0.4,2.6-0.2c0.7,0.4,1.3,1.1,1.6,1.9c3.1,1.2,5.1,4.1,5.2,7.4c-0.1,1.6-0.6,3.1-1.4,4.5
		c2.6,0.7,4.4,3.1,4.4,5.8C506.2,633.6,504.7,636.1,502.4,637.4z"/>
	<path class="st17" d="M865,685.3L865,685.3c-1,0.7-2.2,1.1-3.4,1.1h-11c-1.1,0-2.2-0.3-3.2-0.9l-0.2-0.1c-1.9-1.3-2.9-3.6-2.5-5.8
		l5.4-31.8c0.3-2,2-3.4,4-3.3h4.2c2,0,3.6,1.4,3.9,3.4l5.1,31.9C867.7,681.8,866.8,684,865,685.3z"/>
	<rect x="852.9" y="479.1" class="st17" width="6.1" height="170.9"/>
	<rect x="834.4" y="428.7" class="st17" width="44.3" height="4.7"/>
	<rect x="843.6" y="469.1" class="st17" width="26" height="2.4"/>
	<polygon class="st17" points="865,470.3 846.2,470.3 841.2,431.9 870.8,431.9 	"/>
	<polygon class="st18" points="857,433.4 857,468.3 863.7,468.3 868.5,433.4 	"/>
	<polygon class="st19" points="854.9,433.4 854.9,468.3 848.2,468.3 843.5,433.4 	"/>
	<path class="st17" d="M858.4,480.2c0,0,9.6-9.5,9.2-9.4s-22.4,0-22.4,0l9.2,9.9L858.4,480.2z"/>
	<path class="st17" d="M874.1,430.1l-16-14.6c-0.9-0.8-2.3-0.8-3.3,0l-17.1,14.6H874.1z"/>
	
		<linearGradient id="SVGID_1_" gradientUnits="userSpaceOnUse" x1="745.5" y1="2063.5801" x2="745.5" y2="2047.51" gradientTransform="matrix(1 0 0 1 0 -1400.11)">
		<stop  offset="0.38" style="stop-color:#A1510F"/>
		<stop  offset="1" style="stop-color:#BE9269"/>
	</linearGradient>
	<polygon class="st20" points="676.4,643 814.6,643 807.8,660.4 681.6,660.4 	"/>
	<rect x="685" y="664.4" class="st21" width="125" height="5.2"/>
	<path class="st22" d="M803,683.9c0,0-3.5-28.3,4.2-33.8h-7.1c0,0-4.8,18.7-1.6,33.8H803z"/>
	<path class="st22" d="M689.2,683.9c0,0,3.5-28.3-4.2-33.8h7.1c0,0,4.8,18.7,1.6,33.8H689.2z"/>
	
		<linearGradient id="SVGID_2_" gradientUnits="userSpaceOnUse" x1="244.8" y1="2063.5801" x2="244.8" y2="2047.51" gradientTransform="matrix(1 0 0 1 0 -1400.11)">
		<stop  offset="0.38" style="stop-color:#A1510F"/>
		<stop  offset="1" style="stop-color:#BE9269"/>
	</linearGradient>
	<polygon class="st23" points="175.7,643 313.9,643 307.1,660.4 180.9,660.4 	"/>
	<rect x="184.3" y="664.4" class="st21" width="124.9" height="5.2"/>
	<path class="st22" d="M302.3,683.9c0,0-3.5-28.3,4.2-33.8h-7.1c0,0-4.8,18.7-1.6,33.8H302.3z"/>
	<path class="st22" d="M188.5,683.9c0,0,3.6-28.3-4.2-33.8h7.1c0,0,4.8,18.7,1.6,33.8H188.5z"/>
</g>
<g>
	<defs>
		<rect id="SVGID_3_" x="1.3" y="-0.5" width="1177.7" height="710.4"/>
	</defs>
	<clipPath id="SVGID_4_">
		<use xlink:href="#SVGID_3_"  style="overflow:visible;"/>
	</clipPath>
	<g class="st24">
		<g>
			<circle class="st25" cx="-37.7" cy="18.9" r="23.5"/>
			
				<ellipse transform="matrix(0.7071 -0.7071 0.7071 0.7071 19.889 38.7872)" class="st25" cx="56.8" cy="-4.6" rx="43.4" ry="43.4"/>
			<ellipse transform="matrix(0.7071 -0.7071 0.7071 0.7071 20.8507 63.1695)" class="st25" cx="86.7" cy="6.4" rx="36" ry="36"/>
			<polygon class="st25" points="86.7,42.4 -42.9,42.4 -31.6,-3.2 86.7,-12.9 			"/>
			<ellipse class="st25" cx="2.1" cy="8.7" rx="39" ry="34.7"/>
			<ellipse transform="matrix(0.7071 -0.7071 0.7071 0.7071 20.8507 63.1695)" class="st25" cx="86.7" cy="6.4" rx="36" ry="36"/>
			<polygon class="st25" points="86.7,42.4 -42.9,42.4 -31.6,-3.2 86.7,-12.9 			"/>
		</g>
		<g>
			<circle class="st25" cx="80.3" cy="2.7" r="23.5"/>
			
				<ellipse transform="matrix(0.7071 -0.7071 0.7071 0.7071 65.9125 117.4908)" class="st25" cx="174.8" cy="-20.8" rx="43.4" ry="43.4"/>
			
				<ellipse transform="matrix(0.7071 -0.7071 0.7071 0.7071 66.8742 141.8731)" class="st25" cx="204.7" cy="-9.8" rx="36" ry="36"/>
			<polygon class="st25" points="204.7,26.2 75.1,26.2 86.4,-19.4 204.7,-29.2 			"/>
			<ellipse class="st25" cx="120.1" cy="-7.5" rx="39" ry="34.7"/>
			
				<ellipse transform="matrix(0.7071 -0.7071 0.7071 0.7071 66.8742 141.8731)" class="st25" cx="204.7" cy="-9.8" rx="36" ry="36"/>
			<polygon class="st25" points="204.7,26.2 75.1,26.2 86.4,-19.4 204.7,-29.2 			"/>
		</g>
		<g>
			<circle class="st26" cx="788.3" cy="40.3" r="33.6"/>
			<ellipse class="st26" cx="851.1" cy="18.6" rx="58.4" ry="46.3"/>
			<ellipse transform="matrix(0.7071 -0.7071 0.7071 0.7071 240.653 656.8932)" class="st26" cx="913.3" cy="38" rx="36" ry="36"/>
			<rect x="783.7" y="18.6" class="st26" width="129.6" height="55.4"/>
			<ellipse class="st26" cx="851.1" cy="18.6" rx="58.4" ry="46.3"/>
			<ellipse transform="matrix(0.7071 -0.7071 0.7071 0.7071 240.653 656.8932)" class="st26" cx="913.3" cy="38" rx="36" ry="36"/>
			<rect x="783.7" y="18.6" class="st26" width="129.6" height="55.4"/>
		</g>
		<g>
			<circle class="st25" cx="946" cy="41.3" r="55.8"/>
			<ellipse class="st25" cx="1050.3" cy="5.1" rx="97" ry="77"/>
			
				<ellipse transform="matrix(0.7071 -0.7071 0.7071 0.7071 311.4867 826.6214)" class="st25" cx="1153.6" cy="37.3" rx="59.8" ry="59.8"/>
			<rect x="938.3" y="5.1" class="st25" width="215.2" height="92"/>
			<ellipse class="st25" cx="1050.3" cy="5.1" rx="97" ry="77"/>
			
				<ellipse transform="matrix(0.7071 -0.7071 0.7071 0.7071 311.4867 826.6214)" class="st25" cx="1153.6" cy="37.3" rx="59.8" ry="59.8"/>
			<rect x="938.3" y="5.1" class="st25" width="215.2" height="92"/>
		</g>
		<g>
			<circle class="st27" cx="785.5" cy="91.2" r="33.6"/>
			<ellipse class="st27" cx="848.3" cy="69.4" rx="58.4" ry="46.3"/>
			
				<ellipse transform="matrix(0.7071 -0.7071 0.7071 0.7071 203.8707 669.8094)" class="st27" cx="910.5" cy="88.8" rx="36" ry="36"/>
			<rect x="780.9" y="69.4" class="st27" width="129.6" height="55.4"/>
			<ellipse class="st27" cx="848.3" cy="69.4" rx="58.4" ry="46.3"/>
			
				<ellipse transform="matrix(0.7071 -0.7071 0.7071 0.7071 203.8707 669.8094)" class="st27" cx="910.5" cy="88.8" rx="36" ry="36"/>
			<rect x="780.9" y="69.4" class="st27" width="129.6" height="55.4"/>
		</g>
		<g>
			<circle class="st27" cx="9.5" cy="40.3" r="33.6"/>
			<ellipse class="st27" cx="72.3" cy="18.6" rx="58.4" ry="46.3"/>
			<ellipse transform="matrix(0.7071 -0.7071 0.7071 0.7071 12.5411 106.1823)" class="st27" cx="134.4" cy="38" rx="36" ry="36"/>
			<rect x="4.9" y="18.6" class="st27" width="129.6" height="55.4"/>
			<ellipse class="st27" cx="72.3" cy="18.6" rx="58.4" ry="46.3"/>
			<ellipse transform="matrix(0.7071 -0.7071 0.7071 0.7071 12.5411 106.1823)" class="st27" cx="134.4" cy="38" rx="36" ry="36"/>
			<rect x="4.9" y="18.6" class="st27" width="129.6" height="55.4"/>
		</g>
		<g>
			<circle class="st26" cx="167.1" cy="31.3" r="33.6"/>
			<ellipse class="st26" cx="229.9" cy="9.6" rx="58.4" ry="46.3"/>
			<ellipse transform="matrix(0.7071 -0.7071 0.7071 0.7071 65.0914 214.9715)" class="st26" cx="292" cy="28.9" rx="36" ry="36"/>
			<rect x="162.5" y="9.6" class="st26" width="129.6" height="55.4"/>
			<ellipse class="st26" cx="229.9" cy="9.6" rx="58.4" ry="46.3"/>
			<ellipse transform="matrix(0.7071 -0.7071 0.7071 0.7071 65.0914 214.9715)" class="st26" cx="292" cy="28.9" rx="36" ry="36"/>
			<rect x="162.5" y="9.6" class="st26" width="129.6" height="55.4"/>
		</g>
		<g>
			<circle class="st25" cx="622.8" cy="77.5" r="23.5"/>
			
				<ellipse transform="matrix(0.7071 -0.7071 0.7071 0.7071 171.9184 522.9728)" class="st25" cx="717.2" cy="54" rx="43.4" ry="43.4"/>
			<ellipse transform="matrix(0.7071 -0.7071 0.7071 0.7071 172.8801 547.3552)" class="st25" cx="747.2" cy="65" rx="36" ry="36"/>
			<polygon class="st25" points="747.2,101 617.6,101 628.9,55.4 747.2,45.6 			"/>
			<ellipse class="st25" cx="662.5" cy="67.3" rx="39" ry="34.7"/>
			<ellipse transform="matrix(0.7071 -0.7071 0.7071 0.7071 172.8801 547.3552)" class="st25" cx="747.2" cy="65" rx="36" ry="36"/>
			<polygon class="st25" points="747.2,101 617.6,101 628.9,55.4 747.2,45.6 			"/>
		</g>
		<g>
			<circle class="st25" cx="136.3" cy="78.4" r="23.5"/>
			
				<ellipse transform="matrix(0.7071 -0.7071 0.7071 0.7071 28.8149 179.2427)" class="st25" cx="230.8" cy="54.8" rx="43.4" ry="43.4"/>
			<ellipse transform="matrix(0.7071 -0.7071 0.7071 0.7071 29.7766 203.625)" class="st25" cx="260.7" cy="65.9" rx="36" ry="36"/>
			<polygon class="st25" points="260.7,101.9 131.1,101.9 142.4,56.3 260.7,46.5 			"/>
			<ellipse class="st25" cx="176.1" cy="68.2" rx="39" ry="34.7"/>
			<ellipse transform="matrix(0.7071 -0.7071 0.7071 0.7071 29.7766 203.625)" class="st25" cx="260.7" cy="65.9" rx="36" ry="36"/>
			<polygon class="st25" points="260.7,101.9 131.1,101.9 142.4,56.3 260.7,46.5 			"/>
		</g>
		<g>
			<circle class="st28" cx="544.8" cy="69.9" r="19.8"/>
			<ellipse class="st28" cx="581.7" cy="57.1" rx="34.4" ry="27.3"/>
			
				<ellipse transform="matrix(0.7071 -0.7071 0.7071 0.7071 132.6378 457.2947)" class="st28" cx="618.3" cy="68.5" rx="21.2" ry="21.2"/>
			<rect x="542" y="57.1" class="st28" width="76.3" height="32.6"/>
			<ellipse class="st28" cx="581.7" cy="57.1" rx="34.4" ry="27.3"/>
			
				<ellipse transform="matrix(0.7071 -0.7071 0.7071 0.7071 132.6378 457.2947)" class="st28" cx="618.3" cy="68.5" rx="21.2" ry="21.2"/>
			<rect x="542" y="57.1" class="st28" width="76.3" height="32.6"/>
		</g>
		<g>
			<circle class="st28" cx="375.4" cy="67.3" r="19.8"/>
			<ellipse class="st28" cx="412.3" cy="54.5" rx="34.4" ry="27.3"/>
			
				<ellipse transform="matrix(0.7071 -0.7071 0.7071 0.7071 84.9102 336.7471)" class="st28" cx="448.9" cy="65.9" rx="21.2" ry="21.2"/>
			<rect x="372.6" y="54.5" class="st28" width="76.3" height="32.6"/>
			<ellipse class="st28" cx="412.3" cy="54.5" rx="34.4" ry="27.3"/>
			
				<ellipse transform="matrix(0.7071 -0.7071 0.7071 0.7071 84.9102 336.7471)" class="st28" cx="448.9" cy="65.9" rx="21.2" ry="21.2"/>
			<rect x="372.6" y="54.5" class="st28" width="76.3" height="32.6"/>
		</g>
	</g>
</g>
<g>
	<path class="st29" d="M157.3,598.7c0,0,1.2,2.8,2.9,1.5c1.7-1.2,2.4-3.9,2.4-3.9l-5.2,1.5L157.3,598.7z"/>
	<path class="st30" d="M173.2,603.9c-0.2-0.4-0.5-0.7-0.9-0.8c-1-0.3-3.1-0.6-5-2.3c-1.1-1-5.1-3.5-5.1-3.5l0,0
		c-0.1,0-0.5,0.1-2.3,1.7c-1,0.8-2.6-1.1-2.6-1.1s-0.3,0.3-0.5,0.7c-0.2,0.4-0.3,0.9-0.2,1.5c0.1,0.9-0.3,2.5-0.7,3.6
		c-0.2,0.7-0.4,1.1-0.4,1.1s-0.1,0.6,1.9,0.8h2.3c0.8-0.1,1.3-0.3,2.1-0.4c1.2-0.2,1.8,0.3,1.9,0.4c0,0,0,0,0,0h9.8
		C173.7,605.3,173.4,604.5,173.2,603.9z"/>
	<path class="st31" d="M147.4,552c3.6,7,19,16.3,18.3,17.1c-5.1,6-8.4,28.8-8.4,28.8s1,0.6,2,0.6c1.6,0,3.3-0.5,3.3-0.5
		c6.4-13,16.4-27.2,15.6-30.4c-2.2-8-19.1-29.3-19.1-29.3l-15.1-3.3l-4.6-0.2C139.2,534.8,142.5,542.5,147.4,552z"/>
	<g id="BPbxa9_3_">
		<g>
			<path class="st32" d="M218.1,602.3l-17.7-37.8l2.4-0.9c1.5-0.6,3.3,0.1,3.9,1.7l14.3,35.9L218.1,602.3z"/>
		</g>
		<path class="st33" d="M203.2,563.5c-6.7-17.4-6.8-17.5-6.9-17.7l-2.6,1.7c0-0.1,1,2.6,2.5,6.1l-38.8,26.3l-8.7-27.2l-2.9,0.9
			l9,28.1l-34.2,23.1l41.3,3.6l0.3-3.1l-32.6-2.8l26.5-17l7.3,22.7l2.9-0.9l-0.8-2.6l2,1.3l31.3-46.4c0.7,1.7,1.3,3.4,1.9,4.9
			L203.2,563.5z M164.9,603.8l-6.4-20l31.4-20.1L164.9,603.8z"/>
		<path class="st32" d="M200.3,543.8c-1.2,0-2.1,0.7-2.5,1.8l-7.3-0.4c-0.4-0.9-1.3-1.6-2.4-1.6c-1.5,0-2.7,1.2-2.7,2.7
			c0,1.5,1.2,2.7,2.7,2.7c0.7,0,1.3-0.3,1.8-0.7l9.1,0.5c0.4,0.2,0.9,0.4,1.4,0.4c1.5,0,2.7-1.2,2.7-2.7
			C202.9,545,201.7,543.8,200.3,543.8z"/>
		<g>
			<path class="st31" d="M129.9,603.6c0-0.2,0-0.3,0-0.5l21.7-3.6l-0.1-0.7l-21.7,3.6c-0.3-1.1-0.9-2.1-1.8-2.8l13.1-18.8l-0.6-0.4
				l-12.6,18l6.8-20.4l-0.7-0.2l-7.1,21.2c-0.6-0.3-1.2-0.5-1.9-0.5V576h-0.7v22.6c-0.4,0-0.8,0.1-1.1,0.2l-7-19.6l-0.6,0.2
				l6.7,18.6L109,582.6l-0.5,0.5l14,16.1c-0.7,0.4-1.4,1-1.8,1.7l-0.8-0.1l-19.6-9.9l-0.3,0.6l17.6,8.9l-19.6-3.4l-0.1,0.7l21.8,3.8
				l0.6,0.3c-0.3,0.6-0.4,1.3-0.4,2c0,0.1,0,0.3,0,0.4l-21.6,3.2l0.1,0.7l21.6-3.2c0,0.2,0.1,0.4,0.2,0.6l-19.8,8.5l0.3,0.6
				l19.8-8.5c0,0,0,0,0,0l-15.5,15.6l0.5,0.5l15.4-15.5c0.3,0.4,0.7,0.8,1.1,1.1l-11.4,17.9l0.6,0.4l11.4-17.9
				c0.1,0.1,0.2,0.1,0.3,0.2c-2.8,7.5-8.1,21.2-8.2,21.6l0.7,0.2c0.1-0.3,4.7-12.4,8.2-21.6c0.5,0.1,1,0.2,1.5,0.2
				c0.1,0,0.2,0,0.3,0l-1.8,21.7l0.7,0.1l1.8-21.9c0.2,0,0.4-0.1,0.6-0.2c3.6,8.8,8.3,20.4,8.4,20.7l0.7-0.2
				c-0.1-0.4-5.5-13.5-8.4-20.8c0.1,0,0.1-0.1,0.2-0.1l12.1,19.1l0.6-0.4l-12.1-19.1c0.5-0.4,0.9-0.8,1.2-1.3l17.9,12.4l0.4-0.6
				l-18-12.5C129.8,605.2,129.9,604.4,129.9,603.6z"/>
			<g>
				<path class="st31" d="M124.9,633.4c-16.4,0-29.7-13.3-29.7-29.7c0-16.4,13.3-29.7,29.7-29.7c16.4,0,29.7,13.3,29.7,29.7
					c0,5.3-1.4,10.4-4,14.9c-2.6,4.4-6.3,8.1-10.7,10.7C135.4,632,130.2,633.4,124.9,633.4z M124.9,578c-14.1,0-25.6,11.5-25.6,25.6
					c0,14.1,11.5,25.6,25.6,25.6c4.6,0,9-1.2,13-3.5c3.8-2.2,7-5.4,9.2-9.2c2.3-3.9,3.5-8.3,3.5-12.9C150.5,589.5,139,578,124.9,578
					z"/>
			</g>
			<g>
				<path class="st34" d="M125.1,630c-14.4,0-26.2-11.8-26.2-26.2c0-14.4,11.8-26.2,26.2-26.2c14.4,0,26.2,11.8,26.2,26.2
					C151.3,618.3,139.6,630,125.1,630z M125.1,578.7c-13.9,0-25.1,11.3-25.1,25.1c0,13.9,11.3,25.1,25.1,25.1
					c13.9,0,25.1-11.3,25.1-25.1C150.2,590,139,578.7,125.1,578.7z"/>
			</g>
		</g>
		<g>
			<g>
				<path class="st32" d="M246.8,599.5l-0.1-0.7l-25.8,4.3l1-1.4l0.3,0.1l0.3-1l13.9-19.9l-0.6-0.4l-12.6,18l6.8-20.4l-0.7-0.2
					l-7.5,22.6l-1.6,2.3l-0.3-0.2l0-0.1l0.5-0.5V576h-0.7v25.6l-0.2,0l-0.6-1.8l0,0l-0.1-0.1l-7.3-20.3l-0.6,0.2l6.7,18.6
					l-13.4-15.5l-0.5,0.5l14.6,16.8l0.5,1.5l-3.7-0.6l-19.6-9.9l-0.3,0.6l17.6,8.9l-19.6-3.4l-0.1,0.7l21.8,3.8l3.5,1.8l-0.5,0.5
					l-24.5,3.6l0.1,0.7l23.6-3.5l-0.2,0.2l-21.4,9.2l0.3,0.6l19.8-8.5l-15.6,15.7l0.5,0.5l16.8-16.9l1.9-0.8l-13.5,21.2l0.6,0.4
					l12.3-19.3c-2.6,6.9-8.6,22.8-8.8,23.2l0.7,0.2c0.1-0.4,6.2-16.4,9.7-25.5c0.2,0.4,0.3,0.8,0.5,1.2l-2,24.7l0.7,0.1l1.9-23.3
					c3.6,8.9,8.8,21.6,8.9,22l0.7-0.2c-0.1-0.4-6-15-8.9-21.9l12.7,20.1l0.6-0.4l-14.5-22.9l21.6,15l0.4-0.6l-21-14.6L246.8,599.5z
					 M219,602.1l-0.3,0.5l-1.5-0.8L219,602.1z"/>
				
					<ellipse transform="matrix(0.2298 -0.9732 0.9732 0.2298 -417.9461 679.1859)" class="st31" cx="220.1" cy="603.6" rx="5.1" ry="5.1"/>
			</g>
			<g>
				<path class="st31" d="M220.1,633.4c-16.4,0-29.7-13.3-29.7-29.7c0-16.4,13.3-29.7,29.7-29.7c16.4,0,29.7,13.3,29.7,29.7
					c0,5.3-1.4,10.4-4,14.9c-2.6,4.4-6.3,8.1-10.7,10.7C230.6,632,225.4,633.4,220.1,633.4z M220.1,578c-14.1,0-25.6,11.5-25.6,25.6
					c0,14.1,11.5,25.6,25.6,25.6c4.6,0,9-1.2,13-3.5c3.8-2.2,7-5.4,9.2-9.2c2.3-3.9,3.5-8.3,3.5-12.9
					C245.7,589.5,234.2,578,220.1,578z"/>
			</g>
			<g>
				<path class="st34" d="M220.3,630c-14.4,0-26.2-11.8-26.2-26.2c0-14.4,11.8-26.2,26.2-26.2c14.4,0,26.2,11.8,26.2,26.2
					C246.5,618.3,234.8,630,220.3,630z M220.3,578.7c-13.9,0-25.1,11.3-25.1,25.1c0,13.9,11.3,25.1,25.1,25.1s25.1-11.3,25.1-25.1
					C245.5,590,234.2,578.7,220.3,578.7z"/>
			</g>
		</g>
		<path class="st33" d="M155.1,569.7c-0.3-1-1.4-1.5-2.4-1.2l-1.7,0.6c-1.3,0.5-2.8,0.4-4.1-0.3c-6.3-3.1-13.9-4.7-22.7-4.7
			c-0.1,0-0.2,0-0.3,0c-3.9,0-11,1-14,1.4c-0.8,0.1-1.4,0.8-1.4,1.7v1.1c0,0.3,0.3,0.5,0.6,0.5l0,0c5.6-1.2,24.8-4.3,38.7,4.1
			c0.4,0.2,0.9,0.3,1.3,0.1l5.2-1.8C155,571.1,155.3,570.4,155.1,569.7z"/>
		<path class="st32" d="M136.2,551.9c0,0-0.6-2.5,1-2.7s7.4,1.1,8.9,0.9c1.5-0.2,9.6-1.5,11-0.1c1.4,1.4,0.8,2.6-2,2.8
			c-2.8,0.3-6.6,0.7-7.7,1.6C146.4,555.4,138.6,558,136.2,551.9z"/>
		<path class="st32" d="M180.8,612.8H178l-6-2.7c0.2-0.7,0.4-1.5,0.4-2.3c0-4.3-3.5-7.7-7.7-7.7c-4.3,0-7.7,3.5-7.7,7.7
			c0,4.3,3.5,7.7,7.7,7.7c3,0,5.7-1.8,6.9-4.3l3.5,1.6h-1c-0.8,0-1.4,0.6-1.4,1.4l0,0c0,0.8,0.6,1.4,1.4,1.4h6.7
			c0.8,0,1.4-0.6,1.4-1.4l0,0C182.2,613.5,181.6,612.8,180.8,612.8z"/>
	</g>
	<path class="st29" d="M177.4,605.4c0,0,0.8,2.8,2.4,2.6c1.6-0.2,2.5-3.2,2.5-3.2L177.4,605.4z"/>
	<g>
		<path class="st35" d="M177.4,613.2h2.3c0.8-0.1,1.3-0.3,2.1-0.4c1.2-0.2,1.8,0.3,1.9,0.4c0,0,0,0,0,0h9.8c0.2-0.4,0-1.2-0.2-1.8
			c-0.2-0.4-0.5-0.7-0.9-0.8c-1-0.3-3.1-0.6-5-2.3c-1.1-1-5.1-3.5-5.1-3.5l0,0c-0.1,0-0.5,0.1-2.3,1.7c-1,0.8-2.6-1.1-2.6-1.1
			s-0.3,0.3-0.5,0.7c-0.2,0.4-0.3,0.9-0.2,1.5c0.1,0.9-0.3,2.5-0.7,3.6c-0.2,0.7-0.4,1.1-0.4,1.1S175.4,613,177.4,613.2z"/>
		<path class="st36" d="M176.9,606.1c0.6,0.4,1.7,1.2,2.5,1.3c1,0.1,3-2.5,3-2.5l0,0c-0.1,0-0.5,0.1-2.3,1.7c-1,0.8-2.6-1.1-2.6-1.1
			S177.1,605.7,176.9,606.1z"/>
		<path class="st36" d="M177.4,613.2h2.3c0.8-0.1,1.3-0.3,2.1-0.4c1.2-0.2,1.8,0.3,1.9,0.4c0,0,0,0,0,0h9.8c0.2-0.4,0-1.2-0.2-1.8
			c-0.3-0.3-0.4,1.1-0.5,1.4c-0.2,0.2-8,0.1-8.4-0.2c-0.5-0.3-1.8-0.9-3.7-0.5c-1.6,0.4-4.1-0.6-4.7-0.9c-0.2,0.7-0.4,1.1-0.4,1.1
			S175.4,613,177.4,613.2z"/>
	</g>
	<path class="st37" d="M140,531.2c0,0-6.1,13.2,1.3,19.2c7.3,6,28.7,14.5,29,15.8c0.3,1.3,1.8,23.2,7.1,39.2c0,0,1.8,0.7,4.9-0.6
		c1.7-0.7,4-42.3,1-46.3c-3-4-19.7-15.5-19.7-15.5L140,531.2z"/>
	<path class="st38" d="M159.5,486.9c0,0,7.4,7.1,13,7.1c0,0-0.7-2-2.5-3.9c0.4-0.7,0.7-1.3,0.9-1.9c1-2.1,1.4-3.3,1.4-3.3l-4-6
		l-0.9-1.4c-0.3,1-0.7,2-1.1,2.8c0,0.1-0.1,0.1-0.1,0.2C163.6,485.5,159.5,486.9,159.5,486.9z"/>
	<path class="st38" d="M195.5,541c0,0-10.6-13.5-11.5-14.7c-0.9-1.2-10.3-21.4-10.3-21.4l-14.3-1.2c0,0,15.4,24.9,17.8,27.9
		c4,4.9,15.4,11,15.4,11c-0.2,1.3,0.8,2.6,2.4,3.1c1.6,0.6,1.1,0.6,2.2,1c1.1,0.4,1.5-1.3,1.5-1.3C199.5,541.2,195.5,541,195.5,541z
		"/>
	<path class="st33" d="M140,531.2c-0.2,0.5,0.8,1.5,1.2,1.9c1.9,1.7,3.8,3.2,5.8,4.4c1.4,0.9,2.8,1.7,4.4,2.3
		c4.5,2,10.4,2.7,12.3,3.3c0.2,0.1,0.4,0,0.6,0c0.2-0.1,2.1-5.8,4.3-13c0.1-0.3,0.2-0.6,0.2-0.9l0-0.1c0.9-2.8,1.7-5.8,2.5-8.8
		c1.8-6.6,3.2-13,3.5-16.7c0.3-4.4-1.2-7.8-2.7-10.5l-1.3-2.1c-1.9-0.2-3.7-0.9-5.2-2.4c-1.7-1.6-3.5-3.4-4-3.2
		c-5.1,1.8-10.1,10.3-13.4,20.7c-0.1,0.3-0.2,0.7-0.3,1c-0.3,1.1-0.6,2.2-0.9,3.3c-2,7.8-4.6,14.4-6,18.2
		C140.5,529.7,140.2,530.6,140,531.2z"/>
	<path class="st39" d="M140,531.2c-0.2,0.5,0.8,1.5,1.2,1.9c1.9,1.7,3.8,3.2,5.8,4.4c12.2-17.6,11-38.8,11-38.8l-10,8.5
		c-0.3,1.1-0.6,2.2-0.9,3.3c-2,7.8-4.6,14.4-6,18.2C140.5,529.7,140.2,530.6,140,531.2z"/>
	<path class="st40" d="M166.1,480.4C166.1,480.4,166.1,480.5,166.1,480.4c0.2,0.8,1.2,5.4,4.7,7.8c1-2.1,1.4-3.3,1.4-3.3l-4-6
		c-1,0.6-1.7,1.2-2,1.5C166.2,480.4,166.1,480.4,166.1,480.4z"/>
	<path class="st38" d="M174.6,485.1c0,0-8.9,0.3-9-5.3c-0.1-5.5-1.3-9.2,4.4-9.6c5.7-0.4,6.8,1.7,7.3,3.5
		C177.7,475.5,176.9,484.9,174.6,485.1z"/>
	<g>
		<path class="st41" d="M165.2,523.3l-0.8-0.3c-0.4-0.1-0.8,0.1-1,0.5l-0.2,0.5c-0.1,0.4,0.1,0.8,0.5,1l0.8,0.3
			c0.4,0.1,0.8-0.1,1-0.5l0.2-0.5C165.8,523.9,165.6,523.4,165.2,523.3z"/>
		<path class="st42" d="M167,526.4l-3.4,9.4c-0.2,0.6-0.9,1-1.6,0.7l-3.6-1.3c-0.6-0.2-1-0.9-0.7-1.6l3.4-9.4c0.2-0.6,0.9-1,1.6-0.7
			l3.6,1.3C166.8,525.1,167.2,525.8,167,526.4z"/>
		<path class="st41" d="M166.8,526.8l-3.2,9c-0.2,0.6-0.9,1-1.6,0.7l-3.6-1.3c-0.6-0.2-1-0.9-0.7-1.6l3.2-8.8
			c0.5,0.2,1.8,0.6,2.4,1.2C164,526.6,165.9,526.7,166.8,526.8z"/>
		
			<rect x="159.4" y="526.4" transform="matrix(0.3375 -0.9413 0.9413 0.3375 -390.7674 503.8166)" class="st32" width="6.2" height="6.2"/>
	</g>
	<path class="st38" d="M164,527.9c-1.6-1-5.3-1.4-5.3-1.4s-8.4-10.8-9.6-13.3c-1.3-2.5,13.3-9.9,13.8-14c0.5-4.1,1.3-11.8-4.6-11.4
		c0,0-14,11.3-19.6,25.2c0,0,6.3,11.7,17.3,16.9c0,0,6.3,3.8,7.4,4.1c1.1,0.3,2-1,2.4-1.8C166.1,531.3,165.6,528.9,164,527.9z"/>
	<path class="st33" d="M160.9,503.9c0,0-5.3-7.2-10.4-8.6c-0.2-0.1-0.3-0.3-0.2-0.5c1.2-1.4,5.6-6.6,9.5-8.5c0,0,6.9,3.6,6.1,7.3
		C165,497.2,160.9,503.9,160.9,503.9z"/>
	<path class="st43" d="M181.4,473.3c1-1.5,1.3-2.8,1.3-2.8s-1.6,1.1-4-1.3c-2.4-2.4-6.9-5.6-10.9-3.8c-0.2,0.1-0.5,0.2-0.7,0.4
		c0.3-0.9,1.1-1.9,1.1-1.9c-1.6,0.8-2.5,2.9-2.5,2.9v0c0,0-0.1,0.1-0.1,0.1c-1,0-2.8,1.1-2.8,1.1c0.5-0.3,1.2-0.2,1.7,0
		c-2,2.3-3,5.3-2,7.4c1.5,3.1,2.2,2.3,3.2,6c0,0,1.3-0.2,1.4-1.2c0-0.9-1-3.1,0.7-3.1c1.6,0,1.2,1.2,2,1c0.8-0.2,0.5-3.3,3.9-2.9
		C177.2,475.5,180.4,474.7,181.4,473.3z"/>
</g>
<g>
	<g>
		<g>
			<path class="st44" d="M607.5,684.3h11.6c0.8,0,3.2,0,3.2,0c1.4-0.8,0.8-3.6-1.8-3.3l-3.1,0.9l-12.3-1.2v1.3
				C605.2,683.2,606.2,684.3,607.5,684.3z"/>
			<path class="st44" d="M605.2,675.4c0,4.3-1.5,8.3,7.5,7.8c4.9-0.3,8.9-3.5,8.9-7.8c0-4.3-4-7.8-8.9-7.8S605.2,671.1,605.2,675.4z
				"/>
		</g>
		<path class="st44" d="M636.9,682.5l3.1-1.3c0,0-4-5.2-4.3-6.2l-5.1-16.2l-8.4,3.5l10,16C633.7,679.3,636.9,682.5,636.9,682.5z"/>
		<path class="st44" d="M639.1,684.2l2.7,0.1c2.5,0,2.1-1.2,1.3-2s-3-0.9-3.5-1.6l-3.3,0.4C636.2,680.6,636.7,683.6,639.1,684.2z"/>
		<path class="st44" d="M634.2,636.1l5.1,1.4c1.1-2.5,1.5-4.7,0.7-6.9C638.7,629.7,637,635.2,634.2,636.1z"/>
		<path class="st44" d="M636.2,684.2l2.7,0.1c2.5,0,2.1-1.2,1.3-2c-0.8-0.8-3-0.9-3.5-1.6l-3.3,0.4
			C633.4,680.6,633.8,683.6,636.2,684.2z"/>
		<path class="st44" d="M642.8,648.3c0.6,0.2,1.1,0.4,1.7,1c0.5,0.4,0.6,0.6,0.7,1.2c0.1,0.6,0.4,1.4,0.2,1.9
			c-0.1,0.4-0.7,0.6-0.8,0.3c-0.2-0.3,0-2.2-0.2-2.6c-0.1-0.4-0.4-0.6-0.5-0.7c-0.7-0.2-0.4-0.3-0.7-0.4c-0.8-0.3-2.2-0.8-2.9-1.2
			C640.9,648,642.2,648.1,642.8,648.3z"/>
		<g>
			<polygon class="st44" points="643.1,649.1 643.6,649.4 643.7,648.3 			"/>
			<polygon class="st44" points="642.6,649 643.1,649.2 643.1,648.5 			"/>
			<polygon class="st44" points="642.1,648.8 642.6,649.1 642.6,648.4 			"/>
			<polygon class="st44" points="641.6,648.6 642.1,648.8 642.1,648.1 			"/>
		</g>
		<path class="st44" d="M621.8,647.1l1.6,2.7l2.1,3.6l5.6,0.7l2.9,2.3c0-0.1,0-0.2,0-0.4c0-0.8,0.4-2,0.9-3.2c0.8-1.9,2.1-3.8,2.6-4
			c0.1,0,0.1,0,0.1,0l4.3,1.8c0.5,0.2,1,0.1,1.4,0c0.2-0.1,0.5-0.2,0.7-0.4l0,0c0.2-0.2,0.2-0.5-0.1-0.6l-3.6-1.8
			c-0.4-0.2-0.5-0.6-0.4-1l0,0c0.1-0.3,0.5-0.5,0.8-0.4l4.8,0.7c1.1,0.1,2.2-0.3,2.9-1.2l0.5-0.7c0.3-0.4,0.2-0.9-0.2-1.1l-6.1-4
			l-0.4-0.9c0-0.1-0.1-0.2-0.1-0.3c-0.4-1-1.1-1.8-2-2.4c-2.2-1.4-4.8-2-6.5-0.7l-4,3.5l-0.2,0.2L621.8,647.1L621.8,647.1z"/>
		<path class="st44" d="M634.3,637.6c1.4,0.7,3.6,0.1,3.8-0.5c0.8-2.6,0.9-4.8-0.1-6.9c-0.3-0.1-0.5-0.1-0.7,0.2
			c-0.9,0.9-1.7,3.9-3.3,5.3c-0.1,0.1-0.2,0.2-0.3,0.3C633.4,636.6,633.7,637.3,634.3,637.6z"/>
		<path class="st44" d="M600,681.3l4-1.9l12.2-5.8l3.5-1.1c4.8-1.5,9-4.6,11.9-8.7c0.3-0.5,0.6-0.9,0.9-1.4l0.1-0.1
			c1.1-1.9,1.6-4,1.3-6.2c-0.1-0.5-0.2-1-0.3-1.5l-0.1-0.5l-8.8-5.5l-2.8-1.7l-0.1,0.1l-2.3,1.7c-3.6,2.6-6.7,5.7-9.2,9.4l-3.4,5
			c-2.7,3.9-4.6,8.3-5.7,13l-0.4,1.5L600,681.3z"/>
		<path class="st44" d="M592.6,685.1c0.3,1.3,1.2,2.3,2.8,3c1.4,0.6,5.1,0.8,8.7,0.7c4.9-0.1,9.7-0.7,9.2-1.3
			c-0.6-0.9-2-1.4-3.5-1.6c-2.4-0.4-5.1-0.3-5.6-0.3c-7-0.5-6.4-1.8-6.4-1.8s1.4-0.6,2.3-0.9c0.7-0.3,1.5-0.5,2.2-0.9
			c0.3-0.1,0.5-0.2,0.7-0.4c0.5-0.2,0.9-0.5,1.3-0.8c0.1-0.1,0.2-0.1,0.2-0.2c0.1-0.1,0.3-0.2,0.4-0.4l-2.1-1.6
			c-0.1,0.1-0.2,0.1-0.3,0.2c-0.1,0-0.2,0.1-0.3,0.1c-1.7,0.5-5.6,0.7-6.4,1.1C593.3,681.5,592.2,683.1,592.6,685.1z"/>
		<path class="st44" d="M604,679.4l12.2-5.8l3.5-1.1c4.8-1.5,9-4.6,11.9-8.7c-0.1,0-0.2,0.1-0.2,0.1c-0.8,0.4-1.7,0.6-2.5,0.4
			c-0.9-0.2-1.6-1-1.5-1.9c-0.3,0.5-0.7,1.1-1.1,1.6c-1.4,1.9-3.2,3.7-5.3,4.6c-2.2,0.9-4.8,1-6.9-0.1c0.6,0.5,0.8,1.4,0.7,2.2
			c-0.2,0.8-0.6,1.5-1.2,2c-1.1,1.2-2.4,2.1-3.8,3C607.9,676.9,606,678.2,604,679.4z"/>
		<path class="st44" d="M637.5,648.8c0.1,0,0.1,0,0.1,0l4.3,1.8c0.7,0.2,1.5,0.1,2.1-0.4l0,0c0.2-0.2,0.2-0.5-0.1-0.6l-3.6-1.8
			c-0.4-0.2-0.5-0.6-0.4-1l0,0c0.1-0.3,0.5-0.5,0.8-0.4l4.8,0.7c1.1,0.1,2.2-0.3,2.9-1.2l0.4-0.4l0.2-0.2c0.3-0.4,0.2-0.9-0.2-1.1
			l-0.7-0.5l-5.4-3.6l-0.4-0.9c0-0.1-0.1-0.2-0.1-0.3c-0.2,0.1-0.4,0.3-0.5,0.5c-0.2,0.3-0.4,0.7-0.6,1c-0.2,0.4-0.9,1.1-1.3,1.4
			c-0.1,0.1-0.1,0.3,0.1,0.3c0.9,0.1,2.3-0.3,3.3-0.4c2.5,2.8-1.2,3.9-1.6,3.7c-1.4-0.4-2.4,0.2-3.3,1.3
			C637.8,647.2,637.5,648,637.5,648.8z"/>
		<path class="st44" d="M637.5,636.5c0.2,0,0.3-0.1,0.4-0.2c0.1-0.1,0.1-0.3,0.1-0.4c0.3-1.8,0.5-3.6,0-5.3c0,0,0-0.1,0-0.1
			c0-0.1-0.2,0-0.2,0c0,0.1-0.1,0.1-0.1,0.2c-0.2,1.8-1.3,3.3-2,4.9c-0.1,0.2-0.2,0.5,0,0.7c0.1,0.1,0.2,0.1,0.3,0.1
			C636.5,636.5,637,636.6,637.5,636.5z"/>
		<path class="st44" d="M631,638.1c0.1,0.3,0.3,0.5,0.4,0.8c0.5,1.1,0.7,2.4,0.4,3.7c0.5-0.3,1-0.8,1.2-1.3c0.9,0.5,1,1.6,1.1,2.5
			c0.2,1.8,0.5,3.7,1.9,4.8c-0.4-1.4-0.7-2.9-1-4.3c0.3,0,0.5,0,0.8,0c-0.5-0.8-0.3-1.9,0.2-2.7c0.5-0.8,1.3-1.4,2.2-1.8
			c-1.4-0.8-2.6-1.9-3.5-3.3c-0.2-0.3-0.4-0.7-0.7-1L631,638.1z"/>
		<path class="st44" d="M636.1,638.7c-0.4,0.1-0.9,0.2-1.3,0.2c0.3-0.4,0.4-1,0.1-1.5c-0.2-0.3-0.5-0.5-0.7-0.9
			c-0.2-0.4,0.1-1,0.6-1.1c0.2,0.9,0.9,1.6,1.8,1.9c1.1,0.4,2.3,0,3.4,0.2c0,0.6-1.1,0.6-1.1,1.2c0,0.5,1,0.7,0.9,1.2
			c0,0.1-0.1,0.2-0.2,0.3c-0.7,0.7-1.4,1.4-2.3,1.8c0-0.5,0-0.9,0-1.4c0-0.1,0-0.2-0.1-0.3c-0.1-0.1-0.4-0.1-0.5,0
			c-0.1,0.1-0.3,0.3-0.5,0.3c-0.3,0.1-0.5-0.3-0.5-0.5s0.1-0.6,0.3-0.8S636.2,638.9,636.1,638.7z"/>
		<path class="st44" d="M592.6,685.1c0.3,1.3,1.2,2.3,2.8,3c1.4,0.6,5.1,0.8,8.7,0.7c-0.9-0.4-1.8-0.7-2.8-0.9
			c-2.6-0.5-5.6-0.2-7.5-2.1c0.6-0.6,1.3-1.1,2.1-1.5c-0.8-0.6-0.7-1.9,0.1-2.4c0.5-0.4,1.2-0.4,1.9-0.4c1.8-0.1,3.5-0.9,4.9-2.1
			c0-0.2-0.1-0.3-0.1-0.5c-1.4,0.6-5.9,0.8-6.7,1.2C593.3,681.5,592.2,683.1,592.6,685.1z"/>
		<g>
			<path class="st44" d="M641.2,640.9c0.6,0.7,1.5,0.3,1.4-0.9l-0.9,0.3L641.2,640.9z"/>
			<g>
				<path class="st44" d="M642.6,640.2C642.6,640.2,642.6,640.3,642.6,640.2c0,0.1,0,0.2,0,0.2c0,0,0,0.1,0,0.1c0,0,0,0.1-0.1,0.1
					c0,0-0.1,0.1-0.1,0.1c0,0.1-0.1,0.1-0.1,0.1l-0.1,0.1l-0.1,0c-0.1,0-0.1,0-0.2,0c-0.1,0-0.1,0-0.2,0c-0.1,0-0.1,0-0.2,0
					c-0.1,0-0.1,0-0.1-0.1c0,0-0.1,0-0.1-0.1c0,0-0.1,0-0.1-0.1c0,0-0.1-0.1-0.1-0.1s0,0,0.1,0.1c0,0,0,0.1,0.1,0.1
					c0,0,0.1,0.1,0.1,0.1c0,0,0.1,0.1,0.2,0.1c0.1,0,0.1,0,0.2,0.1c0.1,0,0.1,0,0.2,0c0.1,0,0.1,0,0.2-0.1l0.1,0l0.1-0.1
					c0.1,0,0.1-0.1,0.1-0.2c0-0.1,0.1-0.1,0.1-0.2c0-0.1,0-0.1,0-0.2c0-0.1,0-0.1,0-0.1C642.6,640.4,642.6,640.3,642.6,640.2
					C642.6,640.3,642.6,640.2,642.6,640.2z"/>
				<path class="st44" d="M642.7,640C642.7,640,642.7,640,642.7,640c-0.1,0-0.2,0-0.3,0c0,0-0.1,0-0.2,0c-0.1,0-0.1,0-0.2,0.1
					c-0.1,0-0.1,0-0.2,0.1c-0.1,0-0.1,0.1-0.2,0.1c-0.1,0-0.1,0.1-0.2,0.1c-0.1,0-0.1,0.1-0.1,0.1c-0.1,0.1-0.2,0.2-0.2,0.2
					c-0.1,0.1-0.1,0.2-0.1,0.2c0,0.1,0,0.1,0,0.1s0,0,0.1-0.1c0,0,0.1-0.1,0.2-0.1c0,0,0.1-0.1,0.1-0.1c0,0,0.1-0.1,0.1-0.1
					c0.1-0.1,0.2-0.1,0.3-0.2c0.1-0.1,0.2-0.1,0.3-0.2c0.1,0,0.1-0.1,0.1-0.1c0,0,0.1,0,0.1-0.1C642.5,640.1,642.6,640,642.7,640
					C642.7,640,642.7,640,642.7,640z"/>
				<path class="st44" d="M642.2,640.5c0,0.1,0,0.2,0,0.3c0,0,0.1-0.1,0.2-0.2c0-0.1,0-0.2,0-0.3
					C642.3,640.3,642.3,640.4,642.2,640.5z"/>
			</g>
		</g>
		<path class="st44" d="M648.3,645.1l0.6,0.2l0.2-0.2c0.3-0.4,0.2-0.9-0.2-1.1l-0.7-0.5l-0.3,0.7C647.7,644.5,647.9,645,648.3,645.1
			z"/>
		<path class="st44" d="M619.3,662.2l3.6,5.8l6.4,10.2c1.3,1,4,3.6,4.5,4.2c0.1,0.1,0.1,0.1,0.1,0.1l0.1,0l0.5-0.2l2.5-1.1
			c0,0-4-5.2-4.3-6.2l-3.5-11.2l-1.6-5.1l-4,1.7L619.3,662.2z"/>
		<path class="st44" d="M623.7,660.1c0,0.1,0,0.2,0,0.3c0,0.4-0.2,0.8-0.4,1.3c-0.7,1.4-1.1,3-1.3,4.6c0.5,0,1-0.1,1.5-0.1
			c0.1,0.6-0.4,1-0.7,1.6l6.6,10.5c1.3,1,4,3.6,4.5,4.2c0.1,0,0.1,0.1,0.2,0.1c0.1,0,0.2,0.1,0.2,0.1c0.1-0.1,0.2-0.2,0.2-0.3
			c0.1-0.4-0.2-1-0.5-1.3c-1-1.2-1.9-2.5-2.9-3.7h0.9c-0.7-1.4-1.5-2.8-2.2-4.2c-0.7-1.4-1.5-2.8-1.9-4.3c-0.4-1.4-0.4-2.8,0.1-4.1
			c0,0.2,0,0.5,0.1,0.7c0.4-0.5,0.8-1,1.1-1.5c0.8-1.5,1.3-3.1,1.6-4.8c0.3-2.3,0.2-4.6,0-6.9c0.4,0.2,0.9,0.3,1.3,0.5
			c-0.4-1.7-0.8-3.3-1.2-5c-0.1-0.3-0.1-0.5,0-0.8c0.1-0.3,0.5-0.4,0.7-0.2c-0.9-1.6-1.8-3.2-2.7-4.8c-1.7,1.3-2.4,3.5-3.9,5.1
			c-1.4,1.5-3.5,2.5-4.3,4.4c-0.6,1.3-0.4,2.9,0.1,4.2c0.5,1.3,1.4,2.5,2.3,3.7C623.4,659.4,623.6,659.7,623.7,660.1z"/>
		<path class="st44" d="M602.3,680.7v1.3c0,0.1,0,0.1,0,0.2c0,0.5,0.2,0.9,0.5,1.2c0.1,0.1,0.2,0.2,0.2,0.3c0.4,0.4,1,0.7,1.7,0.7
			h12c1,0,2.9,0,2.9,0c1.4-0.8,0.7-3.6-1.8-3.3l-3.1,0.9l-0.1,0l-4.2-0.4l-4.7-0.5l-0.6-0.1l-0.6-0.1l-1.9-0.2L602.3,680.7z"/>
		<path class="st44" d="M602.3,675.4c0,4.3-1.5,8.3,7.5,7.8c4.9-0.3,8.9-3.5,8.9-7.8c0-4.3-4-7.8-8.9-7.8
			C604.9,667.7,602.3,671.1,602.3,675.4z"/>
		<path class="st44" d="M603.8,683c0.2-0.6,0.7-1,1.1-1.6c0.3-0.1,0.5-0.3,0.7-0.5c0.1-0.1,0.1-0.1,0.2-0.2
			c-0.1-0.5-0.4-1.1-0.9-1.3c0.8-0.2,1.1-1.3,0.7-2.1c-0.4-0.7-1.2-1.1-2-1.3c-0.4-0.5-0.3-1.2,0-1.7c0.3-0.6,0.6-1.1,0.8-1.6
			c0.1-0.4,0.1-0.8,0.3-1.2c0.2-0.4,0.5-0.7,0.8-1c1.1-1,2.4-1.8,3.7-2.6c0.1-0.1,0.2-0.1,0.3-0.2c0.4-0.2,0.8-0.4,1.2-0.3
			c0.4,0,0.8,0.3,1.1,0.5c0.1,0,0.1,0.1,0.2,0.1c0.9,0.7,1.7,1.6,2.4,2.5c0.8,0.7,1.2,1.9,0.9,3c0.1-0.3,0.6-0.4,0.9-0.1
			c0.3,0.2,0.9,0.9,0.9,1.3c0,1.7-1.8,3.1-3.5,3.7c0.3,0,1.2,0.8,1.1,1.1c-0.1,0.3-1,0.1-1.2,0.3c-1,0.7-2,1.3-3.1,1.8
			c-0.4,0.2-0.9,0.4-1.4,0.5c1.1,0.2,2.2,0.4,3.3,0.6c0,0.1,0,0.2-0.1,0.2c0,0.1,0,0.2-0.1,0.3c1.1,0,2.2,0,3.4,0
			c0.3,0,0.6,0,0.8,0.2c0.3,0.2,0.4,0.6,0.3,1h-11.2c-0.4-0.1-0.9-0.3-1.3-0.4C603.9,683.7,603.6,683.4,603.8,683z"/>
		<path class="st44" d="M600.3,679.3c0,0.6,1.1,0.5,2,0c0.6-0.4,1.7-3,2.4-3.2c0.2-1.3,0.3-2.6,0.5-3.8c0.5-0.1,1-0.2,1.4-0.3
			c-0.5-0.8-0.2-1.8,0.5-2.5c0.7-0.6,1.6-0.9,2.5-1.1c2.2-0.5,4.6-0.7,6.6-1.7c2.1-1,3.9-2.9,4-5.2c0-1.4-0.5-2.7-0.9-4
			c-0.4-1.3-0.5-2.9,0.4-3.9c0.1,1.2,0.3,2.7,1.4,3.2c0.7-0.8,0.7-1.9,0.6-3c-0.1-1-0.2-2.1,0.3-3.1c0.3-0.5,0.8-0.9,1.4-1
			c0.4-0.1,0.9,0,1.2,0.3c0-0.5,0.1-1,0.2-1.5c0.7-1.9,2.6-3.4,4.7-3.2c-0.1-1.6-0.3-3.2,0-4.8c0.1-0.5,0.2-1,0.4-1.5l-0.2,0.2
			l-7.8,7.6l-2.3,1.7c-3.6,2.6-6.7,5.7-9.2,9.4l-3.4,5c-2.7,3.9-4.6,8.3-5.7,13L600.3,679.3z"/>
		<path class="st44" d="M634,647.2c0,0.6,0.2,1.3,0.4,1.9c0.3,1.2,0.5,2.5,0.5,3.8c0.8-1.9,2.1-3.8,2.6-4c0.1,0,0.1,0,0.1,0l4.3,1.8
			c0.5,0.2,1,0.1,1.4,0c-0.4-0.2-0.9-0.4-1.3-0.6c-1.9-0.7-4-1.7-4.9-3.5c-0.6-1.2-0.6-2.6-0.9-3.9c-0.1-0.3-0.2-0.6-0.5-0.6
			c-0.4,1.1-0.8,2.2-1.3,3.3C634.2,645.9,634,646.5,634,647.2z"/>
		<path class="st44" d="M596.6,682.8c0.1,0,0.1,0,0.2-0.1c1.1-0.7,2.4-0.8,3.5-1.3c1-0.5,1.9-1.1,2.8-1.8c1.2,1.6,2.6,3.3,4.5,3.6
			c1.7,0.3,3.8,0.5,5.6,1h-8.5c-0.7,0-1.2-0.3-1.7-0.7c-0.1-0.1-0.2-0.2-0.2-0.3c-0.3-0.3-0.4-0.8-0.5-1.2c-0.7,0.3-1.5,0.6-2.2,0.9
			c-0.8,0.3-2.3,0.9-2.3,0.9s-0.7,1.3,6.4,1.8c0.5,0,3.2-0.1,5.6,0.3c-0.3,0-0.6,0-0.9,0.1c-0.5,0.1-1.1,0.4-1.6,0.5
			c-1.2,0.4-2.4,0.4-3.6,0.3c-2-0.1-4.1-0.5-5.9-1.2c-0.8-0.3-1.6-0.8-1.7-1.6C596,683.5,596.2,683.1,596.6,682.8z"/>
		<path class="st44" d="M633.6,635.8c0.1,0.1,0.3,0.3,0.4,0.4c0.1,0.1,0.2,0.1,0.2,0.1c0.2,0,0.2-0.3,0.3-0.5
			c0.2-0.3,0.6-0.5,0.9-0.7c0.4-0.4,0.5-1,0.7-1.6c0.3-0.9,1-1.6,1.1-2.5c0-0.2,0-0.4,0-0.7c-0.9,0.9-1.6,3.7-3.2,5.1
			C633.9,635.6,633.6,635.7,633.6,635.8z"/>
	</g>
	<g>
		<g>
			<path class="st45" d="M607.5,684.3h11.6c0.8,0,3.2,0,3.2,0c1.4-0.8,0.8-3.6-1.8-3.3l-3.1,0.9l-12.3-1.2v1.3
				C605.2,683.2,606.2,684.3,607.5,684.3z"/>
			<path class="st45" d="M605.2,675.4c0,4.3-1.5,8.3,7.5,7.8c4.9-0.3,8.9-3.5,8.9-7.8c0-4.3-4-7.8-8.9-7.8S605.2,671.1,605.2,675.4z
				"/>
		</g>
		<path class="st45" d="M636.9,682.5l3.1-1.3c0,0-4-5.2-4.3-6.2l-5.1-16.2l-8.4,3.5l10,16C633.7,679.3,636.9,682.5,636.9,682.5z"/>
		<path class="st45" d="M639.1,684.2l2.7,0.1c2.5,0,2.1-1.2,1.3-2s-3-0.9-3.5-1.6l-3.3,0.4C636.2,680.6,636.7,683.6,639.1,684.2z"/>
		<path class="st46" d="M634.2,636.1l5.1,1.4c1.1-2.5,1.5-4.7,0.7-6.9C638.7,629.7,637,635.2,634.2,636.1z"/>
		<path class="st44" d="M636.2,684.2l2.7,0.1c2.5,0,2.1-1.2,1.3-2c-0.8-0.8-3-0.9-3.5-1.6l-3.3,0.4
			C633.4,680.6,633.8,683.6,636.2,684.2z"/>
		<path class="st47" d="M642.8,648.3c0.6,0.2,1.1,0.4,1.7,1c0.5,0.4,0.6,0.6,0.7,1.2c0.1,0.6,0.4,1.4,0.2,1.9
			c-0.1,0.4-0.7,0.6-0.8,0.3c-0.2-0.3,0-2.2-0.2-2.6c-0.1-0.4-0.4-0.6-0.5-0.7c-0.7-0.2-0.4-0.3-0.7-0.4c-0.8-0.3-2.2-0.8-2.9-1.2
			C640.9,648,642.2,648.1,642.8,648.3z"/>
		<g>
			<polygon class="st48" points="643.1,649.1 643.6,649.4 643.7,648.3 			"/>
			<polygon class="st48" points="642.6,649 643.1,649.2 643.1,648.5 			"/>
			<polygon class="st48" points="642.1,648.8 642.6,649.1 642.6,648.4 			"/>
			<polygon class="st48" points="641.6,648.6 642.1,648.8 642.1,648.1 			"/>
		</g>
		<path class="st44" d="M621.8,647.1l1.6,2.7l2.1,3.6l5.6,0.7l2.9,2.3c0-0.1,0-0.2,0-0.4c0-0.8,0.4-2,0.9-3.2c0.8-1.9,2.1-3.8,2.6-4
			c0.1,0,0.1,0,0.1,0l4.3,1.8c0.5,0.2,1,0.1,1.4,0c0.2-0.1,0.5-0.2,0.7-0.4l0,0c0.2-0.2,0.2-0.5-0.1-0.6l-3.6-1.8
			c-0.4-0.2-0.5-0.6-0.4-1l0,0c0.1-0.3,0.5-0.5,0.8-0.4l4.8,0.7c1.1,0.1,2.2-0.3,2.9-1.2l0.5-0.7c0.3-0.4,0.2-0.9-0.2-1.1l-6.1-4
			l-0.4-0.9c0-0.1-0.1-0.2-0.1-0.3c-0.4-1-1.1-1.8-2-2.4c-2.2-1.4-4.8-2-6.5-0.7l-4,3.5l-0.2,0.2L621.8,647.1L621.8,647.1z"/>
		<path class="st44" d="M634.3,637.6c1.4,0.7,3.6,0.1,3.8-0.5c0.8-2.6,0.9-4.8-0.1-6.9c-0.3-0.1-0.5-0.1-0.7,0.2
			c-0.9,0.9-1.7,3.9-3.3,5.3c-0.1,0.1-0.2,0.2-0.3,0.3C633.4,636.6,633.7,637.3,634.3,637.6z"/>
		<path class="st44" d="M600,681.3l4-1.9l12.2-5.8l3.5-1.1c4.8-1.5,9-4.6,11.9-8.7c0.3-0.5,0.6-0.9,0.9-1.4l0.1-0.1
			c1.1-1.9,1.6-4,1.3-6.2c-0.1-0.5-0.2-1-0.3-1.5l-0.1-0.5l-8.8-5.5l-2.8-1.7l-0.1,0.1l-2.3,1.7c-3.6,2.6-6.7,5.7-9.2,9.4l-3.4,5
			c-2.7,3.9-4.6,8.3-5.7,13l-0.4,1.5L600,681.3z"/>
		<path class="st44" d="M592.6,685.1c0.3,1.3,1.2,2.3,2.8,3c1.4,0.6,5.1,0.8,8.7,0.7c4.9-0.1,9.7-0.7,9.2-1.3
			c-0.6-0.9-2-1.4-3.5-1.6c-2.4-0.4-5.1-0.3-5.6-0.3c-7-0.5-6.4-1.8-6.4-1.8s1.4-0.6,2.3-0.9c0.7-0.3,1.5-0.5,2.2-0.9
			c0.3-0.1,0.5-0.2,0.7-0.4c0.5-0.2,0.9-0.5,1.3-0.8c0.1-0.1,0.2-0.1,0.2-0.2c0.1-0.1,0.3-0.2,0.4-0.4l-2.1-1.6
			c-0.1,0.1-0.2,0.1-0.3,0.2c-0.1,0-0.2,0.1-0.3,0.1c-1.7,0.5-5.6,0.7-6.4,1.1C593.3,681.5,592.2,683.1,592.6,685.1z"/>
		<path class="st49" d="M604,679.4l12.2-5.8l3.5-1.1c4.8-1.5,9-4.6,11.9-8.7c-0.1,0-0.2,0.1-0.2,0.1c-0.8,0.4-1.7,0.6-2.5,0.4
			c-0.9-0.2-1.6-1-1.5-1.9c-0.3,0.5-0.7,1.1-1.1,1.6c-1.4,1.9-3.2,3.7-5.3,4.6c-2.2,0.9-4.8,1-6.9-0.1c0.6,0.5,0.8,1.4,0.7,2.2
			c-0.2,0.8-0.6,1.5-1.2,2c-1.1,1.2-2.4,2.1-3.8,3C607.9,676.9,606,678.2,604,679.4z"/>
		<path class="st50" d="M637.5,648.8c0.1,0,0.1,0,0.1,0l4.3,1.8c0.7,0.2,1.5,0.1,2.1-0.4l0,0c0.2-0.2,0.2-0.5-0.1-0.6l-3.6-1.8
			c-0.4-0.2-0.5-0.6-0.4-1l0,0c0.1-0.3,0.5-0.5,0.8-0.4l4.8,0.7c1.1,0.1,2.2-0.3,2.9-1.2l0.4-0.4l0.2-0.2c0.3-0.4,0.2-0.9-0.2-1.1
			l-0.7-0.5l-5.4-3.6l-0.4-0.9c0-0.1-0.1-0.2-0.1-0.3c-0.2,0.1-0.4,0.3-0.5,0.5c-0.2,0.3-0.4,0.7-0.6,1c-0.2,0.4-0.9,1.1-1.3,1.4
			c-0.1,0.1-0.1,0.3,0.1,0.3c0.9,0.1,2.3-0.3,3.3-0.4c2.5,2.8-1.2,3.9-1.6,3.7c-1.4-0.4-2.4,0.2-3.3,1.3
			C637.8,647.2,637.5,648,637.5,648.8z"/>
		<path class="st51" d="M637.5,636.5c0.2,0,0.3-0.1,0.4-0.2c0.1-0.1,0.1-0.3,0.1-0.4c0.3-1.8,0.5-3.6,0-5.3c0,0,0-0.1,0-0.1
			c0-0.1-0.2,0-0.2,0c0,0.1-0.1,0.1-0.1,0.2c-0.2,1.8-1.3,3.3-2,4.9c-0.1,0.2-0.2,0.5,0,0.7c0.1,0.1,0.2,0.1,0.3,0.1
			C636.5,636.5,637,636.6,637.5,636.5z"/>
		<path class="st52" d="M631,638.1c0.1,0.3,0.3,0.5,0.4,0.8c0.5,1.1,0.7,2.4,0.4,3.7c0.5-0.3,1-0.8,1.2-1.3c0.9,0.5,1,1.6,1.1,2.5
			c0.2,1.8,0.5,3.7,1.9,4.8c-0.4-1.4-0.7-2.9-1-4.3c0.3,0,0.5,0,0.8,0c-0.5-0.8-0.3-1.9,0.2-2.7c0.5-0.8,1.3-1.4,2.2-1.8
			c-1.4-0.8-2.6-1.9-3.5-3.3c-0.2-0.3-0.4-0.7-0.7-1L631,638.1z"/>
		<path class="st50" d="M636.1,638.7c-0.4,0.1-0.9,0.2-1.3,0.2c0.3-0.4,0.4-1,0.1-1.5c-0.2-0.3-0.5-0.5-0.7-0.9
			c-0.2-0.4,0.1-1,0.6-1.1c0.2,0.9,0.9,1.6,1.8,1.9c1.1,0.4,2.3,0,3.4,0.2c0,0.6-1.1,0.6-1.1,1.2c0,0.5,1,0.7,0.9,1.2
			c0,0.1-0.1,0.2-0.2,0.3c-0.7,0.7-1.4,1.4-2.3,1.8c0-0.5,0-0.9,0-1.4c0-0.1,0-0.2-0.1-0.3c-0.1-0.1-0.4-0.1-0.5,0
			c-0.1,0.1-0.3,0.3-0.5,0.3c-0.3,0.1-0.5-0.3-0.5-0.5s0.1-0.6,0.3-0.8S636.2,638.9,636.1,638.7z"/>
		<path class="st50" d="M592.6,685.1c0.3,1.3,1.2,2.3,2.8,3c1.4,0.6,5.1,0.8,8.7,0.7c-0.9-0.4-1.8-0.7-2.8-0.9
			c-2.6-0.5-5.6-0.2-7.5-2.1c0.6-0.6,1.3-1.1,2.1-1.5c-0.8-0.6-0.7-1.9,0.1-2.4c0.5-0.4,1.2-0.4,1.9-0.4c1.8-0.1,3.5-0.9,4.9-2.1
			c0-0.2-0.1-0.3-0.1-0.5c-1.4,0.6-5.9,0.8-6.7,1.2C593.3,681.5,592.2,683.1,592.6,685.1z"/>
		<g>
			<path class="st53" d="M641.2,640.9c0.6,0.7,1.5,0.3,1.4-0.9l-0.9,0.3L641.2,640.9z"/>
			<g>
				<path class="st54" d="M642.6,640.2C642.6,640.2,642.6,640.3,642.6,640.2c0,0.1,0,0.2,0,0.2c0,0,0,0.1,0,0.1c0,0,0,0.1-0.1,0.1
					c0,0-0.1,0.1-0.1,0.1c0,0.1-0.1,0.1-0.1,0.1l-0.1,0.1l-0.1,0c-0.1,0-0.1,0-0.2,0c-0.1,0-0.1,0-0.2,0c-0.1,0-0.1,0-0.2,0
					c-0.1,0-0.1,0-0.1-0.1c0,0-0.1,0-0.1-0.1c0,0-0.1,0-0.1-0.1c0,0-0.1-0.1-0.1-0.1s0,0,0.1,0.1c0,0,0,0.1,0.1,0.1
					c0,0,0.1,0.1,0.1,0.1c0,0,0.1,0.1,0.2,0.1c0.1,0,0.1,0,0.2,0.1c0.1,0,0.1,0,0.2,0c0.1,0,0.1,0,0.2-0.1l0.1,0l0.1-0.1
					c0.1,0,0.1-0.1,0.1-0.2c0-0.1,0.1-0.1,0.1-0.2c0-0.1,0-0.1,0-0.2c0-0.1,0-0.1,0-0.1C642.6,640.4,642.6,640.3,642.6,640.2
					C642.6,640.3,642.6,640.2,642.6,640.2z"/>
				<path class="st54" d="M642.7,640C642.7,640,642.7,640,642.7,640c-0.1,0-0.2,0-0.3,0c0,0-0.1,0-0.2,0c-0.1,0-0.1,0-0.2,0.1
					c-0.1,0-0.1,0-0.2,0.1c-0.1,0-0.1,0.1-0.2,0.1c-0.1,0-0.1,0.1-0.2,0.1c-0.1,0-0.1,0.1-0.1,0.1c-0.1,0.1-0.2,0.2-0.2,0.2
					c-0.1,0.1-0.1,0.2-0.1,0.2c0,0.1,0,0.1,0,0.1s0,0,0.1-0.1c0,0,0.1-0.1,0.2-0.1c0,0,0.1-0.1,0.1-0.1c0,0,0.1-0.1,0.1-0.1
					c0.1-0.1,0.2-0.1,0.3-0.2c0.1-0.1,0.2-0.1,0.3-0.2c0.1,0,0.1-0.1,0.1-0.1c0,0,0.1,0,0.1-0.1C642.5,640.1,642.6,640,642.7,640
					C642.7,640,642.7,640,642.7,640z"/>
				<path class="st55" d="M642.2,640.5c0,0.1,0,0.2,0,0.3c0,0,0.1-0.1,0.2-0.2c0-0.1,0-0.2,0-0.3
					C642.3,640.3,642.3,640.4,642.2,640.5z"/>
			</g>
		</g>
		<path class="st53" d="M648.3,645.1l0.6,0.2l0.2-0.2c0.3-0.4,0.2-0.9-0.2-1.1l-0.7-0.5l-0.3,0.7C647.7,644.5,647.9,645,648.3,645.1
			z"/>
		<path class="st44" d="M619.3,662.2l3.6,5.8l6.4,10.2c1.3,1,4,3.6,4.5,4.2c0.1,0.1,0.1,0.1,0.1,0.1l0.1,0l0.5-0.2l2.5-1.1
			c0,0-4-5.2-4.3-6.2l-3.5-11.2l-1.6-5.1l-4,1.7L619.3,662.2z"/>
		<path class="st52" d="M623.7,660.1c0,0.1,0,0.2,0,0.3c0,0.4-0.2,0.8-0.4,1.3c-0.7,1.4-1.1,3-1.3,4.6c0.5,0,1-0.1,1.5-0.1
			c0.1,0.6-0.4,1-0.7,1.6l6.6,10.5c1.3,1,4,3.6,4.5,4.2c0.1,0,0.1,0.1,0.2,0.1c0.1,0,0.2,0.1,0.2,0.1c0.1-0.1,0.2-0.2,0.2-0.3
			c0.1-0.4-0.2-1-0.5-1.3c-1-1.2-1.9-2.5-2.9-3.7h0.9c-0.7-1.4-1.5-2.8-2.2-4.2c-0.7-1.4-1.5-2.8-1.9-4.3c-0.4-1.4-0.4-2.8,0.1-4.1
			c0,0.2,0,0.5,0.1,0.7c0.4-0.5,0.8-1,1.1-1.5c0.8-1.5,1.3-3.1,1.6-4.8c0.3-2.3,0.2-4.6,0-6.9c0.4,0.2,0.9,0.3,1.3,0.5
			c-0.4-1.7-0.8-3.3-1.2-5c-0.1-0.3-0.1-0.5,0-0.8c0.1-0.3,0.5-0.4,0.7-0.2c-0.9-1.6-1.8-3.2-2.7-4.8c-1.7,1.3-2.4,3.5-3.9,5.1
			c-1.4,1.5-3.5,2.5-4.3,4.4c-0.6,1.3-0.4,2.9,0.1,4.2c0.5,1.3,1.4,2.5,2.3,3.7C623.4,659.4,623.6,659.7,623.7,660.1z"/>
		<path class="st44" d="M602.3,680.7v1.3c0,0.1,0,0.1,0,0.2c0,0.5,0.2,0.9,0.5,1.2c0.1,0.1,0.2,0.2,0.2,0.3c0.4,0.4,1,0.7,1.7,0.7
			h12c1,0,2.9,0,2.9,0c1.4-0.8,0.7-3.6-1.8-3.3l-3.1,0.9l-0.1,0l-4.2-0.4l-4.7-0.5l-0.6-0.1l-0.6-0.1l-1.9-0.2L602.3,680.7z"/>
		<path class="st44" d="M602.3,675.4c0,4.3-1.5,8.3,7.5,7.8c4.9-0.3,8.9-3.5,8.9-7.8c0-4.3-4-7.8-8.9-7.8
			C604.9,667.7,602.3,671.1,602.3,675.4z"/>
		<path class="st52" d="M603.8,683c0.2-0.6,0.7-1,1.1-1.6c0.3-0.1,0.5-0.3,0.7-0.5c0.1-0.1,0.1-0.1,0.2-0.2
			c-0.1-0.5-0.4-1.1-0.9-1.3c0.8-0.2,1.1-1.3,0.7-2.1c-0.4-0.7-1.2-1.1-2-1.3c-0.4-0.5-0.3-1.2,0-1.7c0.3-0.6,0.6-1.1,0.8-1.6
			c0.1-0.4,0.1-0.8,0.3-1.2c0.2-0.4,0.5-0.7,0.8-1c1.1-1,2.4-1.8,3.7-2.6c0.1-0.1,0.2-0.1,0.3-0.2c0.4-0.2,0.8-0.4,1.2-0.3
			c0.4,0,0.8,0.3,1.1,0.5c0.1,0,0.1,0.1,0.2,0.1c0.9,0.7,1.7,1.6,2.4,2.5c0.8,0.7,1.2,1.9,0.9,3c0.1-0.3,0.6-0.4,0.9-0.1
			c0.3,0.2,0.9,0.9,0.9,1.3c0,1.7-1.8,3.1-3.5,3.7c0.3,0,1.2,0.8,1.1,1.1c-0.1,0.3-1,0.1-1.2,0.3c-1,0.7-2,1.3-3.1,1.8
			c-0.4,0.2-0.9,0.4-1.4,0.5c1.1,0.2,2.2,0.4,3.3,0.6c0,0.1,0,0.2-0.1,0.2c0,0.1,0,0.2-0.1,0.3c1.1,0,2.2,0,3.4,0
			c0.3,0,0.6,0,0.8,0.2c0.3,0.2,0.4,0.6,0.3,1h-11.2c-0.4-0.1-0.9-0.3-1.3-0.4C603.9,683.7,603.6,683.4,603.8,683z"/>
		<path class="st50" d="M600.3,679.3c0,0.6,1.1,0.5,2,0c0.6-0.4,1.7-3,2.4-3.2c0.2-1.3,0.3-2.6,0.5-3.8c0.5-0.1,1-0.2,1.4-0.3
			c-0.5-0.8-0.2-1.8,0.5-2.5c0.7-0.6,1.6-0.9,2.5-1.1c2.2-0.5,4.6-0.7,6.6-1.7c2.1-1,3.9-2.9,4-5.2c0-1.4-0.5-2.7-0.9-4
			c-0.4-1.3-0.5-2.9,0.4-3.9c0.1,1.2,0.3,2.7,1.4,3.2c0.7-0.8,0.7-1.9,0.6-3c-0.1-1-0.2-2.1,0.3-3.1c0.3-0.5,0.8-0.9,1.4-1
			c0.4-0.1,0.9,0,1.2,0.3c0-0.5,0.1-1,0.2-1.5c0.7-1.9,2.6-3.4,4.7-3.2c-0.1-1.6-0.3-3.2,0-4.8c0.1-0.5,0.2-1,0.4-1.5l-0.2,0.2
			l-7.8,7.6l-2.3,1.7c-3.6,2.6-6.7,5.7-9.2,9.4l-3.4,5c-2.7,3.9-4.6,8.3-5.7,13L600.3,679.3z"/>
		<path class="st49" d="M634,647.2c0,0.6,0.2,1.3,0.4,1.9c0.3,1.2,0.5,2.5,0.5,3.8c0.8-1.9,2.1-3.8,2.6-4c0.1,0,0.1,0,0.1,0l4.3,1.8
			c0.5,0.2,1,0.1,1.4,0c-0.4-0.2-0.9-0.4-1.3-0.6c-1.9-0.7-4-1.7-4.9-3.5c-0.6-1.2-0.6-2.6-0.9-3.9c-0.1-0.3-0.2-0.6-0.5-0.6
			c-0.4,1.1-0.8,2.2-1.3,3.3C634.2,645.9,634,646.5,634,647.2z"/>
		<path class="st49" d="M596.6,682.8c0.1,0,0.1,0,0.2-0.1c1.1-0.7,2.4-0.8,3.5-1.3c1-0.5,1.9-1.1,2.8-1.8c1.2,1.6,2.6,3.3,4.5,3.6
			c1.7,0.3,3.8,0.5,5.6,1h-8.5c-0.7,0-1.2-0.3-1.7-0.7c-0.1-0.1-0.2-0.2-0.2-0.3c-0.3-0.3-0.4-0.8-0.5-1.2c-0.7,0.3-1.5,0.6-2.2,0.9
			c-0.8,0.3-2.3,0.9-2.3,0.9s-0.7,1.3,6.4,1.8c0.5,0,3.2-0.1,5.6,0.3c-0.3,0-0.6,0-0.9,0.1c-0.5,0.1-1.1,0.4-1.6,0.5
			c-1.2,0.4-2.4,0.4-3.6,0.3c-2-0.1-4.1-0.5-5.9-1.2c-0.8-0.3-1.6-0.8-1.7-1.6C596,683.5,596.2,683.1,596.6,682.8z"/>
		<path class="st50" d="M633.6,635.8c0.1,0.1,0.3,0.3,0.4,0.4c0.1,0.1,0.2,0.1,0.2,0.1c0.2,0,0.2-0.3,0.3-0.5
			c0.2-0.3,0.6-0.5,0.9-0.7c0.4-0.4,0.5-1,0.7-1.6c0.3-0.9,1-1.6,1.1-2.5c0-0.2,0-0.4,0-0.7c-0.9,0.9-1.6,3.7-3.2,5.1
			C633.9,635.6,633.6,635.7,633.6,635.8z"/>
	</g>
</g>
</svg>
