<?xml version="1.0" encoding="utf-8"?>
<!-- Generator: Adobe Illustrator 23.0.5, SVG Export Plug-In . SVG Version: 6.00 Build 0)  -->
<svg version="1.1" id="Layer_1" xmlns="http://www.w3.org/2000/svg" xmlns:xlink="http://www.w3.org/1999/xlink" x="0px" y="0px"
	 viewBox="0 0 1179.5 723.4" style="enable-background:new 0 0 1179.5 723.4;" xml:space="preserve">
<style type="text/css">
	.st0{opacity:0.71;enable-background:new    ;}
	.st1{fill:url(#SVGID_1_);}
	.st2{fill:url(#SVGID_2_);}
	.st3{fill:url(#SVGID_3_);}
	.st4{fill:url(#SVGID_4_);}
	.st5{fill:url(#SVGID_5_);}
	.st6{fill:url(#SVGID_6_);}
	.st7{fill:url(#SVGID_7_);}
	.st8{fill:url(#SVGID_8_);}
	.st9{fill:url(#SVGID_9_);}
	.st10{fill:url(#SVGID_10_);}
	.st11{fill:url(#SVGID_11_);}
	.st12{fill:url(#SVGID_12_);}
	.st13{fill:#EDE606;}
	.st14{clip-path:url(#SVGID_14_);}
	.st15{fill:url(#SVGID_15_);}
	.st16{clip-path:url(#SVGID_17_);}
	.st17{fill:#666666;}
	.st18{fill:#828282;}
	.st19{fill:#436F96;}
	.st20{fill:#31506C;}
	.st21{fill:#6E9CCE;}
	.st22{fill:#3376BC;}
	.st23{fill:#3D88D7;}
	.st24{fill:#34B226;}
	.st25{fill:#69C2FF;}
	.st26{fill:#006837;}
	.st27{fill:#5B304C;}
	.st28{fill:#754C24;}
	.st29{fill:#1F2B55;}
	.st30{fill:#F2D75F;}
	.st31{fill:#F5F8AC;}
	.st32{fill:url(#SVGID_18_);}
	.st33{fill:#9E4A04;}
	.st34{fill:#515153;}
	.st35{fill:url(#SVGID_19_);}
</style>
<rect class="st0" width="1179.5" height="723.4"/>
<title>Asset 3</title>
<g>
	<g id="Layer_1-2">
		
			<linearGradient id="SVGID_1_" gradientUnits="userSpaceOnUse" x1="602.7457" y1="1441.8799" x2="586.4658" y2="2033.41" gradientTransform="matrix(1 0 0 1 0 -1527.26)">
			<stop  offset="0.27" style="stop-color:#000000;stop-opacity:0.7"/>
			<stop  offset="1" style="stop-color:#333333;stop-opacity:0.2"/>
		</linearGradient>
		<rect x="1.1" y="-0.6" class="st1" width="1178.9" height="716.7"/>
		
			<radialGradient id="SVGID_2_" cx="654.1" cy="1636.0601" r="33.426" gradientTransform="matrix(1 0 0 1 0 -1527.26)" gradientUnits="userSpaceOnUse">
			<stop  offset="0.27" style="stop-color:#FCEE21;stop-opacity:0.7"/>
			<stop  offset="1" style="stop-color:#FFFFFF;stop-opacity:0"/>
		</radialGradient>
		<ellipse class="st2" cx="654.1" cy="108.8" rx="36.2" ry="30.4"/>
		
			<radialGradient id="SVGID_3_" cx="802.8" cy="1589.46" r="33.426" gradientTransform="matrix(1 0 0 1 0 -1527.26)" gradientUnits="userSpaceOnUse">
			<stop  offset="0.27" style="stop-color:#FCEE21;stop-opacity:0.7"/>
			<stop  offset="1" style="stop-color:#FFFFFF;stop-opacity:0"/>
		</radialGradient>
		<ellipse class="st3" cx="802.8" cy="62.2" rx="36.2" ry="30.4"/>
		
			<radialGradient id="SVGID_4_" cx="-948.8117" cy="1580.36" r="33.4246" gradientTransform="matrix(4.25 0 0 1 5017.0425 -1527.26)" gradientUnits="userSpaceOnUse">
			<stop  offset="0.27" style="stop-color:#FCEE21;stop-opacity:0.7"/>
			<stop  offset="1" style="stop-color:#FFFFFF;stop-opacity:0"/>
		</radialGradient>
		<ellipse class="st4" cx="982.9" cy="53.1" rx="153.7" ry="30.4"/>
		
			<radialGradient id="SVGID_5_" cx="-1047.5918" cy="1584.86" r="33.42" gradientTransform="matrix(4.25 0 0 1 5017.0425 -1527.26)" gradientUnits="userSpaceOnUse">
			<stop  offset="0.27" style="stop-color:#FCEE21;stop-opacity:0.7"/>
			<stop  offset="1" style="stop-color:#FFFFFF;stop-opacity:0"/>
		</radialGradient>
		<ellipse class="st5" cx="563.3" cy="57.6" rx="153.7" ry="30.4"/>
		
			<radialGradient id="SVGID_6_" cx="-1144.0017" cy="1577.76" r="33.443" gradientTransform="matrix(4.25 0 0 1 5017.0425 -1527.26)" gradientUnits="userSpaceOnUse">
			<stop  offset="0.27" style="stop-color:#FCEE21;stop-opacity:0.7"/>
			<stop  offset="1" style="stop-color:#FFFFFF;stop-opacity:0"/>
		</radialGradient>
		<ellipse class="st6" cx="153.7" cy="50.5" rx="153.7" ry="30.4"/>
		
			<radialGradient id="SVGID_7_" cx="-1009.9917" cy="1587.16" r="33.4292" gradientTransform="matrix(4.25 0 0 1 5017.0425 -1527.26)" gradientUnits="userSpaceOnUse">
			<stop  offset="0.27" style="stop-color:#FCEE21;stop-opacity:0.7"/>
			<stop  offset="1" style="stop-color:#FFFFFF;stop-opacity:0"/>
		</radialGradient>
		<ellipse class="st7" cx="723" cy="59.9" rx="153.7" ry="30.4"/>
		
			<radialGradient id="SVGID_8_" cx="-300.6578" cy="1587.16" r="33.4299" gradientTransform="matrix(2.04 0 0 1 1481.7616 -1527.26)" gradientUnits="userSpaceOnUse">
			<stop  offset="0.27" style="stop-color:#FCEE21;stop-opacity:0.7"/>
			<stop  offset="1" style="stop-color:#FFFFFF;stop-opacity:0"/>
		</radialGradient>
		<ellipse class="st8" cx="863.3" cy="59.9" rx="73.6" ry="30.4"/>
		
			<radialGradient id="SVGID_9_" cx="755.8" cy="1747.16" r="33.426" gradientTransform="matrix(1 0 0 1 0 -1527.26)" gradientUnits="userSpaceOnUse">
			<stop  offset="0.27" style="stop-color:#FCEE21;stop-opacity:0.7"/>
			<stop  offset="1" style="stop-color:#FFFFFF;stop-opacity:0"/>
		</radialGradient>
		<ellipse class="st9" cx="755.8" cy="219.9" rx="36.2" ry="30.4"/>
		
			<radialGradient id="SVGID_10_" cx="270.1" cy="1898.41" r="33.426" gradientTransform="matrix(1 0 0 1 0 -1527.26)" gradientUnits="userSpaceOnUse">
			<stop  offset="0.27" style="stop-color:#FCEE21;stop-opacity:0.7"/>
			<stop  offset="1" style="stop-color:#FFFFFF;stop-opacity:0"/>
		</radialGradient>
		<ellipse class="st10" cx="270.1" cy="371.1" rx="36.2" ry="30.4"/>
		
			<radialGradient id="SVGID_11_" cx="265.65" cy="1766.1135" r="33.426" gradientTransform="matrix(1 0 0 1 0 -1527.26)" gradientUnits="userSpaceOnUse">
			<stop  offset="0.27" style="stop-color:#FCEE21;stop-opacity:0.7"/>
			<stop  offset="1" style="stop-color:#FFFFFF;stop-opacity:0"/>
		</radialGradient>
		<ellipse class="st11" cx="265.6" cy="238.9" rx="36.2" ry="30.4"/>
		
			<radialGradient id="SVGID_12_" cx="1113.8" cy="1661.16" r="33.426" gradientTransform="matrix(1 0 0 1 0 -1527.26)" gradientUnits="userSpaceOnUse">
			<stop  offset="0.27" style="stop-color:#FCEE21;stop-opacity:0.7"/>
			<stop  offset="1" style="stop-color:#FFFFFF;stop-opacity:0"/>
		</radialGradient>
		<ellipse class="st12" cx="1113.8" cy="133.9" rx="36.2" ry="30.4"/>
		<polygon class="st13" points="1158,49.4 1091.2,198.2 1088.2,190.7 1134.2,209.9 1139.7,212.3 1137,217.7 1080.1,332.3 
			1080.3,327.7 1098.4,388.5 1097.3,389 1069.7,331.8 1068.7,329.7 1069.9,327.2 1126.9,212.6 1129.8,220.4 1083.8,201.1 
			1078.5,198.9 1080.8,193.6 1147.6,44.8 		"/>
		<polygon class="st13" points="1113.8,139.6 1011.6,137.5 1015.2,134.5 997.6,224.8 997.4,225.8 996.4,226 936.4,235.5 
			995.9,223.1 994.8,224.3 1008.1,133.3 1008.5,130.4 1011.6,130.3 1113.8,128.2 		"/>
		<g>
			<g>
				<defs>
					<rect id="SVGID_13_" x="1.1" y="-0.6" width="1178.9" height="716.7"/>
				</defs>
				<clipPath id="SVGID_14_">
					<use xlink:href="#SVGID_13_"  style="overflow:visible;"/>
				</clipPath>
				<g class="st14">
					
						<radialGradient id="SVGID_15_" cx="-1119.9019" cy="1546.66" r="33.4384" gradientTransform="matrix(4.25 0 0 1 5017.0425 -1527.26)" gradientUnits="userSpaceOnUse">
						<stop  offset="0.27" style="stop-color:#FCEE21;stop-opacity:0.7"/>
						<stop  offset="1" style="stop-color:#FFFFFF;stop-opacity:0"/>
					</radialGradient>
					<ellipse class="st15" cx="256" cy="19.4" rx="153.7" ry="30.4"/>
				</g>
			</g>
		</g>
	</g>
	<g id="ground">
		<g>
			<g>
				<defs>
					<rect id="SVGID_16_" x="1.1" width="1178.4" height="319.1"/>
				</defs>
				<clipPath id="SVGID_17_">
					<use xlink:href="#SVGID_16_"  style="overflow:visible;"/>
				</clipPath>
				<g class="st16">
					<ellipse class="st17" cx="758.1" cy="32" rx="57" ry="51.8"/>
					<ellipse class="st17" cx="633.3" cy="32.7" rx="90.9" ry="35.5"/>
					<ellipse class="st17" cx="384.1" cy="18.8" rx="86.9" ry="51.8"/>
					<ellipse class="st17" cx="486.8" cy="18.8" rx="86.9" ry="51.8"/>
					<ellipse class="st17" cx="40.6" cy="18.8" rx="86.9" ry="51.8"/>
					<ellipse class="st17" cx="1105.2" cy="18.8" rx="86.9" ry="51.8"/>
					<ellipse class="st17" cx="849.7" cy="22.6" rx="57" ry="51.8"/>
					<ellipse class="st17" cx="890.7" cy="18.8" rx="57" ry="51.8"/>
					<ellipse class="st17" cx="996.2" cy="18.4" rx="57" ry="51.8"/>
					<ellipse class="st18" cx="1145.4" cy="3.6" rx="64.3" ry="36.4"/>
					
						<ellipse transform="matrix(0.2051 -0.9787 0.9787 0.2051 841.6464 1012.8972)" class="st18" cx="1044.4" cy="-11.7" rx="51.8" ry="51.8"/>
					<circle class="st18" cx="773.1" cy="3.5" r="51.8"/>
					<circle class="st18" cx="721.3" cy="-32.8" r="51.8"/>
					<circle class="st18" cx="659.2" cy="-11.7" r="51.8"/>
					<ellipse class="st18" cx="916.9" cy="-11.7" rx="114.1" ry="51.8"/>
					<ellipse class="st18" cx="562.2" cy="0" rx="64.3" ry="36.4"/>
					<ellipse class="st18" cx="467" cy="-11.7" rx="74.5" ry="51.8"/>
					<circle class="st18" cx="161.8" cy="3.5" r="51.8"/>
					<circle class="st18" cx="110" cy="-32.8" r="51.8"/>
					<circle class="st18" cx="47.9" cy="-11.7" r="51.8"/>
					<ellipse class="st18" cx="305.6" cy="-32.8" rx="114.1" ry="51.8"/>
				</g>
			</g>
		</g>
		<rect x="1.1" y="602.5" class="st19" width="1178.4" height="13.7"/>
		<rect x="1.1" y="616" class="st20" width="1178.4" height="48.5"/>
		<rect x="1.1" y="664.5" class="st21" width="1178.4" height="51.6"/>
		<rect x="773.1" y="531.1" class="st22" width="84" height="71.4"/>
		<rect x="734.7" y="512.8" class="st22" width="38.4" height="89.6"/>
		<rect x="687.2" y="525.5" class="st22" width="47.5" height="76.9"/>
		<rect x="1066.8" y="546" class="st22" width="38.4" height="55.8"/>
		<rect x="1105.2" y="527.2" class="st22" width="74.3" height="76.9"/>
		<rect x="0.5" y="525.5" class="st22" width="80.1" height="76.9"/>
		<rect x="598.1" y="543.2" class="st23" width="89.2" height="59.2"/>
		<rect x="579.8" y="525.3" class="st23" width="18.2" height="77.1"/>
		<rect x="532.3" y="495.7" class="st23" width="47.5" height="106.7"/>
		<rect x="486.9" y="525.3" class="st22" width="45.4" height="77.1"/>
		<rect x="359.9" y="525.3" class="st22" width="54" height="77.8"/>
		<rect x="191.3" y="525" class="st22" width="54" height="77.8"/>
		<rect x="129.2" y="549.1" class="st22" width="62.1" height="54"/>
		<rect x="413.9" y="488.4" class="st23" width="72.9" height="114"/>
		<rect x="245.3" y="474" class="st23" width="114.5" height="128.3"/>
		<rect x="900.3" y="525" class="st22" width="54" height="77.8"/>
		<rect x="838.3" y="549.1" class="st22" width="62.1" height="54"/>
		<rect x="954.4" y="474" class="st23" width="114.5" height="128.3"/>
		<rect x="80.6" y="493.5" class="st23" width="48.6" height="109.6"/>
		<rect x="852.5" y="500.3" class="st23" width="49.5" height="102.2"/>
		<path class="st24" d="M549.6,644.9c-0.1,1.2-0.9,2.3-2,2.7c-1.1,0.2-2.2,0-3.1-0.6c-1.8,2-5.4,2.3-8.8,0.8c-2.3-0.9-4.1-2.7-5-5
			c-2.3,0.8-4.8,0.7-7-0.4c-4-1.8-6.2-5.5-4.9-8.4v-0.1c-0.8-0.3-1.4-0.8-1.8-1.6c-0.6-1.4-0.1-3.1,1.3-4.4c-0.5-1.4-0.4-3,0.2-4.4
			c1-2.2,3.2-3.5,6-3.8c-0.4-2.1-0.2-4.3,0.6-6.3c1.4-3.1,5.4-4.4,9.8-3.6c2.7-1.5,6.8-1.4,10.6,0.3c3.1,1.3,5.6,3.7,7,6.8
			c0.9,0,1.8,0.4,2.5,0.9c0.5,0.7,0.7,1.6,0.7,2.4c2.4,2.4,3.1,6.1,1.8,9.2c-0.7,1.5-1.8,2.7-3.2,3.6c2.1,1.8,2.8,4.8,1.6,7.3
			C554.7,642.9,552.3,644.6,549.6,644.9z"/>
		<path class="st24" d="M567.3,647.7c-0.5,1.1-1.7,1.8-2.9,1.8c-1.1-0.2-2-0.8-2.6-1.7c-2.4,1.1-5.9,0.2-8.5-2.6
			c-1.7-1.7-2.7-4.1-2.7-6.5c-2.4-0.1-4.7-1.2-6.4-3c-3-3.2-3.6-7.5-1.3-9.6l0,0c-0.6-0.5-1-1.3-1.1-2.2c-0.1-1.5,1.1-2.8,2.8-3.6
			c0.1-1.5,0.7-2.9,1.8-4c1.7-1.6,4.3-2,7-1.2c0.4-2.1,1.5-4.1,3-5.6c2.5-2.3,6.7-2.1,10.5,0.4c3.1-0.3,6.8,1.2,9.7,4.3
			c2.4,2.4,3.8,5.6,3.9,8.9c0.8,0.4,1.5,1,2,1.8c0.2,0.8,0.1,1.7-0.3,2.5c1.3,3.2,0.6,6.8-1.8,9.2c-1.2,1.1-2.7,1.8-4.3,2.1
			c1.3,2.5,0.8,5.5-1.3,7.4C572.8,647.9,569.9,648.5,567.3,647.7z"/>
		<path class="st24" d="M517.2,610.3c1-0.6,2.3-0.5,3.3,0.1c0.7,0.7,1.1,1.7,1.2,2.8c2.5,0.3,4.8,3,5.4,6.6c0.5,2.3,0,4.7-1.3,6.7
			c1.9,1.4,3.2,3.5,3.5,5.9c0.7,4.2-1.1,8-4.1,8.5h-0.1c0.2,0.8,0.1,1.6-0.3,2.3c-0.8,1.2-2.4,1.7-4.2,1.3c-0.9,1.2-2.2,2-3.7,2.3
			c-2.3,0.4-4.5-0.7-6.3-2.8c-1.5,1.5-3.3,2.5-5.4,2.9c-3.2,0.5-6.5-2-8.2-5.9c-2.6-1.4-4.8-4.7-5.5-8.7c-0.7-3.2,0-6.5,1.7-9.3
			c-0.5-0.8-0.7-1.6-0.6-2.5c0.3-0.8,0.8-1.4,1.5-1.9c0.7-3.2,3.2-5.8,6.5-6.4c1.6-0.2,3.2,0,4.6,0.6c0.3-2.7,2.3-4.8,5-5.3
			C512.9,607.2,515.6,608.2,517.2,610.3z"/>
		<path class="st24" d="M502.9,638.4c0.4,1.1,0.1,2.4-0.7,3.2c-0.9,0.6-1.9,0.8-3,0.7c-0.8,2.4-3.8,4.2-7.5,4.2
			c-2.4,0.1-4.7-0.8-6.4-2.4c-1.7,1.6-4,2.5-6.4,2.4c-4.2,0-7.7-2.4-7.7-5.4V641c-0.8,0.1-1.6-0.2-2.2-0.7c-1.1-1-1.3-2.7-0.6-4.4
			c-1-1.1-1.6-2.5-1.6-4c0-2.3,1.5-4.3,3.8-5.7c-1.2-1.7-1.9-3.7-2-5.8c0-3.3,3-6.1,7.2-7.1c1.8-2.4,5.4-4,9.5-4
			c3.3-0.1,6.4,1.1,8.9,3.2c0.8-0.3,1.7-0.4,2.6-0.2c0.7,0.4,1.3,1.1,1.6,1.8c3.1,1.2,5.2,4.1,5.2,7.4c-0.1,1.6-0.6,3.1-1.4,4.5
			c2.6,0.7,4.4,3.1,4.3,5.8C506.7,634.6,505.2,637,502.9,638.4z"/>
		<polyline class="st25" points="661.4,149.6 675.4,143.6 670,157.9 661.4,149.6 		"/>
		<path class="st25" d="M669.3,158.6c-2.3,2.4-6.1,2.5-8.5,0.2s-2.5-6.1-0.2-8.5s6.1-2.5,8.5-0.2l0,0
			C671.5,152.4,671.6,156.2,669.3,158.6z"/>
		<polyline class="st25" points="704.5,143.6 718.5,137.6 713.2,151.9 704.5,143.6 		"/>
		<path class="st25" d="M712.4,152.6c-2.3,2.4-6.1,2.5-8.5,0.2s-2.5-6.1-0.2-8.5s6.1-2.5,8.5-0.2l0,0
			C714.7,146.4,714.7,150.2,712.4,152.6z"/>
		<polyline class="st25" points="653.2,226.3 667.2,220.3 661.8,234.6 653.2,226.3 		"/>
		<path class="st25" d="M661.1,235.3c-2.3,2.4-6.1,2.5-8.5,0.2s-2.5-6.1-0.2-8.5s6.1-2.5,8.5-0.2l0,0
			C663.3,229.1,663.4,232.9,661.1,235.3z"/>
		<polyline class="st25" points="596,202.2 610,196.3 604.7,210.5 596,202.2 		"/>
		<path class="st25" d="M604,211.2c-2.3,2.4-6.1,2.5-8.5,0.2s-2.5-6.1-0.2-8.5s6.1-2.5,8.5-0.2l0,0C606.2,205,606.2,208.8,604,211.2
			z"/>
		<polyline class="st25" points="590.2,132.8 604.2,126.8 598.9,141 590.2,132.8 		"/>
		<path class="st25" d="M598.1,141.8c-2.3,2.4-6.1,2.5-8.5,0.2s-2.5-6.1-0.2-8.5s6.1-2.5,8.5-0.2l0,0
			C600.3,135.6,600.4,139.4,598.1,141.8z"/>
		<polyline class="st25" points="605.4,262.8 619.4,256.8 614.1,271 605.4,262.8 		"/>
		<path class="st25" d="M613.3,271.7c-2.3,2.4-6.1,2.5-8.5,0.2s-2.5-6.1-0.2-8.5s6.1-2.5,8.5-0.2l0,0
			C615.5,265.6,615.6,269.3,613.3,271.7z"/>
		<polyline class="st25" points="665.2,273.6 679.2,267.6 673.8,281.9 665.2,273.6 		"/>
		<path class="st25" d="M673.1,282.6c-2.3,2.4-6.1,2.5-8.5,0.2s-2.5-6.1-0.2-8.5s6.1-2.5,8.5-0.2l0,0
			C675.3,276.4,675.4,280.2,673.1,282.6z"/>
		<polyline class="st25" points="781.3,296.7 795.4,290.7 790,305 781.3,296.7 		"/>
		<path class="st25" d="M789.3,305.7c-2.3,2.4-6.1,2.5-8.5,0.2s-2.5-6.1-0.2-8.5s6.1-2.5,8.5-0.2l0,0
			C791.5,299.5,791.6,303.3,789.3,305.7z"/>
		<polyline class="st25" points="824.5,290.7 838.5,284.7 833.1,299 824.5,290.7 		"/>
		<path class="st25" d="M832.4,299.7c-2.3,2.4-6.1,2.5-8.5,0.2s-2.5-6.1-0.2-8.5s6.1-2.5,8.5-0.2l0,0
			C834.6,293.5,834.7,297.3,832.4,299.7z"/>
		<polyline class="st25" points="773.2,373.4 787.2,367.4 781.8,381.7 773.2,373.4 		"/>
		<path class="st25" d="M781.1,382.4c-2.3,2.4-6.1,2.5-8.5,0.2s-2.5-6.1-0.2-8.5s6.1-2.5,8.5-0.2l0,0
			C783.3,376.2,783.4,380,781.1,382.4z"/>
		<polyline class="st25" points="874.6,309.7 888.7,303.7 883.3,318 874.6,309.7 		"/>
		<path class="st25" d="M882.6,318.7c-2.3,2.4-6.1,2.5-8.5,0.2s-2.5-6.1-0.2-8.5s6.1-2.5,8.5-0.2l0,0
			C884.8,312.5,884.9,316.3,882.6,318.7z"/>
		<polyline class="st25" points="710.2,279.9 724.2,273.9 718.8,288.2 710.2,279.9 		"/>
		<path class="st25" d="M718.1,288.9c-2.3,2.4-6.1,2.5-8.5,0.2s-2.5-6.1-0.2-8.5s6.1-2.5,8.5-0.2l0,0
			C720.3,282.7,720.4,286.5,718.1,288.9z"/>
		<polyline class="st25" points="725.4,409.9 739.4,403.9 734,418.1 725.4,409.9 		"/>
		<path class="st25" d="M733.3,418.9c-2.3,2.4-6.1,2.5-8.5,0.2s-2.5-6.1-0.2-8.5s6.1-2.5,8.5-0.2l0,0
			C735.5,412.7,735.6,416.5,733.3,418.9z"/>
		<polyline class="st25" points="785.1,420.7 799.1,414.7 793.8,429 785.1,420.7 		"/>
		<path class="st25" d="M793.1,429.7c-2.3,2.4-6.1,2.5-8.5,0.2s-2.5-6.1-0.2-8.5s6.1-2.5,8.5-0.2l0,0
			C795.3,423.5,795.4,427.3,793.1,429.7z"/>
		<polyline class="st25" points="525,218.7 539,212.7 533.7,227 525,218.7 		"/>
		<path class="st25" d="M532.9,227.7c-2.3,2.4-6.1,2.5-8.5,0.2s-2.5-6.1-0.2-8.5s6.1-2.5,8.5-0.2l0,0
			C535.1,221.5,535.2,225.3,532.9,227.7z"/>
		<polyline class="st25" points="568.1,212.7 582.1,206.8 576.8,221 568.1,212.7 		"/>
		<path class="st25" d="M576.1,221.7c-2.3,2.4-6.1,2.5-8.5,0.2s-2.5-6.1-0.2-8.5s6.1-2.5,8.5-0.2l0,0
			C578.3,215.5,578.4,219.3,576.1,221.7z"/>
		<polyline class="st25" points="482.9,405.6 497,399.6 491.6,413.9 482.9,405.6 		"/>
		<path class="st25" d="M490.9,414.6c-2.3,2.4-6.1,2.5-8.5,0.2s-2.5-6.1-0.2-8.5s6.1-2.5,8.5-0.2l0,0
			C493.1,408.4,493.2,412.2,490.9,414.6z"/>
		<polyline class="st25" points="492.3,466.1 506.3,460.1 501,474.4 492.3,466.1 		"/>
		<path class="st25" d="M500.3,475.1c-2.3,2.4-6.1,2.5-8.5,0.2s-2.5-6.1-0.2-8.5s6.1-2.5,8.5-0.2l0,0
			C502.5,468.9,502.5,472.7,500.3,475.1z"/>
		<polyline class="st25" points="411.9,422.1 425.9,416.1 420.6,430.4 411.9,422.1 		"/>
		<path class="st25" d="M419.9,431.1c-2.3,2.4-6.1,2.5-8.5,0.2s-2.5-6.1-0.2-8.5s6.1-2.5,8.5-0.2l0,0
			C422.1,424.9,422.2,428.7,419.9,431.1z"/>
		<polyline class="st25" points="455,416.1 469.1,410.1 463.7,424.4 455,416.1 		"/>
		<path class="st25" d="M463,425.1c-2.3,2.4-6.1,2.5-8.5,0.2s-2.5-6.1-0.2-8.5s6.1-2.5,8.5-0.2l0,0
			C465.2,418.9,465.3,422.7,463,425.1z"/>
		<polyline class="st25" points="792.8,501.6 806.9,495.6 801.5,509.9 792.8,501.6 		"/>
		<path class="st25" d="M800.8,510.6c-2.3,2.4-6.1,2.5-8.5,0.2c-2.4-2.3-2.5-6.1-0.2-8.5s6.1-2.5,8.5-0.2l0,0
			C803,504.4,803.1,508.2,800.8,510.6z"/>
		<polyline class="st25" points="784.7,578.3 798.7,572.3 793.3,586.6 784.7,578.3 		"/>
		<path class="st25" d="M792.6,587.3c-2.3,2.4-6.1,2.5-8.5,0.2s-2.5-6.1-0.2-8.5s6.1-2.5,8.5-0.2l0,0
			C794.8,581.1,794.9,584.9,792.6,587.3z"/>
		<polyline class="st25" points="727.5,554.3 741.5,548.3 736.2,562.5 727.5,554.3 		"/>
		<path class="st25" d="M735.4,563.3c-2.3,2.4-6.1,2.5-8.5,0.2s-2.5-6.1-0.2-8.5s6.1-2.5,8.5-0.2l0,0
			C737.6,557.1,737.7,560.9,735.4,563.3z"/>
		<polyline class="st25" points="721.7,484.8 735.7,478.8 730.3,493.1 721.7,484.8 		"/>
		<path class="st25" d="M729.6,493.8c-2.3,2.4-6.1,2.5-8.5,0.2s-2.5-6.1-0.2-8.5s6.1-2.5,8.5-0.2l0,0
			C731.8,487.6,731.9,491.4,729.6,493.8z"/>
		<polyline class="st25" points="736.9,614.8 750.9,608.8 745.5,623.1 736.9,614.8 		"/>
		<path class="st25" d="M744.8,623.8c-2.3,2.4-6.1,2.5-8.5,0.2s-2.5-6.1-0.2-8.5s6.1-2.5,8.5-0.2l0,0
			C747,617.6,747.1,621.4,744.8,623.8z"/>
		<polyline class="st25" points="796.6,625.6 810.6,619.6 805.3,633.9 796.6,625.6 		"/>
		<path class="st25" d="M804.6,634.6c-2.3,2.4-6.1,2.5-8.5,0.2s-2.5-6.1-0.2-8.5s6.1-2.5,8.5-0.2l0,0
			C806.8,628.4,806.9,632.2,804.6,634.6z"/>
		<polyline class="st25" points="656.5,570.8 670.5,564.8 665.1,579 656.5,570.8 		"/>
		<path class="st25" d="M664.4,579.8c-2.3,2.4-6.1,2.5-8.5,0.2s-2.5-6.1-0.2-8.5s6.1-2.5,8.5-0.2l0,0
			C666.6,573.6,666.7,577.4,664.4,579.8z"/>
		<polyline class="st25" points="699.6,564.8 713.6,558.8 708.3,573 699.6,564.8 		"/>
		<path class="st25" d="M707.5,573.8c-2.3,2.4-6.1,2.5-8.5,0.2s-2.5-6.1-0.2-8.5s6.1-2.5,8.5-0.2l0,0
			C709.7,567.6,709.8,571.4,707.5,573.8z"/>
		<polyline class="st25" points="139,240 153.1,234 147.7,248.3 139,240 		"/>
		<path class="st25" d="M147,249c-2.3,2.4-6.1,2.5-8.5,0.2s-2.5-6.1-0.2-8.5s6.1-2.5,8.5-0.2l0,0C149.2,242.8,149.3,246.6,147,249z"
			/>
		<polyline class="st25" points="286.8,179.6 300.9,173.6 295.5,187.9 286.8,179.6 		"/>
		<path class="st25" d="M294.8,188.6c-2.3,2.4-6.1,2.5-8.5,0.2s-2.5-6.1-0.2-8.5s6.1-2.5,8.5-0.2l0,0
			C297,182.4,297.1,186.2,294.8,188.6z"/>
		<polyline class="st25" points="356.3,314 370.3,308 364.9,322.3 356.3,314 		"/>
		<path class="st25" d="M364.2,323c-2.3,2.4-6.1,2.5-8.5,0.2s-2.5-6.1-0.2-8.5s6.1-2.5,8.5-0.2l0,0
			C366.4,316.8,366.5,320.6,364.2,323z"/>
		<polyline class="st25" points="416,324.9 430,318.9 424.7,333.2 416,324.9 		"/>
		<path class="st25" d="M424,333.9c-2.3,2.4-6.1,2.5-8.5,0.2s-2.5-6.1-0.2-8.5s6.1-2.5,8.5-0.2l0,0
			C426.2,327.7,426.3,331.5,424,333.9z"/>
		<polyline class="st25" points="262,303.8 276.1,297.8 270.7,312.1 262,303.8 		"/>
		<path class="st25" d="M270,312.8c-2.3,2.4-6.1,2.5-8.5,0.2s-2.5-6.1-0.2-8.5s6.1-2.5,8.5-0.2l0,0
			C272.2,306.6,272.3,310.4,270,312.8z"/>
		<polyline class="st25" points="516.8,295.4 530.8,289.4 525.5,303.7 516.8,295.4 		"/>
		<path class="st25" d="M524.7,304.4c-2.3,2.4-6.1,2.5-8.5,0.2s-2.5-6.1-0.2-8.5s6.1-2.5,8.5-0.2l0,0
			C526.9,298.2,527,302,524.7,304.4z"/>
		<polyline class="st25" points="459.6,271.4 473.7,265.4 468.3,279.7 459.6,271.4 		"/>
		<path class="st25" d="M467.6,280.4c-2.3,2.4-6.1,2.5-8.5,0.2s-2.5-6.1-0.2-8.5s6.1-2.5,8.5-0.2l0,0
			C469.8,274.2,469.9,278,467.6,280.4z"/>
		<polyline class="st25" points="453.8,201.9 467.8,195.9 462.5,210.2 453.8,201.9 		"/>
		<path class="st25" d="M461.8,210.9c-2.3,2.4-6.1,2.5-8.5,0.2s-2.5-6.1-0.2-8.5s6.1-2.5,8.5-0.2l0,0
			C464,204.7,464.1,208.5,461.8,210.9z"/>
		<polyline class="st25" points="469,331.9 483,325.9 477.7,340.2 469,331.9 		"/>
		<path class="st25" d="M477,340.9c-2.3,2.4-6.1,2.5-8.5,0.2s-2.5-6.1-0.2-8.5s6.1-2.5,8.5-0.2l0,0
			C479.2,334.7,479.2,338.5,477,340.9z"/>
		<polyline class="st25" points="528.8,342.7 542.8,336.8 537.4,351 528.8,342.7 		"/>
		<path class="st25" d="M536.7,351.7c-2.3,2.4-6.1,2.5-8.5,0.2s-2.5-6.1-0.2-8.5s6.1-2.5,8.5-0.2l0,0
			C538.9,345.5,539,349.3,536.7,351.7z"/>
		<polyline class="st25" points="129.2,430 143.3,424 137.9,438.3 129.2,430 		"/>
		<path class="st25" d="M137.2,439c-2.3,2.4-6.1,2.5-8.5,0.2c-2.4-2.3-2.5-6.1-0.2-8.5s6.1-2.5,8.5-0.2l0,0
			C139.4,432.8,139.5,436.6,137.2,439z"/>
		<polyline class="st25" points="72.1,406 86.1,400 80.7,414.3 72.1,406 		"/>
		<path class="st25" d="M80,415c-2.3,2.4-6.1,2.5-8.5,0.2s-2.5-6.1-0.2-8.5s6.1-2.5,8.5-0.2l0,0C82.2,408.8,82.3,412.6,80,415z"/>
		<polyline class="st25" points="81.5,466.5 95.5,460.5 90.1,474.8 81.5,466.5 		"/>
		<path class="st25" d="M89.4,475.5c-2.3,2.4-6.1,2.5-8.5,0.2s-2.5-6.1-0.2-8.5s6.1-2.5,8.5-0.2l0,0
			C91.6,469.3,91.7,473.1,89.4,475.5z"/>
		<polyline class="st25" points="141.2,477.3 155.2,471.3 149.9,485.6 141.2,477.3 		"/>
		<path class="st25" d="M149.2,486.3c-2.3,2.4-6.1,2.5-8.5,0.2s-2.5-6.1-0.2-8.5s6.1-2.5,8.5-0.2l0,0
			C151.4,480.1,151.5,483.9,149.2,486.3z"/>
		<polyline class="st25" points="339,384.9 353,378.9 347.7,393.1 339,384.9 		"/>
		<path class="st25" d="M346.9,393.8c-2.3,2.4-6.1,2.5-8.5,0.2s-2.5-6.1-0.2-8.5s6.1-2.5,8.5-0.2l0,0
			C349.1,387.6,349.2,391.4,346.9,393.8z"/>
		<polyline class="st25" points="382.1,378.9 396.1,372.9 390.8,387.1 382.1,378.9 		"/>
		<path class="st25" d="M390.1,387.9c-2.3,2.4-6.1,2.5-8.5,0.2s-2.5-6.1-0.2-8.5s6.1-2.5,8.5-0.2l0,0
			C392.3,381.7,392.4,385.5,390.1,387.9z"/>
		<polyline class="st25" points="330.8,461.5 344.8,455.5 339.5,469.8 330.8,461.5 		"/>
		<path class="st25" d="M338.7,470.5c-2.3,2.4-6.1,2.5-8.5,0.2s-2.5-6.1-0.2-8.5s6.1-2.5,8.5-0.2l0,0
			C340.9,464.3,341,468.1,338.7,470.5z"/>
		<polyline class="st25" points="273.6,437.5 287.6,431.5 282.3,445.8 273.6,437.5 		"/>
		<path class="st25" d="M281.6,446.5c-2.3,2.4-6.1,2.5-8.5,0.2s-2.5-6.1-0.2-8.5s6.1-2.5,8.5-0.2l0,0
			C283.8,440.3,283.9,444.1,281.6,446.5z"/>
		<polyline class="st25" points="340.5,350.4 354.5,344.4 349.2,358.7 340.5,350.4 		"/>
		<path class="st25" d="M348.5,359.4c-2.3,2.4-6.1,2.5-8.5,0.2s-2.5-6.1-0.2-8.5s6.1-2.5,8.5-0.2l0,0
			C350.7,353.2,350.7,357,348.5,359.4z"/>
		<polyline class="st25" points="283,498 297,492 291.7,506.3 283,498 		"/>
		<path class="st25" d="M291,507c-2.3,2.4-6.1,2.5-8.5,0.2s-2.5-6.1-0.2-8.5s6.1-2.5,8.5-0.2l0,0C293.2,500.8,293.2,504.6,291,507z"
			/>
		<polyline class="st25" points="342.8,508.8 356.8,502.9 351.4,517.1 342.8,508.8 		"/>
		<path class="st25" d="M350.7,517.8c-2.3,2.4-6.1,2.5-8.5,0.2s-2.5-6.1-0.2-8.5s6.1-2.5,8.5-0.2l0,0
			C352.9,511.7,353,515.4,350.7,517.8z"/>
		<polyline class="st25" points="262.1,451.7 276.1,445.7 270.7,460 262.1,451.7 		"/>
		<path class="st25" d="M270,460.7c-2.3,2.4-6.1,2.5-8.5,0.2s-2.5-6.1-0.2-8.5s6.1-2.5,8.5-0.2l0,0
			C272.2,454.5,272.3,458.3,270,460.7z"/>
		<polyline class="st25" points="305.2,445.7 319.2,439.7 313.9,454 305.2,445.7 		"/>
		<path class="st25" d="M313.1,454.7c-2.3,2.4-6.1,2.5-8.5,0.2s-2.5-6.1-0.2-8.5s6.1-2.5,8.5-0.2l0,0
			C315.4,448.5,315.4,452.3,313.1,454.7z"/>
		<polyline class="st25" points="253.9,528.4 267.9,522.4 262.5,536.7 253.9,528.4 		"/>
		<path class="st25" d="M261.8,537.4c-2.3,2.4-6.1,2.5-8.5,0.2s-2.5-6.1-0.2-8.5s6.1-2.5,8.5-0.2l0,0
			C264,531.2,264.1,535,261.8,537.4z"/>
		<polyline class="st25" points="196.7,504.3 210.7,498.4 205.4,512.6 196.7,504.3 		"/>
		<path class="st25" d="M204.7,513.4c-2.3,2.4-6.1,2.5-8.5,0.2s-2.5-6.1-0.2-8.5s6.1-2.5,8.5-0.2l0,0
			C206.9,507.2,207,511,204.7,513.4z"/>
		<polyline class="st25" points="190.9,434.9 204.9,428.9 199.6,443.2 190.9,434.9 		"/>
		<path class="st25" d="M198.8,443.9c-2.3,2.4-6.1,2.5-8.5,0.2s-2.5-6.1-0.2-8.5s6.1-2.5,8.5-0.2l0,0
			C201,437.7,201.1,441.5,198.8,443.9z"/>
		<polyline class="st25" points="206.1,564.9 220.1,558.9 214.8,573.1 206.1,564.9 		"/>
		<path class="st25" d="M214,573.8c-2.3,2.4-6.1,2.5-8.5,0.2s-2.5-6.1-0.2-8.5s6.1-2.5,8.5-0.2l0,0
			C216.2,567.7,216.3,571.5,214,573.8z"/>
		<polyline class="st25" points="126,605.3 140,599.3 134.6,613.6 126,605.3 		"/>
		<path class="st25" d="M133.9,614.3c-2.3,2.4-6.1,2.5-8.5,0.2s-2.5-6.1-0.2-8.5s6.1-2.5,8.5-0.2l0,0
			C136.1,608.1,136.2,611.9,133.9,614.3z"/>
		<polyline class="st25" points="265.9,575.7 279.9,569.7 274.5,584 265.9,575.7 		"/>
		<path class="st25" d="M273.8,584.7c-2.3,2.4-6.1,2.5-8.5,0.2s-2.5-6.1-0.2-8.5s6.1-2.5,8.5-0.2l0,0
			C276,578.5,276.1,582.3,273.8,584.7z"/>
		<polyline class="st25" points="623.7,383.1 637.8,377.1 632.4,391.4 623.7,383.1 		"/>
		<path class="st25" d="M631.7,392.1c-2.3,2.4-6.1,2.5-8.5,0.2s-2.5-6.1-0.2-8.5s6.1-2.5,8.5-0.2l0,0
			C633.9,385.9,634,389.7,631.7,392.1z"/>
		<polyline class="st25" points="666.9,377.1 680.9,371.1 675.5,385.4 666.9,377.1 		"/>
		<path class="st25" d="M674.8,386.1c-2.3,2.4-6.1,2.5-8.5,0.2s-2.5-6.1-0.2-8.5s6.1-2.5,8.5-0.2l0,0
			C677,379.9,677.1,383.7,674.8,386.1z"/>
		<polyline class="st25" points="615.5,459.8 629.6,453.8 624.2,468.1 615.5,459.8 		"/>
		<path class="st25" d="M623.5,468.8c-2.3,2.4-6.1,2.5-8.5,0.2s-2.5-6.1-0.2-8.5s6.1-2.5,8.5-0.2l0,0
			C625.7,462.6,625.8,466.4,623.5,468.8z"/>
		<polyline class="st25" points="558.4,435.8 572.4,429.8 567.1,444 558.4,435.8 		"/>
		<path class="st25" d="M566.3,444.8c-2.3,2.4-6.1,2.5-8.5,0.2s-2.5-6.1-0.2-8.5s6.1-2.5,8.5-0.2l0,0
			C568.5,438.6,568.6,442.4,566.3,444.8z"/>
		<polyline class="st25" points="552.6,366.3 566.6,360.3 561.2,374.6 552.6,366.3 		"/>
		<path class="st25" d="M560.5,375.3c-2.3,2.4-6.1,2.5-8.5,0.2s-2.5-6.1-0.2-8.5s6.1-2.5,8.5-0.2l0,0
			C562.7,369.1,562.8,372.9,560.5,375.3z"/>
		<polyline class="st25" points="567.8,496.3 581.8,490.3 576.4,504.5 567.8,496.3 		"/>
		<path class="st25" d="M575.7,505.3c-2.3,2.4-6.1,2.5-8.5,0.2s-2.5-6.1-0.2-8.5s6.1-2.5,8.5-0.2l0,0
			C577.9,499.1,578,502.9,575.7,505.3z"/>
		<polyline class="st25" points="627.5,507.1 641.5,501.1 636.2,515.4 627.5,507.1 		"/>
		<path class="st25" d="M635.5,516.1c-2.3,2.4-6.1,2.5-8.5,0.2s-2.5-6.1-0.2-8.5s6.1-2.5,8.5-0.2l0,0
			C637.7,509.9,637.8,513.7,635.5,516.1z"/>
		<polyline class="st25" points="1031.9,395.9 1045.9,389.9 1040.6,404.2 1031.9,395.9 		"/>
		<path class="st25" d="M1039.8,404.9c-2.3,2.4-6.1,2.5-8.5,0.2s-2.5-6.1-0.2-8.5s6.1-2.5,8.5-0.2l0,0
			C1042,398.7,1042.1,402.5,1039.8,404.9z"/>
		<polyline class="st25" points="1075,389.9 1089,383.9 1083.7,398.2 1075,389.9 		"/>
		<path class="st25" d="M1083,398.9c-2.3,2.4-6.1,2.5-8.5,0.2s-2.5-6.1-0.2-8.5s6.1-2.5,8.5-0.2l0,0
			C1085.2,392.7,1085.3,396.5,1083,398.9z"/>
		<polyline class="st25" points="1023.7,472.6 1037.7,466.6 1032.4,480.8 1023.7,472.6 		"/>
		<path class="st25" d="M1031.6,481.6c-2.3,2.4-6.1,2.5-8.5,0.2s-2.5-6.1-0.2-8.5s6.1-2.5,8.5-0.2l0,0
			C1033.8,475.4,1033.9,479.2,1031.6,481.6z"/>
		<polyline class="st25" points="966.5,448.5 980.5,442.5 975.2,456.8 966.5,448.5 		"/>
		<path class="st25" d="M974.5,457.5c-2.3,2.4-6.1,2.5-8.5,0.2s-2.5-6.1-0.2-8.5s6.1-2.5,8.5-0.2l0,0
			C976.7,451.3,976.8,455.1,974.5,457.5z"/>
		<polyline class="st25" points="960.7,379 974.7,373 969.4,387.3 960.7,379 		"/>
		<path class="st25" d="M968.7,388c-2.3,2.4-6.1,2.5-8.5,0.2s-2.5-6.1-0.2-8.5s6.1-2.5,8.5-0.2l0,0C970.9,381.8,971,385.6,968.7,388
			z"/>
		<polyline class="st25" points="975.9,509 989.9,503 984.6,517.3 975.9,509 		"/>
		<path class="st25" d="M983.9,518c-2.3,2.4-6.1,2.5-8.5,0.2s-2.5-6.1-0.2-8.5c2.3-2.4,6.1-2.5,8.5-0.2l0,0
			C986.1,511.8,986.1,515.6,983.9,518z"/>
		<polyline class="st25" points="1035.7,519.9 1049.7,513.9 1044.3,528.2 1035.7,519.9 		"/>
		<path class="st25" d="M1043.6,528.9c-2.3,2.4-6.1,2.5-8.5,0.2s-2.5-6.1-0.2-8.5s6.1-2.5,8.5-0.2l0,0
			C1045.8,522.7,1045.9,526.5,1043.6,528.9z"/>
		<polyline class="st25" points="978.4,106.5 992.4,100.6 987,114.8 978.4,106.5 		"/>
		<path class="st25" d="M986.3,115.5c-2.3,2.4-6.1,2.5-8.5,0.2s-2.5-6.1-0.2-8.5s6.1-2.5,8.5-0.2l0,0
			C988.5,109.3,988.6,113.1,986.3,115.5z"/>
		<polyline class="st25" points="1021.5,100.6 1035.5,94.6 1030.1,108.8 1021.5,100.6 		"/>
		<path class="st25" d="M1029.4,109.5c-2.3,2.4-6.1,2.5-8.5,0.2s-2.5-6.1-0.2-8.5s6.1-2.5,8.5-0.2l0,0
			C1031.6,103.4,1031.7,107.2,1029.4,109.5z"/>
		<polyline class="st25" points="970.2,183.2 984.2,177.3 978.8,191.5 970.2,183.2 		"/>
		<path class="st25" d="M978.1,192.2c-2.3,2.4-6.1,2.5-8.5,0.2s-2.5-6.1-0.2-8.5s6.1-2.5,8.5-0.2l0,0
			C980.3,186,980.4,189.8,978.1,192.2z"/>
		<polyline class="st25" points="913,159.2 927,153.2 921.7,167.5 913,159.2 		"/>
		<path class="st25" d="M920.9,168.2c-2.3,2.4-6.1,2.5-8.5,0.2s-2.5-6.1-0.2-8.5s6.1-2.5,8.5-0.2l0,0
			C923.2,162,923.2,165.8,920.9,168.2z"/>
		<polyline class="st25" points="907.2,89.7 921.2,83.7 915.8,98 907.2,89.7 		"/>
		<path class="st25" d="M915.1,98.7c-2.3,2.4-6.1,2.5-8.5,0.2s-2.5-6.1-0.2-8.5s6.1-2.5,8.5-0.2l0,0
			C917.3,92.5,917.4,96.3,915.1,98.7z"/>
		<polyline class="st25" points="922.4,219.7 936.4,213.7 931.1,228 922.4,219.7 		"/>
		<path class="st25" d="M930.3,228.7c-2.3,2.4-6.1,2.5-8.5,0.2s-2.5-6.1-0.2-8.5s6.1-2.5,8.5-0.2l0,0
			C932.5,222.5,932.6,226.3,930.3,228.7z"/>
		<polyline class="st25" points="982.1,230.5 996.2,224.6 990.8,238.8 982.1,230.5 		"/>
		<path class="st25" d="M990.1,239.5c-2.3,2.4-6.1,2.5-8.5,0.2s-2.5-6.1-0.2-8.5s6.1-2.5,8.5-0.2l0,0
			C992.3,233.4,992.4,237.1,990.1,239.5z"/>
		<polyline class="st25" points="823.3,103.1 837.3,97.1 832,111.4 823.3,103.1 		"/>
		<path class="st25" d="M831.3,112.1c-2.3,2.4-6.1,2.5-8.5,0.2s-2.5-6.1-0.2-8.5s6.1-2.5,8.5-0.2l0,0
			C833.5,105.9,833.6,109.7,831.3,112.1z"/>
		<polyline class="st25" points="866.4,97.1 880.5,91.1 875.1,105.4 866.4,97.1 		"/>
		<path class="st25" d="M874.4,106.1c-2.3,2.4-6.1,2.5-8.5,0.2s-2.5-6.1-0.2-8.5s6.1-2.5,8.5-0.2l0,0
			C876.6,99.9,876.7,103.7,874.4,106.1z"/>
		<polyline class="st25" points="815.1,179.8 829.1,173.8 823.8,188.1 815.1,179.8 		"/>
		<path class="st25" d="M823.1,188.8c-2.3,2.4-6.1,2.5-8.5,0.2s-2.5-6.1-0.2-8.5s6.1-2.5,8.5-0.2l0,0
			C825.3,182.6,825.4,186.4,823.1,188.8z"/>
		<polyline class="st25" points="1128.3,241.4 1142.4,235.5 1137,249.7 1128.3,241.4 		"/>
		<path class="st25" d="M1136.3,250.4c-2.3,2.4-6.1,2.5-8.5,0.2s-2.5-6.1-0.2-8.5s6.1-2.5,8.5-0.2l0,0
			C1138.5,244.3,1138.6,248.1,1136.3,250.4z"/>
		<polyline class="st25" points="1120.2,318.1 1134.2,312.2 1128.8,326.4 1120.2,318.1 		"/>
		<path class="st25" d="M1128.1,327.1c-2.3,2.4-6.1,2.5-8.5,0.2s-2.5-6.1-0.2-8.5s6.1-2.5,8.5-0.2l0,0
			C1130.3,320.9,1130.4,324.7,1128.1,327.1z"/>
		<polyline class="st25" points="1152.8,220.7 1166.8,214.7 1161.5,229 1152.8,220.7 		"/>
		<path class="st25" d="M1160.7,229.7c-2.3,2.4-6.1,2.5-8.5,0.2s-2.5-6.1-0.2-8.5s6.1-2.5,8.5-0.2l0,0
			C1162.9,223.5,1163,227.3,1160.7,229.7z"/>
		<polyline class="st25" points="1063.1,164.6 1077.1,158.6 1071.8,172.9 1063.1,164.6 		"/>
		<path class="st25" d="M1071.1,173.6c-2.3,2.4-6.1,2.5-8.5,0.2s-2.5-6.1-0.2-8.5s6.1-2.5,8.5-0.2l0,0
			C1073.3,167.4,1073.4,171.2,1071.1,173.6z"/>
		<polyline class="st25" points="1054.9,241.3 1068.9,235.3 1063.6,249.6 1054.9,241.3 		"/>
		<path class="st25" d="M1062.9,250.3c-2.3,2.4-6.1,2.5-8.5,0.2s-2.5-6.1-0.2-8.5s6.1-2.5,8.5-0.2l0,0
			C1065.1,244.1,1065.2,247.9,1062.9,250.3z"/>
		<polyline class="st25" points="758,155.8 772,149.8 766.6,164 758,155.8 		"/>
		<path class="st25" d="M765.9,164.8c-2.3,2.4-6.1,2.5-8.5,0.2s-2.5-6.1-0.2-8.5s6.1-2.5,8.5-0.2l0,0
			C768.1,158.6,768.2,162.4,765.9,164.8z"/>
		<polyline class="st25" points="752.1,86.3 766.2,80.3 760.8,94.6 752.1,86.3 		"/>
		<path class="st25" d="M760.1,95.3c-2.3,2.4-6.1,2.5-8.5,0.2s-2.5-6.1-0.2-8.5s6.1-2.5,8.5-0.2l0,0
			C762.3,89.1,762.4,92.9,760.1,95.3z"/>
		<polyline class="st25" points="767.3,216.3 781.3,210.3 776,224.6 767.3,216.3 		"/>
		<path class="st25" d="M775.3,225.3c-2.3,2.4-6.1,2.5-8.5,0.2s-2.5-6.1-0.2-8.5s6.1-2.5,8.5-0.2l0,0
			C777.5,219.1,777.6,222.9,775.3,225.3z"/>
		<polyline class="st25" points="827.1,227.1 841.1,221.1 835.8,235.4 827.1,227.1 		"/>
		<path class="st25" d="M835.1,236.1c-2.3,2.4-6.1,2.5-8.5,0.2s-2.5-6.1-0.2-8.5s6.1-2.5,8.5-0.2l0,0
			C837.3,229.9,837.3,233.7,835.1,236.1z"/>
		<polyline class="st25" points="437.5,77.9 451.5,71.9 446.2,86.2 437.5,77.9 		"/>
		<path class="st25" d="M445.4,86.9c-2.3,2.4-6.1,2.5-8.5,0.2s-2.5-6.1-0.2-8.5s6.1-2.5,8.5-0.2l0,0
			C447.6,80.7,447.7,84.5,445.4,86.9z"/>
		<polyline class="st25" points="480.6,71.9 494.6,65.9 489.3,80.2 480.6,71.9 		"/>
		<path class="st25" d="M488.6,80.9c-2.3,2.4-6.1,2.5-8.5,0.2s-2.5-6.1-0.2-8.5s6.1-2.5,8.5-0.2l0,0
			C490.8,74.7,490.9,78.5,488.6,80.9z"/>
		<polyline class="st25" points="429.3,154.6 443.3,148.6 438,162.9 429.3,154.6 		"/>
		<path class="st25" d="M437.3,163.6c-2.3,2.4-6.1,2.5-8.5,0.2s-2.5-6.1-0.2-8.5s6.1-2.5,8.5-0.2l0,0
			C439.5,157.4,439.5,161.2,437.3,163.6z"/>
		<polyline class="st25" points="232.7,357.2 246.7,351.3 241.4,365.5 232.7,357.2 		"/>
		<path class="st25" d="M240.7,366.2c-2.3,2.4-6.1,2.5-8.5,0.2c-2.4-2.3-2.5-6.1-0.2-8.5s6.1-2.5,8.5-0.2l0,0
			C242.9,360,242.9,363.8,240.7,366.2z"/>
		<polyline class="st25" points="226.9,287.8 240.9,281.8 235.6,296 226.9,287.8 		"/>
		<path class="st25" d="M234.8,296.8c-2.3,2.4-6.1,2.5-8.5,0.2c-2.4-2.3-2.5-6.1-0.2-8.5s6.1-2.5,8.5-0.2l0,0
			C237,290.6,237.1,294.4,234.8,296.8z"/>
		<polyline class="st25" points="161.7,373.7 175.7,367.7 170.4,382 161.7,373.7 		"/>
		<path class="st25" d="M169.6,382.7c-2.3,2.4-6.1,2.5-8.5,0.2c-2.4-2.3-2.5-6.1-0.2-8.5s6.1-2.5,8.5-0.2l0,0
			C171.8,376.5,171.9,380.3,169.6,382.7z"/>
		<polyline class="st25" points="204.8,367.7 218.8,361.8 213.5,376 204.8,367.7 		"/>
		<path class="st25" d="M212.8,376.7c-2.3,2.4-6.1,2.5-8.5,0.2c-2.4-2.3-2.5-6.1-0.2-8.5s6.1-2.5,8.5-0.2l0,0
			C215,370.5,215.1,374.3,212.8,376.7z"/>
		<polyline class="st25" points="90.5,356.9 104.5,350.9 99.2,365.2 90.5,356.9 		"/>
		<path class="st25" d="M98.5,365.9c-2.3,2.4-6.1,2.5-8.5,0.2c-2.4-2.3-2.5-6.1-0.2-8.5s6.1-2.5,8.5-0.2l0,0
			C100.7,359.7,100.8,363.5,98.5,365.9z"/>
		<polyline class="st25" points="66,309.6 80,303.6 74.7,317.9 66,309.6 		"/>
		<path class="st25" d="M74,318.6c-2.3,2.4-6.1,2.5-8.5,0.2c-2.4-2.3-2.5-6.1-0.2-8.5c2.3-2.4,6.1-2.5,8.5-0.2l0,0
			C76.2,312.4,76.2,316.2,74,318.6z"/>
		<polyline class="st25" points="366.3,61.1 380.3,55.1 375,69.3 366.3,61.1 		"/>
		<path class="st25" d="M374.3,70c-2.3,2.4-6.1,2.5-8.5,0.2s-2.5-6.1-0.2-8.5s6.1-2.5,8.5-0.2l0,0C376.5,63.9,376.6,67.7,374.3,70z"
			/>
		<polyline class="st25" points="256.1,42.3 270.1,36.3 264.8,50.5 256.1,42.3 		"/>
		<path class="st25" d="M264,51.3c-2.3,2.4-6.1,2.5-8.5,0.2s-2.5-6.1-0.2-8.5s6.1-2.5,8.5-0.2l0,0C266.2,45.1,266.3,48.9,264,51.3z"
			/>
		<polyline class="st25" points="299.2,36.3 313.2,30.3 307.9,44.6 299.2,36.3 		"/>
		<path class="st25" d="M307.2,45.3c-2.3,2.4-6.1,2.5-8.5,0.2s-2.5-6.1-0.2-8.5s6.1-2.5,8.5-0.2l0,0
			C309.4,39.1,309.4,42.9,307.2,45.3z"/>
		<polyline class="st25" points="184.9,25.4 198.9,19.4 193.6,33.7 184.9,25.4 		"/>
		<path class="st25" d="M192.8,34.4c-2.3,2.4-6.1,2.5-8.5,0.2s-2.5-6.1-0.2-8.5s6.1-2.5,8.5-0.2l0,0C195,28.2,195.1,32,192.8,34.4z"
			/>
		<path class="st25" d="M89.3,642.5c-2.5,2.4-4.8,7-2.3,10.2c4,4.8,10.2,0.5,14.3-1.4c10.1-4.7,22.9,2.8,32.2-3.1
			c2.2-1.4,3.6-4.1,6.1-5.6c1.8-1.1,4-1.4,6-2.6c5.9-3.7,3-6.3-2.9-6.5c-5.7-0.2-10.6,2.4-15.9,1.1c-4.9-1.2-7.5-3.6-13-2.1
			C105.1,634.8,96.1,637.1,89.3,642.5z"/>
		<path class="st25" d="M619.8,649.7c6.4,3.8,29.5-3.1,32.2,2.2c3.9,7.7-7.3,6.2-11.2,5.9c-7.5-0.6-18.4,0.9-25.3-1.5
			C614.6,653.4,616.3,650.9,619.8,649.7z"/>
		<path class="st26" d="M531.2,487.8c2,6.1,0.2,11.6-3.2,15c-2.4,2.4-7.8,3.6-13.7,3.1c-3.6,11.3-17.8,19.7-34.7,19.7
			c-12.4,0-23.3-4.5-29.7-11.3c-6.4,6.8-17.3,11.3-29.7,11.3c-19.6,0-35.6-11.3-35.6-25.3V500c-3.7,0.3-7.5-0.8-10.4-3.2
			c-5.1-4.5-5.9-12.4-2.8-20.4c-4.8-5.4-7.6-11.7-7.6-18.5c0-10.7,6.8-20.2,17.5-26.6c-6-8.4-9.1-18.3-9.1-27
			c0-15.3,14-28.3,33.5-33.1c8.5-11,25.1-18.4,44.2-18.4c17.1,0,32.1,6,41.2,15.1c4.4-1.7,9.8-1.8,12-1c2.1,0.8,5.3,4.4,7.4,8.6
			C526,382,534.9,396,534.9,410c0,6.2-2.3,13.6-6.4,20.8c11.6,3.1,20.2,14,20.2,27C548.9,469.9,541.5,482.8,531.2,487.8z"/>
		<path class="st27" d="M456.4,513.9c0,0,0.5,135.1,3.4,136.4c0,0-8.2,3.7-15.6,0l2.1-137.4L456.4,513.9z"/>
		<path class="st26" d="M979.2,370.4c2,6.3,0.2,12-3.3,15.5c-2.5,2.5-8,3.7-14.1,3.2c-3.7,11.6-18.3,20.3-35.8,20.3
			c-12.8,0-24.1-4.6-30.7-11.7c-6.6,7-17.8,11.7-30.6,11.7c-20.3,0-36.7-11.7-36.7-26.1V383c-3.9,0.4-7.7-0.8-10.7-3.3
			c-5.3-4.6-6.1-12.8-2.9-21c-5-5.5-7.8-12.1-7.8-19.1c0-11,7-20.9,18.1-27.5c-6.2-8.6-9.4-18.9-9.4-27.9
			c0-15.8,14.5-29.2,34.6-34.1c8.8-11.3,25.9-19,45.6-19c17.6,0,33.2,6.1,42.6,15.5c4.6-1.8,10.1-1.8,12.4-1
			c2.1,0.8,5.5,4.5,7.7,8.9c16,6.8,25.2,21.1,25.2,35.7c0,6.4-2.4,14.1-6.6,21.5c12,3.2,20.9,14.5,20.9,27.9
			C997.5,351.9,989.9,365.2,979.2,370.4z"/>
		<path class="st28" d="M898.3,398.7c0,0,0.8,232.5,5.8,234.8c0,0-14.1,6.4-26.8,0l3.6-236.6L898.3,398.7z"/>
		<path class="st29" d="M865.5,686.3L865.5,686.3c-1,0.7-2.2,1.1-3.4,1.1h-11c-1.1,0-2.2-0.3-3.2-0.9l-0.2-0.1
			c-1.9-1.3-2.9-3.6-2.5-5.8l5.4-31.8c0.3-2,2-3.4,4-3.3h4.2c2,0,3.6,1.5,3.9,3.4l5.1,31.9C868.1,682.8,867.2,685,865.5,686.3z"/>
		<rect x="853.4" y="480.1" class="st29" width="6.1" height="170.9"/>
		<rect x="834.9" y="429.7" class="st29" width="44.3" height="4.7"/>
		<rect x="844.1" y="470.1" class="st29" width="26" height="2.4"/>
		<polygon class="st29" points="865.6,471.3 846.8,471.3 841.7,432.9 871.4,432.9 		"/>
		<polygon class="st30" points="857.6,434.5 857.6,469.3 864.3,469.3 869,434.5 		"/>
		<polygon class="st31" points="855.4,434.5 855.4,469.3 848.7,469.3 844,434.5 		"/>
		<path class="st29" d="M858.9,481.2c0,0,9.6-9.5,9.2-9.4c-0.3,0.1-22.4,0-22.4,0l9.2,9.9L858.9,481.2z"/>
		<path class="st29" d="M874.6,431.1c-0.2-0.2-11.7-10.7-16-14.6c-0.9-0.8-2.3-0.8-3.3,0l-17.1,14.6H874.6z"/>
		
			<linearGradient id="SVGID_18_" gradientUnits="userSpaceOnUse" x1="746.05" y1="2191.73" x2="746.05" y2="2175.6599" gradientTransform="matrix(1 0 0 1 0 -1527.26)">
			<stop  offset="0.38" style="stop-color:#A1510F"/>
			<stop  offset="1" style="stop-color:#BE9269"/>
		</linearGradient>
		<polygon class="st32" points="677,644 815.1,644 808.3,661.4 682.1,661.4 		"/>
		<rect x="685.5" y="665.4" class="st33" width="125" height="5.2"/>
		<path class="st34" d="M803.5,684.9c0,0-3.5-28.3,4.2-33.8h-7.1c0,0-4.8,18.7-1.6,33.8H803.5z"/>
		<path class="st34" d="M689.7,684.9c0,0,3.6-28.3-4.2-33.8h7.1c0,0,4.8,18.7,1.6,33.8H689.7z"/>
		
			<linearGradient id="SVGID_19_" gradientUnits="userSpaceOnUse" x1="245.35" y1="2191.73" x2="245.35" y2="2175.6599" gradientTransform="matrix(1 0 0 1 0 -1527.26)">
			<stop  offset="0.38" style="stop-color:#A1510F"/>
			<stop  offset="1" style="stop-color:#BE9269"/>
		</linearGradient>
		<polygon class="st35" points="176.3,644 314.4,644 307.6,661.4 181.4,661.4 		"/>
		<rect x="184.8" y="665.4" class="st33" width="124.9" height="5.2"/>
		<path class="st34" d="M302.8,684.9c0,0-3.5-28.3,4.2-33.8h-7.1c0,0-4.8,18.7-1.6,33.8H302.8z"/>
		<path class="st34" d="M189,684.9c0,0,3.5-28.3-4.2-33.8h7.1c0,0,4.8,18.7,1.6,33.8H189z"/>
	</g>
	<g id="Layer_11">
		<path class="st13" d="M671,47.1c1,2.7,1.5,5.6,1.6,8.4c0,0.6-0.1,1.3-0.4,1.9l-0.6,1.8l-1.1,3.6L666,77.4l-9.1,29.1l-9.2,29
			l-9.3,29l0.1-3l6.4,24.2l6.3,24.2l6.3,24.3l6.2,24.3l1,3.9l-3.4,2.1c-8.4,5.3-16.8,10.7-25.2,16s-16.8,10.6-25.3,15.9l-1.6,1
			l-1.7-0.2l-22.3-3.2l-22.3-3.3l-22.3-3.5l-11.1-1.7l-11.1-1.8l1.9-0.5l-10,7.8c-3.3,2.6-6.7,5.1-10.1,7.7s-6.7,5.2-10.1,7.7
			s-6.8,5.1-10.2,7.6c3-2.9,6.2-5.8,9.2-8.7s6.2-5.8,9.3-8.6s6.2-5.8,9.3-8.6l9.4-8.5l0.7-0.6l1.2,0.1l11.2,1l11.2,1l22.4,2.1
			l22.4,2.3l22.4,2.4l-3.3,0.8c8.3-5.5,16.6-11.1,24.9-16.6c8.3-5.5,16.6-11,24.9-16.4l-2.4,6l-6.4-24.2l-6.3-24.3l-6.2-24.3
			l-6.1-24.3l-0.4-1.6l0.5-1.5l9.7-28.8l9.8-28.8l9.9-28.8l5-14.4l1.3-3.6l0.6-1.8c0.2-0.6,0.4-1.2,0.8-1.7
			C666.8,51,668.8,48.9,671,47.1z"/>
		<path class="st13" d="M731.2,456.8c-9.3-5.1-18.6-10.4-27.9-15.7c-4.6-2.7-9.2-5.3-13.8-8l-13.8-8l-3.7-2.2l3.5-3l13.1-11.4
			l6.5-5.7l6.6-5.6l13.1-11.3c4.4-3.8,8.8-7.5,13.2-11.2l-0.3,7.8l-25.8-23.8c-8.6-7.9-17.1-15.9-25.5-24c-4.2-4-8.4-8.1-12.6-12.2
			l-6.3-6.2l-6.2-6.2c-8.3-8.3-16.4-16.6-24.4-25.2l-3.4-3.6l3.2-1.8l11-6.3l-5.3,11.6l-0.2-5.4c9,7.5,17.7,15.3,26.4,23.1l6.5,5.9
			l6.4,5.9c4.3,4,8.6,7.9,12.8,11.9c8.5,8,16.9,16.1,25.3,24.2l25,24.5l4.3,4.2l-4.6,3.6c-4.6,3.5-9.1,7.1-13.7,10.6L707,403.9
			l-6.9,5.3l-6.9,5.2l-13.8,10.4l-0.3-5.2l13.1,9.2c4.4,3,8.7,6.1,13,9.2C713.9,444.2,722.6,450.4,731.2,456.8z"/>
		<path class="st13" d="M652.8,122.8l0.1-14.8l0,0c-0.1-0.9-0.2-1.8-0.2-2.7c0-0.9-0.1-1.8-0.1-2.7v-2.7v-1.4l0.1-1.3l0.2-5l4.6,3.2
			L702,126l44.5,30.9l1.8,1.3l0.1,2.3l0.9,15.7l0.8,15.7l0.8,15.7l0.7,15.7l-5.9-5.3c8-0.7,16.1-1.3,24.1-2s16.1-1.3,24.1-1.9
			l-3.7,1.8c4.8-5.2,9.6-10.3,14.5-15.5c4.8-5.1,9.7-10.3,14.6-15.4l1-1.1l1.3-0.4c8.2-2.3,16.3-4.6,24.5-6.9
			c8.2-2.3,16.4-4.5,24.6-6.7c8.2-2.2,16.4-4.4,24.6-6.5c8.2-2.1,16.4-4.3,24.7-6.4l2.1-0.5l0.9,1.6c4,7.1,8,14,11.9,21.1
			s7.8,14.2,11.6,21.3c-4.8-6.5-9.5-13.1-14.2-19.7s-9.3-13.3-13.9-19.9l3,1.1c-8,2.8-16.1,5.5-24.2,8.2s-16.1,5.4-24.2,8
			c-8.1,2.6-16.2,5.3-24.3,7.8s-16.2,5.2-24.3,7.7l2.4-1.5c-4.7,5.3-9.5,10.5-14.3,15.7s-9.5,10.4-14.3,15.6l-1.5,1.7l-2.2,0.2
			c-8,0.6-16.1,1.3-24.1,1.9c-8,0.6-16.1,1.2-24.1,1.7l-5.8,0.4l-0.2-5.7l-0.4-15.8l-0.3-15.7l-0.3-15.8l-0.2-15.8l1.9,3.5
			l-43.8-31.9l-43.6-32.1l4.8-1.8l-0.5,1.2l-0.6,1.2l-1.2,2.4c-0.4,0.8-0.9,1.6-1.3,2.4c-0.5,0.8-1,1.6-1.4,2.3l0,0L652.8,122.8z"/>
		<ellipse class="st17" cx="665.1" cy="56.5" rx="17.7" ry="10.6"/>
	</g>
	<g id="Layer_11_1_">
		<path class="st13" d="M323.5,56.2c0.3,0.5,0.5,1.1,0.6,1.7l0.5,1.8l1,3.6l3.9,14.3l7.7,28.5l7.6,28.5l7.5,28.5l0.4,1.5l-0.3,1.6
			l-4.7,24.1l-4.8,24.1l-4.9,24.1l-5,24l-1.9-5.9c6.4,5.3,12.9,10.8,19.3,16.2c6.4,5.4,12.9,11,19.3,16.4l-2.6-0.8l17.3-2.4
			l17.3-2.3l17.3-2.1l8.7-1l8.7-1l0.9-0.1l0.5,0.6l7.3,8.4c2.4,2.8,4.8,5.7,7.2,8.5c2.4,2.8,4.9,5.6,7.2,8.5
			c2.3,2.9,4.8,5.7,7.1,8.6c-2.6-2.5-5.3-5-7.9-7.5c-2.6-2.5-5.2-5-7.8-7.6c-2.6-2.6-5.3-5-7.8-7.6l-7.7-7.7l1.5,0.5l-8.6,1.8
			l-8.6,1.7l-17.3,3.5l-17.3,3.3l-17.3,3.2l-1.3,0.2l-1.2-1c-6.6-5.2-13.1-10.5-19.6-15.7c-6.5-5.2-13-10.6-19.5-15.8l-2.6-2.1
			l0.8-3.9l4.8-24.1l4.9-24.1l4.9-24l5-24l0.1,3l-7.2-28.7l-7.1-28.7l-7-28.8l-3.5-14.5l-0.9-3.6l-0.5-1.8c-0.2-0.6-0.3-1.3-0.3-1.9
			c0.1-2.8,0.5-5.6,1.2-8.3C320.5,51.5,322.1,53.6,323.5,56.2z"/>
		<path class="st13" d="M292.3,436.7c3.3-3.1,6.7-6.1,10.1-9.1l10.1-9.1l-0.2,5.1l-10.7-10.3l-5.3-5.1l-5.3-5.2l-10.5-10.5
			c-3.6-3.5-7-7-10.6-10.5l-3.6-3.6l3.3-4.2l19.4-24.3c6.5-8,13-16,19.6-24c3.3-4,6.6-7.8,9.9-11.8l5-5.8l5-5.8
			c6.7-7.7,13.5-15.4,20.4-22.9l-0.2,5.3l-4.1-11.5l8.5,6.2l2.5,1.8l-2.6,3.6c-6.2,8.5-12.5,16.7-18.9,24.9l-4.8,6.1l-4.9,6.1
			c-3.3,4.1-6.5,8.1-9.8,12.1c-6.5,8-13.1,15.9-19.7,23.8l-20,23.6l-0.2-7.7c3.4,3.7,6.8,7.3,10.2,11.1l10.1,11.2l5.1,5.5l5,5.6
			l10.1,11.3l2.7,3l-2.9,2.2l-10.7,7.9c-3.6,2.7-7.1,5.2-10.7,7.9c-7.2,5.2-14.4,10.5-21.6,15.5C278.9,449,285.6,442.8,292.3,436.7z
			"/>
		<path class="st13" d="M332.4,109.8L332.4,109.8c-0.3-0.7-0.7-1.5-1.1-2.3c-0.3-0.8-0.7-1.6-1-2.4l-0.9-2.4l-0.5-1.2l-0.4-1.2
			l3.7,1.8L298.5,134l-66.1,61.5l-1.8-3.3l12.2,9.7l12.2,9.8l12.1,9.7l12.1,9.9l4.4,3.6l-3.1,3.3c-4.2,4.6-8.5,9.2-12.8,13.7
			c-4.3,4.5-8.7,9-13,13.6l-1.2,1.2l-2-0.1c-6.3-0.2-12.6-0.5-19-0.8c-6.3-0.2-12.7-0.5-19.1-0.8l2.3-0.6
			c-5.8,3.4-11.8,6.7-17.6,10.1s-11.8,6.7-17.7,10.1c-5.9,3.4-11.8,6.6-17.8,9.9c-6,3.3-11.9,6.6-17.9,9.8l0.6-2.5
			c3,6.8,6,13.7,8.9,20.6c2.9,6.9,5.8,13.8,8.6,20.7c-3.7-6.6-7.4-13.3-11.1-20.1c-3.7-6.7-7.2-13.3-10.8-20.1l-0.8-1.5l1.4-1
			c5.6-3.8,11.2-7.5,16.8-11.2c5.5-3.7,11.2-7.4,16.8-11.1c5.6-3.7,11.2-7.3,16.9-10.9c5.7-3.6,11.4-7.1,17.1-10.7l0.9-0.5l1.3,0.1
			c6.3,0.1,12.7,0.3,19,0.5c6.4,0.2,12.7,0.4,19,0.6l-3.2,1.2c4.3-4.5,8.6-9.1,13-13.6c4.4-4.5,8.7-9,13-13.5l1.3,6.8l-11.9-10
			l-11.9-10.1l-11.9-10.1l-11.8-10.1l-1.7-1.5l-0.2-1.9l70.6-66.6l34.4-30.3l3.6-3.2l0.2,4.9l0.1,1.3v1.4v2.7c0,0.9-0.1,1.8-0.1,2.7
			s-0.1,1.8-0.2,2.7l0,0l0.1,14.7L332.4,109.8z"/>
		<ellipse class="st17" cx="323.4" cy="59" rx="13.7" ry="10.5"/>
	</g>
</g>
</svg>
