<?xml version="1.0" encoding="utf-8"?>
<!-- Generator: Adobe Illustrator 24.0.2, SVG Export Plug-In . SVG Version: 6.00 Build 0)  -->
<svg version="1.1" id="Layer_1" xmlns="http://www.w3.org/2000/svg" xmlns:xlink="http://www.w3.org/1999/xlink" x="0px" y="0px"
	 viewBox="0 0 1179 709.9" style="enable-background:new 0 0 1179 709.9;" xml:space="preserve">
<style type="text/css">
	.st0{fill:#3D88D7;}
	.st1{fill:#72C7F2;}
	.st2{fill:#436F96;}
	.st3{fill:#31506C;}
	.st4{fill:#6E9CCE;}
	.st5{fill:#3376BC;}
	.st6{fill:#006837;}
	.st7{fill:#5B304C;}
	.st8{fill:#009245;}
	.st9{fill:#754C24;}
	.st10{fill:#34B226;}
	.st11{fill:#EDE606;}
	.st12{fill:#1F2B55;}
	.st13{fill:#F2D75F;}
	.st14{fill:#F5F8AC;}
	.st15{fill:url(#SVGID_1_);}
	.st16{fill:#9E4A04;}
	.st17{fill:#515153;}
	.st18{fill:url(#SVGID_2_);}
	.st19{fill:#4A5177;}
	.st20{fill:#3F6050;}
	.st21{fill:#4C6443;}
	.st22{fill:#69738B;}
	.st23{fill:#6F4D38;}
	.st24{fill:#465081;}
	.st25{fill:#D85C79;}
	.st26{fill:#FBBC8D;}
	.st27{fill:#6C4F3E;}
	.st28{fill:#434E81;}
	.st29{fill:#49507C;}
	.st30{fill:#F0BE9B;}
	.st31{fill:#F9BB8F;}
	.st32{fill:#675347;}
	.st33{fill:#C05F72;}
	.st34{fill:#CA95A4;}
	.st35{fill:#E3C09B;}
	.st36{fill:#DBB9A4;}
	.st37{fill:#C9AD9C;}
	.st38{fill:#2F636F;}
	.st39{fill:#886C73;}
	.st40{fill:#2B6573;}
	.st41{fill:#3E6C44;}
	.st42{fill:#C8CD90;}
	.st43{fill:#3B6344;}
	.st44{fill:#4A6749;}
	.st45{fill:#F5BB8E;}
	.st46{fill:#455280;}
	.st47{fill:#F0BC95;}
	.st48{fill:#774032;}
	.st49{fill:#A7B564;}
	.st50{fill:#D45F79;}
	.st51{fill:#346272;}
	.st52{fill:#B85166;}
	.st53{fill:#B97852;}
	.st54{fill:#B87B5B;}
	.st55{fill:#604E19;}
	.st56{fill:#29737B;}
	.st57{fill:#C58A71;}
	.st58{fill:#47517F;}
	.st59{fill:#AEACA8;}
	.st60{fill:#FABC8A;}
	.st61{fill:#286276;}
	.st62{fill:#2C6575;}
	.st63{fill:#2C656E;}
	.st64{fill:#2A626F;}
	.st65{fill:#306A6B;}
	.st66{fill:#FDA33A;}
	.st67{fill:#B5ABB3;}
	.st68{fill:#594F65;}
	.st69{fill:#B75167;}
	.st70{fill:#B75568;}
	.st71{fill:#535A7E;}
	.st72{fill:#B9BDC1;}
	.st73{fill:#FCB78F;}
	.st74{fill:#E07D92;}
</style>
<title>Asset 2</title>
<g id="Layer_2_1_">
	<g id="Bench">
		<path class="st0" d="M160.5,403.5c0.8,0,1.5-0.7,1.5-1.5s-0.7-1.5-1.5-1.5s-1.5,0.7-1.5,1.5S159.7,403.5,160.5,403.5z"/>
		<rect x="0.6" y="0" class="st1" width="1178.4" height="709.9"/>
		<rect x="0.6" y="601.5" class="st2" width="1178.4" height="13.7"/>
		<rect x="0.6" y="615" class="st3" width="1178.4" height="48.5"/>
		<rect x="0.6" y="663.5" class="st4" width="1178.4" height="46.4"/>
		<rect x="772.6" y="530.1" class="st5" width="84" height="71.4"/>
		<rect x="734.2" y="511.8" class="st5" width="38.4" height="89.6"/>
		<rect x="686.7" y="524.5" class="st5" width="47.5" height="76.9"/>
		<rect x="1066.3" y="545" class="st5" width="38.4" height="55.8"/>
		<rect x="1104.7" y="526.1" class="st5" width="74.3" height="76.9"/>
		<rect y="524.5" class="st5" width="80.1" height="76.9"/>
		<rect x="597.5" y="542.2" class="st0" width="89.2" height="59.2"/>
		<rect x="579.3" y="524.3" class="st0" width="18.2" height="77.1"/>
		<rect x="531.8" y="494.7" class="st0" width="47.5" height="106.7"/>
		<rect x="486.4" y="524.3" class="st5" width="45.4" height="77.1"/>
		<rect x="359.4" y="524.3" class="st5" width="54" height="77.8"/>
		<rect x="190.8" y="524" class="st5" width="54" height="77.8"/>
		<rect x="128.7" y="548.1" class="st5" width="62.1" height="54"/>
		<rect x="413.4" y="487.4" class="st0" width="72.9" height="114.1"/>
		<rect x="244.8" y="473" class="st0" width="114.5" height="128.3"/>
		<rect x="899.8" y="524" class="st5" width="54" height="77.8"/>
		<rect x="837.7" y="548.1" class="st5" width="62.1" height="54"/>
		<rect x="953.8" y="473" class="st0" width="114.5" height="128.3"/>
		<rect x="80.1" y="492.5" class="st0" width="48.6" height="109.6"/>
		<rect x="852" y="499.3" class="st0" width="49.5" height="102.2"/>
		<path class="st6" d="M530.7,486.8c2,6.1,0.2,11.6-3.2,15c-2.4,2.4-7.8,3.6-13.7,3.1c-3.6,11.3-17.8,19.7-34.7,19.7
			c-12.4,0-23.3-4.5-29.7-11.3c-6.4,6.8-17.3,11.3-29.7,11.3c-19.6,0-35.6-11.3-35.6-25.3V499c-3.7,0.3-7.5-0.8-10.4-3.2
			c-5.1-4.5-5.9-12.4-2.8-20.4c-4.8-5.4-7.6-11.7-7.6-18.5c0-10.6,6.8-20.2,17.5-26.6c-6-8.4-9.1-18.3-9.1-27
			c0-15.3,14-28.3,33.5-33.1c8.5-11,25.1-18.4,44.2-18.4c17.1,0,32.1,6,41.2,15.1c4.4-1.7,9.8-1.8,12-1c2.1,0.8,5.4,4.4,7.4,8.6
			c15.5,6.5,24.4,20.5,24.4,34.5c0,6.2-2.3,13.6-6.4,20.8c11.6,3.1,20.2,14,20.2,27C548.4,468.9,541,481.8,530.7,486.8z"/>
		<path class="st7" d="M455.9,512.9c0,0,0.5,135.1,3.4,136.4c0,0-8.2,3.7-15.6,0l2.1-137.5L455.9,512.9z"/>
		<path class="st8" d="M978.7,369.3c2.1,6.3,0.2,12-3.3,15.5c-2.5,2.5-8,3.7-14.2,3.2c-3.7,11.6-18.3,20.3-35.8,20.3
			c-12.8,0-24.1-4.6-30.7-11.7c-6.6,7.1-17.8,11.7-30.7,11.7c-20.3,0-36.7-11.7-36.7-26.1v-0.3c-3.9,0.4-7.7-0.8-10.7-3.3
			c-5.3-4.6-6.1-12.8-2.9-21c-4.9-5.5-7.8-12.1-7.8-19.1c0-11,7-20.9,18.1-27.5c-6.2-8.6-9.4-18.9-9.4-27.9
			c0-15.8,14.5-29.2,34.7-34.2c8.7-11.3,25.9-19,45.6-19c17.6,0,33.2,6.1,42.5,15.6c4.6-1.8,10.1-1.9,12.4-1
			c2.1,0.8,5.5,4.5,7.7,8.9c16,6.7,25.2,21.1,25.2,35.7c0,6.4-2.4,14.1-6.6,21.5c12,3.2,20.9,14.5,20.9,27.9
			C997,350.9,989.3,364.2,978.7,369.3z"/>
		<path class="st9" d="M897.8,397.7c0,0,0.8,232.5,5.8,234.8c0,0-14.1,6.4-26.8,0l3.6-236.6L897.8,397.7z"/>
		<path class="st10" d="M549.1,643.9c-0.1,1.2-0.9,2.3-2,2.7c-1.1,0.2-2.2,0-3.1-0.6c-1.8,2-5.4,2.4-8.8,0.8c-2.3-0.9-4.1-2.7-5-5
			c-2.3,0.8-4.8,0.7-7-0.4c-4-1.8-6.2-5.5-4.9-8.4V633c-0.8-0.3-1.4-0.9-1.8-1.6c-0.6-1.4-0.1-3,1.3-4.4c-0.5-1.5-0.4-3,0.2-4.4
			c1-2.2,3.2-3.5,6-3.8c-0.4-2.1-0.2-4.3,0.6-6.3c1.4-3.1,5.4-4.4,9.8-3.6c2.7-1.4,6.8-1.4,10.6,0.3c3.1,1.3,5.6,3.7,7,6.8
			c0.9,0,1.8,0.4,2.5,0.9c0.5,0.7,0.7,1.6,0.7,2.4c2.4,2.4,3.1,6.1,1.8,9.2c-0.7,1.5-1.9,2.7-3.2,3.6c2.1,1.8,2.8,4.8,1.6,7.3
			C554.3,642,551.8,643.6,549.1,643.9z"/>
		<path class="st10" d="M566.7,646.7c-0.5,1.1-1.7,1.8-2.9,1.8c-1.1-0.2-2-0.8-2.6-1.7c-2.4,1.1-5.9,0.1-8.5-2.6
			c-1.7-1.7-2.7-4.1-2.7-6.5c-2.4-0.1-4.7-1.2-6.3-3c-3-3.2-3.6-7.5-1.4-9.6l0,0c-0.6-0.6-1-1.3-1.1-2.2c-0.1-1.5,1.1-2.8,2.8-3.6
			c0.1-1.5,0.7-3,1.8-4c1.7-1.6,4.3-2,7-1.2c0.4-2.1,1.5-4.1,3-5.6c2.5-2.3,6.7-2.1,10.5,0.3c3.1-0.3,6.8,1.2,9.7,4.3
			c2.4,2.4,3.8,5.6,3.9,8.9c0.8,0.4,1.5,1,2,1.8c0.2,0.8,0.1,1.7-0.3,2.5c1.3,3.2,0.6,6.8-1.8,9.2c-1.2,1.1-2.7,1.8-4.3,2.2
			c1.3,2.5,0.8,5.5-1.3,7.4C572.2,646.9,569.4,647.5,566.7,646.7z"/>
		<path class="st10" d="M516.7,609.3c1-0.6,2.3-0.5,3.3,0.1c0.7,0.7,1.2,1.7,1.2,2.8c2.5,0.4,4.8,3.1,5.4,6.7c0.5,2.3,0,4.7-1.3,6.7
			c1.9,1.4,3.2,3.5,3.5,5.9c0.7,4.2-1.1,8-4.1,8.5h-0.1c0.2,0.8,0.1,1.6-0.3,2.3c-0.8,1.2-2.4,1.7-4.2,1.3c-0.9,1.2-2.2,2-3.7,2.3
			c-2.3,0.4-4.5-0.7-6.3-2.8c-1.5,1.5-3.3,2.5-5.4,2.9c-3.2,0.5-6.5-2-8.2-5.9c-2.6-1.4-4.8-4.7-5.5-8.7c-0.7-3.2,0-6.5,1.7-9.3
			c-0.5-0.8-0.7-1.6-0.6-2.5c0.3-0.8,0.9-1.4,1.6-1.9c0.7-3.2,3.2-5.8,6.4-6.4c1.6-0.2,3.2,0,4.6,0.6c0.3-2.7,2.3-4.8,5-5.3
			C512.4,606.2,515,607.2,516.7,609.3z"/>
		<path class="st10" d="M502.4,637.4c0.4,1.1,0.1,2.4-0.7,3.2c-0.9,0.6-1.9,0.8-2.9,0.7c-0.8,2.4-3.8,4.2-7.5,4.2
			c-2.4,0.1-4.7-0.8-6.4-2.4c-1.7,1.6-4,2.5-6.4,2.4c-4.2,0-7.6-2.4-7.6-5.4v0c-0.8,0.1-1.6-0.2-2.2-0.7c-1.1-1-1.3-2.7-0.6-4.4
			c-1-1.1-1.6-2.5-1.6-4c0-2.3,1.5-4.3,3.8-5.7c-1.2-1.7-1.9-3.7-2-5.8c0-3.3,3-6.1,7.2-7.1c1.8-2.4,5.4-4,9.5-4
			c3.3-0.1,6.4,1.1,8.9,3.2c0.8-0.3,1.7-0.4,2.6-0.2c0.7,0.4,1.3,1.1,1.6,1.9c3.1,1.2,5.1,4.1,5.2,7.4c-0.1,1.6-0.6,3.1-1.4,4.5
			c2.6,0.7,4.4,3.1,4.4,5.8C506.2,633.6,504.7,636.1,502.4,637.4z"/>
		<circle class="st11" cx="1066.3" cy="99" r="60"/>
		<path class="st12" d="M865,685.3L865,685.3c-1,0.7-2.2,1.1-3.4,1.1h-11c-1.1,0-2.2-0.3-3.2-0.9l-0.2-0.1c-1.9-1.3-2.9-3.6-2.5-5.8
			l5.4-31.8c0.3-2,2-3.4,4-3.3h4.2c2,0,3.6,1.4,3.9,3.4l5.1,31.9C867.7,681.8,866.8,684,865,685.3z"/>
		<rect x="852.9" y="479.1" class="st12" width="6.1" height="170.9"/>
		<rect x="834.4" y="428.7" class="st12" width="44.3" height="4.7"/>
		<rect x="843.6" y="469.1" class="st12" width="26" height="2.4"/>
		<polygon class="st12" points="865,470.3 846.2,470.3 841.2,431.9 870.8,431.9 		"/>
		<polygon class="st13" points="857,433.4 857,468.3 863.7,468.3 868.5,433.4 		"/>
		<polygon class="st14" points="854.9,433.4 854.9,468.3 848.2,468.3 843.5,433.4 		"/>
		<path class="st12" d="M858.4,480.2c0,0,9.6-9.5,9.2-9.4s-22.4,0-22.4,0l9.2,9.9L858.4,480.2z"/>
		<path class="st12" d="M874.1,430.1l-16-14.6c-0.9-0.8-2.3-0.8-3.3,0l-17.1,14.6L874.1,430.1z"/>
		
			<linearGradient id="SVGID_1_" gradientUnits="userSpaceOnUse" x1="745.515" y1="96.42" x2="745.515" y2="112.49" gradientTransform="matrix(1 0 0 -1 0 759.89)">
			<stop  offset="0.38" style="stop-color:#A1510F"/>
			<stop  offset="1" style="stop-color:#BE9269"/>
		</linearGradient>
		<polygon class="st15" points="676.4,643 814.6,643 807.8,660.4 681.6,660.4 		"/>
		<rect x="685" y="664.4" class="st16" width="125" height="5.2"/>
		<path class="st17" d="M803,683.9c0,0-3.5-28.3,4.2-33.8h-7.1c0,0-4.8,18.7-1.6,33.8H803z"/>
		<path class="st17" d="M689.2,683.9c0,0,3.5-28.3-4.2-33.8h7.1c0,0,4.8,18.7,1.6,33.8H689.2z"/>
		
			<linearGradient id="SVGID_2_" gradientUnits="userSpaceOnUse" x1="244.81" y1="96.42" x2="244.81" y2="112.49" gradientTransform="matrix(1 0 0 -1 0 759.89)">
			<stop  offset="0.38" style="stop-color:#A1510F"/>
			<stop  offset="1" style="stop-color:#BE9269"/>
		</linearGradient>
		<polygon class="st18" points="175.7,643 313.9,643 307.1,660.4 180.9,660.4 		"/>
		<rect x="184.3" y="664.4" class="st16" width="124.9" height="5.2"/>
		<path class="st17" d="M302.3,683.9c0,0-3.5-28.3,4.2-33.8h-7.1c0,0-4.8,18.7-1.6,33.8H302.3z"/>
		<path class="st17" d="M188.5,683.9c0,0,3.6-28.3-4.2-33.8h7.1c0,0,4.8,18.7,1.6,33.8H188.5z"/>
		<path class="st19" d="M727.8,622.6c-1.3,1.9-2.5,3.9-3.9,5.8c-0.7,1-1.5,2.5-3,2s-0.9-2-0.9-3.2c0-0.3,0-0.6,0-0.9
			c0.3-1.2,0.2-2.5,1.3-3.4c1.4-1.3,1.9-3.3,3.5-4.4c1.5-0.2,1.8,1.5,2.9,1.8L727.8,622.6z"/>
		<path class="st20" d="M696.5,492.7c0.9,0.9,2.2,1,3.4,1.4c3,1,3.4,1.7,2,4.8c-0.3,0.7-0.5,1.5-0.7,2.2c-0.3,0.3-0.8,0.3-1.2,0
			c0,0,0,0,0,0c0.2-5.2,0.2-5.2-4.8-6.7c-1.4-0.6-3-0.3-4.2,0.7c-0.5,0.4-1,1-1.8,0.5c0.4-1,0.9-2,1.3-3L696.5,492.7z"/>
		<path class="st21" d="M613,598.7l-1.2-0.1v-3c3.3-0.3,4.4-2.9,5.4-5.4c0.5-1.3,0.8-2.4,2.5-2.3c-0.7,3-1.7,5.8-4.2,7.9
			C614.4,596.5,613.5,597.5,613,598.7z"/>
		<path class="st22" d="M673.8,630.5c-0.1,0.2-0.1,0.4-0.1,0.6h-7.2c0.1-0.2,0.1-0.4,0-0.6C668.7,629,671.6,629,673.8,630.5z"/>
		<path class="st23" d="M613,598.7c0-0.5-0.3-1.2-0.1-1.4c3.3-2.4,4.7-6.2,6.7-9.5c6.2-0.3,6.7,0,8.6,6.2c0.5,1.3,1.1,2.7,1.8,3.9
			c-0.1,1.7-1.6,1-2.4,1.6c-0.4,0.3-0.9,0.6-0.7,1.1s0.8,0.4,1.3,0.3c1.3-0.3,2.1-1.5,3.5-1.3l1.2,1.2c1.7,0.8,3.8,0,5.5,1.3
			c3.4-0.2,6.8,0.5,10.1-0.6c1.3-0.5,2.6,0.7,4-0.2c0.6-0.4,1.7,0.3,1.6,0.9c-0.5,3.3,2.9,6.2,0.6,9.8c-1.2,2-0.6,4.6,1.6,6.4
			c0,2.4,0,4.8,0.1,7.2c0.1,1.1-0.4,2.2-1.4,2.8c-0.9,0.7-1.7,2.2-3,1s0.5-1.8,1-2.5c1.6-2,0.9-7.2-1.3-8.3c-1.4-0.7-3-1.4-3.3,1.3
			c-0.1,0.6,0.1,1.2-0.6,1.6c-3,1.7-2.5-0.9-2.9-2.4c-1.3-2.9-4.5-4.4-7.5-3.6c-4.2,0.9-4.2,0.9-3,5.2c0.4,1.5,0.9,3,1.3,4.5
			c0.4,1.4-0.4,3-1.8,3.4c-0.5,0.2-1.1,0.2-1.6,0c-0.8-0.2-1.6-0.6-0.9-1.7c2.5-3.7-0.9-6.3-2-9.4c-0.3,2.8-0.5,5.5-0.7,8.3
			c-0.1,0.9,0,2-1.1,2.2c-1.1,0.4-2.2,0.2-3.2-0.4c-0.6-0.4-0.8-1.3-0.3-1.5c2.9-1.4,1.5-4,1.7-6.1c0.1-1.9,0.1-3.8-0.1-5.7
			c-0.3-1.8-2-3-2.3-4.8c-0.5-1.5-1.8-2.9-1.3-4.7c0-0.2-0.1-0.5-0.2-0.5c-3.3,0-3.6-5-7.3-4.4C613.7,599.9,613.3,599.3,613,598.7z"
			/>
		<path class="st24" d="M687.5,601c0,1.2-0.8,2-1.3,3c-0.4,3.7-3.5,6.4-3.5,10.2c-0.5,2.3-0.3,5.1-3.6,5.5c-0.5,0.4-1.3,0.6-1.9,0.5
			c-0.3,0-0.5-0.1-0.8-0.2c-1-0.4-2.1-0.6-2.6-1.7c-0.3-1.2-0.1-2.5,0.6-3.5c0.6-2.2,0.5-4.5,1.1-6.6c-0.1-3.2,0.3-6.5,1.2-9.6
			c1.6-1.9,1.1-4.3,1.6-6.5c0.2-1-0.2-2.1,0.3-3.2c-0.3-4.9,2.1-9.3,2.1-14.2c0-4,2.1-7.7,1.1-11.9c-0.6-2.1,0.1-4.3,1.7-5.7
			c3.1,2.9,7.2,3,11,3.9c1.2,0.3,2.6,0,3.3,1.5c0.4,1.4,0.4,3,0.1,4.4c-0.1,0.6-0.4,1.2-0.3,1.7c0.5,2.3-0.4,3.8-2.6,4.6
			c-0.4,0.1-0.5,0.6-0.6,1c-0.9,4.3-0.3,8.5-0.4,12.8c0.1,0.9,0.1,1.8,0,2.7c-0.5,1.7-2.4,1.8-3.3,3c0,0.5,0.1,1-0.5,1.1
			C688.3,595.9,687.9,598.5,687.5,601z"/>
		<path class="st25" d="M697.3,562.4c-3.7-0.8-7.5-1.7-11.2-2.6c-1.4-0.3-3-0.7-2.8-2.8c0.5-2.1,0.7-4.4,0.5-6.6
			c-1.1-1.6-0.8-3.4-0.6-5.2c0.1-0.3,0.2-0.6,0.4-0.8c2.6-2.5,3.2-4.8,1.9-7.9c-0.3-0.7-0.6-1.5-0.7-2.2c0-1.2,0-2.4,0.1-3.6
			c2.3,0.5,4,2.5,4,4.9c0.1,1.7,0,3.4,0.1,5.1c0.1,4.4,4.8,5.3,8.1,4c2.3-5.6,3.9-0.1,5.8,0.3c0.1,0.3,0.2,0.7,0.2,1
			c-0.2,4.3-0.4,8.7-0.8,13c-0.1,1.1-0.1,2.2-0.9,3C700.1,562.8,698.6,562.9,697.3,562.4z"/>
		<path class="st25" d="M685.2,527.6c0.8-2.4,1.2-5,3.4-6.7c0.3-0.3,0.7-0.5,1.1-0.6c2.2-1,4.3-2.2,6.2-3.6c0.9-0.6,1.8-1.4,3-1.4
			c3,1.1,3.7,4.1,5.5,6.3l0,0c0,2.6,1.5,4.6,2.4,6.8c-1.2,0.9-2.7,0.7-4,1.4c-2.7,0.9-3.6,3-3.6,5.6c0,1,0,2,0,3
			c0,2.2-0.9,3.3-3.2,3.3s-3.2-1.2-3.2-3.4c0-0.8,0-1.6,0-2.4c0-1.9,0.4-3.4,2.6-3.7c0.7-0.1,1.4-0.3,1.4-1.2
			c0.1-0.8-0.4-1.6-1.3-1.8c-1.5-0.2-2.7-1.4-2.9-3c-0.2-0.8-0.9-1.4-1.8-1.3c-0.9,0-1.2,0.6-1.3,1.3c-0.3,1.7-1.7,3.1-3.5,3.3
			C684.9,529.3,685.7,528.1,685.2,527.6z"/>
		<path class="st26" d="M698.8,515.4c-2.8,2-5.5,4.3-8.9,5.4c-0.3-0.7-0.1-1.4,0.6-1.8c2.8-1.8,2.4-4.4,1.8-7l0,0
			c-2.1-0.3-4.5-0.4-4.1-3.6c0-0.4-0.1-0.8-0.1-1.2c-0.9-1.9-0.4-3.7,0-5.6c0-0.5,0-1.1,0-1.6c0.4-0.5,1.1-0.8,1.8-0.8
			c1.8-0.2,3.6,0.1,5.2,0.8c2.6,2,4.4,4.2,3,7.7c-0.2,0.8-0.2,1.6,0,2.3c0,0.4,0.1,0.8,0.3,1.2c0.9,1,1.4,2.3,1.3,3.6
			c0,0.4-0.4,0.6-0.7,0.6C698.9,515.4,698.9,515.4,698.8,515.4z"/>
		<path class="st27" d="M656.1,618.4c-0.8-0.8-2.9-0.3-2.7-1.4c0.5-2.1-1.2-4.3,0.6-6.3c1.5-1.6,2.2-3.4-0.7-4.6
			c-1.1-0.4-0.8-1.5-0.2-2.3c0.4-0.6,0.9-1.1,0.2-1.8s-1.3-0.2-1.8,0.3c-1.7,2.2-1.9-1.2-3.1-0.8c5.8-2,5.9-2.1,6-9
			c0-1.4,0.1-2.8,1.7-2.9c1.8-0.1,1.3,1.6,1.4,2.7c0.3,3-0.2,5.9-1.4,8.6c-0.3,0.6-0.4,1.3-0.3,2C655.9,608.1,655,613.3,656.1,618.4
			z"/>
		<path class="st28" d="M695.4,500.5l-5.6-0.7c-0.4-0.8-2.2-0.2-1.8-1.8c0.1-0.9,0.5-1.7,1.1-2.3c3.2-4.2,7-1.9,10.3-0.7
			s1.3,3.9,0.6,6C698.6,501.6,696.8,501.5,695.4,500.5z"/>
		<path class="st29" d="M673.8,630.5h-7.3c-0.8,0.1-1.6-0.5-1.7-1.3c-0.1-0.9,0.5-1.4,1.2-1.8c1.5-0.8,3.1-1.2,4.7-1.3
			c2-0.3,4-0.2,6,0.1C677.9,629.3,677.2,630.2,673.8,630.5z"/>
		<path class="st30" d="M676.7,554c-2,1.9-3.3,4.3-3.7,7c-0.1,0.9-0.5,1.9-1.9,1.2c-1.2-0.5-2.8-0.4-2-2.6c1.3-3.4,3.7-5.9,6.1-8.4
			c0.9-0.9,2.1-1.5,2.8-2.6c0.3-0.5,0.6-1,1.3-0.5c0.5,1.6-0.8,2.3-1.6,3.2S675.9,552.7,676.7,554z"/>
		<path class="st31" d="M676.7,554c-1.3,0-2.3-0.2-1-1.8c1.2-1.4,3.1-2.2,3.4-4.3c0.8-2.2,2.2-3.6,4.7-3.6c0,2,0,4,0,6h-1.7
			C680.2,551.5,678.8,553.4,676.7,554L676.7,554z"/>
		<path class="st32" d="M645,619c0.5,1.3,0.8,2.9,2.9,2.4c-0.4,1.5-0.8,3-1.2,4.5c-0.7,2.5-2.9,2.4-4.8,2.6c-0.6,0-1.1-0.5-1.1-1.2
			c0,0,0,0,0,0c0-0.3,0.2-1,0.4-1C646.1,625.9,644.5,621.9,645,619z"/>
		<path class="st33" d="M631.6,599.7c-1,1.1-2.3,1.9-3.8,2.2c-0.9,0.2-1.9,0.6-2.1-0.7c-0.2-1.1-0.1-2.2,1.4-2.5
			c0.9-0.2,2,0.2,2.8-0.7C630.4,598.5,631,599.1,631.6,599.7z"/>
		<path class="st34" d="M683.8,543.1c0.6-2.4-0.8-4.9,0.8-7.2c0.3-0.2,0.6-0.1,0.8,0.2c0,0,0,0,0,0c1.6,3.1,1.3,4.9-1.1,7.2
			L683.8,543.1z"/>
		<path class="st35" d="M692.3,511.9c0.7,2.6,2,5.2-1.3,7.1c-0.5,0.3-0.7,1.2-1.1,1.7h-1.3c0-0.7,0.4-1.4,1-1.7
			C692.2,517.4,692.7,514.8,692.3,511.9z"/>
		<path class="st36" d="M676.7,626.2c-1.9,0.8-4.1,0.8-6-0.1c0.2-1,0.8-1.9,1.7-2.4l0.4,0.1c1,1.2,2.8,0.7,3.9,1.8
			C676.7,625.8,676.7,626,676.7,626.2z"/>
		<path class="st37" d="M683.8,544.4c-1.8,0.9-3.7,1.6-4.7,3.6l-1.1,0.6c1-2.6,3.2-4.6,5.9-5.5l0.2,0.1c0.3,0.4,0.3,0.8,0,1.2
			L683.8,544.4z"/>
		<path class="st38" d="M678.5,588.8c0.1,2.8-0.1,5.6-0.6,8.3c-0.1,0.8-0.4,1.3-1.3,1.4c1-2.2,0.7-4.7,1.3-7
			C678.1,590.7,677.5,589.6,678.5,588.8z"/>
		<path class="st30" d="M676.7,554c1.7-1.3,3.2-3.1,5.4-3.6C680.6,552.1,679.5,554.3,676.7,554z"/>
		<path class="st36" d="M673.8,618.3l3,1.2c-1.1,1-2.3,1.7-2.7,3.3c-0.1,0.7-0.7,1.1-1.4,1c-0.1,0-0.1,0-0.2,0l-0.1-0.1
			C672.8,621.9,673.3,620.1,673.8,618.3z"/>
		<path class="st39" d="M685,536.1c-0.2,0-0.3-0.1-0.5-0.1c0.1-2.8-0.6-5.7,0.6-8.4c0.7,0.5,0.5,1.2,0.5,1.8
			c0.3,0.6-0.1,0.9-0.5,1.2c0,1.4-0.1,2.8-0.1,4.2c0.3,0.3,0.3,0.9,0,1.2C685.1,536,685,536.1,685,536.1z"/>
		<path class="st40" d="M675.5,608.1c0,2.3,0.4,4.6-1.1,6.6C674,612.5,674.4,610.2,675.5,608.1z"/>
		<path class="st41" d="M623.3,609.4c1,1.5,2.8,2.6,2.3,4.8C624.7,612.7,622.5,611.7,623.3,609.4z"/>
		<path class="st42" d="M688.1,501.6c0,1.9,0,3.7,0,5.6C686.1,505.3,686.9,503.5,688.1,501.6z"/>
		<path class="st43" d="M688.1,498c0.3,0.9,1.9,0.5,1.8,1.8l-1.8,0.2c-0.5-1.3-2.1-1.2-3.1-2.1C686.3,497.3,687.1,498.5,688.1,498z"
			/>
		<path class="st42" d="M688.3,508.4c0.2,2.5,2.2,3,4.1,3.6C688.1,511.8,688.1,511.8,688.3,508.4z"/>
		<path class="st44" d="M638.3,602.1c-1.8-0.4-3.8-0.2-5.5-1.3C634.6,601.5,636.9,599.9,638.3,602.1z"/>
		<path class="st45" d="M700.8,561.9c1.1-3.2,0.7-6.6,1.2-9.8c0.3-2.1-0.3-4.4,0.6-6.5c1.8-1,3.7-1.3,5.4,0.1
			c0.3,3.5-0.9,6.8-1.8,10.1c-1.7,5.7-1.7,11.7,0.1,17.3c-0.1,0.1-0.2,0.2-0.3,0.3c-0.3,0-0.5-0.2-0.7-0.4c-2.1-2.8-3-2.7-5.2,0.6
			c-1,0.5-2.3,0.2-3-0.7c-0.5-1.2,0.7-2.1,0.5-3.2C699.6,567.5,699.1,564.3,700.8,561.9z"/>
		<path class="st46" d="M719.5,611.2c1,0.8,2.5,1.4,1,3c-0.2,0.2-0.5,0.3-0.8,0.3c-0.2,0-0.4,0-0.6-0.1
			c-6.4-4.9-12.3-10.3-15.8-17.7c-0.7-1-0.8-2.3-0.3-3.5c1.4-1.2,3-0.9,4.5-0.5c0.5,3.7,2.4,7.1,5.3,9.5c1.7,0.8,2,2.7,3,4.1
			C717,607.9,718.3,609.5,719.5,611.2z"/>
		<path class="st47" d="M719.8,614.5l0.8-0.3c2.3,0.6,2.8,3,4.3,4.3c-0.6,1.8-1.6,3.5-3,4.9c-0.5,0.4-1.3,0.2-1.6-0.3
			c-0.1-0.1-0.1-0.2-0.1-0.3c-0.9-2.1-2.5-3.9-2.6-6.3C717.8,615.2,718.4,614.4,719.8,614.5z"/>
		<path class="st48" d="M695.4,500.5c1.6-0.2,3.2,0,4.7,0.5l1.1,0.1c0.8,1.1,2.6,0.6,3.4,2.1c-1.2,0.8-1.9-0.7-3.2-0.7
			c0,1.4-0.3,2.7-0.8,4c-0.8,1.6-1.8,3-3,4.3c-0.8-0.7-1-1.8-0.5-2.7C699,504.9,696.9,502.8,695.4,500.5z"/>
		<path class="st49" d="M707.9,593.3c-1.7,0-3.4-0.7-5,0.5c-1.3,0.3-2.7,0.2-4.1,0.3c-1.4,0-2.8-0.1-4.1-0.4c-0.7-0.2-1.7-0.3-1-1.5
			c3.4-1.2,6.9-0.5,10.4-0.6c4.6-0.2,4.7-0.2,4.7-4.7c0-2,0-4,0-6c0.1-2.9,0.3-5.8-2.7-7.5v-0.3c4.2,0.3,4.2,0.3,4.2,4.4
			s0,8.5,0,12.8c0,0.9,0.5,2-0.5,2.8C709.3,593.5,708.6,593.6,707.9,593.3z"/>
		<path class="st50" d="M707.9,533c0.6,0.6,0.8,1.5,0.6,2.4c-0.2,0.4-0.4,0.7-0.6,1c-0.6,0.5-1.3,1-1.9,1.4c-0.8,0.4-1.6,0.7-2.4,0
			C702.7,534,704.2,532.5,707.9,533z"/>
		<path class="st51" d="M707.9,593.3l1.9-0.2c-2.9,2.3-0.2,4,0.7,5.8c0.6,1.2,2.2,1.7,2.3,3.2C709.6,600.8,707,596.2,707.9,593.3z"
			/>
		<path class="st52" d="M707.9,533c-2.8,0.3-4.7,1.5-4.1,4.8l-0.4,0.3c-0.5,0.1-1-0.2-1.2-0.7c-0.6-3.8,0-4.8,3.4-5.7
			c0.9-0.1,1.8,0.2,2.4,0.8C708,532.6,708,532.8,707.9,533z"/>
		<path class="st53" d="M698.8,515.4l0.8-0.6c2.3,1.6,4,4,4.8,6.7C702.1,519.9,701.5,516.8,698.8,515.4z"/>
		<path class="st54" d="M706.7,528.2c-1.7-1.9-2.9-4-2.3-6.7c0.5,2.8,3,4.8,2.9,7.8c-0.2,0.1-0.5,0-0.7-0.1
			C706.4,528.9,706.4,528.5,706.7,528.2z"/>
		<path class="st55" d="M697.7,510.8c0.3-1.9,1.8-3,3-4.3c0.6,2.3-2.1,2.9-2.4,4.7L697.7,510.8z"/>
		<path class="st56" d="M719.5,611.2c-1.8-1.2-3.1-2.9-3.7-4.9C717.4,607.6,719,608.9,719.5,611.2z"/>
		<path class="st45" d="M708,545.7l-5.4-0.1c0-0.2,0-0.4-0.1-0.6c-0.1-0.3,0-0.6,0.3-0.8c1.7-0.2,3.4-0.1,5.1,0.3
			c0.3,0.1-0.1,0.3,0.1,0.6C707.7,545.3,708.1,545.5,708,545.7z"/>
		<path class="st57" d="M706.7,529.4h0.5c0.2,1,0.4,2,0.6,3.1l-2.3-0.1c-0.2-1,0.1-2,0.8-2.8L706.7,529.4z"/>
		<path class="st58" d="M693.5,592.6c1.7,1.4,4.1-0.3,5.8,1.3c0.5,0.2,0.8,0.6,1,1c3.5,7.7,9,13.8,15.4,19.2c0.8,0.6,1.7,1.1,2,2.1
			c0,1,0,2.1-1.2,2.5s-1.5-0.7-2.2-1.2c-0.5-0.4-0.7-0.9-1.3-1.2c-1-1-2.1-1.9-3.3-2.5c-1-2.8-3.7-3.7-5.7-5.4l0,0
			c-1-1.3-2.2-2.3-3.6-3l0,0c-1.7-2.6-4.2-4.3-6.1-6.7c-1.1-0.7-2-1.5-1.8-2.9c-0.6-1-0.7-2.3-0.3-3.5
			C693.2,591.6,693.5,591.8,693.5,592.6z"/>
		<path class="st59" d="M713.3,616.2c0.6,0.3,1.2,0.7,1.7,1.1c1.9,1.7,2.5,0.8,2.6-1.2c0.2-0.2,0.5-0.2,0.6,0c0,0,0,0,0,0
			c0.3,2.9,2.1,5.1,3.7,7.3c-0.8,0.8-1.5,1.8-1.8,2.9c-0.6-3.8-4.2-5.5-5.9-8.6C713.9,617.1,713.6,616.7,713.3,616.2z"/>
		<path class="st60" d="M672.5,623.8c0.7-0.2,1.1-0.9,1.1-1.6c-0.2-2.3,1.3-2.8,3.1-2.8l0,0c1.9,1,0.4,2.9,1.1,4.3
			c-0.3,0.7-0.4,1.4-1.1,1.8C675.2,625.3,673,626.6,672.5,623.8z"/>
		<path class="st61" d="M682.8,614.2c-0.7-0.5-1-1.4-0.6-2.2c1.3-2.7,2.7-5.4,4-8.1C685.9,607.7,684.1,610.9,682.8,614.2z"/>
		<path class="st62" d="M687.5,601c0.3-2.6-0.9-5.7,2.5-7.3C689.9,596.4,688.3,598.6,687.5,601z"/>
		<path class="st63" d="M704.3,608.2c2.8,0.6,4.4,2.8,6.2,4.7c0.4,0.4-0.2,0.6-0.5,0.7C708.5,611.4,705.7,610.5,704.3,608.2z"/>
		<path class="st64" d="M694.7,598.6c2.3,2,4.9,3.6,6.1,6.7C698.6,603.1,695.9,601.5,694.7,598.6z"/>
		<path class="st65" d="M693,591.9l-0.1,3.8c-0.8-0.4-1.3-1.2-1.2-2.1c0.1-0.9-0.3-1.2-1.2-1c-0.2-1.9,1.8-1.5,2.5-2.5
			C693.5,590.6,693.5,591.3,693,591.9C693,591.8,693,591.9,693,591.9z"/>
		<path class="st63" d="M700.7,605.2c2.1-0.1,3.2,1.1,3.6,3C702.5,607.9,701.8,606.4,700.7,605.2z"/>
		<path class="st36" d="M677.8,623.8c-1-1.3-0.1-3-1.1-4.3l2.4,0.2C678.9,621.1,677.7,622.3,677.8,623.8z"/>
		<path class="st66" d="M693,591.9c0-0.6,0-1.2,0-1.7c0-4.5,0.1-9.1,0.1-13.6c-0.2-1.1,0-2.2,0.5-3.2c1.1-0.9,2.4-0.6,3.7-0.6
			c1,0.6,2.1,0.8,3.2,0.5c1.5-1.1,3.6-1.1,5.1,0l0.7,0.2c3.4,0,3.8,2,3.6,4.8c-0.2,3.7-0.2,7.4,0,11.1c0.1,2.6-1,3.3-3.4,3.2
			c-4.3-0.1-8.6,0-12.9,0L693,591.9z"/>
		<path class="st67" d="M700.8,561.9c-0.5,2.8,0.2,6.1-3,7.8c-0.5-0.8-1.3-1.5-0.5-2.5v-4.8C698.3,561.7,699.6,561.8,700.8,561.9z"
			/>
		<path class="st68" d="M697.2,567.3l0.5,2.5l-0.5,3c-1.1,1-2.4,0.4-3.7,0.6c0.3-0.4,0.6-1,0.9-1c2.3-0.3,2.7-1.5,2-3.5
			C696.4,568.2,696.7,567.5,697.2,567.3z"/>
		<path class="st25" d="M702.6,544.4c0,0.2-0.1,0.4-0.1,0.6c-2,0.4-2.5-1.6-4-2.9c1,4.4-2.3,3.8-4.3,4c-2.9,0.4-5.6-1.7-6-4.6
			c-0.1-1-0.1-2,0-3c0.5-2.9-0.6-5.9-2.9-7.8c0.2-0.4,0.3-0.8,0.5-1.2c1.3-1.1,3.3-1.6,3.1-4c-0.1-1.1,0.9-1.5,1.9-1.4
			s2.6,0.2,2.6,1.4c0,2.3,1.2,2.7,3,3.1c1.1,0.3,1.5,1.5,1.4,2.7c0,0.9-0.7,1.7-1.6,1.8c-0.1,0-0.2,0-0.4,0c-2-0.2-2.3,1-2.2,2.6
			c0.1,1,0.1,2,0,3c-0.2,2,0.9,2.3,2.5,2.3s2.5-0.5,2.3-2.2c-0.1-1,0-2,0-3c-0.1-3.2,1-5.6,4.2-6.8c0.3,0.3,0.4,0.8,0.3,1.3
			c-2.3,2.4-2.7,5.4-2.5,8.6c-0.1,1.7,0.6,3.4,1.9,4.5C702.6,543.4,702.7,543.9,702.6,544.4z"/>
		<path class="st69" d="M685,536.1c0-0.4,0.1-0.9,0.1-1.3c2.5,3.2,2.5,6.5,0,9.6c-0.3,0.4-0.7,0.2-1.1,0c0-0.4,0-0.8,0-1.2
			C686,541.1,686.2,538.7,685,536.1z"/>
		<path class="st70" d="M702.5,529.9v-1.1c1.3-0.5,2.7-0.7,4.1-0.6c0,0.4,0,0.8,0.1,1.2v0.1C705.4,530.2,704.1,531.3,702.5,529.9z"
			/>
		<path class="st71" d="M705.5,573.2h-5.1c0-1.2-1.1-2.9,1.4-3C703.9,570.3,706,570.1,705.5,573.2z"/>
		<path class="st72" d="M718.2,616h-0.6c-8-5.8-14.7-12.7-18.2-22.2c1.2-1.1,2.4-0.8,3.6,0c2.6,8.3,9.2,13.4,15,19.1
			c0.6,0.6,1.2,1.1,1.8,1.6L718.2,616z"/>
		<path class="st73" d="M703.8,537.8l2.3-0.6c0.7,1.2,1.4,2.5,0.7,3.9C703.7,541.4,703.1,540.7,703.8,537.8L703.8,537.8z"/>
		<path class="st74" d="M702.5,529.9l4.1-0.5c-0.6,0.8,0.1,2.2-1.1,2.9c-3.8,0.3-3,3.1-3,5.5l-0.2,0.3c-1,0.7-0.9,1.6-0.5,2.6
			s1.1,2,0.2,3C698.2,540.7,698.5,533.3,702.5,529.9z"/>
		<path class="st45" d="M706.8,540.8L706.8,540.8c0.2,0.7,0.2,0.7,0.4,1.4c-1.3,0.9-3,0.8-4.1-0.3c-1.2-0.9-1.6-2.6-0.7-3.8
			c0,0,0-0.1,0.1-0.1l0.1-0.2l1.2,0.1C703.7,539.9,704.5,541.1,706.8,540.8z"/>
		<path class="st45" d="M702.4,537.9c0.4,3.9,0.6,4,4.9,4.1l0.5,2.9c-1.8,0.2-3.6,0.1-5.3-0.5l-0.6-0.7c0.1-1.4-0.8-2.6-1.3-3.9
			C700,538,700.7,537.6,702.4,537.9z"/>
		<path class="st25" d="M689.4,536.9c-0.7-1.6,1.5-4.4-1.8-5.3c-0.1-0.3-0.1-0.7,0-1c1.3-1.3,2-3,3-4.4c0.8-1.2,1.9,0.1,1.8,1.5
			s0.2,2.3,1.9,1.9c0.8-0.2,1.7,0,1.7,1.2s-0.9,1.2-1.7,1.2c-1.7-0.1-1.9,1-1.9,2.3c0.1,1.3,0.1,2.6,0,3.9c-0.2,2.4,0,4.5,3.4,4.1
			c0.6-0.2,1.2,0.2,1.4,0.8c0,0.1,0,0.2,0,0.3c0,0.9-0.5,1.2-1.2,1.5c-2.5,1-5.3-0.3-6.2-2.8c-0.1-0.3-0.2-0.7-0.3-1
			C689.3,539.6,689.3,538.3,689.4,536.9z"/>
	</g>
</g>
</svg>
