<?xml version="1.0" encoding="utf-8"?>
<!-- Generator: Adobe Illustrator 23.0.5, SVG Export Plug-In . SVG Version: 6.00 Build 0)  -->
<svg version="1.1" id="Layer_1" xmlns="http://www.w3.org/2000/svg" xmlns:xlink="http://www.w3.org/1999/xlink" x="0px" y="0px"
	 viewBox="0 0 9.9 13.3" style="enable-background:new 0 0 9.9 13.3;" xml:space="preserve">
<style type="text/css">
	.st0{fill:#1B4DE4;stroke:#1B4DE4;stroke-width:8.000000e-02;stroke-miterlimit:10;}
	.st1{fill:#1B4DE4;stroke:#1B4DE4;stroke-width:0.149;stroke-miterlimit:10;}
</style>
<title>Asset 1</title>
<g>
	<path class="st0" d="M7.5,6.3C7.4,6.4,7.4,6.5,7.3,6.6C6.2,7.7,5.1,8.8,4,9.9c-0.2,0.2-0.5,0.5-0.7,0.7c-0.2,0.2-0.4,0.2-0.6,0
		c-0.2-0.2-0.2-0.4,0-0.6C4,8.7,5.4,7.4,6.7,6C6.9,5.8,7,5.8,7.2,5.9C7.3,5.9,7.4,6.1,7.5,6.3z"/>
	<path class="st0" d="M3.8,5C4.4,5,5,5.6,5,6.3c0,0.7-0.6,1.3-1.2,1.2c-0.7,0-1.2-0.6-1.2-1.2C2.5,5.6,3.1,5,3.8,5z M4.2,6.3
		C4.2,6,4,5.8,3.7,5.9C3.5,5.9,3.3,6,3.3,6.3c0,0.2,0.2,0.4,0.4,0.4C4,6.7,4.2,6.5,4.2,6.3z"/>
	<path class="st0" d="M6.2,9.2c0.7,0,1.2,0.6,1.2,1.3c0,0.7-0.6,1.2-1.2,1.2c-0.7,0-1.2-0.6-1.2-1.3C5,9.7,5.5,9.2,6.2,9.2z
		 M6.2,10.8c0.2,0,0.4-0.2,0.4-0.4c0-0.2-0.2-0.4-0.4-0.4c-0.2,0-0.4,0.2-0.4,0.4C5.8,10.6,6,10.8,6.2,10.8z"/>
	<g>
		<path class="st1" d="M9.9,8.2c0,1.3-0.4,2.3-1.1,3.2C8,12.3,7,12.9,5.9,13.1c-1.2,0.2-2.4,0-3.5-0.7c-1.1-0.7-1.9-1.8-2.2-3.1
			c-0.2-1-0.1-2,0.3-3C0.8,5.5,1.4,4.8,1.9,4c0.8-1,1.5-2,2.3-3c0.2-0.2,0.3-0.4,0.4-0.7C4.8,0,5.2,0,5.4,0.3c0.6,1,1.3,1.9,2,2.8
			C8,3.9,8.6,4.7,9,5.5c0.4,0.6,0.6,1.3,0.8,2.1C9.9,7.8,9.9,8,9.9,8.2z M5,1.3C4.7,1.6,4.4,2,4.2,2.4C3.5,3.2,2.9,4.1,2.3,4.9
			C1.8,5.5,1.4,6.2,1.1,7c-0.3,0.9-0.3,1.8,0,2.7c0.4,1,1,1.8,2,2.3c1,0.5,2,0.6,3,0.3C6.9,12,7.5,11.6,8,11c0.6-0.7,0.9-1.4,1-2.3
			c0.1-0.7,0-1.4-0.3-2C8.4,5.9,8,5.3,7.5,4.6C6.7,3.5,5.8,2.4,5,1.3z"/>
	</g>
</g>
</svg>
