<?xml version="1.0" encoding="utf-8"?>
<!-- Generator: Adobe Illustrator 23.0.5, SVG Export Plug-In . SVG Version: 6.00 Build 0)  -->
<svg version="1.1" id="Layer_1" xmlns="http://www.w3.org/2000/svg" xmlns:xlink="http://www.w3.org/1999/xlink" x="0px" y="0px"
	 viewBox="0 0 9.9 13.3" style="enable-background:new 0 0 9.9 13.3;" xml:space="preserve">
<style type="text/css">
	.st0{fill:#FFFFFF;}
</style>
<title>Asset 3</title>
<g>
	<path class="st0" d="M9.9,8.2c0,1.3-0.4,2.3-1.1,3.2C8,12.3,7,12.9,5.9,13.1c-1.2,0.2-2.4,0-3.5-0.7c-1.1-0.7-1.9-1.8-2.2-3.1
		c-0.2-1-0.1-2,0.3-3C0.8,5.5,1.4,4.8,1.9,4c0.8-1,1.5-2,2.3-3c0.2-0.2,0.3-0.4,0.4-0.7C4.8,0,5.2,0,5.4,0.3c0.6,1,1.3,1.9,2,2.8
		C8,3.9,8.6,4.7,9,5.5c0.4,0.6,0.6,1.3,0.8,2.1C9.9,7.8,9.9,8,9.9,8.2z"/>
</g>
</svg>
