<?xml version="1.0" encoding="utf-8"?>
<!-- Generator: Adobe Illustrator 23.0.5, SVG Export Plug-In . SVG Version: 6.00 Build 0)  -->
<svg version="1.1" id="Layer_1" xmlns="http://www.w3.org/2000/svg" xmlns:xlink="http://www.w3.org/1999/xlink" x="0px" y="0px"
	 viewBox="0 0 9.9 13.3" style="enable-background:new 0 0 9.9 13.3;" xml:space="preserve">
<style type="text/css">
	.st0{fill:#FFFFFF;}
</style>
<title>Asset 3</title>
<g>
	<path class="st0" d="M9.8,7.6C9.7,6.8,9.4,6.2,9.1,5.5C8.6,4.7,8,3.9,7.4,3.2C6.7,2.3,6,1.3,5.4,0.3C5.2,0,4.8,0,4.6,0.3
		C4.5,0.6,4.3,0.8,4.2,1C3.4,2,2.7,3,1.9,4C1.4,4.8,0.9,5.5,0.5,6.4c-0.4,1-0.5,2-0.3,3c0.3,1.3,1,2.3,2.2,3.1
		c1.1,0.7,2.2,0.9,3.5,0.7C7,12.9,8,12.3,8.8,11.4c0.8-0.9,1.1-2,1.1-3.2C9.9,8.1,9.9,7.8,9.8,7.6z M4.2,11C4.1,11,4.1,11,4.2,11
		c-2-0.3-2.5-2-2.5-2.9c0-0.3,0.2-0.5,0.5-0.5c0.3,0,0.5,0.2,0.5,0.5c0,0.1,0,1.7,1.6,1.9c0.3,0,0.5,0.3,0.4,0.6
		C4.6,10.8,4.4,11,4.2,11z"/>
</g>
</svg>
