<svg xmlns="http://www.w3.org/2000/svg" viewBox="0 0 376.55 424.22"><defs><style>.cls-1{fill:#1b4de4;}</style></defs><title>Sunset</title><g id="Layer_2" data-name="Layer 2"><g id="Layer_1-2" data-name="Layer 1"><path class="cls-1" d="M294.45,389h25.88c13,0,26-.17,39,.07a17.55,17.55,0,0,1,4.62,34.4,28.29,28.29,0,0,1-7.42.72q-129.46,0-258.92,0c-26.32,0-52.65.11-79,0C5,424.07-3.62,411.83,1.49,399.94c3.31-7.7,9.62-11,17.93-11q34.48.09,69,.05h5.81c-.91-34.61,11.5-63,38.38-84.54,19.51-15.6,42.14-22.5,67-21.25C250.7,285.73,296.73,328.84,294.45,389Zm-36.57-.12C261.49,372.2,253.32,344,229,328.6a65.16,65.16,0,0,0-76.39,4.92c-16.82,14-26.09,39.16-21.9,55.33Z"/><path class="cls-1" d="M232.7,69l.65-.68.09.09C233.18,68.6,232.94,68.8,232.7,69Z"/><path class="cls-1" d="M211.85,224.9c0,5.49.13,11,0,16.48-.3,10.58-7.48,17.95-17.37,18.06s-17.7-7.54-17.89-18.17q-.3-17,0-34c.18-10.7,7.78-18.38,17.73-18.38,9.68,0,17.16,7.5,17.61,18,.25,6,0,12,0,18Z"/><path class="cls-1" d="M79.22,247.73c2,1.09,6.49,2.46,9.61,5.3,8.23,7.51,16,15.56,23.75,23.56a17.47,17.47,0,0,1,.37,24.35c-6.49,7-17,7.88-24.22,1.26-8.83-8.09-17.26-16.64-25.45-25.37-5.15-5.49-5.7-12.31-2.48-19.05C64,251.19,69.56,248,79.22,247.73Z"/><path class="cls-1" d="M311.76,246.86c7.58,1.28,12.88,4.59,15.95,11s2.75,13-2,18.21c-8.55,9.29-17.47,18.29-26.77,26.83-6.4,5.87-16.95,4.67-23.12-1.65s-7.06-16.78-1.12-23.17c8.37-9,17.12-17.7,26.19-26C303.7,249.45,308.08,248.54,311.76,246.86Z"/><path class="cls-1" d="M126.3,91A18.26,18.26,0,0,1,160,81.19l16.89,17.32v-75a18.26,18.26,0,1,1,35.75-5.26,18.48,18.48,0,0,1-.34,3.51V98.38L229.93,79.9,232.7,77c.24-.2.48-.4.74-.59a18.26,18.26,0,0,1,23.19,28.16l-.74.76q-23.5,23.52-47,47c-9.33,9.28-19.09,9.31-28.39.06Q157,129.05,133.67,105.61l0,0A18.21,18.21,0,0,1,126.3,91Z"/></g></g></svg>