<svg xmlns="http://www.w3.org/2000/svg" viewBox="0 0 215.83 497.5"><defs><style>.cls-1{fill:#1b4de4;}</style></defs><title>Thermometer</title><g id="Layer_2" data-name="Layer 2"><g id="Layer_1-2" data-name="Layer 1"><path class="cls-1" d="M140.82,180.78c0,45.16.06,90.33-.08,135.49,0,4.18,1.32,6.55,4.86,8.79,49.42,31.35,56.79,103.7,14.83,144.58-28.61,27.87-67.71,35.72-104.35,19.52-56.37-24.91-72.52-94-38-140.86a102.24,102.24,0,0,1,25.71-24.1c3-2,3.64-4.46,3.63-7.53q-.14-81-.28-162c0-35.95-.18-71.91,0-107.86C47.38,11.12,85.31-11.34,116.41,6c15.94,8.86,24.33,22.91,24.37,41.35C140.89,91.79,140.82,136.29,140.82,180.78Zm-74.53,6.8c0,46.49-.05,93,.09,139.47,0,4.46-1,7-5.41,9.17C32.45,350.43,17,378.67,19.6,411c2.31,28.79,23.59,55,51.73,63.83A75.23,75.23,0,0,0,163.5,431.3c14.7-35.93-1.06-77.33-36.49-95.09-4.05-2-5.37-4.19-5.36-8.66q.22-117.24.11-234.49c0-15.5.14-31-.07-46.49a27.54,27.54,0,0,0-19.58-26.2C90.38,16.88,78.52,21,71.19,31.11c-4,5.54-4.92,11.84-4.92,18.48Q66.35,118.57,66.29,187.58Z"/><path class="cls-1" d="M160,74.41V56.89h55.49V74.41Z"/><path class="cls-1" d="M160.06,131.33h28.76c7.32,0,14.66.2,22-.08,4.05-.15,5.27,1.35,5,5.2-.28,4.13-.06,8.3-.06,13H160.06Z"/><path class="cls-1" d="M159.93,224.83V206.89a13.41,13.41,0,0,1,2.45-.49c16.47,0,32.94,0,49.4-.09,3.06,0,4.14,1.11,4,4.1-.18,3.65.2,7.34-.19,11-.13,1.24-1.85,3.3-2.87,3.32C195.29,224.89,177.86,224.83,159.93,224.83Z"/><path class="cls-1" d="M160.07,281.79h55.34v17.6H160.07Z"/><path class="cls-1" d="M160.13,94.11H187.2v18.1H160.13Z"/><path class="cls-1" d="M187.47,169.3V187H160V169.3Z"/><path class="cls-1" d="M187.37,244.17V262H160V244.17Z"/><path class="cls-1" d="M84.43,159.83h19.14v6.67q0,92.49-.07,185c0,4,.86,5.9,5.11,7.36,18.13,6.21,29.22,19.12,31.83,38.09,2.76,20.1-5.11,36.18-22.38,46.64-17,10.27-34.49,9.59-50.81-1.74-16-11.08-22.66-26.93-19.56-46.07C50.74,377,62,364.53,80,358.59c4-1.32,4.5-3.31,4.5-6.82q-.12-92.49-.06-185Zm9.63,271.39a27.68,27.68,0,0,0,27.8-27.42c.06-16-12.1-28.32-27.95-28.28a27.85,27.85,0,1,0,.15,55.7Z"/></g></g></svg>