<?xml version="1.0" encoding="utf-8"?>
<!-- Generator: Adobe Illustrator 23.0.5, SVG Export Plug-In . SVG Version: 6.00 Build 0)  -->
<svg version="1.1" id="Layer_1" xmlns="http://www.w3.org/2000/svg" xmlns:xlink="http://www.w3.org/1999/xlink" x="0px" y="0px"
	 viewBox="0 0 12.9 13.1" style="enable-background:new 0 0 12.9 13.1;" xml:space="preserve">
<style type="text/css">
	.st0{fill:none;stroke:#1B4DE4;stroke-width:1.1697;stroke-miterlimit:10;}
	.st1{fill:#1B4DE4;}
</style>
<title>Asset 2</title>
<circle class="st0" cx="6.5" cy="6.5" r="2.7"/>
<path class="st1" d="M7,1.3c0,0.2,0,0.4,0,0.5c0,0.4-0.2,0.6-0.6,0.6c-0.3,0-0.6-0.2-0.6-0.6c0-0.4,0-0.8,0-1.1
	c0-0.4,0.3-0.6,0.6-0.6C6.8,0.1,7,0.3,7,0.7C7,0.9,7,1.1,7,1.3L7,1.3z"/>
<path class="st1" d="M3.1,2.4c0.1,0.1,0.3,0.3,0.4,0.4c0.2,0.3,0.2,0.6,0,0.8C3.3,3.9,3,3.9,2.7,3.6C2.4,3.4,2.2,3.1,1.9,2.8
	C1.7,2.6,1.7,2.2,1.9,2c0.2-0.2,0.6-0.2,0.8,0C2.9,2.1,3,2.3,3.1,2.4L3.1,2.4z"/>
<path class="st1" d="M1.2,6c0.2,0,0.4,0,0.5,0c0.4,0,0.6,0.2,0.6,0.6c0,0.3-0.2,0.6-0.6,0.6c-0.4,0-0.8,0-1.1,0C0.3,7.1,0,6.9,0,6.5
	C0,6.2,0.2,6,0.6,6C0.8,6,1,6,1.2,6L1.2,6z"/>
<path class="st1" d="M2.3,9.9c0.1-0.1,0.3-0.3,0.4-0.4c0.3-0.2,0.6-0.2,0.8,0s0.2,0.6,0,0.8c-0.3,0.3-0.5,0.5-0.8,0.8
	c-0.3,0.2-0.6,0.2-0.8,0c-0.2-0.2-0.2-0.6,0-0.8C2,10.1,2.2,10,2.3,9.9L2.3,9.9z"/>
<path class="st1" d="M5.9,11.8c0-0.2,0-0.4,0-0.5c0-0.4,0.2-0.6,0.6-0.6c0.3,0,0.6,0.2,0.6,0.6c0,0.4,0,0.8,0,1.1
	C7,12.7,6.8,13,6.5,13c-0.3,0-0.6-0.2-0.6-0.6C5.9,12.2,5.9,12,5.9,11.8L5.9,11.8z"/>
<path class="st1" d="M9.8,10.7c-0.1-0.1-0.3-0.3-0.4-0.4c-0.2-0.3-0.2-0.6,0-0.8c0.2-0.2,0.6-0.2,0.8,0c0.3,0.3,0.5,0.5,0.8,0.8
	c0.2,0.3,0.2,0.6,0,0.8c-0.2,0.2-0.6,0.2-0.8,0C10,11,9.9,10.8,9.8,10.7L9.8,10.7z"/>
<path class="st1" d="M11.7,7.1c-0.2,0-0.4,0-0.5,0c-0.4,0-0.6-0.2-0.6-0.6c0-0.3,0.2-0.6,0.6-0.6c0.4,0,0.8,0,1.1,0
	c0.4,0,0.6,0.3,0.6,0.6c0,0.3-0.2,0.6-0.6,0.6C12.1,7.1,11.9,7.1,11.7,7.1L11.7,7.1z"/>
<path class="st1" d="M10.6,3.2c-0.1,0.1-0.3,0.3-0.4,0.4c-0.3,0.2-0.6,0.2-0.8,0C9.1,3.4,9.1,3,9.4,2.8C9.6,2.5,9.9,2.3,10.2,2
	c0.3-0.2,0.6-0.2,0.8,0c0.2,0.2,0.2,0.6,0,0.8C10.9,3,10.7,3.1,10.6,3.2L10.6,3.2z"/>
</svg>
