<svg xmlns="http://www.w3.org/2000/svg" viewBox="0 0 529.74 378.33"><defs><style>.cls-1{fill:#1b4de4;}</style></defs><title>Asset 5</title><g id="Layer_2" data-name="Layer 2"><g id="Layer_1-2" data-name="Layer 1"><path class="cls-1" d="M467.94,226.1a72.66,72.66,0,0,1-13.88,1.37q-215.22.1-430.45.05H19.05l-1.05,0a19,19,0,0,1,1.05-38.06v.09H451.27c21.63,0,36.23-12.21,39.9-33.35,3.16-18.2-11.16-38.31-29.62-41.6-20.28-3.61-38.21,7.46-44,27.32a88,88,0,0,0-1.71,9.26h.05a18.92,18.92,0,0,1-37.83.17H378c.59-21,7.87-38.95,22.68-53.62C414.15,84.31,430.59,76.81,449.55,76c26.54-1.2,48.59,8.74,64.6,29.93C548.27,151.05,523.47,215.17,467.94,226.1Z"/><path d="M19.05,227.52H18v0Z"/><path class="cls-1" d="M298.16,150a62.81,62.81,0,0,1-12.35,1.45q-112.5.14-225,.06H57.34c-.46,0-.92,0-1.37-.05a19,19,0,0,1,1.37-38v.09H62q109.49,0,219,0c23.87,0,40.41-16.89,39.76-40.58-.45-16.7-16.28-32.67-32.94-34.57-20.09-2.28-37.39,11-41.35,28.56-.6,2.64-.87,5.35-1.3,8.22a18.71,18.71,0,0,1-37.41.19,1.28,1.28,0,0,1,0-.19v-.1c-.42-15.5,4.18-29.28,12.77-41.73,15.17-22,36.51-33.27,63-33.32a75.75,75.75,0,0,1,14.67,150Z"/><path d="M57.34,151.52H56v-.05C56.42,151.5,56.88,151.52,57.34,151.52Z"/><path class="cls-1" d="M207.78,75.34h0v-.19A1.28,1.28,0,0,0,207.78,75.34Z"/><path class="cls-1" d="M454,322.46c-.18,27.35-17.85,50.82-46.43,55.8-34.58,1.17-62.38-13.18-64.81-44.12l-.16,0a18.25,18.25,0,0,1,34.14-11.48h.06c2.2,4.5,3.54,9.08,6.31,12.53,5.2,6.46,16.13,7.74,23.73,3.61,7-3.8,10.79-13.17,8.68-21.54-2.19-8.65-8.93-13.75-18.23-13.75H131.83v.1a19.05,19.05,0,0,1,0-38.1h266C429.48,265.52,454.17,290.8,454,322.46Z"/></g></g></svg>